M48
; DRILL file {KiCad 8.0.6-8.0.6-0~ubuntu24.04.1} date 2024-11-30T23:26:54+0100
; FORMAT={-:-/ absolute / metric / decimal}
; #@! TF.CreationDate,2024-11-30T23:26:54+01:00
; #@! TF.GenerationSoftware,Kicad,Pcbnew,8.0.6-8.0.6-0~ubuntu24.04.1
; #@! TF.FileFunction,Plated,1,2,PTH
FMAT,2
METRIC
; #@! TA.AperFunction,Plated,PTH,ViaDrill
T1C0.300
; #@! TA.AperFunction,Plated,PTH,ViaDrill
T2C0.400
; #@! TA.AperFunction,Plated,PTH,ComponentDrill
T3C0.800
; #@! TA.AperFunction,Plated,PTH,ComponentDrill
T4C1.000
%
G90
G05
T1
X112.51Y-68.275
X120.08Y-71.165
X121.4Y-72.105
X122.64Y-70.335
X123.91Y-73.455
X126.47Y-74.615
X127.72Y-69.315
X128.99Y-75.045
X131.55Y-75.065
X132.17Y-56.415
X134.07Y-62.165
X136.6Y-65.835
X139.167Y-65.798
X141.68Y-61.255
X144.24Y-80.645
X149.3Y-82.79
X154.73Y-69.195
X156.93Y-70.035
X156.94Y-78.945
X156.95Y-82.935
X162.01Y-69.305
X162.68Y-79.165
X163.29Y-64.516
X164.94Y-80.405
X165.55Y-68.655
X166.005Y-72.13
X167.06Y-76.735
X168.345Y-78.835
X168.72Y-76.41
X170.915Y-81.935
X172.141Y-59.264
X172.22Y-62.865
X172.22Y-78.735
X174.72Y-78.135
X176.05Y-78.745
X177.41Y-81.065
X179.73Y-78.155
X184.235Y-79.53
X185.505Y-82.735
T2
X97.93Y-60.805
X97.98Y-71.275
X99.63Y-85.085
X104.78Y-62.365
X104.88Y-70.435
X105.27Y-83.865
X105.98Y-91.385
X107.0Y-55.215
X112.05Y-66.625
X113.76Y-55.79
X116.15Y-53.845
X118.93Y-91.325
X125.9Y-54.835
X139.04Y-91.505
X141.43Y-55.065
X149.09Y-89.735
X150.97Y-74.835
X151.06Y-79.675
X157.0Y-92.055
X158.15Y-71.655
X163.06Y-82.295
X163.33Y-71.185
X164.2Y-79.395
X164.8Y-83.545
X166.45Y-54.965
X167.99Y-82.315
X168.38Y-71.295
X169.71Y-90.495
X170.87Y-71.285
X170.91Y-64.262
X171.14Y-55.045
X173.28Y-55.935
X173.46Y-83.425
X173.47Y-76.485
X173.48Y-71.255
X173.63Y-79.115
X175.94Y-71.265
X175.97Y-76.515
X176.03Y-80.405
X176.05Y-83.425
X178.7Y-71.245
X179.08Y-90.175
X179.29Y-54.385
X179.78Y-83.395
X181.66Y-78.975
X181.88Y-71.195
X182.82Y-83.395
X186.75Y-87.115
X186.91Y-81.985
X186.95Y-70.535
X187.15Y-63.015
X187.7Y-60.875
X187.99Y-75.615
T3
X158.215Y-66.69
X158.215Y-74.31
X160.755Y-66.69
X160.755Y-74.31
X163.295Y-66.69
X163.295Y-74.31
X165.835Y-66.69
X165.835Y-74.31
X168.375Y-66.69
X168.375Y-74.31
X170.915Y-66.69
X170.915Y-74.31
X173.455Y-66.69
X173.455Y-74.31
X175.995Y-66.69
X175.995Y-74.31
X178.535Y-66.69
X178.535Y-74.31
X181.075Y-66.69
X181.075Y-74.31
T4
X102.27Y-85.64
X102.27Y-88.18
X102.33Y-57.785
X102.33Y-60.325
X104.81Y-85.64
X104.81Y-88.18
X104.87Y-57.785
X104.87Y-60.325
X107.35Y-85.64
X107.35Y-88.18
X107.41Y-57.785
X107.41Y-60.325
X109.89Y-85.64
X109.89Y-88.18
X109.95Y-57.785
X109.95Y-60.325
X112.43Y-85.64
X112.43Y-88.18
X112.49Y-57.785
X112.49Y-60.325
X114.97Y-85.64
X114.97Y-88.18
X115.03Y-57.785
X115.03Y-60.325
X117.51Y-85.64
X117.51Y-88.18
X117.57Y-57.785
X117.57Y-60.325
X120.05Y-85.64
X120.05Y-88.18
X120.11Y-57.785
X120.11Y-60.325
X122.59Y-85.64
X122.59Y-88.18
X122.65Y-57.785
X122.65Y-60.325
X125.13Y-85.64
X125.13Y-88.18
X125.19Y-57.785
X125.19Y-60.325
X127.67Y-85.64
X127.67Y-88.18
X127.73Y-57.785
X127.73Y-60.325
X130.21Y-85.64
X130.21Y-88.18
X130.27Y-57.785
X130.27Y-60.325
X132.75Y-85.64
X132.75Y-88.18
X132.81Y-57.785
X132.81Y-60.325
X135.29Y-85.64
X135.29Y-88.18
X135.35Y-57.785
X135.35Y-60.325
X137.83Y-85.64
X137.83Y-88.18
X137.89Y-57.785
X137.89Y-60.325
X140.37Y-85.64
X140.37Y-88.18
X140.43Y-57.785
X140.43Y-60.325
X142.91Y-85.64
X142.91Y-88.18
X142.97Y-57.785
X142.97Y-60.325
X145.45Y-85.64
X145.45Y-88.18
X145.51Y-57.785
X145.51Y-60.325
X147.99Y-85.64
X147.99Y-88.18
X148.05Y-57.785
X148.05Y-60.325
X150.53Y-85.64
X150.53Y-88.18
X150.59Y-57.785
X150.59Y-60.325
X153.07Y-85.64
X153.07Y-88.18
X153.13Y-57.785
X153.13Y-60.325
X155.61Y-85.64
X155.61Y-88.18
X155.67Y-57.785
X155.67Y-60.325
X158.15Y-85.64
X158.15Y-88.18
X158.21Y-57.785
X158.21Y-60.325
X160.69Y-85.64
X160.69Y-88.18
X160.75Y-57.785
X160.75Y-60.325
X163.23Y-85.64
X163.23Y-88.18
X163.29Y-57.785
X163.29Y-60.325
X165.77Y-85.64
X165.77Y-88.18
X165.83Y-57.785
X165.83Y-60.325
X168.31Y-85.64
X168.31Y-88.18
X168.37Y-57.785
X168.37Y-60.325
X170.85Y-85.64
X170.85Y-88.18
X170.91Y-57.785
X170.91Y-60.325
X173.39Y-85.64
X173.39Y-88.18
X173.45Y-57.785
X173.45Y-60.325
X175.93Y-85.64
X175.93Y-88.18
X175.99Y-57.785
X175.99Y-60.325
X178.47Y-85.64
X178.47Y-88.18
X178.53Y-57.785
X178.53Y-60.325
X181.01Y-85.64
X181.01Y-88.18
X181.07Y-57.785
X181.07Y-60.325
M30
