%TF.GenerationSoftware,KiCad,Pcbnew,8.0.6-8.0.6-0~ubuntu24.04.1*%
%TF.CreationDate,2024-11-30T23:26:36+01:00*%
%TF.ProjectId,qlexternal512kram_MIX,716c6578-7465-4726-9e61-6c3531326b72,3*%
%TF.SameCoordinates,Original*%
%TF.FileFunction,Copper,L2,Bot*%
%TF.FilePolarity,Positive*%
%FSLAX46Y46*%
G04 Gerber Fmt 4.6, Leading zero omitted, Abs format (unit mm)*
G04 Created by KiCad (PCBNEW 8.0.6-8.0.6-0~ubuntu24.04.1) date 2024-11-30 23:26:36*
%MOMM*%
%LPD*%
G01*
G04 APERTURE LIST*
G04 Aperture macros list*
%AMRoundRect*
0 Rectangle with rounded corners*
0 $1 Rounding radius*
0 $2 $3 $4 $5 $6 $7 $8 $9 X,Y pos of 4 corners*
0 Add a 4 corners polygon primitive as box body*
4,1,4,$2,$3,$4,$5,$6,$7,$8,$9,$2,$3,0*
0 Add four circle primitives for the rounded corners*
1,1,$1+$1,$2,$3*
1,1,$1+$1,$4,$5*
1,1,$1+$1,$6,$7*
1,1,$1+$1,$8,$9*
0 Add four rect primitives between the rounded corners*
20,1,$1+$1,$2,$3,$4,$5,0*
20,1,$1+$1,$4,$5,$6,$7,0*
20,1,$1+$1,$6,$7,$8,$9,0*
20,1,$1+$1,$8,$9,$2,$3,0*%
G04 Aperture macros list end*
%TA.AperFunction,ComponentPad*%
%ADD10RoundRect,0.249999X0.525001X0.525001X-0.525001X0.525001X-0.525001X-0.525001X0.525001X-0.525001X0*%
%TD*%
%TA.AperFunction,ComponentPad*%
%ADD11C,1.550000*%
%TD*%
%TA.AperFunction,ComponentPad*%
%ADD12RoundRect,0.249999X-0.525001X-0.525001X0.525001X-0.525001X0.525001X0.525001X-0.525001X0.525001X0*%
%TD*%
%TA.AperFunction,ComponentPad*%
%ADD13R,1.600000X2.400000*%
%TD*%
%TA.AperFunction,ComponentPad*%
%ADD14O,1.600000X2.400000*%
%TD*%
%TA.AperFunction,ViaPad*%
%ADD15C,0.800000*%
%TD*%
%TA.AperFunction,ViaPad*%
%ADD16C,0.600000*%
%TD*%
%TA.AperFunction,Conductor*%
%ADD17C,0.400000*%
%TD*%
%TA.AperFunction,Conductor*%
%ADD18C,0.250000*%
%TD*%
%TA.AperFunction,Conductor*%
%ADD19C,0.300000*%
%TD*%
G04 APERTURE END LIST*
D10*
%TO.P,J1,a1,GND*%
%TO.N,GND*%
X181070000Y-57785000D03*
D11*
%TO.P,J1,a2,D3*%
%TO.N,/D3*%
X178530000Y-57785000D03*
%TO.P,J1,a3,D4*%
%TO.N,/D4*%
X175990000Y-57785000D03*
%TO.P,J1,a4,D5*%
%TO.N,/D5*%
X173450000Y-57785000D03*
%TO.P,J1,a5,D6*%
%TO.N,/D6*%
X170910000Y-57785000D03*
%TO.P,J1,a6,D7*%
%TO.N,/D7*%
X168370000Y-57785000D03*
%TO.P,J1,a7,A19*%
%TO.N,/A19*%
X165830000Y-57785000D03*
%TO.P,J1,a8,A18*%
%TO.N,/A18*%
X163290000Y-57785000D03*
%TO.P,J1,a9,A17*%
%TO.N,/A17*%
X160750000Y-57785000D03*
%TO.P,J1,a10,A16*%
%TO.N,/A16*%
X158210000Y-57785000D03*
%TO.P,J1,a11,CLKCPU*%
%TO.N,/CLKCPU*%
X155670000Y-57785000D03*
%TO.P,J1,a12,RED*%
%TO.N,/RED*%
X153130000Y-57785000D03*
%TO.P,J1,a13,A14*%
%TO.N,/A14*%
X150590000Y-57785000D03*
%TO.P,J1,a14,A13*%
%TO.N,/A13*%
X148050000Y-57785000D03*
%TO.P,J1,a15,A12*%
%TO.N,/A12*%
X145510000Y-57785000D03*
%TO.P,J1,a16,A11*%
%TO.N,/A11*%
X142970000Y-57785000D03*
%TO.P,J1,a17,A10*%
%TO.N,/A10*%
X140430000Y-57785000D03*
%TO.P,J1,a18,A9*%
%TO.N,/A9*%
X137890000Y-57785000D03*
%TO.P,J1,a19,A8*%
%TO.N,/A8*%
X135350000Y-57785000D03*
%TO.P,J1,a20,A7*%
%TO.N,/A7*%
X132810000Y-57785000D03*
%TO.P,J1,a21,A6*%
%TO.N,/A6*%
X130270000Y-57785000D03*
%TO.P,J1,a22,A5*%
%TO.N,/A5*%
X127730000Y-57785000D03*
%TO.P,J1,a23,A4*%
%TO.N,/A4*%
X125190000Y-57785000D03*
%TO.P,J1,a24,A3*%
%TO.N,/A3*%
X122650000Y-57785000D03*
%TO.P,J1,a25,~{DBG}*%
%TO.N,/DBG*%
X120110000Y-57785000D03*
%TO.P,J1,a26,SP2*%
%TO.N,/SP2*%
X117570000Y-57785000D03*
%TO.P,J1,a27,~{DSMC}*%
%TO.N,/DSMC*%
X115030000Y-57785000D03*
%TO.P,J1,a28,SP1*%
%TO.N,/SP1*%
X112490000Y-57785000D03*
%TO.P,J1,a29,SP0*%
%TO.N,/SP0*%
X109950000Y-57785000D03*
%TO.P,J1,a30,+12V*%
%TO.N,/ma12v*%
X107410000Y-57785000D03*
%TO.P,J1,a31,-12V*%
%TO.N,/me12v*%
X104870000Y-57785000D03*
%TO.P,J1,a32,Vin*%
%TO.N,+9V*%
X102330000Y-57785000D03*
%TO.P,J1,b1,GND*%
%TO.N,GND*%
X181070000Y-60325000D03*
%TO.P,J1,b2,D2*%
%TO.N,/D2*%
X178530000Y-60325000D03*
%TO.P,J1,b3,D1*%
%TO.N,/D1*%
X175990000Y-60325000D03*
%TO.P,J1,b4,D0*%
%TO.N,/D0*%
X173450000Y-60325000D03*
%TO.P,J1,b5,~{AS}*%
%TO.N,/AS*%
X170910000Y-60325000D03*
%TO.P,J1,b6,~{DS}*%
%TO.N,/DS*%
X168370000Y-60325000D03*
%TO.P,J1,b7,~{DRW}*%
%TO.N,/RW*%
X165830000Y-60325000D03*
%TO.P,J1,b8,~{DTACK}*%
%TO.N,/DTACK*%
X163290000Y-60325000D03*
%TO.P,J1,b9,~{BG}*%
%TO.N,/BG*%
X160750000Y-60325000D03*
%TO.P,J1,b10,~{BR}*%
%TO.N,/BR*%
X158210000Y-60325000D03*
%TO.P,J1,b11,A15*%
%TO.N,/A15*%
X155670000Y-60325000D03*
%TO.P,J1,b12,~{RESETCPU}*%
%TO.N,/RESET*%
X153130000Y-60325000D03*
%TO.P,J1,b13,~{CSYNC}*%
%TO.N,/CSYNC*%
X150590000Y-60325000D03*
%TO.P,J1,b14,E*%
%TO.N,/E*%
X148050000Y-60325000D03*
%TO.P,J1,b15,VSYNCH*%
%TO.N,/VSYNC*%
X145510000Y-60325000D03*
%TO.P,J1,b16,~{VPA}*%
%TO.N,/VPA*%
X142970000Y-60325000D03*
%TO.P,J1,b17,GREEN*%
%TO.N,/GREEN*%
X140430000Y-60325000D03*
%TO.P,J1,b18,BLUE*%
%TO.N,/BLUE*%
X137890000Y-60325000D03*
%TO.P,J1,b19,FC2*%
%TO.N,/FC2*%
X135350000Y-60325000D03*
%TO.P,J1,b20,FC1*%
%TO.N,/FC1*%
X132810000Y-60325000D03*
%TO.P,J1,b21,FC0*%
%TO.N,/FC0*%
X130270000Y-60325000D03*
%TO.P,J1,b22,A0*%
%TO.N,/A0*%
X127730000Y-60325000D03*
%TO.P,J1,b23,ROMOEH*%
%TO.N,/ROMOE*%
X125190000Y-60325000D03*
%TO.P,J1,b24,A1*%
%TO.N,/A1*%
X122650000Y-60325000D03*
%TO.P,J1,b25,A2*%
%TO.N,/A2*%
X120110000Y-60325000D03*
%TO.P,J1,b26,SP3*%
%TO.N,/SP3*%
X117570000Y-60325000D03*
%TO.P,J1,b27,~{IPLO}*%
%TO.N,/IPL0*%
X115030000Y-60325000D03*
%TO.P,J1,b28,~{BERR}*%
%TO.N,/BERR*%
X112490000Y-60325000D03*
%TO.P,J1,b29,~{IPL1}*%
%TO.N,/IPL1*%
X109950000Y-60325000D03*
%TO.P,J1,b30,~{EXTINT}*%
%TO.N,/EXTINT*%
X107410000Y-60325000D03*
%TO.P,J1,b31,Vin*%
%TO.N,+9V*%
X104870000Y-60325000D03*
%TO.P,J1,b32,Vin*%
X102330000Y-60325000D03*
%TD*%
D12*
%TO.P,J2,a1,GND*%
%TO.N,GND*%
X181010000Y-88180000D03*
D11*
%TO.P,J2,a2,D3*%
%TO.N,/D3*%
X178470000Y-88180000D03*
%TO.P,J2,a3,D4*%
%TO.N,/D4*%
X175930000Y-88180000D03*
%TO.P,J2,a4,D5*%
%TO.N,/D5*%
X173390000Y-88180000D03*
%TO.P,J2,a5,D6*%
%TO.N,/D6*%
X170850000Y-88180000D03*
%TO.P,J2,a6,D7*%
%TO.N,/D7*%
X168310000Y-88180000D03*
%TO.P,J2,a7,A19*%
%TO.N,/A19*%
X165770000Y-88180000D03*
%TO.P,J2,a8,A18*%
%TO.N,/A18*%
X163230000Y-88180000D03*
%TO.P,J2,a9,A17*%
%TO.N,/A17*%
X160690000Y-88180000D03*
%TO.P,J2,a10,A16*%
%TO.N,/A16*%
X158150000Y-88180000D03*
%TO.P,J2,a11,CLKCPU*%
%TO.N,/CLKCPU*%
X155610000Y-88180000D03*
%TO.P,J2,a12,RED*%
%TO.N,/RED*%
X153070000Y-88180000D03*
%TO.P,J2,a13,A14*%
%TO.N,/A14*%
X150530000Y-88180000D03*
%TO.P,J2,a14,A13*%
%TO.N,/A13*%
X147990000Y-88180000D03*
%TO.P,J2,a15,A12*%
%TO.N,/A12*%
X145450000Y-88180000D03*
%TO.P,J2,a16,A11*%
%TO.N,/A11*%
X142910000Y-88180000D03*
%TO.P,J2,a17,A10*%
%TO.N,/A10*%
X140370000Y-88180000D03*
%TO.P,J2,a18,A9*%
%TO.N,/A9*%
X137830000Y-88180000D03*
%TO.P,J2,a19,A8*%
%TO.N,/A8*%
X135290000Y-88180000D03*
%TO.P,J2,a20,A7*%
%TO.N,/A7*%
X132750000Y-88180000D03*
%TO.P,J2,a21,A6*%
%TO.N,/A6*%
X130210000Y-88180000D03*
%TO.P,J2,a22,A5*%
%TO.N,/A5*%
X127670000Y-88180000D03*
%TO.P,J2,a23,A4*%
%TO.N,/A4*%
X125130000Y-88180000D03*
%TO.P,J2,a24,A3*%
%TO.N,/A3*%
X122590000Y-88180000D03*
%TO.P,J2,a25,~{DBG}*%
%TO.N,/DBG*%
X120050000Y-88180000D03*
%TO.P,J2,a26,SP2*%
%TO.N,/SP2*%
X117510000Y-88180000D03*
%TO.P,J2,a27,~{DSMC}*%
%TO.N,/DSMC*%
X114970000Y-88180000D03*
%TO.P,J2,a28,SP1*%
%TO.N,/SP1*%
X112430000Y-88180000D03*
%TO.P,J2,a29,SP0*%
%TO.N,/SP0*%
X109890000Y-88180000D03*
%TO.P,J2,a30,+12V*%
%TO.N,/ma12v*%
X107350000Y-88180000D03*
%TO.P,J2,a31,-12V*%
%TO.N,/me12v*%
X104810000Y-88180000D03*
%TO.P,J2,a32,Vin*%
%TO.N,+9V*%
X102270000Y-88180000D03*
%TO.P,J2,b1,GND*%
%TO.N,GND*%
X181010000Y-85640000D03*
%TO.P,J2,b2,D2*%
%TO.N,/D2*%
X178470000Y-85640000D03*
%TO.P,J2,b3,D1*%
%TO.N,/D1*%
X175930000Y-85640000D03*
%TO.P,J2,b4,D0*%
%TO.N,/D0*%
X173390000Y-85640000D03*
%TO.P,J2,b5,~{AS}*%
%TO.N,/AS*%
X170850000Y-85640000D03*
%TO.P,J2,b6,~{DS}*%
%TO.N,/DS*%
X168310000Y-85640000D03*
%TO.P,J2,b7,~{DRW}*%
%TO.N,/RW*%
X165770000Y-85640000D03*
%TO.P,J2,b8,~{DTACK}*%
%TO.N,/DTACK*%
X163230000Y-85640000D03*
%TO.P,J2,b9,~{BG}*%
%TO.N,/BG*%
X160690000Y-85640000D03*
%TO.P,J2,b10,~{BR}*%
%TO.N,/BR*%
X158150000Y-85640000D03*
%TO.P,J2,b11,A15*%
%TO.N,/A15*%
X155610000Y-85640000D03*
%TO.P,J2,b12,~{RESETCPU}*%
%TO.N,/RESET*%
X153070000Y-85640000D03*
%TO.P,J2,b13,~{CSYNC}*%
%TO.N,/CSYNC*%
X150530000Y-85640000D03*
%TO.P,J2,b14,E*%
%TO.N,/E*%
X147990000Y-85640000D03*
%TO.P,J2,b15,VSYNCH*%
%TO.N,/VSYNC*%
X145450000Y-85640000D03*
%TO.P,J2,b16,~{VPA}*%
%TO.N,/VPA*%
X142910000Y-85640000D03*
%TO.P,J2,b17,GREEN*%
%TO.N,/GREEN*%
X140370000Y-85640000D03*
%TO.P,J2,b18,BLUE*%
%TO.N,/BLUE*%
X137830000Y-85640000D03*
%TO.P,J2,b19,FC2*%
%TO.N,/FC2*%
X135290000Y-85640000D03*
%TO.P,J2,b20,FC1*%
%TO.N,/FC1*%
X132750000Y-85640000D03*
%TO.P,J2,b21,FC0*%
%TO.N,/FC0*%
X130210000Y-85640000D03*
%TO.P,J2,b22,A0*%
%TO.N,/A0*%
X127670000Y-85640000D03*
%TO.P,J2,b23,ROMOEH*%
%TO.N,/ROMOE*%
X125130000Y-85640000D03*
%TO.P,J2,b24,A1*%
%TO.N,/A1*%
X122590000Y-85640000D03*
%TO.P,J2,b25,A2*%
%TO.N,/A2*%
X120050000Y-85640000D03*
%TO.P,J2,b26,SP3*%
%TO.N,/SP3*%
X117510000Y-85640000D03*
%TO.P,J2,b27,~{IPLO}*%
%TO.N,/IPL0*%
X114970000Y-85640000D03*
%TO.P,J2,b28,~{BERR}*%
%TO.N,Net-(J2-~{BERR})*%
X112430000Y-85640000D03*
%TO.P,J2,b29,~{IPL1}*%
%TO.N,/IPL1*%
X109890000Y-85640000D03*
%TO.P,J2,b30,~{EXTINT}*%
%TO.N,/EXTINT*%
X107350000Y-85640000D03*
%TO.P,J2,b31,Vin*%
%TO.N,+9V*%
X104810000Y-85640000D03*
%TO.P,J2,b32,Vin*%
X102270000Y-85640000D03*
%TD*%
D13*
%TO.P,U2,1,I1/CLK*%
%TO.N,/DS*%
X158215000Y-74310000D03*
D14*
%TO.P,U2,2,I2*%
%TO.N,/A17*%
X160755000Y-74310000D03*
%TO.P,U2,3,I3*%
%TO.N,/A16*%
X163295000Y-74310000D03*
%TO.P,U2,4,I4*%
%TO.N,/A15*%
X165835000Y-74310000D03*
%TO.P,U2,5,I5*%
%TO.N,unconnected-(U2-I5-Pad5)*%
X168375000Y-74310000D03*
%TO.P,U2,6,I6*%
%TO.N,/AS*%
X170915000Y-74310000D03*
%TO.P,U2,7,I7*%
%TO.N,Net-(U2-I7)*%
X173455000Y-74310000D03*
%TO.P,U2,8,I8*%
%TO.N,Net-(U2-I8)*%
X175995000Y-74310000D03*
%TO.P,U2,9,I9*%
%TO.N,/A19*%
X178535000Y-74310000D03*
%TO.P,U2,10,GND*%
%TO.N,GND*%
X181075000Y-74310000D03*
%TO.P,U2,11,I10/~{OE}*%
%TO.N,/A18*%
X181075000Y-66690000D03*
%TO.P,U2,12,IO8*%
%TO.N,unconnected-(U2-IO8-Pad12)*%
X178535000Y-66690000D03*
%TO.P,U2,13,IO7*%
%TO.N,unconnected-(U2-IO7-Pad13)*%
X175995000Y-66690000D03*
%TO.P,U2,14,IO6*%
%TO.N,/DTACK*%
X173455000Y-66690000D03*
%TO.P,U2,15,IO5*%
%TO.N,unconnected-(U2-IO5-Pad15)*%
X170915000Y-66690000D03*
%TO.P,U2,16,IO4*%
%TO.N,/DSMC*%
X168375000Y-66690000D03*
%TO.P,U2,17,I03*%
%TO.N,Net-(SW2-C)*%
X165835000Y-66690000D03*
%TO.P,U2,18,IO2*%
%TO.N,/RAM_OE*%
X163295000Y-66690000D03*
%TO.P,U2,19,IO1*%
%TO.N,/RAM_CE*%
X160755000Y-66690000D03*
%TO.P,U2,20,VCC*%
%TO.N,VCC*%
X158215000Y-66690000D03*
%TD*%
D15*
%TO.N,GND*%
X175970000Y-76515000D03*
X141430000Y-55065000D03*
X186950000Y-70535000D03*
X166450000Y-54965000D03*
X167990000Y-82315000D03*
X118930000Y-91325000D03*
X112050000Y-66625000D03*
X176050000Y-83425000D03*
X104780000Y-62365000D03*
X99630000Y-85085000D03*
X187990000Y-75615000D03*
X125900000Y-54835000D03*
X181880000Y-71195000D03*
X168380000Y-71295000D03*
X173460000Y-83425000D03*
X170870000Y-71285000D03*
X178700000Y-71245000D03*
X181660000Y-78975000D03*
X186750000Y-87115000D03*
X182820000Y-83395000D03*
X157000000Y-92055000D03*
X173630000Y-79115000D03*
X105270000Y-83865000D03*
X139040000Y-91505000D03*
X173480000Y-71255000D03*
X169710000Y-90495000D03*
X150970000Y-74835000D03*
X105980000Y-91385000D03*
X97930000Y-60805000D03*
X176030000Y-80405000D03*
X97980000Y-71275000D03*
X104880000Y-70435000D03*
X151060000Y-79675000D03*
X173280000Y-55935000D03*
X107000000Y-55215000D03*
X163330000Y-71185000D03*
X179780000Y-83395000D03*
X173470000Y-76485000D03*
X158150000Y-71655000D03*
X187700000Y-60875000D03*
X149090000Y-89735000D03*
X175940000Y-71265000D03*
X164200000Y-79395000D03*
X179080000Y-90175000D03*
X163060000Y-82295000D03*
X164800000Y-83545000D03*
D16*
%TO.N,/A3*%
X121400000Y-72105000D03*
%TO.N,/A4*%
X123910000Y-73455000D03*
%TO.N,/A5*%
X126470000Y-74615000D03*
%TO.N,/A6*%
X128990000Y-75045000D03*
%TO.N,/A7*%
X131550000Y-75065000D03*
%TO.N,/A8*%
X134070000Y-62165000D03*
%TO.N,/A9*%
X136600000Y-65835000D03*
%TO.N,/A10*%
X139166942Y-65798058D03*
%TO.N,/A11*%
X141680000Y-61255000D03*
%TO.N,/A12*%
X144240000Y-80645000D03*
%TO.N,/D7*%
X185505000Y-82735000D03*
D15*
X171140000Y-55045000D03*
D16*
%TO.N,/D5*%
X172220000Y-62865000D03*
X172140558Y-59264442D03*
%TO.N,/D4*%
X184235000Y-79530000D03*
X177410000Y-81065000D03*
%TO.N,/A2*%
X120080000Y-71165000D03*
%TO.N,/A1*%
X122640000Y-70335000D03*
%TO.N,/A0*%
X127720000Y-69315000D03*
%TO.N,/D0*%
X172220000Y-78735000D03*
%TO.N,/D1*%
X174720000Y-78135000D03*
%TO.N,/D2*%
X179730000Y-78155000D03*
D15*
%TO.N,/DSMC*%
X116150000Y-53845000D03*
X179290000Y-54385000D03*
D16*
%TO.N,/A14*%
X149300000Y-82790000D03*
%TO.N,/A16*%
X156950000Y-82935000D03*
X162680000Y-79165000D03*
X156940000Y-78945000D03*
%TO.N,/A17*%
X156930000Y-70035000D03*
X132170000Y-56415000D03*
%TO.N,/A18*%
X162010000Y-69305000D03*
%TO.N,/A19*%
X176050000Y-78745000D03*
%TO.N,/A15*%
X154730000Y-69195000D03*
%TO.N,/DS*%
X167060000Y-76735000D03*
D15*
%TO.N,/AS*%
X170910000Y-64262000D03*
D16*
X170915000Y-81935000D03*
D15*
X186910000Y-81985000D03*
X187150000Y-63015000D03*
D16*
%TO.N,/DTACK*%
X163290000Y-64516000D03*
X168345000Y-78835000D03*
X168720000Y-76410000D03*
X164940000Y-80405000D03*
X166005000Y-72130000D03*
X165550000Y-68655000D03*
%TO.N,Net-(J2-~{BERR})*%
X112510000Y-68275000D03*
D15*
%TO.N,Net-(SW2-C)*%
X113760000Y-55790000D03*
%TD*%
D17*
%TO.N,/AS*%
X189260000Y-79520000D02*
X186910000Y-81870000D01*
X186910000Y-81870000D02*
X186910000Y-81985000D01*
X187150000Y-63015000D02*
X189260000Y-65125000D01*
X189260000Y-65125000D02*
X189260000Y-79520000D01*
D18*
%TO.N,/A3*%
X121380000Y-86970000D02*
X122590000Y-88180000D01*
X122650000Y-57820000D02*
X121380000Y-59090000D01*
X121380000Y-59090000D02*
X121380000Y-86970000D01*
%TO.N,/A4*%
X123920000Y-86970000D02*
X125130000Y-88180000D01*
X123910000Y-73455000D02*
X123920000Y-73465000D01*
X123920000Y-73465000D02*
X123920000Y-86970000D01*
X123910000Y-73455000D02*
X123920000Y-73445000D01*
X123920000Y-59090000D02*
X125190000Y-57820000D01*
X123920000Y-73445000D02*
X123920000Y-59090000D01*
%TO.N,/A5*%
X127670000Y-88180000D02*
X126460000Y-86970000D01*
X126460000Y-86970000D02*
X126460000Y-59090000D01*
X126460000Y-59090000D02*
X127730000Y-57820000D01*
%TO.N,/A6*%
X129000000Y-86970000D02*
X130210000Y-88180000D01*
X128990000Y-75045000D02*
X129000000Y-75035000D01*
X129000000Y-59090000D02*
X130270000Y-57820000D01*
X129000000Y-75035000D02*
X129000000Y-59090000D01*
X128990000Y-75045000D02*
X129000000Y-75055000D01*
X129000000Y-75055000D02*
X129000000Y-86970000D01*
%TO.N,/A7*%
X131540000Y-75075000D02*
X131540000Y-86970000D01*
X131540000Y-86970000D02*
X132750000Y-88180000D01*
X131540000Y-59090000D02*
X132810000Y-57820000D01*
X131550000Y-75065000D02*
X131540000Y-75055000D01*
X131540000Y-75055000D02*
X131540000Y-59090000D01*
X131550000Y-75065000D02*
X131540000Y-75075000D01*
%TO.N,/A8*%
X134070000Y-62165000D02*
X134080000Y-62175000D01*
X134080000Y-62175000D02*
X134080000Y-65579000D01*
X135290000Y-88180000D02*
X134080000Y-86970000D01*
X134080000Y-86970000D02*
X134080000Y-65579000D01*
X134080000Y-59090000D02*
X134080000Y-65579000D01*
X135350000Y-57820000D02*
X134080000Y-59090000D01*
%TO.N,/A9*%
X136620000Y-86970000D02*
X137830000Y-88180000D01*
X136600000Y-65835000D02*
X136600000Y-59110000D01*
X136600000Y-59110000D02*
X137890000Y-57820000D01*
X136620000Y-65855000D02*
X136620000Y-86970000D01*
X136600000Y-65835000D02*
X136620000Y-65855000D01*
%TO.N,/A10*%
X139160000Y-59055000D02*
X139160000Y-86970000D01*
X139160000Y-86970000D02*
X140370000Y-88180000D01*
X140430000Y-57820000D02*
X139195000Y-59055000D01*
X139195000Y-59055000D02*
X139160000Y-59055000D01*
%TO.N,/A11*%
X142910000Y-88180000D02*
X141700000Y-86970000D01*
X141700000Y-86970000D02*
X141700000Y-59090000D01*
X141700000Y-59090000D02*
X142970000Y-57820000D01*
%TO.N,/A12*%
X144240000Y-86970000D02*
X145450000Y-88180000D01*
X144240000Y-80645000D02*
X144240000Y-86970000D01*
X144240000Y-80645000D02*
X144240000Y-59090000D01*
X144240000Y-59090000D02*
X145510000Y-57820000D01*
%TO.N,/D7*%
X171140000Y-55045000D02*
X178310000Y-55045000D01*
X182975000Y-55245000D02*
X185515000Y-57785000D01*
X185515000Y-57785000D02*
X185515000Y-82725000D01*
X178310000Y-55045000D02*
X178510000Y-55245000D01*
X185515000Y-82725000D02*
X185505000Y-82735000D01*
X178510000Y-55245000D02*
X182975000Y-55245000D01*
%TO.N,/D6*%
X169640000Y-86970000D02*
X170850000Y-88180000D01*
X169640000Y-59090000D02*
X169640000Y-86970000D01*
X170910000Y-57820000D02*
X169640000Y-59090000D01*
%TO.N,/D5*%
X172140558Y-62785558D02*
X172220000Y-62865000D01*
X175390000Y-55880000D02*
X173450000Y-57820000D01*
X181900000Y-91115000D02*
X184880000Y-88135000D01*
X182340000Y-55880000D02*
X175390000Y-55880000D01*
X173390000Y-88180000D02*
X176325000Y-91115000D01*
X176325000Y-91115000D02*
X181900000Y-91115000D01*
X184880000Y-58420000D02*
X182340000Y-55880000D01*
X184880000Y-88135000D02*
X184880000Y-58420000D01*
X172140558Y-59264442D02*
X172140558Y-62785558D01*
%TO.N,/D4*%
X177410000Y-81065000D02*
X177150000Y-81325000D01*
X177150000Y-81325000D02*
X177150000Y-86960000D01*
X184210000Y-58635000D02*
X182090000Y-56515000D01*
X177295000Y-56515000D02*
X175990000Y-57820000D01*
X177150000Y-86960000D02*
X175930000Y-88180000D01*
X182090000Y-56515000D02*
X177295000Y-56515000D01*
X184210000Y-79505000D02*
X184210000Y-58635000D01*
X184210000Y-79505000D02*
X184235000Y-79530000D01*
%TO.N,/D3*%
X179730000Y-86920000D02*
X179730000Y-85050000D01*
X183610000Y-65715000D02*
X179765000Y-61870000D01*
X179765000Y-59055000D02*
X178530000Y-57820000D01*
X178470000Y-88180000D02*
X179730000Y-86920000D01*
X179730000Y-85050000D02*
X183610000Y-81170000D01*
X183610000Y-81170000D02*
X183610000Y-65715000D01*
X179765000Y-61870000D02*
X179765000Y-59055000D01*
%TO.N,/A2*%
X120110000Y-85580000D02*
X120050000Y-85640000D01*
X120110000Y-60360000D02*
X120110000Y-62865000D01*
X120110000Y-62755000D02*
X120110000Y-85580000D01*
%TO.N,/A1*%
X122650000Y-68065000D02*
X122650000Y-60360000D01*
X122650000Y-74535000D02*
X122650000Y-68065000D01*
X122650000Y-74575000D02*
X122650000Y-85580000D01*
X122670000Y-74555000D02*
X122650000Y-74535000D01*
X122650000Y-85580000D02*
X122590000Y-85640000D01*
X122670000Y-74555000D02*
X122650000Y-74575000D01*
%TO.N,/A0*%
X127730000Y-85580000D02*
X127670000Y-85640000D01*
X127720000Y-69315000D02*
X127730000Y-69325000D01*
X127730000Y-69325000D02*
X127730000Y-85580000D01*
X127730000Y-69305000D02*
X127730000Y-60360000D01*
X127720000Y-69315000D02*
X127730000Y-69305000D01*
%TO.N,/RW*%
X165770000Y-79455000D02*
X164560000Y-78245000D01*
X164560000Y-61630000D02*
X165830000Y-60360000D01*
X165770000Y-85640000D02*
X165770000Y-79455000D01*
X164560000Y-78245000D02*
X164560000Y-64470711D01*
X164560000Y-64995000D02*
X164560000Y-61630000D01*
%TO.N,/D0*%
X172220000Y-78735000D02*
X172180000Y-78775000D01*
X172180000Y-65732100D02*
X172180000Y-72905000D01*
X173450000Y-60360000D02*
X173450000Y-64462100D01*
X173450000Y-64462100D02*
X172180000Y-65732100D01*
X172180000Y-84430000D02*
X173390000Y-85640000D01*
X172180000Y-78695000D02*
X172220000Y-78735000D01*
X172180000Y-78775000D02*
X172180000Y-84430000D01*
X172180000Y-72395000D02*
X172180000Y-78695000D01*
%TO.N,/D1*%
X175990000Y-60360000D02*
X174755000Y-61595000D01*
X174720000Y-84430000D02*
X175930000Y-85640000D01*
X174755000Y-61595000D02*
X174720000Y-61595000D01*
X174720000Y-78135000D02*
X174720000Y-84430000D01*
X174720000Y-72395000D02*
X174720000Y-78135000D01*
X174720000Y-61595000D02*
X174720000Y-72725000D01*
%TO.N,/D2*%
X178530000Y-60360000D02*
X178530000Y-63620000D01*
X179730000Y-78155000D02*
X179800000Y-78085000D01*
X179800000Y-78085000D02*
X179800000Y-72395000D01*
X179730000Y-78155000D02*
X178470000Y-79415000D01*
X179800000Y-64890000D02*
X179800000Y-72695000D01*
X178470000Y-79415000D02*
X178470000Y-85640000D01*
X178530000Y-63620000D02*
X179800000Y-64890000D01*
%TO.N,/SP0*%
X109950000Y-57820000D02*
X108680000Y-59090000D01*
X108680000Y-59090000D02*
X108680000Y-86970000D01*
X108680000Y-86970000D02*
X109890000Y-88180000D01*
%TO.N,/SP1*%
X112490000Y-57820000D02*
X111255000Y-59055000D01*
X111255000Y-59055000D02*
X111220000Y-59055000D01*
X111220000Y-59055000D02*
X111220000Y-86970000D01*
X111220000Y-86970000D02*
X112430000Y-88180000D01*
%TO.N,/DSMC*%
X114970000Y-88180000D02*
X113760000Y-86970000D01*
X113760000Y-59090000D02*
X115030000Y-57820000D01*
D19*
X179290000Y-54385000D02*
X178910000Y-54005000D01*
D18*
X113760000Y-86970000D02*
X113760000Y-59090000D01*
D19*
X116310000Y-54005000D02*
X116150000Y-53845000D01*
X178910000Y-54005000D02*
X116310000Y-54005000D01*
D18*
%TO.N,/SP2*%
X117570000Y-57820000D02*
X116300000Y-59090000D01*
X116300000Y-59090000D02*
X116300000Y-86970000D01*
X116300000Y-86970000D02*
X117510000Y-88180000D01*
%TO.N,/A13*%
X146780000Y-59090000D02*
X146780000Y-86970000D01*
X146780000Y-86970000D02*
X147990000Y-88180000D01*
X148050000Y-57820000D02*
X146780000Y-59090000D01*
%TO.N,/A14*%
X149320000Y-86970000D02*
X149320000Y-59090000D01*
X149320000Y-59090000D02*
X150590000Y-57820000D01*
X150530000Y-88180000D02*
X149320000Y-86970000D01*
%TO.N,/A16*%
X156950000Y-59080000D02*
X158210000Y-57820000D01*
X162680000Y-79165000D02*
X163323648Y-78521352D01*
X155670000Y-62515000D02*
X156950000Y-61235000D01*
X163323648Y-78521352D02*
X163323648Y-74338648D01*
X156940000Y-86970000D02*
X156940000Y-78867000D01*
X156950000Y-61235000D02*
X156950000Y-59080000D01*
X158150000Y-88180000D02*
X156940000Y-86970000D01*
X156940000Y-78867000D02*
X155670000Y-77597000D01*
X155670000Y-77597000D02*
X155670000Y-62515000D01*
%TO.N,/A17*%
X159480000Y-62865000D02*
X159480000Y-59090000D01*
X159380000Y-56415000D02*
X132170000Y-56415000D01*
X160750000Y-57785000D02*
X159380000Y-56415000D01*
X159370000Y-78105827D02*
X156940000Y-75675827D01*
X159370000Y-86860000D02*
X159370000Y-78105827D01*
X156940000Y-75675827D02*
X156940000Y-65405000D01*
X156940000Y-65405000D02*
X159480000Y-62865000D01*
X160690000Y-88180000D02*
X159370000Y-86860000D01*
X159480000Y-59090000D02*
X160750000Y-57820000D01*
%TO.N,/A18*%
X162020000Y-59090000D02*
X163290000Y-57820000D01*
X162020000Y-69295000D02*
X162020000Y-59090000D01*
X162050000Y-87000000D02*
X163230000Y-88180000D01*
X162010000Y-69305000D02*
X162020000Y-69295000D01*
X162050000Y-69345000D02*
X162050000Y-87000000D01*
X162010000Y-69305000D02*
X162050000Y-69345000D01*
%TO.N,/A19*%
X172815000Y-59055000D02*
X176625000Y-59055000D01*
X171580000Y-56550000D02*
X172180000Y-57150000D01*
X178535000Y-73030000D02*
X178535000Y-74310000D01*
X165830000Y-57820000D02*
X167100000Y-56550000D01*
X176625000Y-59055000D02*
X177260000Y-59690000D01*
X177260000Y-59690000D02*
X177260000Y-71755000D01*
X172180000Y-58420000D02*
X172815000Y-59055000D01*
X172180000Y-57150000D02*
X172180000Y-58420000D01*
X176050000Y-78680000D02*
X178535000Y-76195000D01*
X177260000Y-71755000D02*
X178535000Y-73030000D01*
X176050000Y-78745000D02*
X176050000Y-78680000D01*
X167100000Y-56550000D02*
X171580000Y-56550000D01*
X178535000Y-76195000D02*
X178535000Y-74310000D01*
%TO.N,/SP3*%
X117570000Y-60360000D02*
X117570000Y-68065000D01*
X117570000Y-85580000D02*
X117510000Y-85640000D01*
X117570000Y-68065000D02*
X117570000Y-85580000D01*
%TO.N,/VPA*%
X142970000Y-62865000D02*
X142970000Y-85580000D01*
X142970000Y-85580000D02*
X142910000Y-85640000D01*
X142970000Y-60360000D02*
X142970000Y-62865000D01*
%TO.N,/E*%
X148050000Y-68065000D02*
X148050000Y-85580000D01*
X148050000Y-60360000D02*
X148050000Y-68235000D01*
X148050000Y-85580000D02*
X147990000Y-85640000D01*
%TO.N,/RESET*%
X153130000Y-85580000D02*
X153070000Y-85640000D01*
X153130000Y-66795000D02*
X153130000Y-85580000D01*
X153130000Y-60360000D02*
X153130000Y-68485000D01*
%TO.N,/A15*%
X154685000Y-69150000D02*
X154685000Y-67914000D01*
X154685000Y-67914000D02*
X155035000Y-67564000D01*
X154730000Y-69195000D02*
X154660000Y-69265000D01*
X154660000Y-69265000D02*
X154660000Y-78125000D01*
X155660000Y-84981116D02*
X155610000Y-85031116D01*
X155035000Y-67564000D02*
X155035000Y-60960000D01*
X154730000Y-69195000D02*
X154685000Y-69150000D01*
X155035000Y-60960000D02*
X155635000Y-60360000D01*
X154660000Y-78125000D02*
X155610000Y-79075000D01*
X155910000Y-85615000D02*
X155940000Y-85585000D01*
X155610000Y-79075000D02*
X155610000Y-85640000D01*
%TO.N,/DS*%
X167100000Y-76775000D02*
X167100000Y-84430000D01*
X167100000Y-62738000D02*
X167100000Y-65019000D01*
X167060000Y-76735000D02*
X167105000Y-76690000D01*
X168370000Y-61468000D02*
X167100000Y-62738000D01*
X167105000Y-76690000D02*
X167105000Y-65024000D01*
X167060000Y-76735000D02*
X167100000Y-76775000D01*
X168370000Y-60325000D02*
X168370000Y-61468000D01*
X167100000Y-84430000D02*
X168310000Y-85640000D01*
%TO.N,/AS*%
X170915000Y-81935000D02*
X170915000Y-85575000D01*
X170915000Y-85575000D02*
X170850000Y-85640000D01*
X170910000Y-64262000D02*
X170910000Y-60360000D01*
X170915000Y-74310000D02*
X170915000Y-81935000D01*
%TO.N,/DTACK*%
X163290000Y-64516000D02*
X163290000Y-60360000D01*
X165550000Y-68655000D02*
X165550000Y-71675000D01*
X165550000Y-71675000D02*
X166005000Y-72130000D01*
X164940000Y-80405000D02*
X164940000Y-81955000D01*
X168660000Y-78520000D02*
X168660000Y-76470000D01*
X168660000Y-76470000D02*
X168720000Y-76410000D01*
X168345000Y-78835000D02*
X168660000Y-78520000D01*
X164940000Y-81955000D02*
X163230000Y-83665000D01*
X163230000Y-83665000D02*
X163230000Y-85640000D01*
%TO.N,/BG*%
X159480000Y-64135000D02*
X159480000Y-72665000D01*
X160750000Y-85580000D02*
X160690000Y-85640000D01*
X160750000Y-62865000D02*
X159480000Y-64135000D01*
X160750000Y-60360000D02*
X160750000Y-62865000D01*
X159480000Y-72390000D02*
X159480000Y-76735000D01*
X159480000Y-76735000D02*
X160750000Y-78005000D01*
X160750000Y-78005000D02*
X160750000Y-85580000D01*
%TO.N,/BR*%
X156305000Y-63500000D02*
X156305000Y-76835000D01*
X156305000Y-76835000D02*
X158100000Y-78630000D01*
X158210000Y-60360000D02*
X158210000Y-61595000D01*
X158100000Y-85590000D02*
X158150000Y-85640000D01*
X158100000Y-78630000D02*
X158100000Y-85590000D01*
X158210000Y-61595000D02*
X156305000Y-63500000D01*
%TO.N,/CSYNC*%
X150590000Y-73445000D02*
X150150000Y-73885000D01*
X150590000Y-68065000D02*
X150590000Y-73445000D01*
X150150000Y-85260000D02*
X150530000Y-85640000D01*
X150150000Y-73885000D02*
X150150000Y-85260000D01*
X150590000Y-60360000D02*
X150590000Y-68585000D01*
%TO.N,/VSYNC*%
X145510000Y-60360000D02*
X145510000Y-68065000D01*
X145510000Y-68065000D02*
X145510000Y-85580000D01*
X145510000Y-85580000D02*
X145450000Y-85640000D01*
%TO.N,/GREEN*%
X140430000Y-73145000D02*
X140430000Y-85580000D01*
X140430000Y-60360000D02*
X140430000Y-73145000D01*
X140430000Y-85580000D02*
X140370000Y-85640000D01*
%TO.N,/BLUE*%
X137890000Y-60360000D02*
X137890000Y-68295000D01*
X137890000Y-68065000D02*
X137890000Y-85580000D01*
X137890000Y-85580000D02*
X137830000Y-85640000D01*
%TO.N,/FC2*%
X135350000Y-85580000D02*
X135290000Y-85640000D01*
X135350000Y-60360000D02*
X135350000Y-73145000D01*
X135350000Y-73145000D02*
X135350000Y-85580000D01*
%TO.N,/FC1*%
X132810000Y-60360000D02*
X132810000Y-62865000D01*
X132810000Y-85580000D02*
X132750000Y-85640000D01*
X132810000Y-62865000D02*
X132810000Y-85580000D01*
%TO.N,/FC0*%
X130270000Y-85580000D02*
X130210000Y-85640000D01*
X130270000Y-60360000D02*
X130270000Y-85580000D01*
%TO.N,/ROMOE*%
X125190000Y-60360000D02*
X125190000Y-68455000D01*
X125190000Y-68065000D02*
X125190000Y-85580000D01*
X125190000Y-85580000D02*
X125130000Y-85640000D01*
%TO.N,/IPL0*%
X115030000Y-60360000D02*
X115030000Y-73634600D01*
X115030000Y-85580000D02*
X114970000Y-85640000D01*
X115030000Y-73634600D02*
X115030000Y-85580000D01*
%TO.N,/IPL1*%
X109890000Y-85640000D02*
X109950000Y-85580000D01*
X109950000Y-67505000D02*
X109360000Y-66915000D01*
X109360000Y-65115000D02*
X109950000Y-64525000D01*
X109950000Y-73785000D02*
X109950000Y-67505000D01*
X109950000Y-85580000D02*
X109950000Y-73660000D01*
X109950000Y-64525000D02*
X109950000Y-60360000D01*
X109360000Y-66915000D02*
X109360000Y-65115000D01*
%TO.N,/EXTINT*%
X107410000Y-85580000D02*
X107350000Y-85640000D01*
X107410000Y-68065000D02*
X107410000Y-85580000D01*
X107410000Y-60360000D02*
X107410000Y-68215000D01*
%TO.N,/CLKCPU*%
X153765000Y-78740000D02*
X153765000Y-67310000D01*
X154400000Y-59090000D02*
X155670000Y-57820000D01*
X153765000Y-67310000D02*
X154400000Y-66675000D01*
X154360000Y-79335000D02*
X153765000Y-78740000D01*
X154360000Y-86930000D02*
X154360000Y-79335000D01*
X154400000Y-66675000D02*
X154400000Y-59090000D01*
X155610000Y-88180000D02*
X154360000Y-86930000D01*
%TO.N,/RED*%
X153130000Y-57820000D02*
X151890000Y-59060000D01*
X151890000Y-59060000D02*
X151890000Y-87000000D01*
X151890000Y-87000000D02*
X153070000Y-88180000D01*
%TO.N,/DBG*%
X120050000Y-88180000D02*
X118840000Y-86970000D01*
X118840000Y-59090000D02*
X120110000Y-57820000D01*
X118840000Y-86970000D02*
X118840000Y-59090000D01*
%TO.N,/ma12v*%
X107410000Y-57820000D02*
X106140000Y-59090000D01*
X106140000Y-86970000D02*
X107350000Y-88180000D01*
X106140000Y-59090000D02*
X106140000Y-86970000D01*
%TO.N,/me12v*%
X103600000Y-59090000D02*
X104870000Y-57820000D01*
X103600000Y-86970000D02*
X103600000Y-59090000D01*
X104810000Y-88180000D02*
X103600000Y-86970000D01*
%TO.N,Net-(J2-~{BERR})*%
X112510000Y-68275000D02*
X112490000Y-68295000D01*
X112490000Y-85580000D02*
X112430000Y-85640000D01*
X112490000Y-68295000D02*
X112490000Y-85580000D01*
%TO.N,Net-(SW2-C)*%
X167125400Y-60883800D02*
X165835000Y-62174200D01*
X164560000Y-56388000D02*
X164560000Y-58293000D01*
X164560000Y-58293000D02*
X165385500Y-59118500D01*
X163962000Y-55790000D02*
X164560000Y-56388000D01*
X165385500Y-59118500D02*
X166528500Y-59118500D01*
X113760000Y-55790000D02*
X163962000Y-55790000D01*
X167125400Y-59715400D02*
X167125400Y-60883800D01*
X165835000Y-62174200D02*
X165835000Y-66690000D01*
X166528500Y-59118500D02*
X167125400Y-59715400D01*
%TD*%
%TA.AperFunction,Conductor*%
%TO.N,GND*%
G36*
X115495350Y-52995308D02*
G01*
X115541952Y-53048869D01*
X115552197Y-53119123D01*
X115522835Y-53183763D01*
X115521081Y-53185753D01*
X115410961Y-53308054D01*
X115410958Y-53308058D01*
X115315476Y-53473438D01*
X115315473Y-53473445D01*
X115256457Y-53655072D01*
X115236496Y-53845000D01*
X115256457Y-54034927D01*
X115286526Y-54127470D01*
X115315473Y-54216556D01*
X115315476Y-54216561D01*
X115410958Y-54381941D01*
X115410965Y-54381951D01*
X115538744Y-54523864D01*
X115538747Y-54523866D01*
X115693248Y-54636118D01*
X115867712Y-54713794D01*
X116054513Y-54753500D01*
X116245487Y-54753500D01*
X116432288Y-54713794D01*
X116446771Y-54707345D01*
X116520786Y-54674393D01*
X116572034Y-54663500D01*
X170135279Y-54663500D01*
X170203400Y-54683502D01*
X170249893Y-54737158D01*
X170259997Y-54807432D01*
X170255112Y-54828436D01*
X170246457Y-54855071D01*
X170226496Y-55045000D01*
X170246457Y-55234927D01*
X170266927Y-55297926D01*
X170305473Y-55416556D01*
X170305476Y-55416561D01*
X170400958Y-55581941D01*
X170400961Y-55581945D01*
X170512831Y-55706190D01*
X170543548Y-55770198D01*
X170534783Y-55840651D01*
X170489320Y-55895182D01*
X170421592Y-55916477D01*
X170419194Y-55916500D01*
X167037603Y-55916500D01*
X166964568Y-55931028D01*
X166915215Y-55940845D01*
X166915213Y-55940845D01*
X166915212Y-55940846D01*
X166906181Y-55944587D01*
X166799928Y-55988599D01*
X166799923Y-55988601D01*
X166696171Y-56057926D01*
X166696169Y-56057927D01*
X166250438Y-56503656D01*
X166188126Y-56537681D01*
X166128733Y-56536267D01*
X166053734Y-56516172D01*
X166053732Y-56516171D01*
X166053729Y-56516171D01*
X165830000Y-56496597D01*
X165606267Y-56516171D01*
X165389342Y-56574296D01*
X165389331Y-56574300D01*
X165372745Y-56582034D01*
X165302553Y-56592692D01*
X165237742Y-56563710D01*
X165198888Y-56504288D01*
X165193500Y-56467837D01*
X165193500Y-56325607D01*
X165193499Y-56325603D01*
X165169155Y-56203215D01*
X165135380Y-56121675D01*
X165121401Y-56087925D01*
X165052072Y-55984167D01*
X164365833Y-55297929D01*
X164262075Y-55228600D01*
X164146785Y-55180845D01*
X164073086Y-55166185D01*
X164024396Y-55156500D01*
X164024394Y-55156500D01*
X114468200Y-55156500D01*
X114400079Y-55136498D01*
X114374563Y-55114810D01*
X114371252Y-55111133D01*
X114216752Y-54998882D01*
X114042288Y-54921206D01*
X113855487Y-54881500D01*
X113664513Y-54881500D01*
X113477711Y-54921206D01*
X113303247Y-54998882D01*
X113148744Y-55111135D01*
X113020965Y-55253048D01*
X113020958Y-55253058D01*
X112925476Y-55418438D01*
X112925473Y-55418445D01*
X112866457Y-55600072D01*
X112846496Y-55790000D01*
X112866457Y-55979927D01*
X112891801Y-56057926D01*
X112925473Y-56161556D01*
X112925476Y-56161561D01*
X113020958Y-56326941D01*
X113020961Y-56326945D01*
X113058583Y-56368729D01*
X113089300Y-56432737D01*
X113080535Y-56503191D01*
X113035072Y-56557721D01*
X112967344Y-56579016D01*
X112932335Y-56574746D01*
X112930660Y-56574297D01*
X112858997Y-56555095D01*
X112713732Y-56516171D01*
X112490000Y-56496597D01*
X112266267Y-56516171D01*
X112049342Y-56574296D01*
X112049337Y-56574298D01*
X111845798Y-56669210D01*
X111661834Y-56798023D01*
X111661828Y-56798028D01*
X111503028Y-56956828D01*
X111503023Y-56956834D01*
X111374210Y-57140798D01*
X111334195Y-57226611D01*
X111287278Y-57279896D01*
X111219000Y-57299357D01*
X111151040Y-57278815D01*
X111105805Y-57226611D01*
X111069381Y-57148500D01*
X111065790Y-57140799D01*
X110936974Y-56956831D01*
X110778169Y-56798026D01*
X110754480Y-56781439D01*
X110704107Y-56746167D01*
X110594202Y-56669210D01*
X110570010Y-56657929D01*
X110390663Y-56574298D01*
X110390657Y-56574296D01*
X110173732Y-56516171D01*
X109950000Y-56496597D01*
X109726267Y-56516171D01*
X109509342Y-56574296D01*
X109509337Y-56574298D01*
X109305798Y-56669210D01*
X109121834Y-56798023D01*
X109121828Y-56798028D01*
X108963028Y-56956828D01*
X108963023Y-56956834D01*
X108834210Y-57140798D01*
X108794195Y-57226611D01*
X108747278Y-57279896D01*
X108679000Y-57299357D01*
X108611040Y-57278815D01*
X108565805Y-57226611D01*
X108529381Y-57148500D01*
X108525790Y-57140799D01*
X108396974Y-56956831D01*
X108238169Y-56798026D01*
X108214480Y-56781439D01*
X108164107Y-56746167D01*
X108054202Y-56669210D01*
X108030010Y-56657929D01*
X107850663Y-56574298D01*
X107850657Y-56574296D01*
X107633732Y-56516171D01*
X107410000Y-56496597D01*
X107186267Y-56516171D01*
X106969342Y-56574296D01*
X106969337Y-56574298D01*
X106765798Y-56669210D01*
X106581834Y-56798023D01*
X106581828Y-56798028D01*
X106423028Y-56956828D01*
X106423023Y-56956834D01*
X106294210Y-57140798D01*
X106254195Y-57226611D01*
X106207278Y-57279896D01*
X106139000Y-57299357D01*
X106071040Y-57278815D01*
X106025805Y-57226611D01*
X105989381Y-57148500D01*
X105985790Y-57140799D01*
X105856974Y-56956831D01*
X105698169Y-56798026D01*
X105674480Y-56781439D01*
X105624107Y-56746167D01*
X105514202Y-56669210D01*
X105490010Y-56657929D01*
X105310663Y-56574298D01*
X105310657Y-56574296D01*
X105093732Y-56516171D01*
X104870000Y-56496597D01*
X104646267Y-56516171D01*
X104429342Y-56574296D01*
X104429337Y-56574298D01*
X104225798Y-56669210D01*
X104041834Y-56798023D01*
X104041828Y-56798028D01*
X103883028Y-56956828D01*
X103883023Y-56956834D01*
X103754210Y-57140798D01*
X103714195Y-57226611D01*
X103667278Y-57279896D01*
X103599000Y-57299357D01*
X103531040Y-57278815D01*
X103485805Y-57226611D01*
X103449381Y-57148500D01*
X103445790Y-57140799D01*
X103316974Y-56956831D01*
X103158169Y-56798026D01*
X103134480Y-56781439D01*
X103084107Y-56746167D01*
X102974202Y-56669210D01*
X102950010Y-56657929D01*
X102770663Y-56574298D01*
X102770657Y-56574296D01*
X102553732Y-56516171D01*
X102330000Y-56496597D01*
X102106267Y-56516171D01*
X101889342Y-56574296D01*
X101889337Y-56574298D01*
X101685798Y-56669210D01*
X101501834Y-56798023D01*
X101501828Y-56798028D01*
X101343028Y-56956828D01*
X101343023Y-56956834D01*
X101214210Y-57140798D01*
X101119298Y-57344337D01*
X101119296Y-57344342D01*
X101061171Y-57561267D01*
X101041597Y-57785000D01*
X101061171Y-58008732D01*
X101119296Y-58225657D01*
X101119298Y-58225663D01*
X101214208Y-58429198D01*
X101214210Y-58429202D01*
X101343026Y-58613169D01*
X101343029Y-58613173D01*
X101501826Y-58771970D01*
X101501830Y-58771973D01*
X101501831Y-58771974D01*
X101685798Y-58900790D01*
X101702609Y-58908629D01*
X101771610Y-58940805D01*
X101824895Y-58987722D01*
X101844356Y-59056000D01*
X101823814Y-59123960D01*
X101771611Y-59169194D01*
X101685800Y-59209208D01*
X101501834Y-59338023D01*
X101501828Y-59338028D01*
X101343028Y-59496828D01*
X101343023Y-59496834D01*
X101214210Y-59680798D01*
X101119298Y-59884337D01*
X101119296Y-59884342D01*
X101061171Y-60101267D01*
X101041597Y-60325000D01*
X101061171Y-60548732D01*
X101119296Y-60765657D01*
X101119298Y-60765663D01*
X101214092Y-60968950D01*
X101214210Y-60969202D01*
X101343026Y-61153169D01*
X101343029Y-61153173D01*
X101501826Y-61311970D01*
X101501830Y-61311973D01*
X101501831Y-61311974D01*
X101685798Y-61440790D01*
X101889340Y-61535703D01*
X102008405Y-61567606D01*
X102104423Y-61593334D01*
X102106271Y-61593829D01*
X102330000Y-61613403D01*
X102553729Y-61593829D01*
X102770660Y-61535703D01*
X102787248Y-61527967D01*
X102857437Y-61517305D01*
X102922251Y-61546282D01*
X102961109Y-61605700D01*
X102966500Y-61642161D01*
X102966500Y-84350816D01*
X102946498Y-84418937D01*
X102892842Y-84465430D01*
X102822568Y-84475534D01*
X102787251Y-84465011D01*
X102710667Y-84429300D01*
X102710663Y-84429298D01*
X102710660Y-84429297D01*
X102710658Y-84429296D01*
X102710657Y-84429296D01*
X102493732Y-84371171D01*
X102270000Y-84351597D01*
X102046267Y-84371171D01*
X101829342Y-84429296D01*
X101829337Y-84429298D01*
X101625798Y-84524210D01*
X101441834Y-84653023D01*
X101441828Y-84653028D01*
X101283028Y-84811828D01*
X101283023Y-84811834D01*
X101154210Y-84995798D01*
X101059298Y-85199337D01*
X101059296Y-85199342D01*
X101001171Y-85416267D01*
X100981597Y-85640000D01*
X101001171Y-85863732D01*
X101059296Y-86080657D01*
X101059298Y-86080663D01*
X101114195Y-86198389D01*
X101154210Y-86284202D01*
X101283026Y-86468169D01*
X101283029Y-86468173D01*
X101441826Y-86626970D01*
X101441830Y-86626973D01*
X101441831Y-86626974D01*
X101625798Y-86755790D01*
X101675578Y-86779003D01*
X101711610Y-86795805D01*
X101764895Y-86842722D01*
X101784356Y-86911000D01*
X101763814Y-86978960D01*
X101711611Y-87024194D01*
X101625800Y-87064208D01*
X101441834Y-87193023D01*
X101441828Y-87193028D01*
X101283028Y-87351828D01*
X101283023Y-87351834D01*
X101154210Y-87535798D01*
X101059298Y-87739337D01*
X101059296Y-87739342D01*
X101001171Y-87956267D01*
X100981597Y-88180000D01*
X101001171Y-88403732D01*
X101059296Y-88620657D01*
X101059298Y-88620663D01*
X101154208Y-88824198D01*
X101154210Y-88824202D01*
X101202963Y-88893828D01*
X101283026Y-89008169D01*
X101283029Y-89008173D01*
X101441826Y-89166970D01*
X101441830Y-89166973D01*
X101441831Y-89166974D01*
X101625798Y-89295790D01*
X101829340Y-89390703D01*
X102046271Y-89448829D01*
X102270000Y-89468403D01*
X102493729Y-89448829D01*
X102710660Y-89390703D01*
X102914202Y-89295790D01*
X103098169Y-89166974D01*
X103256974Y-89008169D01*
X103385790Y-88824202D01*
X103425805Y-88738388D01*
X103472722Y-88685104D01*
X103540999Y-88665643D01*
X103608959Y-88686185D01*
X103654194Y-88738388D01*
X103694210Y-88824202D01*
X103742963Y-88893828D01*
X103823026Y-89008169D01*
X103823029Y-89008173D01*
X103981826Y-89166970D01*
X103981830Y-89166973D01*
X103981831Y-89166974D01*
X104165798Y-89295790D01*
X104369340Y-89390703D01*
X104586271Y-89448829D01*
X104810000Y-89468403D01*
X105033729Y-89448829D01*
X105250660Y-89390703D01*
X105454202Y-89295790D01*
X105638169Y-89166974D01*
X105796974Y-89008169D01*
X105925790Y-88824202D01*
X105965805Y-88738388D01*
X106012722Y-88685104D01*
X106080999Y-88665643D01*
X106148959Y-88686185D01*
X106194194Y-88738388D01*
X106234210Y-88824202D01*
X106282963Y-88893828D01*
X106363026Y-89008169D01*
X106363029Y-89008173D01*
X106521826Y-89166970D01*
X106521830Y-89166973D01*
X106521831Y-89166974D01*
X106705798Y-89295790D01*
X106909340Y-89390703D01*
X107126271Y-89448829D01*
X107350000Y-89468403D01*
X107573729Y-89448829D01*
X107790660Y-89390703D01*
X107994202Y-89295790D01*
X108178169Y-89166974D01*
X108336974Y-89008169D01*
X108465790Y-88824202D01*
X108505805Y-88738388D01*
X108552722Y-88685104D01*
X108620999Y-88665643D01*
X108688959Y-88686185D01*
X108734194Y-88738388D01*
X108774210Y-88824202D01*
X108822963Y-88893828D01*
X108903026Y-89008169D01*
X108903029Y-89008173D01*
X109061826Y-89166970D01*
X109061830Y-89166973D01*
X109061831Y-89166974D01*
X109245798Y-89295790D01*
X109449340Y-89390703D01*
X109666271Y-89448829D01*
X109890000Y-89468403D01*
X110113729Y-89448829D01*
X110330660Y-89390703D01*
X110534202Y-89295790D01*
X110718169Y-89166974D01*
X110876974Y-89008169D01*
X111005790Y-88824202D01*
X111045805Y-88738388D01*
X111092722Y-88685104D01*
X111160999Y-88665643D01*
X111228959Y-88686185D01*
X111274194Y-88738388D01*
X111314210Y-88824202D01*
X111362963Y-88893828D01*
X111443026Y-89008169D01*
X111443029Y-89008173D01*
X111601826Y-89166970D01*
X111601830Y-89166973D01*
X111601831Y-89166974D01*
X111785798Y-89295790D01*
X111989340Y-89390703D01*
X112206271Y-89448829D01*
X112430000Y-89468403D01*
X112653729Y-89448829D01*
X112870660Y-89390703D01*
X113074202Y-89295790D01*
X113258169Y-89166974D01*
X113416974Y-89008169D01*
X113545790Y-88824202D01*
X113585805Y-88738388D01*
X113632722Y-88685104D01*
X113700999Y-88665643D01*
X113768959Y-88686185D01*
X113814194Y-88738388D01*
X113854210Y-88824202D01*
X113902963Y-88893828D01*
X113983026Y-89008169D01*
X113983029Y-89008173D01*
X114141826Y-89166970D01*
X114141830Y-89166973D01*
X114141831Y-89166974D01*
X114325798Y-89295790D01*
X114529340Y-89390703D01*
X114746271Y-89448829D01*
X114970000Y-89468403D01*
X115193729Y-89448829D01*
X115410660Y-89390703D01*
X115614202Y-89295790D01*
X115798169Y-89166974D01*
X115956974Y-89008169D01*
X116085790Y-88824202D01*
X116125805Y-88738388D01*
X116172722Y-88685104D01*
X116240999Y-88665643D01*
X116308959Y-88686185D01*
X116354194Y-88738388D01*
X116394210Y-88824202D01*
X116442963Y-88893828D01*
X116523026Y-89008169D01*
X116523029Y-89008173D01*
X116681826Y-89166970D01*
X116681830Y-89166973D01*
X116681831Y-89166974D01*
X116865798Y-89295790D01*
X117069340Y-89390703D01*
X117286271Y-89448829D01*
X117510000Y-89468403D01*
X117733729Y-89448829D01*
X117950660Y-89390703D01*
X118154202Y-89295790D01*
X118338169Y-89166974D01*
X118496974Y-89008169D01*
X118625790Y-88824202D01*
X118665805Y-88738388D01*
X118712722Y-88685104D01*
X118780999Y-88665643D01*
X118848959Y-88686185D01*
X118894194Y-88738388D01*
X118934210Y-88824202D01*
X118982963Y-88893828D01*
X119063026Y-89008169D01*
X119063029Y-89008173D01*
X119221826Y-89166970D01*
X119221830Y-89166973D01*
X119221831Y-89166974D01*
X119405798Y-89295790D01*
X119609340Y-89390703D01*
X119826271Y-89448829D01*
X120050000Y-89468403D01*
X120273729Y-89448829D01*
X120490660Y-89390703D01*
X120694202Y-89295790D01*
X120878169Y-89166974D01*
X121036974Y-89008169D01*
X121165790Y-88824202D01*
X121205805Y-88738388D01*
X121252722Y-88685104D01*
X121320999Y-88665643D01*
X121388959Y-88686185D01*
X121434194Y-88738388D01*
X121474210Y-88824202D01*
X121522963Y-88893828D01*
X121603026Y-89008169D01*
X121603029Y-89008173D01*
X121761826Y-89166970D01*
X121761830Y-89166973D01*
X121761831Y-89166974D01*
X121945798Y-89295790D01*
X122149340Y-89390703D01*
X122366271Y-89448829D01*
X122590000Y-89468403D01*
X122813729Y-89448829D01*
X123030660Y-89390703D01*
X123234202Y-89295790D01*
X123418169Y-89166974D01*
X123576974Y-89008169D01*
X123705790Y-88824202D01*
X123745805Y-88738388D01*
X123792722Y-88685104D01*
X123860999Y-88665643D01*
X123928959Y-88686185D01*
X123974194Y-88738388D01*
X124014210Y-88824202D01*
X124062963Y-88893828D01*
X124143026Y-89008169D01*
X124143029Y-89008173D01*
X124301826Y-89166970D01*
X124301830Y-89166973D01*
X124301831Y-89166974D01*
X124485798Y-89295790D01*
X124689340Y-89390703D01*
X124906271Y-89448829D01*
X125130000Y-89468403D01*
X125353729Y-89448829D01*
X125570660Y-89390703D01*
X125774202Y-89295790D01*
X125958169Y-89166974D01*
X126116974Y-89008169D01*
X126245790Y-88824202D01*
X126285805Y-88738388D01*
X126332722Y-88685104D01*
X126400999Y-88665643D01*
X126468959Y-88686185D01*
X126514194Y-88738388D01*
X126554210Y-88824202D01*
X126602963Y-88893828D01*
X126683026Y-89008169D01*
X126683029Y-89008173D01*
X126841826Y-89166970D01*
X126841830Y-89166973D01*
X126841831Y-89166974D01*
X127025798Y-89295790D01*
X127229340Y-89390703D01*
X127446271Y-89448829D01*
X127670000Y-89468403D01*
X127893729Y-89448829D01*
X128110660Y-89390703D01*
X128314202Y-89295790D01*
X128498169Y-89166974D01*
X128656974Y-89008169D01*
X128785790Y-88824202D01*
X128825805Y-88738388D01*
X128872722Y-88685104D01*
X128940999Y-88665643D01*
X129008959Y-88686185D01*
X129054194Y-88738388D01*
X129094210Y-88824202D01*
X129142963Y-88893828D01*
X129223026Y-89008169D01*
X129223029Y-89008173D01*
X129381826Y-89166970D01*
X129381830Y-89166973D01*
X129381831Y-89166974D01*
X129565798Y-89295790D01*
X129769340Y-89390703D01*
X129986271Y-89448829D01*
X130210000Y-89468403D01*
X130433729Y-89448829D01*
X130650660Y-89390703D01*
X130854202Y-89295790D01*
X131038169Y-89166974D01*
X131196974Y-89008169D01*
X131325790Y-88824202D01*
X131365805Y-88738388D01*
X131412722Y-88685104D01*
X131480999Y-88665643D01*
X131548959Y-88686185D01*
X131594194Y-88738388D01*
X131634210Y-88824202D01*
X131682963Y-88893828D01*
X131763026Y-89008169D01*
X131763029Y-89008173D01*
X131921826Y-89166970D01*
X131921830Y-89166973D01*
X131921831Y-89166974D01*
X132105798Y-89295790D01*
X132309340Y-89390703D01*
X132526271Y-89448829D01*
X132750000Y-89468403D01*
X132973729Y-89448829D01*
X133190660Y-89390703D01*
X133394202Y-89295790D01*
X133578169Y-89166974D01*
X133736974Y-89008169D01*
X133865790Y-88824202D01*
X133905805Y-88738388D01*
X133952722Y-88685104D01*
X134020999Y-88665643D01*
X134088959Y-88686185D01*
X134134194Y-88738388D01*
X134174210Y-88824202D01*
X134222963Y-88893828D01*
X134303026Y-89008169D01*
X134303029Y-89008173D01*
X134461826Y-89166970D01*
X134461830Y-89166973D01*
X134461831Y-89166974D01*
X134645798Y-89295790D01*
X134849340Y-89390703D01*
X135066271Y-89448829D01*
X135290000Y-89468403D01*
X135513729Y-89448829D01*
X135730660Y-89390703D01*
X135934202Y-89295790D01*
X136118169Y-89166974D01*
X136276974Y-89008169D01*
X136405790Y-88824202D01*
X136445805Y-88738388D01*
X136492722Y-88685104D01*
X136560999Y-88665643D01*
X136628959Y-88686185D01*
X136674194Y-88738388D01*
X136714210Y-88824202D01*
X136762963Y-88893828D01*
X136843026Y-89008169D01*
X136843029Y-89008173D01*
X137001826Y-89166970D01*
X137001830Y-89166973D01*
X137001831Y-89166974D01*
X137185798Y-89295790D01*
X137389340Y-89390703D01*
X137606271Y-89448829D01*
X137830000Y-89468403D01*
X138053729Y-89448829D01*
X138270660Y-89390703D01*
X138474202Y-89295790D01*
X138658169Y-89166974D01*
X138816974Y-89008169D01*
X138945790Y-88824202D01*
X138985805Y-88738388D01*
X139032722Y-88685104D01*
X139100999Y-88665643D01*
X139168959Y-88686185D01*
X139214194Y-88738388D01*
X139254210Y-88824202D01*
X139302963Y-88893828D01*
X139383026Y-89008169D01*
X139383029Y-89008173D01*
X139541826Y-89166970D01*
X139541830Y-89166973D01*
X139541831Y-89166974D01*
X139725798Y-89295790D01*
X139929340Y-89390703D01*
X140146271Y-89448829D01*
X140370000Y-89468403D01*
X140593729Y-89448829D01*
X140810660Y-89390703D01*
X141014202Y-89295790D01*
X141198169Y-89166974D01*
X141356974Y-89008169D01*
X141485790Y-88824202D01*
X141525805Y-88738388D01*
X141572722Y-88685104D01*
X141640999Y-88665643D01*
X141708959Y-88686185D01*
X141754194Y-88738388D01*
X141794210Y-88824202D01*
X141842963Y-88893828D01*
X141923026Y-89008169D01*
X141923029Y-89008173D01*
X142081826Y-89166970D01*
X142081830Y-89166973D01*
X142081831Y-89166974D01*
X142265798Y-89295790D01*
X142469340Y-89390703D01*
X142686271Y-89448829D01*
X142910000Y-89468403D01*
X143133729Y-89448829D01*
X143350660Y-89390703D01*
X143554202Y-89295790D01*
X143738169Y-89166974D01*
X143896974Y-89008169D01*
X144025790Y-88824202D01*
X144065805Y-88738388D01*
X144112722Y-88685104D01*
X144180999Y-88665643D01*
X144248959Y-88686185D01*
X144294194Y-88738388D01*
X144334210Y-88824202D01*
X144382963Y-88893828D01*
X144463026Y-89008169D01*
X144463029Y-89008173D01*
X144621826Y-89166970D01*
X144621830Y-89166973D01*
X144621831Y-89166974D01*
X144805798Y-89295790D01*
X145009340Y-89390703D01*
X145226271Y-89448829D01*
X145450000Y-89468403D01*
X145673729Y-89448829D01*
X145890660Y-89390703D01*
X146094202Y-89295790D01*
X146278169Y-89166974D01*
X146436974Y-89008169D01*
X146565790Y-88824202D01*
X146605805Y-88738388D01*
X146652722Y-88685104D01*
X146720999Y-88665643D01*
X146788959Y-88686185D01*
X146834194Y-88738388D01*
X146874210Y-88824202D01*
X146922963Y-88893828D01*
X147003026Y-89008169D01*
X147003029Y-89008173D01*
X147161826Y-89166970D01*
X147161830Y-89166973D01*
X147161831Y-89166974D01*
X147345798Y-89295790D01*
X147549340Y-89390703D01*
X147766271Y-89448829D01*
X147990000Y-89468403D01*
X148213729Y-89448829D01*
X148430660Y-89390703D01*
X148634202Y-89295790D01*
X148818169Y-89166974D01*
X148976974Y-89008169D01*
X149105790Y-88824202D01*
X149145805Y-88738388D01*
X149192722Y-88685104D01*
X149260999Y-88665643D01*
X149328959Y-88686185D01*
X149374194Y-88738388D01*
X149414210Y-88824202D01*
X149462963Y-88893828D01*
X149543026Y-89008169D01*
X149543029Y-89008173D01*
X149701826Y-89166970D01*
X149701830Y-89166973D01*
X149701831Y-89166974D01*
X149885798Y-89295790D01*
X150089340Y-89390703D01*
X150306271Y-89448829D01*
X150530000Y-89468403D01*
X150753729Y-89448829D01*
X150970660Y-89390703D01*
X151174202Y-89295790D01*
X151358169Y-89166974D01*
X151516974Y-89008169D01*
X151645790Y-88824202D01*
X151685805Y-88738388D01*
X151732722Y-88685104D01*
X151800999Y-88665643D01*
X151868959Y-88686185D01*
X151914194Y-88738388D01*
X151954210Y-88824202D01*
X152002963Y-88893828D01*
X152083026Y-89008169D01*
X152083029Y-89008173D01*
X152241826Y-89166970D01*
X152241830Y-89166973D01*
X152241831Y-89166974D01*
X152425798Y-89295790D01*
X152629340Y-89390703D01*
X152846271Y-89448829D01*
X153070000Y-89468403D01*
X153293729Y-89448829D01*
X153510660Y-89390703D01*
X153714202Y-89295790D01*
X153898169Y-89166974D01*
X154056974Y-89008169D01*
X154185790Y-88824202D01*
X154225805Y-88738388D01*
X154272722Y-88685104D01*
X154340999Y-88665643D01*
X154408959Y-88686185D01*
X154454194Y-88738388D01*
X154494210Y-88824202D01*
X154542963Y-88893828D01*
X154623026Y-89008169D01*
X154623029Y-89008173D01*
X154781826Y-89166970D01*
X154781830Y-89166973D01*
X154781831Y-89166974D01*
X154965798Y-89295790D01*
X155169340Y-89390703D01*
X155386271Y-89448829D01*
X155610000Y-89468403D01*
X155833729Y-89448829D01*
X156050660Y-89390703D01*
X156254202Y-89295790D01*
X156438169Y-89166974D01*
X156596974Y-89008169D01*
X156725790Y-88824202D01*
X156765805Y-88738388D01*
X156812722Y-88685104D01*
X156880999Y-88665643D01*
X156948959Y-88686185D01*
X156994194Y-88738388D01*
X157034210Y-88824202D01*
X157082963Y-88893828D01*
X157163026Y-89008169D01*
X157163029Y-89008173D01*
X157321826Y-89166970D01*
X157321830Y-89166973D01*
X157321831Y-89166974D01*
X157505798Y-89295790D01*
X157709340Y-89390703D01*
X157926271Y-89448829D01*
X158150000Y-89468403D01*
X158373729Y-89448829D01*
X158590660Y-89390703D01*
X158794202Y-89295790D01*
X158978169Y-89166974D01*
X159136974Y-89008169D01*
X159265790Y-88824202D01*
X159305805Y-88738388D01*
X159352722Y-88685104D01*
X159420999Y-88665643D01*
X159488959Y-88686185D01*
X159534194Y-88738388D01*
X159574210Y-88824202D01*
X159622963Y-88893828D01*
X159703026Y-89008169D01*
X159703029Y-89008173D01*
X159861826Y-89166970D01*
X159861830Y-89166973D01*
X159861831Y-89166974D01*
X160045798Y-89295790D01*
X160249340Y-89390703D01*
X160466271Y-89448829D01*
X160690000Y-89468403D01*
X160913729Y-89448829D01*
X161130660Y-89390703D01*
X161334202Y-89295790D01*
X161518169Y-89166974D01*
X161676974Y-89008169D01*
X161805790Y-88824202D01*
X161845805Y-88738388D01*
X161892722Y-88685104D01*
X161960999Y-88665643D01*
X162028959Y-88686185D01*
X162074194Y-88738388D01*
X162114210Y-88824202D01*
X162162963Y-88893828D01*
X162243026Y-89008169D01*
X162243029Y-89008173D01*
X162401826Y-89166970D01*
X162401830Y-89166973D01*
X162401831Y-89166974D01*
X162585798Y-89295790D01*
X162789340Y-89390703D01*
X163006271Y-89448829D01*
X163230000Y-89468403D01*
X163453729Y-89448829D01*
X163670660Y-89390703D01*
X163874202Y-89295790D01*
X164058169Y-89166974D01*
X164216974Y-89008169D01*
X164345790Y-88824202D01*
X164385805Y-88738388D01*
X164432722Y-88685104D01*
X164500999Y-88665643D01*
X164568959Y-88686185D01*
X164614194Y-88738388D01*
X164654210Y-88824202D01*
X164702963Y-88893828D01*
X164783026Y-89008169D01*
X164783029Y-89008173D01*
X164941826Y-89166970D01*
X164941830Y-89166973D01*
X164941831Y-89166974D01*
X165125798Y-89295790D01*
X165329340Y-89390703D01*
X165546271Y-89448829D01*
X165770000Y-89468403D01*
X165993729Y-89448829D01*
X166210660Y-89390703D01*
X166414202Y-89295790D01*
X166598169Y-89166974D01*
X166756974Y-89008169D01*
X166885790Y-88824202D01*
X166925805Y-88738388D01*
X166972722Y-88685104D01*
X167040999Y-88665643D01*
X167108959Y-88686185D01*
X167154194Y-88738388D01*
X167194210Y-88824202D01*
X167242963Y-88893828D01*
X167323026Y-89008169D01*
X167323029Y-89008173D01*
X167481826Y-89166970D01*
X167481830Y-89166973D01*
X167481831Y-89166974D01*
X167665798Y-89295790D01*
X167869340Y-89390703D01*
X168086271Y-89448829D01*
X168310000Y-89468403D01*
X168533729Y-89448829D01*
X168750660Y-89390703D01*
X168954202Y-89295790D01*
X169138169Y-89166974D01*
X169296974Y-89008169D01*
X169425790Y-88824202D01*
X169465805Y-88738388D01*
X169512722Y-88685104D01*
X169580999Y-88665643D01*
X169648959Y-88686185D01*
X169694194Y-88738388D01*
X169734210Y-88824202D01*
X169782963Y-88893828D01*
X169863026Y-89008169D01*
X169863029Y-89008173D01*
X170021826Y-89166970D01*
X170021830Y-89166973D01*
X170021831Y-89166974D01*
X170205798Y-89295790D01*
X170409340Y-89390703D01*
X170626271Y-89448829D01*
X170850000Y-89468403D01*
X171073729Y-89448829D01*
X171290660Y-89390703D01*
X171494202Y-89295790D01*
X171678169Y-89166974D01*
X171836974Y-89008169D01*
X171965790Y-88824202D01*
X172005805Y-88738388D01*
X172052722Y-88685104D01*
X172120999Y-88665643D01*
X172188959Y-88686185D01*
X172234194Y-88738388D01*
X172274210Y-88824202D01*
X172322963Y-88893828D01*
X172403026Y-89008169D01*
X172403029Y-89008173D01*
X172561826Y-89166970D01*
X172561830Y-89166973D01*
X172561831Y-89166974D01*
X172745798Y-89295790D01*
X172949340Y-89390703D01*
X173166271Y-89448829D01*
X173390000Y-89468403D01*
X173613729Y-89448829D01*
X173661129Y-89436128D01*
X173732104Y-89437816D01*
X173782835Y-89468739D01*
X175921162Y-91607068D01*
X175921166Y-91607071D01*
X175921167Y-91607072D01*
X176024925Y-91676400D01*
X176140215Y-91724155D01*
X176262606Y-91748500D01*
X176262607Y-91748500D01*
X181962393Y-91748500D01*
X181962394Y-91748500D01*
X182084785Y-91724155D01*
X182200075Y-91676400D01*
X182303833Y-91607071D01*
X185372071Y-88538833D01*
X185441400Y-88435075D01*
X185489155Y-88319785D01*
X185497202Y-88279329D01*
X185513500Y-88197394D01*
X185513500Y-83660259D01*
X185533502Y-83592138D01*
X185587158Y-83545645D01*
X185625393Y-83535051D01*
X185639499Y-83533461D01*
X185686047Y-83528217D01*
X185858015Y-83468043D01*
X186012281Y-83371111D01*
X186141111Y-83242281D01*
X186238043Y-83088015D01*
X186298217Y-82916047D01*
X186301370Y-82888058D01*
X186328871Y-82822608D01*
X186387394Y-82782414D01*
X186458357Y-82780241D01*
X186477817Y-82787057D01*
X186627712Y-82853794D01*
X186814513Y-82893500D01*
X187005487Y-82893500D01*
X187192288Y-82853794D01*
X187366752Y-82776118D01*
X187521253Y-82663866D01*
X187649040Y-82521944D01*
X187744527Y-82356556D01*
X187803542Y-82174928D01*
X187821956Y-81999721D01*
X187848969Y-81934066D01*
X187858162Y-81923807D01*
X189716082Y-80065888D01*
X189778394Y-80031862D01*
X189849210Y-80036927D01*
X189906045Y-80079474D01*
X189930856Y-80145994D01*
X189931177Y-80154701D01*
X189959717Y-92903718D01*
X189939867Y-92971883D01*
X189886316Y-93018496D01*
X189833717Y-93030000D01*
X93566000Y-93030000D01*
X93497879Y-93009998D01*
X93451386Y-92956342D01*
X93440000Y-92904000D01*
X93440000Y-62102961D01*
X93398939Y-55887012D01*
X93380836Y-53146575D01*
X93400387Y-53078325D01*
X93453735Y-53031479D01*
X93506577Y-53019744D01*
X115427192Y-52975444D01*
X115495350Y-52995308D01*
G37*
%TD.AperFunction*%
%TA.AperFunction,Conductor*%
G36*
X184164533Y-81615539D02*
G01*
X184221368Y-81658086D01*
X184246179Y-81724606D01*
X184246500Y-81733595D01*
X184246500Y-87820406D01*
X184226498Y-87888527D01*
X184209595Y-87909501D01*
X181674501Y-90444595D01*
X181612189Y-90478621D01*
X181585406Y-90481500D01*
X176639595Y-90481500D01*
X176571474Y-90461498D01*
X176550504Y-90444600D01*
X175784989Y-89679085D01*
X175750966Y-89616775D01*
X175756030Y-89545960D01*
X175798577Y-89489124D01*
X175865097Y-89464313D01*
X175885069Y-89464472D01*
X175930000Y-89468403D01*
X176153729Y-89448829D01*
X176370660Y-89390703D01*
X176574202Y-89295790D01*
X176758169Y-89166974D01*
X176916974Y-89008169D01*
X177045790Y-88824202D01*
X177085805Y-88738388D01*
X177132722Y-88685104D01*
X177200999Y-88665643D01*
X177268959Y-88686185D01*
X177314194Y-88738388D01*
X177354210Y-88824202D01*
X177402963Y-88893828D01*
X177483026Y-89008169D01*
X177483029Y-89008173D01*
X177641826Y-89166970D01*
X177641830Y-89166973D01*
X177641831Y-89166974D01*
X177825798Y-89295790D01*
X178029340Y-89390703D01*
X178246271Y-89448829D01*
X178470000Y-89468403D01*
X178693729Y-89448829D01*
X178910660Y-89390703D01*
X179114202Y-89295790D01*
X179298169Y-89166974D01*
X179456974Y-89008169D01*
X179537039Y-88893824D01*
X179592492Y-88849499D01*
X179663111Y-88842190D01*
X179726472Y-88874220D01*
X179759853Y-88926465D01*
X179793340Y-89027522D01*
X179886365Y-89178339D01*
X179886370Y-89178345D01*
X180011654Y-89303629D01*
X180011660Y-89303634D01*
X180162473Y-89396657D01*
X180330677Y-89452393D01*
X180330680Y-89452394D01*
X180434482Y-89462999D01*
X180756000Y-89462999D01*
X180756000Y-88610702D01*
X180817007Y-88645925D01*
X180944174Y-88680000D01*
X181075826Y-88680000D01*
X181202993Y-88645925D01*
X181264000Y-88610702D01*
X181264000Y-89462999D01*
X181585509Y-89462999D01*
X181689319Y-89452394D01*
X181857526Y-89396657D01*
X182008339Y-89303634D01*
X182008345Y-89303629D01*
X182133629Y-89178345D01*
X182133634Y-89178339D01*
X182226657Y-89027526D01*
X182282393Y-88859322D01*
X182282394Y-88859319D01*
X182292999Y-88755517D01*
X182293000Y-88755517D01*
X182293000Y-88434000D01*
X181440703Y-88434000D01*
X181475925Y-88372993D01*
X181510000Y-88245826D01*
X181510000Y-88114174D01*
X181475925Y-87987007D01*
X181440703Y-87926000D01*
X182292999Y-87926000D01*
X182292999Y-87604490D01*
X182282394Y-87500680D01*
X182226657Y-87332473D01*
X182133634Y-87181660D01*
X182133629Y-87181654D01*
X182008345Y-87056370D01*
X182008339Y-87056365D01*
X181857522Y-86963340D01*
X181755872Y-86929657D01*
X181697501Y-86889244D01*
X181670245Y-86823687D01*
X181682758Y-86753802D01*
X181719789Y-86710834D01*
X181719937Y-86709147D01*
X181134947Y-86124157D01*
X181202993Y-86105925D01*
X181317007Y-86040099D01*
X181410099Y-85947007D01*
X181475925Y-85832993D01*
X181494158Y-85764947D01*
X182079148Y-86349937D01*
X182079149Y-86349937D01*
X182125354Y-86283951D01*
X182125355Y-86283950D01*
X182220229Y-86080491D01*
X182220231Y-86080486D01*
X182278334Y-85863640D01*
X182297900Y-85640000D01*
X182278334Y-85416359D01*
X182220231Y-85199513D01*
X182220229Y-85199509D01*
X182125354Y-84996049D01*
X182079149Y-84930061D01*
X182079147Y-84930061D01*
X181494157Y-85515051D01*
X181475925Y-85447007D01*
X181410099Y-85332993D01*
X181317007Y-85239901D01*
X181202993Y-85174075D01*
X181134947Y-85155841D01*
X181719937Y-84570850D01*
X181719937Y-84570849D01*
X181653949Y-84524644D01*
X181653950Y-84524644D01*
X181474208Y-84440830D01*
X181420923Y-84393913D01*
X181401462Y-84325636D01*
X181422004Y-84257676D01*
X181438357Y-84237546D01*
X184031405Y-81644500D01*
X184093717Y-81610474D01*
X184164533Y-81615539D01*
G37*
%TD.AperFunction*%
%TA.AperFunction,Conductor*%
G36*
X165054532Y-82840538D02*
G01*
X165111368Y-82883085D01*
X165136179Y-82949605D01*
X165136500Y-82958594D01*
X165136500Y-84451126D01*
X165116498Y-84519247D01*
X165082770Y-84554339D01*
X164941839Y-84653019D01*
X164941828Y-84653028D01*
X164783028Y-84811828D01*
X164783023Y-84811834D01*
X164654210Y-84995798D01*
X164614195Y-85081611D01*
X164567278Y-85134896D01*
X164499000Y-85154357D01*
X164431040Y-85133815D01*
X164385805Y-85081611D01*
X164379912Y-85068974D01*
X164345790Y-84995799D01*
X164216974Y-84811831D01*
X164058169Y-84653026D01*
X164058159Y-84653019D01*
X163917229Y-84554337D01*
X163872900Y-84498879D01*
X163863500Y-84451124D01*
X163863500Y-83979594D01*
X163883502Y-83911473D01*
X163900405Y-83890499D01*
X164921405Y-82869499D01*
X164983717Y-82835473D01*
X165054532Y-82840538D01*
G37*
%TD.AperFunction*%
%TA.AperFunction,Conductor*%
G36*
X179372012Y-62373370D02*
G01*
X179378595Y-62379499D01*
X182939595Y-65940499D01*
X182973621Y-66002811D01*
X182976500Y-66029594D01*
X182976500Y-80855405D01*
X182956498Y-80923526D01*
X182939595Y-80944500D01*
X179333463Y-84550632D01*
X179271151Y-84584658D01*
X179200336Y-84579593D01*
X179172097Y-84564749D01*
X179157223Y-84554334D01*
X179112898Y-84498874D01*
X179103500Y-84451125D01*
X179103500Y-79729594D01*
X179123502Y-79661473D01*
X179140400Y-79640503D01*
X179791561Y-78989341D01*
X179853872Y-78955318D01*
X179866540Y-78953231D01*
X179911047Y-78948217D01*
X180083015Y-78888043D01*
X180237281Y-78791111D01*
X180366111Y-78662281D01*
X180463043Y-78508015D01*
X180523217Y-78336047D01*
X180543616Y-78155000D01*
X180523217Y-77973953D01*
X180463043Y-77801985D01*
X180452810Y-77785700D01*
X180433500Y-77718667D01*
X180433500Y-76050301D01*
X180453502Y-75982180D01*
X180507158Y-75935687D01*
X180577432Y-75925583D01*
X180598436Y-75930468D01*
X180768705Y-75985791D01*
X180768717Y-75985794D01*
X180820999Y-75994074D01*
X180821000Y-75994074D01*
X180821000Y-74621686D01*
X180829394Y-74630080D01*
X180920606Y-74682741D01*
X181022339Y-74710000D01*
X181127661Y-74710000D01*
X181229394Y-74682741D01*
X181320606Y-74630080D01*
X181329000Y-74621686D01*
X181329000Y-75994074D01*
X181381282Y-75985794D01*
X181381294Y-75985791D01*
X181577093Y-75922173D01*
X181577099Y-75922170D01*
X181760545Y-75828699D01*
X181927107Y-75707684D01*
X181927110Y-75707682D01*
X182072682Y-75562110D01*
X182072684Y-75562107D01*
X182193699Y-75395545D01*
X182287170Y-75212099D01*
X182287173Y-75212093D01*
X182350791Y-75016296D01*
X182383000Y-74812938D01*
X182383000Y-74564000D01*
X181386686Y-74564000D01*
X181395080Y-74555606D01*
X181447741Y-74464394D01*
X181475000Y-74362661D01*
X181475000Y-74257339D01*
X181447741Y-74155606D01*
X181395080Y-74064394D01*
X181386686Y-74056000D01*
X182383000Y-74056000D01*
X182383000Y-73807061D01*
X182350791Y-73603703D01*
X182287173Y-73407906D01*
X182287170Y-73407900D01*
X182193699Y-73224454D01*
X182072684Y-73057892D01*
X182072682Y-73057889D01*
X181927110Y-72912317D01*
X181927107Y-72912315D01*
X181760545Y-72791300D01*
X181577099Y-72697829D01*
X181577093Y-72697826D01*
X181381294Y-72634208D01*
X181381296Y-72634208D01*
X181329000Y-72625925D01*
X181329000Y-73998314D01*
X181320606Y-73989920D01*
X181229394Y-73937259D01*
X181127661Y-73910000D01*
X181022339Y-73910000D01*
X180920606Y-73937259D01*
X180829394Y-73989920D01*
X180821000Y-73998314D01*
X180821000Y-72625925D01*
X180768704Y-72634208D01*
X180598436Y-72689531D01*
X180527468Y-72691558D01*
X180466670Y-72654896D01*
X180435345Y-72591183D01*
X180433500Y-72569698D01*
X180433500Y-68430825D01*
X180453502Y-68362704D01*
X180507158Y-68316211D01*
X180577432Y-68306107D01*
X180598423Y-68310988D01*
X180768592Y-68366280D01*
X180972019Y-68398500D01*
X180972022Y-68398500D01*
X181177978Y-68398500D01*
X181177981Y-68398500D01*
X181381408Y-68366280D01*
X181577290Y-68302634D01*
X181760803Y-68209129D01*
X181927430Y-68088068D01*
X182073068Y-67942430D01*
X182194129Y-67775803D01*
X182287634Y-67592290D01*
X182351280Y-67396408D01*
X182383500Y-67192981D01*
X182383500Y-66187019D01*
X182351280Y-65983592D01*
X182287634Y-65787710D01*
X182194129Y-65604197D01*
X182073068Y-65437570D01*
X182073065Y-65437567D01*
X182073063Y-65437564D01*
X181927435Y-65291936D01*
X181927432Y-65291934D01*
X181927430Y-65291932D01*
X181760803Y-65170871D01*
X181577290Y-65077366D01*
X181577287Y-65077365D01*
X181577285Y-65077364D01*
X181381412Y-65013721D01*
X181381410Y-65013720D01*
X181381408Y-65013720D01*
X181177981Y-64981500D01*
X180972019Y-64981500D01*
X180768592Y-65013720D01*
X180768590Y-65013720D01*
X180768587Y-65013721D01*
X180598436Y-65069007D01*
X180527469Y-65071035D01*
X180466671Y-65034372D01*
X180435345Y-64970660D01*
X180433500Y-64949174D01*
X180433500Y-64827607D01*
X180433499Y-64827603D01*
X180409155Y-64705215D01*
X180361400Y-64589925D01*
X180292071Y-64486167D01*
X180203833Y-64397929D01*
X179200405Y-63394501D01*
X179166379Y-63332189D01*
X179163500Y-63305406D01*
X179163500Y-62468594D01*
X179183502Y-62400473D01*
X179237158Y-62353980D01*
X179307432Y-62343876D01*
X179372012Y-62373370D01*
G37*
%TD.AperFunction*%
%TA.AperFunction,Conductor*%
G36*
X151174532Y-73860538D02*
G01*
X151231368Y-73903085D01*
X151256179Y-73969605D01*
X151256500Y-73978594D01*
X151256500Y-84364805D01*
X151236498Y-84432926D01*
X151182842Y-84479419D01*
X151112568Y-84489523D01*
X151077251Y-84479000D01*
X150970667Y-84429300D01*
X150970663Y-84429298D01*
X150970660Y-84429297D01*
X150970658Y-84429296D01*
X150970657Y-84429296D01*
X150876889Y-84404171D01*
X150816266Y-84367219D01*
X150785245Y-84303358D01*
X150783500Y-84282464D01*
X150783500Y-74199594D01*
X150803502Y-74131473D01*
X150820405Y-74110499D01*
X151041405Y-73889499D01*
X151103717Y-73855473D01*
X151174532Y-73860538D01*
G37*
%TD.AperFunction*%
%TA.AperFunction,Conductor*%
G36*
X105462251Y-61546282D02*
G01*
X105501109Y-61605700D01*
X105506500Y-61642161D01*
X105506500Y-84350816D01*
X105486498Y-84418937D01*
X105432842Y-84465430D01*
X105362568Y-84475534D01*
X105327251Y-84465011D01*
X105250667Y-84429300D01*
X105250663Y-84429298D01*
X105250660Y-84429297D01*
X105250658Y-84429296D01*
X105250657Y-84429296D01*
X105033732Y-84371171D01*
X104810000Y-84351597D01*
X104586267Y-84371171D01*
X104392111Y-84423195D01*
X104321134Y-84421505D01*
X104262339Y-84381711D01*
X104234391Y-84316446D01*
X104233500Y-84301488D01*
X104233500Y-61642161D01*
X104253502Y-61574040D01*
X104307158Y-61527547D01*
X104377432Y-61517443D01*
X104412749Y-61527966D01*
X104429340Y-61535703D01*
X104548405Y-61567606D01*
X104644423Y-61593334D01*
X104646271Y-61593829D01*
X104870000Y-61613403D01*
X105093729Y-61593829D01*
X105310660Y-61535703D01*
X105327248Y-61527967D01*
X105397437Y-61517305D01*
X105462251Y-61546282D01*
G37*
%TD.AperFunction*%
%TA.AperFunction,Conductor*%
G36*
X168949698Y-79496891D02*
G01*
X168995641Y-79551018D01*
X169006500Y-79602189D01*
X169006500Y-84350816D01*
X168986498Y-84418937D01*
X168932842Y-84465430D01*
X168862568Y-84475534D01*
X168827251Y-84465011D01*
X168750667Y-84429300D01*
X168750663Y-84429298D01*
X168750660Y-84429297D01*
X168750658Y-84429296D01*
X168750657Y-84429296D01*
X168533732Y-84371171D01*
X168310000Y-84351597D01*
X168086271Y-84371171D01*
X168086268Y-84371171D01*
X168086265Y-84371172D01*
X168086262Y-84371172D01*
X168038867Y-84383871D01*
X167967890Y-84382180D01*
X167917163Y-84351259D01*
X167770405Y-84204501D01*
X167736379Y-84142189D01*
X167733500Y-84115406D01*
X167733500Y-79633606D01*
X167753502Y-79565485D01*
X167807158Y-79518992D01*
X167877432Y-79508888D01*
X167926536Y-79526919D01*
X167936488Y-79533172D01*
X167991985Y-79568043D01*
X168163953Y-79628217D01*
X168345000Y-79648616D01*
X168526047Y-79628217D01*
X168698015Y-79568043D01*
X168777634Y-79518015D01*
X168813464Y-79495502D01*
X168881785Y-79476196D01*
X168949698Y-79496891D01*
G37*
%TD.AperFunction*%
%TA.AperFunction,Conductor*%
G36*
X172978423Y-75930988D02*
G01*
X173148592Y-75986280D01*
X173352019Y-76018500D01*
X173352022Y-76018500D01*
X173557978Y-76018500D01*
X173557981Y-76018500D01*
X173761408Y-75986280D01*
X173921564Y-75934241D01*
X173992531Y-75932214D01*
X174053329Y-75968877D01*
X174084655Y-76032589D01*
X174086500Y-76054075D01*
X174086500Y-77587262D01*
X174067187Y-77654298D01*
X173986958Y-77781981D01*
X173986957Y-77781984D01*
X173929207Y-77947026D01*
X173926783Y-77953953D01*
X173906384Y-78135000D01*
X173926783Y-78316047D01*
X173926783Y-78316049D01*
X173926784Y-78316050D01*
X173986957Y-78488015D01*
X173986958Y-78488017D01*
X174067187Y-78615701D01*
X174086500Y-78682737D01*
X174086500Y-84350816D01*
X174066498Y-84418937D01*
X174012842Y-84465430D01*
X173942568Y-84475534D01*
X173907251Y-84465011D01*
X173830667Y-84429300D01*
X173830663Y-84429298D01*
X173830660Y-84429297D01*
X173830658Y-84429296D01*
X173830657Y-84429296D01*
X173613732Y-84371171D01*
X173390000Y-84351597D01*
X173166271Y-84371171D01*
X173166268Y-84371171D01*
X173166265Y-84371172D01*
X173166262Y-84371172D01*
X173118867Y-84383871D01*
X173047890Y-84382180D01*
X172997163Y-84351259D01*
X172850405Y-84204501D01*
X172816379Y-84142189D01*
X172813500Y-84115406D01*
X172813500Y-79337082D01*
X172833502Y-79268961D01*
X172850404Y-79247987D01*
X172856111Y-79242281D01*
X172859997Y-79236098D01*
X172946758Y-79098018D01*
X172953043Y-79088015D01*
X173013217Y-78916047D01*
X173033616Y-78735000D01*
X173013217Y-78553953D01*
X172953043Y-78381985D01*
X172953041Y-78381982D01*
X172953041Y-78381981D01*
X172856112Y-78227720D01*
X172856111Y-78227718D01*
X172850405Y-78222012D01*
X172816379Y-78159700D01*
X172813500Y-78132917D01*
X172813500Y-76050825D01*
X172833502Y-75982704D01*
X172887158Y-75936211D01*
X172957432Y-75926107D01*
X172978423Y-75930988D01*
G37*
%TD.AperFunction*%
%TA.AperFunction,Conductor*%
G36*
X179084533Y-76645539D02*
G01*
X179141368Y-76688086D01*
X179166179Y-76754606D01*
X179166500Y-76763595D01*
X179166500Y-77522917D01*
X179146498Y-77591038D01*
X179129595Y-77612012D01*
X179093888Y-77647718D01*
X179093887Y-77647720D01*
X178996958Y-77801981D01*
X178996957Y-77801984D01*
X178936784Y-77973947D01*
X178936781Y-77973961D01*
X178931768Y-78018452D01*
X178904264Y-78083904D01*
X178895657Y-78093437D01*
X178066167Y-78922929D01*
X177977927Y-79011169D01*
X177977926Y-79011171D01*
X177908601Y-79114923D01*
X177860846Y-79230212D01*
X177836500Y-79352603D01*
X177836500Y-80180090D01*
X177816498Y-80248211D01*
X177762842Y-80294704D01*
X177692568Y-80304808D01*
X177668886Y-80299020D01*
X177591047Y-80271783D01*
X177410000Y-80251384D01*
X177228953Y-80271783D01*
X177228950Y-80271783D01*
X177228949Y-80271784D01*
X177056984Y-80331957D01*
X177056981Y-80331958D01*
X176902720Y-80428887D01*
X176902718Y-80428888D01*
X176773888Y-80557718D01*
X176773887Y-80557720D01*
X176676958Y-80711981D01*
X176676957Y-80711984D01*
X176616784Y-80883947D01*
X176616781Y-80883961D01*
X176606820Y-80972357D01*
X176589915Y-81018606D01*
X176591519Y-81019463D01*
X176588599Y-81024924D01*
X176540847Y-81140207D01*
X176540845Y-81140213D01*
X176540845Y-81140215D01*
X176538445Y-81152281D01*
X176516500Y-81262603D01*
X176516500Y-84304168D01*
X176496498Y-84372289D01*
X176442842Y-84418782D01*
X176372568Y-84428886D01*
X176357889Y-84425875D01*
X176153732Y-84371171D01*
X175930000Y-84351597D01*
X175706271Y-84371171D01*
X175706268Y-84371171D01*
X175706265Y-84371172D01*
X175706262Y-84371172D01*
X175658867Y-84383871D01*
X175587890Y-84382180D01*
X175537163Y-84351259D01*
X175390405Y-84204501D01*
X175356379Y-84142189D01*
X175353500Y-84115406D01*
X175353500Y-79490197D01*
X175373502Y-79422076D01*
X175427158Y-79375583D01*
X175497432Y-79365479D01*
X175546536Y-79383510D01*
X175607914Y-79422076D01*
X175696985Y-79478043D01*
X175868953Y-79538217D01*
X176050000Y-79558616D01*
X176231047Y-79538217D01*
X176403015Y-79478043D01*
X176557281Y-79381111D01*
X176686111Y-79252281D01*
X176783043Y-79098015D01*
X176843217Y-78926047D01*
X176856484Y-78808292D01*
X176883986Y-78742842D01*
X176892577Y-78733325D01*
X178951407Y-76674497D01*
X179013717Y-76640474D01*
X179084533Y-76645539D01*
G37*
%TD.AperFunction*%
%TA.AperFunction,Conductor*%
G36*
X164097700Y-78684139D02*
G01*
X164122504Y-78703408D01*
X164819141Y-79400045D01*
X164853167Y-79462357D01*
X164848102Y-79533172D01*
X164805555Y-79590008D01*
X164765344Y-79608623D01*
X164765632Y-79609446D01*
X164586984Y-79671957D01*
X164586981Y-79671958D01*
X164432720Y-79768887D01*
X164432718Y-79768888D01*
X164303888Y-79897718D01*
X164303887Y-79897720D01*
X164206958Y-80051981D01*
X164206957Y-80051984D01*
X164206957Y-80051985D01*
X164146783Y-80223953D01*
X164126384Y-80405000D01*
X164146783Y-80586047D01*
X164146783Y-80586049D01*
X164146784Y-80586050D01*
X164206957Y-80758015D01*
X164206958Y-80758017D01*
X164287187Y-80885701D01*
X164306500Y-80952737D01*
X164306500Y-81640406D01*
X164286498Y-81708527D01*
X164269595Y-81729501D01*
X162898595Y-83100501D01*
X162836283Y-83134527D01*
X162765468Y-83129462D01*
X162708632Y-83086915D01*
X162683821Y-83020395D01*
X162683500Y-83011406D01*
X162683500Y-80090822D01*
X162703502Y-80022701D01*
X162757158Y-79976208D01*
X162795394Y-79965614D01*
X162861047Y-79958217D01*
X163033015Y-79898043D01*
X163187281Y-79801111D01*
X163316111Y-79672281D01*
X163413043Y-79518015D01*
X163473217Y-79346047D01*
X163478230Y-79301549D01*
X163505732Y-79236098D01*
X163514332Y-79226571D01*
X163815720Y-78925185D01*
X163885049Y-78821427D01*
X163917000Y-78744285D01*
X163961545Y-78689006D01*
X164028908Y-78666583D01*
X164097700Y-78684139D01*
G37*
%TD.AperFunction*%
%TA.AperFunction,Conductor*%
G36*
X186357012Y-63472364D02*
G01*
X186383619Y-63504588D01*
X186410958Y-63551941D01*
X186410965Y-63551951D01*
X186538744Y-63693864D01*
X186538747Y-63693866D01*
X186693248Y-63806118D01*
X186867712Y-63883794D01*
X187020568Y-63916284D01*
X187083040Y-63950012D01*
X187083465Y-63950436D01*
X188514595Y-65381565D01*
X188548620Y-65443877D01*
X188551500Y-65470660D01*
X188551500Y-79174338D01*
X188531498Y-79242459D01*
X188514595Y-79263433D01*
X186697421Y-81080607D01*
X186635109Y-81114633D01*
X186634524Y-81114758D01*
X186627714Y-81116205D01*
X186453249Y-81193881D01*
X186453243Y-81193884D01*
X186348560Y-81269941D01*
X186281693Y-81293800D01*
X186212541Y-81277719D01*
X186163061Y-81226805D01*
X186148500Y-81168005D01*
X186148500Y-63567588D01*
X186168502Y-63499467D01*
X186222158Y-63452974D01*
X186292432Y-63442870D01*
X186357012Y-63472364D01*
G37*
%TD.AperFunction*%
%TA.AperFunction,Conductor*%
G36*
X177337598Y-75274257D02*
G01*
X177377264Y-75320034D01*
X177415871Y-75395803D01*
X177536932Y-75562430D01*
X177536934Y-75562432D01*
X177536936Y-75562435D01*
X177682564Y-75708063D01*
X177682567Y-75708065D01*
X177682570Y-75708068D01*
X177820067Y-75807965D01*
X177863420Y-75864184D01*
X177869496Y-75934921D01*
X177836364Y-75997713D01*
X177835100Y-75998994D01*
X175909838Y-77924256D01*
X175862358Y-77954090D01*
X175696984Y-78011957D01*
X175696974Y-78011962D01*
X175696745Y-78012106D01*
X175696576Y-78012153D01*
X175690605Y-78015029D01*
X175690101Y-78013982D01*
X175628422Y-78031404D01*
X175560511Y-78010700D01*
X175514574Y-77956568D01*
X175510793Y-77947026D01*
X175453043Y-77781985D01*
X175453041Y-77781982D01*
X175453041Y-77781981D01*
X175372813Y-77654298D01*
X175353500Y-77587262D01*
X175353500Y-76050825D01*
X175373502Y-75982704D01*
X175427158Y-75936211D01*
X175497432Y-75926107D01*
X175518423Y-75930988D01*
X175688592Y-75986280D01*
X175892019Y-76018500D01*
X175892022Y-76018500D01*
X176097978Y-76018500D01*
X176097981Y-76018500D01*
X176301408Y-75986280D01*
X176497290Y-75922634D01*
X176680803Y-75829129D01*
X176847430Y-75708068D01*
X176993068Y-75562430D01*
X177114129Y-75395803D01*
X177152734Y-75320034D01*
X177201481Y-75268422D01*
X177270396Y-75251356D01*
X177337598Y-75274257D01*
G37*
%TD.AperFunction*%
%TA.AperFunction,Conductor*%
G36*
X175518423Y-68310988D02*
G01*
X175688592Y-68366280D01*
X175892019Y-68398500D01*
X175892022Y-68398500D01*
X176097978Y-68398500D01*
X176097981Y-68398500D01*
X176301408Y-68366280D01*
X176461564Y-68314241D01*
X176532531Y-68312214D01*
X176593329Y-68348877D01*
X176624655Y-68412589D01*
X176626500Y-68434075D01*
X176626500Y-71692606D01*
X176626500Y-71817394D01*
X176650845Y-71939785D01*
X176698600Y-72055075D01*
X176767929Y-72158833D01*
X176767931Y-72158835D01*
X177515430Y-72906334D01*
X177549456Y-72968646D01*
X177544391Y-73039461D01*
X177528271Y-73069490D01*
X177415873Y-73224193D01*
X177377267Y-73299962D01*
X177328518Y-73351577D01*
X177259603Y-73368643D01*
X177192402Y-73345742D01*
X177152733Y-73299962D01*
X177114129Y-73224197D01*
X176993068Y-73057570D01*
X176993065Y-73057567D01*
X176993063Y-73057564D01*
X176847435Y-72911936D01*
X176847432Y-72911934D01*
X176847430Y-72911932D01*
X176721999Y-72820802D01*
X176680806Y-72790873D01*
X176680805Y-72790872D01*
X176680803Y-72790871D01*
X176497290Y-72697366D01*
X176497287Y-72697365D01*
X176497285Y-72697364D01*
X176301412Y-72633721D01*
X176301410Y-72633720D01*
X176301408Y-72633720D01*
X176097981Y-72601500D01*
X175892019Y-72601500D01*
X175688592Y-72633720D01*
X175688590Y-72633720D01*
X175688587Y-72633721D01*
X175518436Y-72689007D01*
X175447469Y-72691035D01*
X175386671Y-72654372D01*
X175355345Y-72590660D01*
X175353500Y-72569174D01*
X175353500Y-68430825D01*
X175373502Y-68362704D01*
X175427158Y-68316211D01*
X175497432Y-68306107D01*
X175518423Y-68310988D01*
G37*
%TD.AperFunction*%
%TA.AperFunction,Conductor*%
G36*
X170438423Y-68310988D02*
G01*
X170608592Y-68366280D01*
X170812019Y-68398500D01*
X170812022Y-68398500D01*
X171017978Y-68398500D01*
X171017981Y-68398500D01*
X171221408Y-68366280D01*
X171381564Y-68314241D01*
X171452531Y-68312214D01*
X171513329Y-68348877D01*
X171544655Y-68412589D01*
X171546500Y-68434075D01*
X171546500Y-72565925D01*
X171526498Y-72634046D01*
X171472842Y-72680539D01*
X171402568Y-72690643D01*
X171381564Y-72685758D01*
X171221412Y-72633721D01*
X171221410Y-72633720D01*
X171221408Y-72633720D01*
X171017981Y-72601500D01*
X170812019Y-72601500D01*
X170608592Y-72633720D01*
X170608590Y-72633720D01*
X170608587Y-72633721D01*
X170438436Y-72689007D01*
X170367469Y-72691035D01*
X170306671Y-72654372D01*
X170275345Y-72590660D01*
X170273500Y-72569174D01*
X170273500Y-68430825D01*
X170293502Y-68362704D01*
X170347158Y-68316211D01*
X170417432Y-68306107D01*
X170438423Y-68310988D01*
G37*
%TD.AperFunction*%
%TA.AperFunction,Conductor*%
G36*
X172978423Y-68310988D02*
G01*
X173148592Y-68366280D01*
X173352019Y-68398500D01*
X173352022Y-68398500D01*
X173557978Y-68398500D01*
X173557981Y-68398500D01*
X173761408Y-68366280D01*
X173921564Y-68314241D01*
X173992531Y-68312214D01*
X174053329Y-68348877D01*
X174084655Y-68412589D01*
X174086500Y-68434075D01*
X174086500Y-72565925D01*
X174066498Y-72634046D01*
X174012842Y-72680539D01*
X173942568Y-72690643D01*
X173921564Y-72685758D01*
X173761412Y-72633721D01*
X173761410Y-72633720D01*
X173761408Y-72633720D01*
X173557981Y-72601500D01*
X173352019Y-72601500D01*
X173148592Y-72633720D01*
X173148590Y-72633720D01*
X173148587Y-72633721D01*
X172978436Y-72689007D01*
X172907469Y-72691035D01*
X172846671Y-72654372D01*
X172815345Y-72590660D01*
X172813500Y-72569174D01*
X172813500Y-68430825D01*
X172833502Y-68362704D01*
X172887158Y-68316211D01*
X172957432Y-68306107D01*
X172978423Y-68310988D01*
G37*
%TD.AperFunction*%
%TA.AperFunction,Conductor*%
G36*
X162818423Y-68310988D02*
G01*
X162988592Y-68366280D01*
X163192019Y-68398500D01*
X163192022Y-68398500D01*
X163397978Y-68398500D01*
X163397981Y-68398500D01*
X163601408Y-68366280D01*
X163761564Y-68314241D01*
X163832531Y-68312214D01*
X163893329Y-68348877D01*
X163924655Y-68412589D01*
X163926500Y-68434075D01*
X163926500Y-72565925D01*
X163906498Y-72634046D01*
X163852842Y-72680539D01*
X163782568Y-72690643D01*
X163761564Y-72685758D01*
X163601412Y-72633721D01*
X163601410Y-72633720D01*
X163601408Y-72633720D01*
X163397981Y-72601500D01*
X163192019Y-72601500D01*
X162988592Y-72633720D01*
X162988590Y-72633720D01*
X162988587Y-72633721D01*
X162848436Y-72679259D01*
X162777468Y-72681286D01*
X162716671Y-72644624D01*
X162685345Y-72580912D01*
X162683500Y-72559426D01*
X162683500Y-69789076D01*
X162702812Y-69722040D01*
X162743043Y-69658015D01*
X162803217Y-69486047D01*
X162823616Y-69305000D01*
X162803217Y-69123953D01*
X162743043Y-68951985D01*
X162672813Y-68840214D01*
X162653500Y-68773178D01*
X162653500Y-68430825D01*
X162673502Y-68362704D01*
X162727158Y-68316211D01*
X162797432Y-68306107D01*
X162818423Y-68310988D01*
G37*
%TD.AperFunction*%
%TA.AperFunction,Conductor*%
G36*
X167903428Y-68312614D02*
G01*
X168068592Y-68366280D01*
X168272019Y-68398500D01*
X168272022Y-68398500D01*
X168477978Y-68398500D01*
X168477981Y-68398500D01*
X168681408Y-68366280D01*
X168841564Y-68314241D01*
X168912531Y-68312214D01*
X168973329Y-68348877D01*
X169004655Y-68412589D01*
X169006500Y-68434075D01*
X169006500Y-72565925D01*
X168986498Y-72634046D01*
X168932842Y-72680539D01*
X168862568Y-72690643D01*
X168841564Y-72685758D01*
X168681412Y-72633721D01*
X168681410Y-72633720D01*
X168681408Y-72633720D01*
X168477981Y-72601500D01*
X168272019Y-72601500D01*
X168068592Y-72633720D01*
X168068590Y-72633720D01*
X168068587Y-72633721D01*
X167903436Y-72687382D01*
X167832468Y-72689409D01*
X167771671Y-72652747D01*
X167740345Y-72589035D01*
X167738500Y-72567549D01*
X167738500Y-68432450D01*
X167758502Y-68364329D01*
X167812158Y-68317836D01*
X167882432Y-68307732D01*
X167903428Y-68312614D01*
G37*
%TD.AperFunction*%
%TA.AperFunction,Conductor*%
G36*
X157738423Y-68310988D02*
G01*
X157908592Y-68366280D01*
X158112019Y-68398500D01*
X158112022Y-68398500D01*
X158317978Y-68398500D01*
X158317981Y-68398500D01*
X158521408Y-68366280D01*
X158681564Y-68314241D01*
X158752531Y-68312214D01*
X158813329Y-68348877D01*
X158844655Y-68412589D01*
X158846500Y-68434075D01*
X158846500Y-72475500D01*
X158826498Y-72543621D01*
X158772842Y-72590114D01*
X158720500Y-72601500D01*
X157699500Y-72601500D01*
X157631379Y-72581498D01*
X157584886Y-72527842D01*
X157573500Y-72475500D01*
X157573500Y-70566820D01*
X157592812Y-70499786D01*
X157663043Y-70388015D01*
X157723217Y-70216047D01*
X157743616Y-70035000D01*
X157723217Y-69853953D01*
X157663043Y-69681985D01*
X157592813Y-69570214D01*
X157573500Y-69503178D01*
X157573500Y-68430825D01*
X157593502Y-68362704D01*
X157647158Y-68316211D01*
X157717432Y-68306107D01*
X157738423Y-68310988D01*
G37*
%TD.AperFunction*%
%TA.AperFunction,Conductor*%
G36*
X178058423Y-68310988D02*
G01*
X178228592Y-68366280D01*
X178432019Y-68398500D01*
X178432022Y-68398500D01*
X178637978Y-68398500D01*
X178637981Y-68398500D01*
X178841408Y-68366280D01*
X179001564Y-68314241D01*
X179072531Y-68312214D01*
X179133329Y-68348877D01*
X179164655Y-68412589D01*
X179166500Y-68434075D01*
X179166500Y-72461406D01*
X179146498Y-72529527D01*
X179092842Y-72576020D01*
X179022568Y-72586124D01*
X178957988Y-72556630D01*
X178951405Y-72550501D01*
X177930405Y-71529501D01*
X177896379Y-71467189D01*
X177893500Y-71440406D01*
X177893500Y-68430825D01*
X177913502Y-68362704D01*
X177967158Y-68316211D01*
X178037432Y-68306107D01*
X178058423Y-68310988D01*
G37*
%TD.AperFunction*%
%TA.AperFunction,Conductor*%
G36*
X113082251Y-61546282D02*
G01*
X113121109Y-61605700D01*
X113126500Y-61642161D01*
X113126500Y-67479535D01*
X113106498Y-67547656D01*
X113052842Y-67594149D01*
X112982568Y-67604253D01*
X112933464Y-67586223D01*
X112863013Y-67541956D01*
X112691050Y-67481784D01*
X112691049Y-67481783D01*
X112691047Y-67481783D01*
X112510000Y-67461384D01*
X112328953Y-67481783D01*
X112328950Y-67481783D01*
X112328949Y-67481784D01*
X112156984Y-67541957D01*
X112046535Y-67611356D01*
X111978214Y-67630661D01*
X111910301Y-67609965D01*
X111864358Y-67555838D01*
X111853500Y-67504668D01*
X111853500Y-61642161D01*
X111873502Y-61574040D01*
X111927158Y-61527547D01*
X111997432Y-61517443D01*
X112032749Y-61527966D01*
X112049340Y-61535703D01*
X112168405Y-61567606D01*
X112264423Y-61593334D01*
X112266271Y-61593829D01*
X112490000Y-61613403D01*
X112713729Y-61593829D01*
X112930660Y-61535703D01*
X112947248Y-61527967D01*
X113017437Y-61517305D01*
X113082251Y-61546282D01*
G37*
%TD.AperFunction*%
%TA.AperFunction,Conductor*%
G36*
X182561511Y-57882868D02*
G01*
X182568094Y-57888998D01*
X183539595Y-58860499D01*
X183573621Y-58922811D01*
X183576500Y-58949594D01*
X183576500Y-64481406D01*
X183556498Y-64549527D01*
X183502842Y-64596020D01*
X183432568Y-64606124D01*
X183367988Y-64576630D01*
X183361405Y-64570501D01*
X180547599Y-61756695D01*
X180513573Y-61694383D01*
X180518638Y-61623568D01*
X180561185Y-61566732D01*
X180627705Y-61541921D01*
X180669305Y-61545893D01*
X180846359Y-61593334D01*
X181070000Y-61612900D01*
X181293640Y-61593334D01*
X181510486Y-61535231D01*
X181510491Y-61535229D01*
X181713950Y-61440355D01*
X181713951Y-61440354D01*
X181779937Y-61394149D01*
X181779937Y-61394147D01*
X181194947Y-60809157D01*
X181262993Y-60790925D01*
X181377007Y-60725099D01*
X181470099Y-60632007D01*
X181535925Y-60517993D01*
X181554158Y-60449947D01*
X182139148Y-61034937D01*
X182139149Y-61034937D01*
X182185354Y-60968951D01*
X182185355Y-60968950D01*
X182280229Y-60765491D01*
X182280231Y-60765486D01*
X182338334Y-60548640D01*
X182357900Y-60325000D01*
X182338334Y-60101359D01*
X182280231Y-59884513D01*
X182280229Y-59884509D01*
X182185354Y-59681049D01*
X182139149Y-59615061D01*
X182139147Y-59615061D01*
X181554157Y-60200051D01*
X181535925Y-60132007D01*
X181470099Y-60017993D01*
X181377007Y-59924901D01*
X181262993Y-59859075D01*
X181194947Y-59840841D01*
X181779937Y-59255850D01*
X181779759Y-59253810D01*
X181738907Y-59202701D01*
X181731598Y-59132082D01*
X181763629Y-59068722D01*
X181815874Y-59035341D01*
X181917525Y-59001657D01*
X182068339Y-58908634D01*
X182068345Y-58908629D01*
X182193629Y-58783345D01*
X182193634Y-58783339D01*
X182286657Y-58632526D01*
X182342393Y-58464322D01*
X182342394Y-58464319D01*
X182352999Y-58360517D01*
X182352999Y-57978093D01*
X182373001Y-57909973D01*
X182426656Y-57863480D01*
X182496930Y-57853375D01*
X182561511Y-57882868D01*
G37*
%TD.AperFunction*%
%TA.AperFunction,Conductor*%
G36*
X189812187Y-52845119D02*
G01*
X189858789Y-52898680D01*
X189870281Y-52950972D01*
X189896033Y-64454590D01*
X189876183Y-64522755D01*
X189822632Y-64569368D01*
X189752381Y-64579629D01*
X189687734Y-64550281D01*
X189680938Y-64543967D01*
X188084664Y-62947694D01*
X188050639Y-62885382D01*
X188048449Y-62871767D01*
X188043542Y-62825075D01*
X188043541Y-62825069D01*
X188036242Y-62802606D01*
X187984527Y-62643444D01*
X187889040Y-62478056D01*
X187889038Y-62478054D01*
X187889034Y-62478048D01*
X187761255Y-62336135D01*
X187606752Y-62223882D01*
X187432288Y-62146206D01*
X187245487Y-62106500D01*
X187054513Y-62106500D01*
X186867711Y-62146206D01*
X186693247Y-62223882D01*
X186538744Y-62336135D01*
X186410965Y-62478048D01*
X186410960Y-62478055D01*
X186383619Y-62525412D01*
X186332235Y-62574405D01*
X186262522Y-62587840D01*
X186196611Y-62561453D01*
X186155429Y-62503620D01*
X186148500Y-62462411D01*
X186148500Y-57722607D01*
X186148499Y-57722603D01*
X186147817Y-57719174D01*
X186124155Y-57600215D01*
X186076400Y-57484925D01*
X186007071Y-57381167D01*
X185918833Y-57292929D01*
X183378833Y-54752929D01*
X183275075Y-54683600D01*
X183159785Y-54635845D01*
X183086086Y-54621185D01*
X183037396Y-54611500D01*
X183037394Y-54611500D01*
X180319635Y-54611500D01*
X180251514Y-54591498D01*
X180205021Y-54537842D01*
X180194325Y-54472329D01*
X180203504Y-54385000D01*
X180183542Y-54195072D01*
X180124527Y-54013444D01*
X180029040Y-53848056D01*
X180029038Y-53848054D01*
X180029034Y-53848048D01*
X179901255Y-53706135D01*
X179746752Y-53593882D01*
X179572288Y-53516206D01*
X179385487Y-53476500D01*
X179342534Y-53476500D01*
X179274413Y-53456498D01*
X179272532Y-53455265D01*
X179221917Y-53421445D01*
X179102080Y-53371807D01*
X179102077Y-53371806D01*
X178974860Y-53346500D01*
X178974857Y-53346500D01*
X116979754Y-53346500D01*
X116911633Y-53326498D01*
X116886117Y-53304810D01*
X116776294Y-53182838D01*
X116745577Y-53118830D01*
X116754342Y-53048377D01*
X116799805Y-52993846D01*
X116867533Y-52972551D01*
X116869573Y-52972529D01*
X189744027Y-52825254D01*
X189812187Y-52845119D01*
G37*
%TD.AperFunction*%
%TA.AperFunction,Conductor*%
G36*
X174459526Y-55698502D02*
G01*
X174506019Y-55752158D01*
X174516123Y-55822432D01*
X174486629Y-55887012D01*
X174480500Y-55893596D01*
X173870438Y-56503656D01*
X173808126Y-56537681D01*
X173748733Y-56536267D01*
X173673734Y-56516172D01*
X173673732Y-56516171D01*
X173673729Y-56516171D01*
X173450000Y-56496597D01*
X173226267Y-56516171D01*
X173009342Y-56574296D01*
X173009337Y-56574298D01*
X172805796Y-56669211D01*
X172768485Y-56695336D01*
X172701211Y-56718023D01*
X172632351Y-56700737D01*
X172607121Y-56681217D01*
X171983835Y-56057931D01*
X171983833Y-56057929D01*
X171931250Y-56022794D01*
X171880074Y-55988599D01*
X171880070Y-55988597D01*
X171773822Y-55944587D01*
X171718541Y-55900039D01*
X171696121Y-55832675D01*
X171713680Y-55763884D01*
X171747985Y-55726240D01*
X171751253Y-55723866D01*
X171754563Y-55720190D01*
X171815009Y-55682950D01*
X171848200Y-55678500D01*
X174391405Y-55678500D01*
X174459526Y-55698502D01*
G37*
%TD.AperFunction*%
%TD*%
M02*
