%TF.GenerationSoftware,KiCad,Pcbnew,8.0.6-8.0.6-0~ubuntu24.04.1*%
%TF.CreationDate,2024-11-30T23:26:36+01:00*%
%TF.ProjectId,qlexternal512kram_MIX,716c6578-7465-4726-9e61-6c3531326b72,3*%
%TF.SameCoordinates,Original*%
%TF.FileFunction,Paste,Top*%
%TF.FilePolarity,Positive*%
%FSLAX46Y46*%
G04 Gerber Fmt 4.6, Leading zero omitted, Abs format (unit mm)*
G04 Created by KiCad (PCBNEW 8.0.6-8.0.6-0~ubuntu24.04.1) date 2024-11-30 23:26:36*
%MOMM*%
%LPD*%
G01*
G04 APERTURE LIST*
G04 Aperture macros list*
%AMRoundRect*
0 Rectangle with rounded corners*
0 $1 Rounding radius*
0 $2 $3 $4 $5 $6 $7 $8 $9 X,Y pos of 4 corners*
0 Add a 4 corners polygon primitive as box body*
4,1,4,$2,$3,$4,$5,$6,$7,$8,$9,$2,$3,0*
0 Add four circle primitives for the rounded corners*
1,1,$1+$1,$2,$3*
1,1,$1+$1,$4,$5*
1,1,$1+$1,$6,$7*
1,1,$1+$1,$8,$9*
0 Add four rect primitives between the rounded corners*
20,1,$1+$1,$2,$3,$4,$5,0*
20,1,$1+$1,$4,$5,$6,$7,0*
20,1,$1+$1,$6,$7,$8,$9,0*
20,1,$1+$1,$8,$9,$2,$3,0*%
G04 Aperture macros list end*
%ADD10RoundRect,0.312500X-0.687500X1.662500X-0.687500X-1.662500X0.687500X-1.662500X0.687500X1.662500X0*%
%ADD11RoundRect,0.312500X-1.662500X-0.687500X1.662500X-0.687500X1.662500X0.687500X-1.662500X0.687500X0*%
%ADD12R,1.350000X0.830000*%
%ADD13R,1.000000X1.120000*%
%ADD14R,1.350000X0.800000*%
%ADD15R,1.100000X1.820000*%
%ADD16R,0.700000X1.820000*%
%ADD17R,2.350000X1.500000*%
%ADD18R,2.000000X3.800000*%
%ADD19R,2.350000X1.550000*%
%ADD20RoundRect,0.250000X-0.650000X0.412500X-0.650000X-0.412500X0.650000X-0.412500X0.650000X0.412500X0*%
%ADD21RoundRect,0.250000X-0.625000X0.400000X-0.625000X-0.400000X0.625000X-0.400000X0.625000X0.400000X0*%
%ADD22R,0.760000X1.270000*%
%ADD23RoundRect,0.250000X0.400000X0.625000X-0.400000X0.625000X-0.400000X-0.625000X0.400000X-0.625000X0*%
%ADD24RoundRect,0.150000X0.150000X-0.875000X0.150000X0.875000X-0.150000X0.875000X-0.150000X-0.875000X0*%
G04 APERTURE END LIST*
D10*
%TO.C,C1*%
X97900000Y-75920000D03*
X97900000Y-81970000D03*
%TD*%
D11*
%TO.C,C2*%
X118295000Y-79025000D03*
X124345000Y-79025000D03*
%TD*%
D12*
%TO.C,SW2*%
X107715000Y-67220000D03*
D13*
X107890000Y-64865000D03*
X115190000Y-64865000D03*
D14*
X115365000Y-67235000D03*
D15*
X109490000Y-64215000D03*
X112090000Y-64215000D03*
D16*
X113790000Y-64215000D03*
%TD*%
D17*
%TO.C,U3*%
X105245929Y-73605360D03*
X105245929Y-75905360D03*
D18*
X111720929Y-75905360D03*
D19*
X105245929Y-78180360D03*
%TD*%
D20*
%TO.C,C4*%
X154900000Y-67662500D03*
X154900000Y-70787500D03*
%TD*%
%TO.C,C3*%
X124590000Y-63902500D03*
X124590000Y-67027500D03*
%TD*%
D21*
%TO.C,R2*%
X188040000Y-65375000D03*
X188040000Y-68475000D03*
%TD*%
D22*
%TO.C,SW1*%
X185995000Y-79955000D03*
X187265000Y-79955000D03*
X187265000Y-72335000D03*
X185995000Y-72335000D03*
%TD*%
D23*
%TO.C,R3*%
X120970000Y-63835000D03*
X117870000Y-63835000D03*
%TD*%
D21*
%TO.C,R1*%
X185600000Y-65375000D03*
X185600000Y-68475000D03*
%TD*%
D24*
%TO.C,U1*%
X128365000Y-77035000D03*
X129635000Y-77035000D03*
X130905000Y-77035000D03*
X132175000Y-77035000D03*
X133445000Y-77035000D03*
X134715000Y-77035000D03*
X135985000Y-77035000D03*
X137255000Y-77035000D03*
X138525000Y-77035000D03*
X139795000Y-77035000D03*
X141065000Y-77035000D03*
X142335000Y-77035000D03*
X143605000Y-77035000D03*
X144875000Y-77035000D03*
X146145000Y-77035000D03*
X147415000Y-77035000D03*
X147415000Y-63935000D03*
X146145000Y-63935000D03*
X144875000Y-63935000D03*
X143605000Y-63935000D03*
X142335000Y-63935000D03*
X141065000Y-63935000D03*
X139795000Y-63935000D03*
X138525000Y-63935000D03*
X137255000Y-63935000D03*
X135985000Y-63935000D03*
X134715000Y-63935000D03*
X133445000Y-63935000D03*
X132175000Y-63935000D03*
X130905000Y-63935000D03*
X129635000Y-63935000D03*
X128365000Y-63935000D03*
%TD*%
M02*
