%TF.GenerationSoftware,KiCad,Pcbnew,8.0.6-8.0.6-0~ubuntu24.04.1*%
%TF.CreationDate,2024-11-30T23:26:36+01:00*%
%TF.ProjectId,qlexternal512kram_MIX,716c6578-7465-4726-9e61-6c3531326b72,3*%
%TF.SameCoordinates,Original*%
%TF.FileFunction,Legend,Top*%
%TF.FilePolarity,Positive*%
%FSLAX46Y46*%
G04 Gerber Fmt 4.6, Leading zero omitted, Abs format (unit mm)*
G04 Created by KiCad (PCBNEW 8.0.6-8.0.6-0~ubuntu24.04.1) date 2024-11-30 23:26:36*
%MOMM*%
%LPD*%
G01*
G04 APERTURE LIST*
G04 Aperture macros list*
%AMRoundRect*
0 Rectangle with rounded corners*
0 $1 Rounding radius*
0 $2 $3 $4 $5 $6 $7 $8 $9 X,Y pos of 4 corners*
0 Add a 4 corners polygon primitive as box body*
4,1,4,$2,$3,$4,$5,$6,$7,$8,$9,$2,$3,0*
0 Add four circle primitives for the rounded corners*
1,1,$1+$1,$2,$3*
1,1,$1+$1,$4,$5*
1,1,$1+$1,$6,$7*
1,1,$1+$1,$8,$9*
0 Add four rect primitives between the rounded corners*
20,1,$1+$1,$2,$3,$4,$5,0*
20,1,$1+$1,$4,$5,$6,$7,0*
20,1,$1+$1,$6,$7,$8,$9,0*
20,1,$1+$1,$8,$9,$2,$3,0*%
G04 Aperture macros list end*
%ADD10C,0.150000*%
%ADD11C,0.300000*%
%ADD12C,0.200000*%
%ADD13C,0.120000*%
%ADD14RoundRect,0.312500X-0.687500X1.662500X-0.687500X-1.662500X0.687500X-1.662500X0.687500X1.662500X0*%
%ADD15RoundRect,0.312500X-1.662500X-0.687500X1.662500X-0.687500X1.662500X0.687500X-1.662500X0.687500X0*%
%ADD16R,1.350000X0.830000*%
%ADD17R,1.000000X1.120000*%
%ADD18C,0.900000*%
%ADD19R,1.350000X0.800000*%
%ADD20R,1.100000X1.820000*%
%ADD21R,0.700000X1.820000*%
%ADD22R,2.350000X1.500000*%
%ADD23R,2.000000X3.800000*%
%ADD24R,2.350000X1.550000*%
%ADD25RoundRect,0.250000X-0.650000X0.412500X-0.650000X-0.412500X0.650000X-0.412500X0.650000X0.412500X0*%
%ADD26C,2.850000*%
%ADD27RoundRect,0.249999X0.525001X0.525001X-0.525001X0.525001X-0.525001X-0.525001X0.525001X-0.525001X0*%
%ADD28C,1.550000*%
%ADD29RoundRect,0.250000X-0.625000X0.400000X-0.625000X-0.400000X0.625000X-0.400000X0.625000X0.400000X0*%
%ADD30R,0.760000X1.270000*%
%ADD31RoundRect,0.249999X-0.525001X-0.525001X0.525001X-0.525001X0.525001X0.525001X-0.525001X0.525001X0*%
%ADD32RoundRect,0.250000X0.400000X0.625000X-0.400000X0.625000X-0.400000X-0.625000X0.400000X-0.625000X0*%
%ADD33R,1.600000X2.400000*%
%ADD34O,1.600000X2.400000*%
%ADD35RoundRect,0.150000X0.150000X-0.875000X0.150000X0.875000X-0.150000X0.875000X-0.150000X-0.875000X0*%
G04 APERTURE END LIST*
D10*
X127489418Y-77105000D02*
G75*
G02*
X126630582Y-77105000I-429418J0D01*
G01*
X126630582Y-77105000D02*
G75*
G02*
X127489418Y-77105000I429418J0D01*
G01*
X101170000Y-64015000D02*
X94340000Y-64015000D01*
X94350000Y-63995000D01*
X97760000Y-61515000D01*
X101170000Y-64015000D01*
G36*
X101170000Y-64015000D02*
G01*
X94340000Y-64015000D01*
X94350000Y-63995000D01*
X97760000Y-61515000D01*
X101170000Y-64015000D01*
G37*
D11*
X190029748Y-72476423D02*
X189315463Y-72476423D01*
X189672606Y-72476423D02*
X189672606Y-71226423D01*
X189672606Y-71226423D02*
X189553558Y-71404995D01*
X189553558Y-71404995D02*
X189434510Y-71524042D01*
X189434510Y-71524042D02*
X189315463Y-71583566D01*
D12*
X94774435Y-64701028D02*
X95631578Y-64701028D01*
X95203006Y-66201028D02*
X95203006Y-64701028D01*
X96417292Y-64701028D02*
X96703006Y-64701028D01*
X96703006Y-64701028D02*
X96845863Y-64772457D01*
X96845863Y-64772457D02*
X96988720Y-64915314D01*
X96988720Y-64915314D02*
X97060149Y-65201028D01*
X97060149Y-65201028D02*
X97060149Y-65701028D01*
X97060149Y-65701028D02*
X96988720Y-65986742D01*
X96988720Y-65986742D02*
X96845863Y-66129600D01*
X96845863Y-66129600D02*
X96703006Y-66201028D01*
X96703006Y-66201028D02*
X96417292Y-66201028D01*
X96417292Y-66201028D02*
X96274435Y-66129600D01*
X96274435Y-66129600D02*
X96131577Y-65986742D01*
X96131577Y-65986742D02*
X96060149Y-65701028D01*
X96060149Y-65701028D02*
X96060149Y-65201028D01*
X96060149Y-65201028D02*
X96131577Y-64915314D01*
X96131577Y-64915314D02*
X96274435Y-64772457D01*
X96274435Y-64772457D02*
X96417292Y-64701028D01*
X99845863Y-66343885D02*
X99703006Y-66272457D01*
X99703006Y-66272457D02*
X99560149Y-66129600D01*
X99560149Y-66129600D02*
X99345863Y-65915314D01*
X99345863Y-65915314D02*
X99203006Y-65843885D01*
X99203006Y-65843885D02*
X99060149Y-65843885D01*
X99131578Y-66201028D02*
X98988721Y-66129600D01*
X98988721Y-66129600D02*
X98845863Y-65986742D01*
X98845863Y-65986742D02*
X98774435Y-65701028D01*
X98774435Y-65701028D02*
X98774435Y-65201028D01*
X98774435Y-65201028D02*
X98845863Y-64915314D01*
X98845863Y-64915314D02*
X98988721Y-64772457D01*
X98988721Y-64772457D02*
X99131578Y-64701028D01*
X99131578Y-64701028D02*
X99417292Y-64701028D01*
X99417292Y-64701028D02*
X99560149Y-64772457D01*
X99560149Y-64772457D02*
X99703006Y-64915314D01*
X99703006Y-64915314D02*
X99774435Y-65201028D01*
X99774435Y-65201028D02*
X99774435Y-65701028D01*
X99774435Y-65701028D02*
X99703006Y-65986742D01*
X99703006Y-65986742D02*
X99560149Y-66129600D01*
X99560149Y-66129600D02*
X99417292Y-66201028D01*
X99417292Y-66201028D02*
X99131578Y-66201028D01*
X101131578Y-66201028D02*
X100417292Y-66201028D01*
X100417292Y-66201028D02*
X100417292Y-64701028D01*
D10*
X136600951Y-54339819D02*
X136600951Y-55054104D01*
X136600951Y-55054104D02*
X136553332Y-55196961D01*
X136553332Y-55196961D02*
X136458094Y-55292200D01*
X136458094Y-55292200D02*
X136315237Y-55339819D01*
X136315237Y-55339819D02*
X136219999Y-55339819D01*
X137553332Y-55339819D02*
X137077142Y-55339819D01*
X137077142Y-55339819D02*
X137077142Y-54339819D01*
X138458094Y-55244580D02*
X138410475Y-55292200D01*
X138410475Y-55292200D02*
X138267618Y-55339819D01*
X138267618Y-55339819D02*
X138172380Y-55339819D01*
X138172380Y-55339819D02*
X138029523Y-55292200D01*
X138029523Y-55292200D02*
X137934285Y-55196961D01*
X137934285Y-55196961D02*
X137886666Y-55101723D01*
X137886666Y-55101723D02*
X137839047Y-54911247D01*
X137839047Y-54911247D02*
X137839047Y-54768390D01*
X137839047Y-54768390D02*
X137886666Y-54577914D01*
X137886666Y-54577914D02*
X137934285Y-54482676D01*
X137934285Y-54482676D02*
X138029523Y-54387438D01*
X138029523Y-54387438D02*
X138172380Y-54339819D01*
X138172380Y-54339819D02*
X138267618Y-54339819D01*
X138267618Y-54339819D02*
X138410475Y-54387438D01*
X138410475Y-54387438D02*
X138458094Y-54435057D01*
X139172380Y-54339819D02*
X139172380Y-55054104D01*
X139172380Y-55054104D02*
X139124761Y-55196961D01*
X139124761Y-55196961D02*
X139029523Y-55292200D01*
X139029523Y-55292200D02*
X138886666Y-55339819D01*
X138886666Y-55339819D02*
X138791428Y-55339819D01*
X140124761Y-55339819D02*
X139648571Y-55339819D01*
X139648571Y-55339819D02*
X139648571Y-54339819D01*
X141029523Y-55244580D02*
X140981904Y-55292200D01*
X140981904Y-55292200D02*
X140839047Y-55339819D01*
X140839047Y-55339819D02*
X140743809Y-55339819D01*
X140743809Y-55339819D02*
X140600952Y-55292200D01*
X140600952Y-55292200D02*
X140505714Y-55196961D01*
X140505714Y-55196961D02*
X140458095Y-55101723D01*
X140458095Y-55101723D02*
X140410476Y-54911247D01*
X140410476Y-54911247D02*
X140410476Y-54768390D01*
X140410476Y-54768390D02*
X140458095Y-54577914D01*
X140458095Y-54577914D02*
X140505714Y-54482676D01*
X140505714Y-54482676D02*
X140600952Y-54387438D01*
X140600952Y-54387438D02*
X140743809Y-54339819D01*
X140743809Y-54339819D02*
X140839047Y-54339819D01*
X140839047Y-54339819D02*
X140981904Y-54387438D01*
X140981904Y-54387438D02*
X141029523Y-54435057D01*
X141743809Y-54339819D02*
X141743809Y-55054104D01*
X141743809Y-55054104D02*
X141696190Y-55196961D01*
X141696190Y-55196961D02*
X141600952Y-55292200D01*
X141600952Y-55292200D02*
X141458095Y-55339819D01*
X141458095Y-55339819D02*
X141362857Y-55339819D01*
X142696190Y-55339819D02*
X142220000Y-55339819D01*
X142220000Y-55339819D02*
X142220000Y-54339819D01*
X143600952Y-55244580D02*
X143553333Y-55292200D01*
X143553333Y-55292200D02*
X143410476Y-55339819D01*
X143410476Y-55339819D02*
X143315238Y-55339819D01*
X143315238Y-55339819D02*
X143172381Y-55292200D01*
X143172381Y-55292200D02*
X143077143Y-55196961D01*
X143077143Y-55196961D02*
X143029524Y-55101723D01*
X143029524Y-55101723D02*
X142981905Y-54911247D01*
X142981905Y-54911247D02*
X142981905Y-54768390D01*
X142981905Y-54768390D02*
X143029524Y-54577914D01*
X143029524Y-54577914D02*
X143077143Y-54482676D01*
X143077143Y-54482676D02*
X143172381Y-54387438D01*
X143172381Y-54387438D02*
X143315238Y-54339819D01*
X143315238Y-54339819D02*
X143410476Y-54339819D01*
X143410476Y-54339819D02*
X143553333Y-54387438D01*
X143553333Y-54387438D02*
X143600952Y-54435057D01*
X144315238Y-54339819D02*
X144315238Y-55054104D01*
X144315238Y-55054104D02*
X144267619Y-55196961D01*
X144267619Y-55196961D02*
X144172381Y-55292200D01*
X144172381Y-55292200D02*
X144029524Y-55339819D01*
X144029524Y-55339819D02*
X143934286Y-55339819D01*
X145267619Y-55339819D02*
X144791429Y-55339819D01*
X144791429Y-55339819D02*
X144791429Y-54339819D01*
X146172381Y-55244580D02*
X146124762Y-55292200D01*
X146124762Y-55292200D02*
X145981905Y-55339819D01*
X145981905Y-55339819D02*
X145886667Y-55339819D01*
X145886667Y-55339819D02*
X145743810Y-55292200D01*
X145743810Y-55292200D02*
X145648572Y-55196961D01*
X145648572Y-55196961D02*
X145600953Y-55101723D01*
X145600953Y-55101723D02*
X145553334Y-54911247D01*
X145553334Y-54911247D02*
X145553334Y-54768390D01*
X145553334Y-54768390D02*
X145600953Y-54577914D01*
X145600953Y-54577914D02*
X145648572Y-54482676D01*
X145648572Y-54482676D02*
X145743810Y-54387438D01*
X145743810Y-54387438D02*
X145886667Y-54339819D01*
X145886667Y-54339819D02*
X145981905Y-54339819D01*
X145981905Y-54339819D02*
X146124762Y-54387438D01*
X146124762Y-54387438D02*
X146172381Y-54435057D01*
X168768684Y-82419295D02*
X168744874Y-82609771D01*
X168563922Y-82533580D02*
X168744874Y-82609771D01*
X168744874Y-82609771D02*
X168944874Y-82533580D01*
X168611541Y-82762152D02*
X168744874Y-82609771D01*
X168744874Y-82609771D02*
X168840112Y-82762152D01*
X169378208Y-82419295D02*
X169354398Y-82609771D01*
X169173446Y-82533580D02*
X169354398Y-82609771D01*
X169354398Y-82609771D02*
X169554398Y-82533580D01*
X169221065Y-82762152D02*
X169354398Y-82609771D01*
X169354398Y-82609771D02*
X169449636Y-82762152D01*
X169740112Y-83181200D02*
X169849636Y-83219295D01*
X169849636Y-83219295D02*
X170040112Y-83219295D01*
X170040112Y-83219295D02*
X170121065Y-83181200D01*
X170121065Y-83181200D02*
X170163922Y-83143104D01*
X170163922Y-83143104D02*
X170211541Y-83066914D01*
X170211541Y-83066914D02*
X170221065Y-82990723D01*
X170221065Y-82990723D02*
X170192493Y-82914533D01*
X170192493Y-82914533D02*
X170159160Y-82876438D01*
X170159160Y-82876438D02*
X170087732Y-82838342D01*
X170087732Y-82838342D02*
X169940112Y-82800247D01*
X169940112Y-82800247D02*
X169868684Y-82762152D01*
X169868684Y-82762152D02*
X169835351Y-82724057D01*
X169835351Y-82724057D02*
X169806779Y-82647866D01*
X169806779Y-82647866D02*
X169816303Y-82571676D01*
X169816303Y-82571676D02*
X169863922Y-82495485D01*
X169863922Y-82495485D02*
X169906779Y-82457390D01*
X169906779Y-82457390D02*
X169987732Y-82419295D01*
X169987732Y-82419295D02*
X170178208Y-82419295D01*
X170178208Y-82419295D02*
X170287732Y-82457390D01*
X170844875Y-83181200D02*
X170763922Y-83219295D01*
X170763922Y-83219295D02*
X170611541Y-83219295D01*
X170611541Y-83219295D02*
X170540113Y-83181200D01*
X170540113Y-83181200D02*
X170511541Y-83105009D01*
X170511541Y-83105009D02*
X170549637Y-82800247D01*
X170549637Y-82800247D02*
X170597256Y-82724057D01*
X170597256Y-82724057D02*
X170678208Y-82685961D01*
X170678208Y-82685961D02*
X170830589Y-82685961D01*
X170830589Y-82685961D02*
X170902017Y-82724057D01*
X170902017Y-82724057D02*
X170930589Y-82800247D01*
X170930589Y-82800247D02*
X170921065Y-82876438D01*
X170921065Y-82876438D02*
X170530589Y-82952628D01*
X171530589Y-83181200D02*
X171449636Y-83219295D01*
X171449636Y-83219295D02*
X171297255Y-83219295D01*
X171297255Y-83219295D02*
X171225827Y-83181200D01*
X171225827Y-83181200D02*
X171197255Y-83105009D01*
X171197255Y-83105009D02*
X171235351Y-82800247D01*
X171235351Y-82800247D02*
X171282970Y-82724057D01*
X171282970Y-82724057D02*
X171363922Y-82685961D01*
X171363922Y-82685961D02*
X171516303Y-82685961D01*
X171516303Y-82685961D02*
X171587731Y-82724057D01*
X171587731Y-82724057D02*
X171616303Y-82800247D01*
X171616303Y-82800247D02*
X171606779Y-82876438D01*
X171606779Y-82876438D02*
X171216303Y-82952628D01*
X172582969Y-82685961D02*
X172516303Y-83219295D01*
X172573446Y-82762152D02*
X172616303Y-82724057D01*
X172616303Y-82724057D02*
X172697255Y-82685961D01*
X172697255Y-82685961D02*
X172811541Y-82685961D01*
X172811541Y-82685961D02*
X172882969Y-82724057D01*
X172882969Y-82724057D02*
X172911541Y-82800247D01*
X172911541Y-82800247D02*
X172859160Y-83219295D01*
X173354399Y-83219295D02*
X173282970Y-83181200D01*
X173282970Y-83181200D02*
X173249637Y-83143104D01*
X173249637Y-83143104D02*
X173221065Y-83066914D01*
X173221065Y-83066914D02*
X173249637Y-82838342D01*
X173249637Y-82838342D02*
X173297256Y-82762152D01*
X173297256Y-82762152D02*
X173340113Y-82724057D01*
X173340113Y-82724057D02*
X173421065Y-82685961D01*
X173421065Y-82685961D02*
X173535351Y-82685961D01*
X173535351Y-82685961D02*
X173606779Y-82724057D01*
X173606779Y-82724057D02*
X173640113Y-82762152D01*
X173640113Y-82762152D02*
X173668684Y-82838342D01*
X173668684Y-82838342D02*
X173640113Y-83066914D01*
X173640113Y-83066914D02*
X173592494Y-83143104D01*
X173592494Y-83143104D02*
X173549637Y-83181200D01*
X173549637Y-83181200D02*
X173468684Y-83219295D01*
X173468684Y-83219295D02*
X173354399Y-83219295D01*
X173916304Y-82685961D02*
X174221066Y-82685961D01*
X174063923Y-82419295D02*
X173978209Y-83105009D01*
X173978209Y-83105009D02*
X174006780Y-83181200D01*
X174006780Y-83181200D02*
X174078209Y-83219295D01*
X174078209Y-83219295D02*
X174154399Y-83219295D01*
X174730590Y-83181200D02*
X174649637Y-83219295D01*
X174649637Y-83219295D02*
X174497256Y-83219295D01*
X174497256Y-83219295D02*
X174425828Y-83181200D01*
X174425828Y-83181200D02*
X174397256Y-83105009D01*
X174397256Y-83105009D02*
X174435352Y-82800247D01*
X174435352Y-82800247D02*
X174482971Y-82724057D01*
X174482971Y-82724057D02*
X174563923Y-82685961D01*
X174563923Y-82685961D02*
X174716304Y-82685961D01*
X174716304Y-82685961D02*
X174787732Y-82724057D01*
X174787732Y-82724057D02*
X174816304Y-82800247D01*
X174816304Y-82800247D02*
X174806780Y-82876438D01*
X174806780Y-82876438D02*
X174416304Y-82952628D01*
X175073446Y-83181200D02*
X175144875Y-83219295D01*
X175144875Y-83219295D02*
X175297256Y-83219295D01*
X175297256Y-83219295D02*
X175378208Y-83181200D01*
X175378208Y-83181200D02*
X175425827Y-83105009D01*
X175425827Y-83105009D02*
X175430589Y-83066914D01*
X175430589Y-83066914D02*
X175402018Y-82990723D01*
X175402018Y-82990723D02*
X175330589Y-82952628D01*
X175330589Y-82952628D02*
X175216304Y-82952628D01*
X175216304Y-82952628D02*
X175144875Y-82914533D01*
X175144875Y-82914533D02*
X175116304Y-82838342D01*
X175116304Y-82838342D02*
X175121066Y-82800247D01*
X175121066Y-82800247D02*
X175168685Y-82724057D01*
X175168685Y-82724057D02*
X175249637Y-82685961D01*
X175249637Y-82685961D02*
X175363923Y-82685961D01*
X175363923Y-82685961D02*
X175435351Y-82724057D01*
X176316304Y-82685961D02*
X176621066Y-82685961D01*
X176363923Y-83219295D02*
X176449637Y-82533580D01*
X176449637Y-82533580D02*
X176497256Y-82457390D01*
X176497256Y-82457390D02*
X176578209Y-82419295D01*
X176578209Y-82419295D02*
X176654399Y-82419295D01*
X176935352Y-83219295D02*
X176863923Y-83181200D01*
X176863923Y-83181200D02*
X176830590Y-83143104D01*
X176830590Y-83143104D02*
X176802018Y-83066914D01*
X176802018Y-83066914D02*
X176830590Y-82838342D01*
X176830590Y-82838342D02*
X176878209Y-82762152D01*
X176878209Y-82762152D02*
X176921066Y-82724057D01*
X176921066Y-82724057D02*
X177002018Y-82685961D01*
X177002018Y-82685961D02*
X177116304Y-82685961D01*
X177116304Y-82685961D02*
X177187732Y-82724057D01*
X177187732Y-82724057D02*
X177221066Y-82762152D01*
X177221066Y-82762152D02*
X177249637Y-82838342D01*
X177249637Y-82838342D02*
X177221066Y-83066914D01*
X177221066Y-83066914D02*
X177173447Y-83143104D01*
X177173447Y-83143104D02*
X177130590Y-83181200D01*
X177130590Y-83181200D02*
X177049637Y-83219295D01*
X177049637Y-83219295D02*
X176935352Y-83219295D01*
X177544876Y-83219295D02*
X177611542Y-82685961D01*
X177592495Y-82838342D02*
X177640114Y-82762152D01*
X177640114Y-82762152D02*
X177682971Y-82724057D01*
X177682971Y-82724057D02*
X177763923Y-82685961D01*
X177763923Y-82685961D02*
X177840114Y-82685961D01*
X178997257Y-83181200D02*
X178916304Y-83219295D01*
X178916304Y-83219295D02*
X178763924Y-83219295D01*
X178763924Y-83219295D02*
X178692495Y-83181200D01*
X178692495Y-83181200D02*
X178659162Y-83143104D01*
X178659162Y-83143104D02*
X178630590Y-83066914D01*
X178630590Y-83066914D02*
X178659162Y-82838342D01*
X178659162Y-82838342D02*
X178706781Y-82762152D01*
X178706781Y-82762152D02*
X178749638Y-82724057D01*
X178749638Y-82724057D02*
X178830590Y-82685961D01*
X178830590Y-82685961D02*
X178982971Y-82685961D01*
X178982971Y-82685961D02*
X179054400Y-82724057D01*
X179449638Y-83219295D02*
X179378209Y-83181200D01*
X179378209Y-83181200D02*
X179344876Y-83143104D01*
X179344876Y-83143104D02*
X179316304Y-83066914D01*
X179316304Y-83066914D02*
X179344876Y-82838342D01*
X179344876Y-82838342D02*
X179392495Y-82762152D01*
X179392495Y-82762152D02*
X179435352Y-82724057D01*
X179435352Y-82724057D02*
X179516304Y-82685961D01*
X179516304Y-82685961D02*
X179630590Y-82685961D01*
X179630590Y-82685961D02*
X179702018Y-82724057D01*
X179702018Y-82724057D02*
X179735352Y-82762152D01*
X179735352Y-82762152D02*
X179763923Y-82838342D01*
X179763923Y-82838342D02*
X179735352Y-83066914D01*
X179735352Y-83066914D02*
X179687733Y-83143104D01*
X179687733Y-83143104D02*
X179644876Y-83181200D01*
X179644876Y-83181200D02*
X179563923Y-83219295D01*
X179563923Y-83219295D02*
X179449638Y-83219295D01*
X180059162Y-83219295D02*
X180125828Y-82685961D01*
X180116305Y-82762152D02*
X180159162Y-82724057D01*
X180159162Y-82724057D02*
X180240114Y-82685961D01*
X180240114Y-82685961D02*
X180354400Y-82685961D01*
X180354400Y-82685961D02*
X180425828Y-82724057D01*
X180425828Y-82724057D02*
X180454400Y-82800247D01*
X180454400Y-82800247D02*
X180402019Y-83219295D01*
X180454400Y-82800247D02*
X180502019Y-82724057D01*
X180502019Y-82724057D02*
X180582971Y-82685961D01*
X180582971Y-82685961D02*
X180697257Y-82685961D01*
X180697257Y-82685961D02*
X180768686Y-82724057D01*
X180768686Y-82724057D02*
X180797257Y-82800247D01*
X180797257Y-82800247D02*
X180744876Y-83219295D01*
X181192495Y-82685961D02*
X181092495Y-83485961D01*
X181187734Y-82724057D02*
X181268686Y-82685961D01*
X181268686Y-82685961D02*
X181421067Y-82685961D01*
X181421067Y-82685961D02*
X181492495Y-82724057D01*
X181492495Y-82724057D02*
X181525829Y-82762152D01*
X181525829Y-82762152D02*
X181554400Y-82838342D01*
X181554400Y-82838342D02*
X181525829Y-83066914D01*
X181525829Y-83066914D02*
X181478210Y-83143104D01*
X181478210Y-83143104D02*
X181435353Y-83181200D01*
X181435353Y-83181200D02*
X181354400Y-83219295D01*
X181354400Y-83219295D02*
X181202019Y-83219295D01*
X181202019Y-83219295D02*
X181130591Y-83181200D01*
X182192496Y-83219295D02*
X182244877Y-82800247D01*
X182244877Y-82800247D02*
X182216305Y-82724057D01*
X182216305Y-82724057D02*
X182144877Y-82685961D01*
X182144877Y-82685961D02*
X181992496Y-82685961D01*
X181992496Y-82685961D02*
X181911544Y-82724057D01*
X182197258Y-83181200D02*
X182116305Y-83219295D01*
X182116305Y-83219295D02*
X181925829Y-83219295D01*
X181925829Y-83219295D02*
X181854401Y-83181200D01*
X181854401Y-83181200D02*
X181825829Y-83105009D01*
X181825829Y-83105009D02*
X181835353Y-83028819D01*
X181835353Y-83028819D02*
X181882972Y-82952628D01*
X181882972Y-82952628D02*
X181963925Y-82914533D01*
X181963925Y-82914533D02*
X182154401Y-82914533D01*
X182154401Y-82914533D02*
X182235353Y-82876438D01*
X182525830Y-82685961D02*
X182830592Y-82685961D01*
X182673449Y-82419295D02*
X182587735Y-83105009D01*
X182587735Y-83105009D02*
X182616306Y-83181200D01*
X182616306Y-83181200D02*
X182687735Y-83219295D01*
X182687735Y-83219295D02*
X182763925Y-83219295D01*
X183030592Y-83219295D02*
X183097258Y-82685961D01*
X183130592Y-82419295D02*
X183087735Y-82457390D01*
X183087735Y-82457390D02*
X183121068Y-82495485D01*
X183121068Y-82495485D02*
X183163925Y-82457390D01*
X183163925Y-82457390D02*
X183130592Y-82419295D01*
X183130592Y-82419295D02*
X183121068Y-82495485D01*
X183411544Y-83219295D02*
X183511544Y-82419295D01*
X183473449Y-82724057D02*
X183554401Y-82685961D01*
X183554401Y-82685961D02*
X183706782Y-82685961D01*
X183706782Y-82685961D02*
X183778210Y-82724057D01*
X183778210Y-82724057D02*
X183811544Y-82762152D01*
X183811544Y-82762152D02*
X183840115Y-82838342D01*
X183840115Y-82838342D02*
X183811544Y-83066914D01*
X183811544Y-83066914D02*
X183763925Y-83143104D01*
X183763925Y-83143104D02*
X183721068Y-83181200D01*
X183721068Y-83181200D02*
X183640115Y-83219295D01*
X183640115Y-83219295D02*
X183487734Y-83219295D01*
X183487734Y-83219295D02*
X183416306Y-83181200D01*
X184135354Y-83219295D02*
X184202020Y-82685961D01*
X184235354Y-82419295D02*
X184192497Y-82457390D01*
X184192497Y-82457390D02*
X184225830Y-82495485D01*
X184225830Y-82495485D02*
X184268687Y-82457390D01*
X184268687Y-82457390D02*
X184235354Y-82419295D01*
X184235354Y-82419295D02*
X184225830Y-82495485D01*
X184630592Y-83219295D02*
X184559163Y-83181200D01*
X184559163Y-83181200D02*
X184530592Y-83105009D01*
X184530592Y-83105009D02*
X184616306Y-82419295D01*
X184935354Y-83219295D02*
X185002020Y-82685961D01*
X185035354Y-82419295D02*
X184992497Y-82457390D01*
X184992497Y-82457390D02*
X185025830Y-82495485D01*
X185025830Y-82495485D02*
X185068687Y-82457390D01*
X185068687Y-82457390D02*
X185035354Y-82419295D01*
X185035354Y-82419295D02*
X185025830Y-82495485D01*
X185268687Y-82685961D02*
X185573449Y-82685961D01*
X185416306Y-82419295D02*
X185330592Y-83105009D01*
X185330592Y-83105009D02*
X185359163Y-83181200D01*
X185359163Y-83181200D02*
X185430592Y-83219295D01*
X185430592Y-83219295D02*
X185506782Y-83219295D01*
X185763925Y-82685961D02*
X185887735Y-83219295D01*
X186144877Y-82685961D02*
X185887735Y-83219295D01*
X185887735Y-83219295D02*
X185787735Y-83409771D01*
X185787735Y-83409771D02*
X185744877Y-83447866D01*
X185744877Y-83447866D02*
X185663925Y-83485961D01*
X175078207Y-80054847D02*
X174621064Y-80054847D01*
X174849636Y-80054847D02*
X174849636Y-79054847D01*
X174849636Y-79054847D02*
X174773445Y-79197704D01*
X174773445Y-79197704D02*
X174697255Y-79292942D01*
X174697255Y-79292942D02*
X174621064Y-79340561D01*
X175573446Y-79054847D02*
X175649636Y-79054847D01*
X175649636Y-79054847D02*
X175725827Y-79102466D01*
X175725827Y-79102466D02*
X175763922Y-79150085D01*
X175763922Y-79150085D02*
X175802017Y-79245323D01*
X175802017Y-79245323D02*
X175840112Y-79435799D01*
X175840112Y-79435799D02*
X175840112Y-79673894D01*
X175840112Y-79673894D02*
X175802017Y-79864370D01*
X175802017Y-79864370D02*
X175763922Y-79959608D01*
X175763922Y-79959608D02*
X175725827Y-80007228D01*
X175725827Y-80007228D02*
X175649636Y-80054847D01*
X175649636Y-80054847D02*
X175573446Y-80054847D01*
X175573446Y-80054847D02*
X175497255Y-80007228D01*
X175497255Y-80007228D02*
X175459160Y-79959608D01*
X175459160Y-79959608D02*
X175421065Y-79864370D01*
X175421065Y-79864370D02*
X175382969Y-79673894D01*
X175382969Y-79673894D02*
X175382969Y-79435799D01*
X175382969Y-79435799D02*
X175421065Y-79245323D01*
X175421065Y-79245323D02*
X175459160Y-79150085D01*
X175459160Y-79150085D02*
X175497255Y-79102466D01*
X175497255Y-79102466D02*
X175573446Y-79054847D01*
X176182970Y-79673894D02*
X176792494Y-79673894D01*
X177592493Y-80054847D02*
X177135350Y-80054847D01*
X177363922Y-80054847D02*
X177363922Y-79054847D01*
X177363922Y-79054847D02*
X177287731Y-79197704D01*
X177287731Y-79197704D02*
X177211541Y-79292942D01*
X177211541Y-79292942D02*
X177135350Y-79340561D01*
X177973446Y-80054847D02*
X178125827Y-80054847D01*
X178125827Y-80054847D02*
X178202017Y-80007228D01*
X178202017Y-80007228D02*
X178240113Y-79959608D01*
X178240113Y-79959608D02*
X178316303Y-79816751D01*
X178316303Y-79816751D02*
X178354398Y-79626275D01*
X178354398Y-79626275D02*
X178354398Y-79245323D01*
X178354398Y-79245323D02*
X178316303Y-79150085D01*
X178316303Y-79150085D02*
X178278208Y-79102466D01*
X178278208Y-79102466D02*
X178202017Y-79054847D01*
X178202017Y-79054847D02*
X178049636Y-79054847D01*
X178049636Y-79054847D02*
X177973446Y-79102466D01*
X177973446Y-79102466D02*
X177935351Y-79150085D01*
X177935351Y-79150085D02*
X177897255Y-79245323D01*
X177897255Y-79245323D02*
X177897255Y-79483418D01*
X177897255Y-79483418D02*
X177935351Y-79578656D01*
X177935351Y-79578656D02*
X177973446Y-79626275D01*
X177973446Y-79626275D02*
X178049636Y-79673894D01*
X178049636Y-79673894D02*
X178202017Y-79673894D01*
X178202017Y-79673894D02*
X178278208Y-79626275D01*
X178278208Y-79626275D02*
X178316303Y-79578656D01*
X178316303Y-79578656D02*
X178354398Y-79483418D01*
X178659160Y-79150085D02*
X178697256Y-79102466D01*
X178697256Y-79102466D02*
X178773446Y-79054847D01*
X178773446Y-79054847D02*
X178963922Y-79054847D01*
X178963922Y-79054847D02*
X179040113Y-79102466D01*
X179040113Y-79102466D02*
X179078208Y-79150085D01*
X179078208Y-79150085D02*
X179116303Y-79245323D01*
X179116303Y-79245323D02*
X179116303Y-79340561D01*
X179116303Y-79340561D02*
X179078208Y-79483418D01*
X179078208Y-79483418D02*
X178621065Y-80054847D01*
X178621065Y-80054847D02*
X179116303Y-80054847D01*
X179459161Y-80054847D02*
X179459161Y-79054847D01*
X179535351Y-79673894D02*
X179763923Y-80054847D01*
X179763923Y-79388180D02*
X179459161Y-79769132D01*
X180373446Y-79531037D02*
X180487732Y-79578656D01*
X180487732Y-79578656D02*
X180525827Y-79626275D01*
X180525827Y-79626275D02*
X180563923Y-79721513D01*
X180563923Y-79721513D02*
X180563923Y-79864370D01*
X180563923Y-79864370D02*
X180525827Y-79959608D01*
X180525827Y-79959608D02*
X180487732Y-80007228D01*
X180487732Y-80007228D02*
X180411542Y-80054847D01*
X180411542Y-80054847D02*
X180106780Y-80054847D01*
X180106780Y-80054847D02*
X180106780Y-79054847D01*
X180106780Y-79054847D02*
X180373446Y-79054847D01*
X180373446Y-79054847D02*
X180449637Y-79102466D01*
X180449637Y-79102466D02*
X180487732Y-79150085D01*
X180487732Y-79150085D02*
X180525827Y-79245323D01*
X180525827Y-79245323D02*
X180525827Y-79340561D01*
X180525827Y-79340561D02*
X180487732Y-79435799D01*
X180487732Y-79435799D02*
X180449637Y-79483418D01*
X180449637Y-79483418D02*
X180373446Y-79531037D01*
X180373446Y-79531037D02*
X180106780Y-79531037D01*
X175078207Y-81664791D02*
X174621064Y-81664791D01*
X174849636Y-81664791D02*
X174849636Y-80664791D01*
X174849636Y-80664791D02*
X174773445Y-80807648D01*
X174773445Y-80807648D02*
X174697255Y-80902886D01*
X174697255Y-80902886D02*
X174621064Y-80950505D01*
X175840112Y-81664791D02*
X175382969Y-81664791D01*
X175611541Y-81664791D02*
X175611541Y-80664791D01*
X175611541Y-80664791D02*
X175535350Y-80807648D01*
X175535350Y-80807648D02*
X175459160Y-80902886D01*
X175459160Y-80902886D02*
X175382969Y-80950505D01*
X176182970Y-81283838D02*
X176792494Y-81283838D01*
X177592493Y-81664791D02*
X177135350Y-81664791D01*
X177363922Y-81664791D02*
X177363922Y-80664791D01*
X177363922Y-80664791D02*
X177287731Y-80807648D01*
X177287731Y-80807648D02*
X177211541Y-80902886D01*
X177211541Y-80902886D02*
X177135350Y-80950505D01*
X177897255Y-80760029D02*
X177935351Y-80712410D01*
X177935351Y-80712410D02*
X178011541Y-80664791D01*
X178011541Y-80664791D02*
X178202017Y-80664791D01*
X178202017Y-80664791D02*
X178278208Y-80712410D01*
X178278208Y-80712410D02*
X178316303Y-80760029D01*
X178316303Y-80760029D02*
X178354398Y-80855267D01*
X178354398Y-80855267D02*
X178354398Y-80950505D01*
X178354398Y-80950505D02*
X178316303Y-81093362D01*
X178316303Y-81093362D02*
X177859160Y-81664791D01*
X177859160Y-81664791D02*
X178354398Y-81664791D01*
X178811541Y-81093362D02*
X178735351Y-81045743D01*
X178735351Y-81045743D02*
X178697256Y-80998124D01*
X178697256Y-80998124D02*
X178659160Y-80902886D01*
X178659160Y-80902886D02*
X178659160Y-80855267D01*
X178659160Y-80855267D02*
X178697256Y-80760029D01*
X178697256Y-80760029D02*
X178735351Y-80712410D01*
X178735351Y-80712410D02*
X178811541Y-80664791D01*
X178811541Y-80664791D02*
X178963922Y-80664791D01*
X178963922Y-80664791D02*
X179040113Y-80712410D01*
X179040113Y-80712410D02*
X179078208Y-80760029D01*
X179078208Y-80760029D02*
X179116303Y-80855267D01*
X179116303Y-80855267D02*
X179116303Y-80902886D01*
X179116303Y-80902886D02*
X179078208Y-80998124D01*
X179078208Y-80998124D02*
X179040113Y-81045743D01*
X179040113Y-81045743D02*
X178963922Y-81093362D01*
X178963922Y-81093362D02*
X178811541Y-81093362D01*
X178811541Y-81093362D02*
X178735351Y-81140981D01*
X178735351Y-81140981D02*
X178697256Y-81188600D01*
X178697256Y-81188600D02*
X178659160Y-81283838D01*
X178659160Y-81283838D02*
X178659160Y-81474314D01*
X178659160Y-81474314D02*
X178697256Y-81569552D01*
X178697256Y-81569552D02*
X178735351Y-81617172D01*
X178735351Y-81617172D02*
X178811541Y-81664791D01*
X178811541Y-81664791D02*
X178963922Y-81664791D01*
X178963922Y-81664791D02*
X179040113Y-81617172D01*
X179040113Y-81617172D02*
X179078208Y-81569552D01*
X179078208Y-81569552D02*
X179116303Y-81474314D01*
X179116303Y-81474314D02*
X179116303Y-81283838D01*
X179116303Y-81283838D02*
X179078208Y-81188600D01*
X179078208Y-81188600D02*
X179040113Y-81140981D01*
X179040113Y-81140981D02*
X178963922Y-81093362D01*
X179459161Y-81664791D02*
X179459161Y-80664791D01*
X179535351Y-81283838D02*
X179763923Y-81664791D01*
X179763923Y-80998124D02*
X179459161Y-81379076D01*
X180373446Y-81140981D02*
X180487732Y-81188600D01*
X180487732Y-81188600D02*
X180525827Y-81236219D01*
X180525827Y-81236219D02*
X180563923Y-81331457D01*
X180563923Y-81331457D02*
X180563923Y-81474314D01*
X180563923Y-81474314D02*
X180525827Y-81569552D01*
X180525827Y-81569552D02*
X180487732Y-81617172D01*
X180487732Y-81617172D02*
X180411542Y-81664791D01*
X180411542Y-81664791D02*
X180106780Y-81664791D01*
X180106780Y-81664791D02*
X180106780Y-80664791D01*
X180106780Y-80664791D02*
X180373446Y-80664791D01*
X180373446Y-80664791D02*
X180449637Y-80712410D01*
X180449637Y-80712410D02*
X180487732Y-80760029D01*
X180487732Y-80760029D02*
X180525827Y-80855267D01*
X180525827Y-80855267D02*
X180525827Y-80950505D01*
X180525827Y-80950505D02*
X180487732Y-81045743D01*
X180487732Y-81045743D02*
X180449637Y-81093362D01*
X180449637Y-81093362D02*
X180373446Y-81140981D01*
X180373446Y-81140981D02*
X180106780Y-81140981D01*
X181021065Y-80664791D02*
X181021065Y-80902886D01*
X180830589Y-80807648D02*
X181021065Y-80902886D01*
X181021065Y-80902886D02*
X181211542Y-80807648D01*
X180906780Y-81093362D02*
X181021065Y-80902886D01*
X181021065Y-80902886D02*
X181135351Y-81093362D01*
X181630589Y-80664791D02*
X181630589Y-80902886D01*
X181440113Y-80807648D02*
X181630589Y-80902886D01*
X181630589Y-80902886D02*
X181821066Y-80807648D01*
X181516304Y-81093362D02*
X181630589Y-80902886D01*
X181630589Y-80902886D02*
X181744875Y-81093362D01*
D11*
X126801903Y-82579400D02*
X127087617Y-82674638D01*
X127087617Y-82674638D02*
X127563808Y-82674638D01*
X127563808Y-82674638D02*
X127754284Y-82579400D01*
X127754284Y-82579400D02*
X127849522Y-82484161D01*
X127849522Y-82484161D02*
X127944760Y-82293685D01*
X127944760Y-82293685D02*
X127944760Y-82103209D01*
X127944760Y-82103209D02*
X127849522Y-81912733D01*
X127849522Y-81912733D02*
X127754284Y-81817495D01*
X127754284Y-81817495D02*
X127563808Y-81722257D01*
X127563808Y-81722257D02*
X127182855Y-81627019D01*
X127182855Y-81627019D02*
X126992379Y-81531780D01*
X126992379Y-81531780D02*
X126897141Y-81436542D01*
X126897141Y-81436542D02*
X126801903Y-81246066D01*
X126801903Y-81246066D02*
X126801903Y-81055590D01*
X126801903Y-81055590D02*
X126897141Y-80865114D01*
X126897141Y-80865114D02*
X126992379Y-80769876D01*
X126992379Y-80769876D02*
X127182855Y-80674638D01*
X127182855Y-80674638D02*
X127659046Y-80674638D01*
X127659046Y-80674638D02*
X127944760Y-80769876D01*
X128801903Y-82674638D02*
X128801903Y-80674638D01*
X129754284Y-82674638D02*
X129754284Y-80674638D01*
X129754284Y-80674638D02*
X130897141Y-82674638D01*
X130897141Y-82674638D02*
X130897141Y-80674638D01*
X132992379Y-82484161D02*
X132897141Y-82579400D01*
X132897141Y-82579400D02*
X132611427Y-82674638D01*
X132611427Y-82674638D02*
X132420951Y-82674638D01*
X132420951Y-82674638D02*
X132135236Y-82579400D01*
X132135236Y-82579400D02*
X131944760Y-82388923D01*
X131944760Y-82388923D02*
X131849522Y-82198447D01*
X131849522Y-82198447D02*
X131754284Y-81817495D01*
X131754284Y-81817495D02*
X131754284Y-81531780D01*
X131754284Y-81531780D02*
X131849522Y-81150828D01*
X131849522Y-81150828D02*
X131944760Y-80960352D01*
X131944760Y-80960352D02*
X132135236Y-80769876D01*
X132135236Y-80769876D02*
X132420951Y-80674638D01*
X132420951Y-80674638D02*
X132611427Y-80674638D01*
X132611427Y-80674638D02*
X132897141Y-80769876D01*
X132897141Y-80769876D02*
X132992379Y-80865114D01*
X134801903Y-82674638D02*
X133849522Y-82674638D01*
X133849522Y-82674638D02*
X133849522Y-80674638D01*
X135373332Y-82103209D02*
X136325713Y-82103209D01*
X135182856Y-82674638D02*
X135849522Y-80674638D01*
X135849522Y-80674638D02*
X136516189Y-82674638D01*
X137182856Y-82674638D02*
X137182856Y-80674638D01*
X139278094Y-82674638D02*
X138611427Y-81722257D01*
X138135237Y-82674638D02*
X138135237Y-80674638D01*
X138135237Y-80674638D02*
X138897142Y-80674638D01*
X138897142Y-80674638D02*
X139087618Y-80769876D01*
X139087618Y-80769876D02*
X139182856Y-80865114D01*
X139182856Y-80865114D02*
X139278094Y-81055590D01*
X139278094Y-81055590D02*
X139278094Y-81341304D01*
X139278094Y-81341304D02*
X139182856Y-81531780D01*
X139182856Y-81531780D02*
X139087618Y-81627019D01*
X139087618Y-81627019D02*
X138897142Y-81722257D01*
X138897142Y-81722257D02*
X138135237Y-81722257D01*
X142992380Y-82865114D02*
X142801904Y-82769876D01*
X142801904Y-82769876D02*
X142611428Y-82579400D01*
X142611428Y-82579400D02*
X142325714Y-82293685D01*
X142325714Y-82293685D02*
X142135237Y-82198447D01*
X142135237Y-82198447D02*
X141944761Y-82198447D01*
X142039999Y-82674638D02*
X141849523Y-82579400D01*
X141849523Y-82579400D02*
X141659047Y-82388923D01*
X141659047Y-82388923D02*
X141563809Y-82007971D01*
X141563809Y-82007971D02*
X141563809Y-81341304D01*
X141563809Y-81341304D02*
X141659047Y-80960352D01*
X141659047Y-80960352D02*
X141849523Y-80769876D01*
X141849523Y-80769876D02*
X142039999Y-80674638D01*
X142039999Y-80674638D02*
X142420952Y-80674638D01*
X142420952Y-80674638D02*
X142611428Y-80769876D01*
X142611428Y-80769876D02*
X142801904Y-80960352D01*
X142801904Y-80960352D02*
X142897142Y-81341304D01*
X142897142Y-81341304D02*
X142897142Y-82007971D01*
X142897142Y-82007971D02*
X142801904Y-82388923D01*
X142801904Y-82388923D02*
X142611428Y-82579400D01*
X142611428Y-82579400D02*
X142420952Y-82674638D01*
X142420952Y-82674638D02*
X142039999Y-82674638D01*
X144706666Y-82674638D02*
X143754285Y-82674638D01*
X143754285Y-82674638D02*
X143754285Y-80674638D01*
X147849524Y-80674638D02*
X146897143Y-80674638D01*
X146897143Y-80674638D02*
X146801905Y-81627019D01*
X146801905Y-81627019D02*
X146897143Y-81531780D01*
X146897143Y-81531780D02*
X147087619Y-81436542D01*
X147087619Y-81436542D02*
X147563810Y-81436542D01*
X147563810Y-81436542D02*
X147754286Y-81531780D01*
X147754286Y-81531780D02*
X147849524Y-81627019D01*
X147849524Y-81627019D02*
X147944762Y-81817495D01*
X147944762Y-81817495D02*
X147944762Y-82293685D01*
X147944762Y-82293685D02*
X147849524Y-82484161D01*
X147849524Y-82484161D02*
X147754286Y-82579400D01*
X147754286Y-82579400D02*
X147563810Y-82674638D01*
X147563810Y-82674638D02*
X147087619Y-82674638D01*
X147087619Y-82674638D02*
X146897143Y-82579400D01*
X146897143Y-82579400D02*
X146801905Y-82484161D01*
X149849524Y-82674638D02*
X148706667Y-82674638D01*
X149278095Y-82674638D02*
X149278095Y-80674638D01*
X149278095Y-80674638D02*
X149087619Y-80960352D01*
X149087619Y-80960352D02*
X148897143Y-81150828D01*
X148897143Y-81150828D02*
X148706667Y-81246066D01*
X150611429Y-80865114D02*
X150706667Y-80769876D01*
X150706667Y-80769876D02*
X150897143Y-80674638D01*
X150897143Y-80674638D02*
X151373334Y-80674638D01*
X151373334Y-80674638D02*
X151563810Y-80769876D01*
X151563810Y-80769876D02*
X151659048Y-80865114D01*
X151659048Y-80865114D02*
X151754286Y-81055590D01*
X151754286Y-81055590D02*
X151754286Y-81246066D01*
X151754286Y-81246066D02*
X151659048Y-81531780D01*
X151659048Y-81531780D02*
X150516191Y-82674638D01*
X150516191Y-82674638D02*
X151754286Y-82674638D01*
X152611429Y-82674638D02*
X152611429Y-80674638D01*
X153754286Y-82674638D02*
X152897143Y-81531780D01*
X153754286Y-80674638D02*
X152611429Y-81817495D01*
X155278096Y-81627019D02*
X155563810Y-81722257D01*
X155563810Y-81722257D02*
X155659048Y-81817495D01*
X155659048Y-81817495D02*
X155754286Y-82007971D01*
X155754286Y-82007971D02*
X155754286Y-82293685D01*
X155754286Y-82293685D02*
X155659048Y-82484161D01*
X155659048Y-82484161D02*
X155563810Y-82579400D01*
X155563810Y-82579400D02*
X155373334Y-82674638D01*
X155373334Y-82674638D02*
X154611429Y-82674638D01*
X154611429Y-82674638D02*
X154611429Y-80674638D01*
X154611429Y-80674638D02*
X155278096Y-80674638D01*
X155278096Y-80674638D02*
X155468572Y-80769876D01*
X155468572Y-80769876D02*
X155563810Y-80865114D01*
X155563810Y-80865114D02*
X155659048Y-81055590D01*
X155659048Y-81055590D02*
X155659048Y-81246066D01*
X155659048Y-81246066D02*
X155563810Y-81436542D01*
X155563810Y-81436542D02*
X155468572Y-81531780D01*
X155468572Y-81531780D02*
X155278096Y-81627019D01*
X155278096Y-81627019D02*
X154611429Y-81627019D01*
X159278096Y-82674638D02*
X158611429Y-81722257D01*
X158135239Y-82674638D02*
X158135239Y-80674638D01*
X158135239Y-80674638D02*
X158897144Y-80674638D01*
X158897144Y-80674638D02*
X159087620Y-80769876D01*
X159087620Y-80769876D02*
X159182858Y-80865114D01*
X159182858Y-80865114D02*
X159278096Y-81055590D01*
X159278096Y-81055590D02*
X159278096Y-81341304D01*
X159278096Y-81341304D02*
X159182858Y-81531780D01*
X159182858Y-81531780D02*
X159087620Y-81627019D01*
X159087620Y-81627019D02*
X158897144Y-81722257D01*
X158897144Y-81722257D02*
X158135239Y-81722257D01*
X160040001Y-82103209D02*
X160992382Y-82103209D01*
X159849525Y-82674638D02*
X160516191Y-80674638D01*
X160516191Y-80674638D02*
X161182858Y-82674638D01*
X161849525Y-82674638D02*
X161849525Y-80674638D01*
X161849525Y-80674638D02*
X162516192Y-82103209D01*
X162516192Y-82103209D02*
X163182858Y-80674638D01*
X163182858Y-80674638D02*
X163182858Y-82674638D01*
D10*
X109860588Y-62924819D02*
X109289160Y-62924819D01*
X109574874Y-62924819D02*
X109574874Y-61924819D01*
X109574874Y-61924819D02*
X109479636Y-62067676D01*
X109479636Y-62067676D02*
X109384398Y-62162914D01*
X109384398Y-62162914D02*
X109289160Y-62210533D01*
X111765351Y-62020057D02*
X111812970Y-61972438D01*
X111812970Y-61972438D02*
X111908208Y-61924819D01*
X111908208Y-61924819D02*
X112146303Y-61924819D01*
X112146303Y-61924819D02*
X112241541Y-61972438D01*
X112241541Y-61972438D02*
X112289160Y-62020057D01*
X112289160Y-62020057D02*
X112336779Y-62115295D01*
X112336779Y-62115295D02*
X112336779Y-62210533D01*
X112336779Y-62210533D02*
X112289160Y-62353390D01*
X112289160Y-62353390D02*
X111717732Y-62924819D01*
X111717732Y-62924819D02*
X112336779Y-62924819D01*
X113432018Y-61924819D02*
X114051065Y-61924819D01*
X114051065Y-61924819D02*
X113717732Y-62305771D01*
X113717732Y-62305771D02*
X113860589Y-62305771D01*
X113860589Y-62305771D02*
X113955827Y-62353390D01*
X113955827Y-62353390D02*
X114003446Y-62401009D01*
X114003446Y-62401009D02*
X114051065Y-62496247D01*
X114051065Y-62496247D02*
X114051065Y-62734342D01*
X114051065Y-62734342D02*
X114003446Y-62829580D01*
X114003446Y-62829580D02*
X113955827Y-62877200D01*
X113955827Y-62877200D02*
X113860589Y-62924819D01*
X113860589Y-62924819D02*
X113574875Y-62924819D01*
X113574875Y-62924819D02*
X113479637Y-62877200D01*
X113479637Y-62877200D02*
X113432018Y-62829580D01*
X151412383Y-78125473D02*
X151412383Y-76875473D01*
X151412383Y-76875473D02*
X151829049Y-77768330D01*
X151829049Y-77768330D02*
X152245716Y-76875473D01*
X152245716Y-76875473D02*
X152245716Y-78125473D01*
X153019525Y-78125473D02*
X152900477Y-78065950D01*
X152900477Y-78065950D02*
X152840954Y-78006426D01*
X152840954Y-78006426D02*
X152781430Y-77887378D01*
X152781430Y-77887378D02*
X152781430Y-77530235D01*
X152781430Y-77530235D02*
X152840954Y-77411188D01*
X152840954Y-77411188D02*
X152900477Y-77351664D01*
X152900477Y-77351664D02*
X153019525Y-77292140D01*
X153019525Y-77292140D02*
X153198096Y-77292140D01*
X153198096Y-77292140D02*
X153317144Y-77351664D01*
X153317144Y-77351664D02*
X153376668Y-77411188D01*
X153376668Y-77411188D02*
X153436192Y-77530235D01*
X153436192Y-77530235D02*
X153436192Y-77887378D01*
X153436192Y-77887378D02*
X153376668Y-78006426D01*
X153376668Y-78006426D02*
X153317144Y-78065950D01*
X153317144Y-78065950D02*
X153198096Y-78125473D01*
X153198096Y-78125473D02*
X153019525Y-78125473D01*
X154507620Y-78125473D02*
X154507620Y-76875473D01*
X154507620Y-78065950D02*
X154388572Y-78125473D01*
X154388572Y-78125473D02*
X154150477Y-78125473D01*
X154150477Y-78125473D02*
X154031429Y-78065950D01*
X154031429Y-78065950D02*
X153971906Y-78006426D01*
X153971906Y-78006426D02*
X153912382Y-77887378D01*
X153912382Y-77887378D02*
X153912382Y-77530235D01*
X153912382Y-77530235D02*
X153971906Y-77411188D01*
X153971906Y-77411188D02*
X154031429Y-77351664D01*
X154031429Y-77351664D02*
X154150477Y-77292140D01*
X154150477Y-77292140D02*
X154388572Y-77292140D01*
X154388572Y-77292140D02*
X154507620Y-77351664D01*
X155102858Y-78125473D02*
X155102858Y-77292140D01*
X155102858Y-76875473D02*
X155043334Y-76934997D01*
X155043334Y-76934997D02*
X155102858Y-76994521D01*
X155102858Y-76994521D02*
X155162381Y-76934997D01*
X155162381Y-76934997D02*
X155102858Y-76875473D01*
X155102858Y-76875473D02*
X155102858Y-76994521D01*
X155519524Y-77292140D02*
X155995715Y-77292140D01*
X155698096Y-78125473D02*
X155698096Y-77054045D01*
X155698096Y-77054045D02*
X155757619Y-76934997D01*
X155757619Y-76934997D02*
X155876667Y-76875473D01*
X155876667Y-76875473D02*
X155995715Y-76875473D01*
X156412382Y-78125473D02*
X156412382Y-77292140D01*
X156412382Y-76875473D02*
X156352858Y-76934997D01*
X156352858Y-76934997D02*
X156412382Y-76994521D01*
X156412382Y-76994521D02*
X156471905Y-76934997D01*
X156471905Y-76934997D02*
X156412382Y-76875473D01*
X156412382Y-76875473D02*
X156412382Y-76994521D01*
X157483810Y-78065950D02*
X157364762Y-78125473D01*
X157364762Y-78125473D02*
X157126667Y-78125473D01*
X157126667Y-78125473D02*
X157007620Y-78065950D01*
X157007620Y-78065950D02*
X156948096Y-77946902D01*
X156948096Y-77946902D02*
X156948096Y-77470711D01*
X156948096Y-77470711D02*
X157007620Y-77351664D01*
X157007620Y-77351664D02*
X157126667Y-77292140D01*
X157126667Y-77292140D02*
X157364762Y-77292140D01*
X157364762Y-77292140D02*
X157483810Y-77351664D01*
X157483810Y-77351664D02*
X157543334Y-77470711D01*
X157543334Y-77470711D02*
X157543334Y-77589759D01*
X157543334Y-77589759D02*
X156948096Y-77708807D01*
X158614763Y-78125473D02*
X158614763Y-76875473D01*
X158614763Y-78065950D02*
X158495715Y-78125473D01*
X158495715Y-78125473D02*
X158257620Y-78125473D01*
X158257620Y-78125473D02*
X158138572Y-78065950D01*
X158138572Y-78065950D02*
X158079049Y-78006426D01*
X158079049Y-78006426D02*
X158019525Y-77887378D01*
X158019525Y-77887378D02*
X158019525Y-77530235D01*
X158019525Y-77530235D02*
X158079049Y-77411188D01*
X158079049Y-77411188D02*
X158138572Y-77351664D01*
X158138572Y-77351664D02*
X158257620Y-77292140D01*
X158257620Y-77292140D02*
X158495715Y-77292140D01*
X158495715Y-77292140D02*
X158614763Y-77351664D01*
X160162382Y-78125473D02*
X160162382Y-76875473D01*
X160162382Y-77351664D02*
X160281429Y-77292140D01*
X160281429Y-77292140D02*
X160519524Y-77292140D01*
X160519524Y-77292140D02*
X160638572Y-77351664D01*
X160638572Y-77351664D02*
X160698096Y-77411188D01*
X160698096Y-77411188D02*
X160757620Y-77530235D01*
X160757620Y-77530235D02*
X160757620Y-77887378D01*
X160757620Y-77887378D02*
X160698096Y-78006426D01*
X160698096Y-78006426D02*
X160638572Y-78065950D01*
X160638572Y-78065950D02*
X160519524Y-78125473D01*
X160519524Y-78125473D02*
X160281429Y-78125473D01*
X160281429Y-78125473D02*
X160162382Y-78065950D01*
X161174286Y-77292140D02*
X161471905Y-78125473D01*
X161769524Y-77292140D02*
X161471905Y-78125473D01*
X161471905Y-78125473D02*
X161352857Y-78423092D01*
X161352857Y-78423092D02*
X161293334Y-78482616D01*
X161293334Y-78482616D02*
X161174286Y-78542140D01*
X163198096Y-78125473D02*
X163198096Y-76875473D01*
X163198096Y-76875473D02*
X163674286Y-76875473D01*
X163674286Y-76875473D02*
X163793334Y-76934997D01*
X163793334Y-76934997D02*
X163852857Y-76994521D01*
X163852857Y-76994521D02*
X163912381Y-77113569D01*
X163912381Y-77113569D02*
X163912381Y-77292140D01*
X163912381Y-77292140D02*
X163852857Y-77411188D01*
X163852857Y-77411188D02*
X163793334Y-77470711D01*
X163793334Y-77470711D02*
X163674286Y-77530235D01*
X163674286Y-77530235D02*
X163198096Y-77530235D01*
X164626667Y-78125473D02*
X164507619Y-78065950D01*
X164507619Y-78065950D02*
X164448096Y-78006426D01*
X164448096Y-78006426D02*
X164388572Y-77887378D01*
X164388572Y-77887378D02*
X164388572Y-77530235D01*
X164388572Y-77530235D02*
X164448096Y-77411188D01*
X164448096Y-77411188D02*
X164507619Y-77351664D01*
X164507619Y-77351664D02*
X164626667Y-77292140D01*
X164626667Y-77292140D02*
X164805238Y-77292140D01*
X164805238Y-77292140D02*
X164924286Y-77351664D01*
X164924286Y-77351664D02*
X164983810Y-77411188D01*
X164983810Y-77411188D02*
X165043334Y-77530235D01*
X165043334Y-77530235D02*
X165043334Y-77887378D01*
X165043334Y-77887378D02*
X164983810Y-78006426D01*
X164983810Y-78006426D02*
X164924286Y-78065950D01*
X164924286Y-78065950D02*
X164805238Y-78125473D01*
X164805238Y-78125473D02*
X164626667Y-78125473D01*
X165579048Y-77292140D02*
X165579048Y-78542140D01*
X165579048Y-77351664D02*
X165698095Y-77292140D01*
X165698095Y-77292140D02*
X165936190Y-77292140D01*
X165936190Y-77292140D02*
X166055238Y-77351664D01*
X166055238Y-77351664D02*
X166114762Y-77411188D01*
X166114762Y-77411188D02*
X166174286Y-77530235D01*
X166174286Y-77530235D02*
X166174286Y-77887378D01*
X166174286Y-77887378D02*
X166114762Y-78006426D01*
X166114762Y-78006426D02*
X166055238Y-78065950D01*
X166055238Y-78065950D02*
X165936190Y-78125473D01*
X165936190Y-78125473D02*
X165698095Y-78125473D01*
X165698095Y-78125473D02*
X165579048Y-78065950D01*
X166888571Y-78125473D02*
X166769523Y-78065950D01*
X166769523Y-78065950D02*
X166710000Y-78006426D01*
X166710000Y-78006426D02*
X166650476Y-77887378D01*
X166650476Y-77887378D02*
X166650476Y-77530235D01*
X166650476Y-77530235D02*
X166710000Y-77411188D01*
X166710000Y-77411188D02*
X166769523Y-77351664D01*
X166769523Y-77351664D02*
X166888571Y-77292140D01*
X166888571Y-77292140D02*
X167067142Y-77292140D01*
X167067142Y-77292140D02*
X167186190Y-77351664D01*
X167186190Y-77351664D02*
X167245714Y-77411188D01*
X167245714Y-77411188D02*
X167305238Y-77530235D01*
X167305238Y-77530235D02*
X167305238Y-77887378D01*
X167305238Y-77887378D02*
X167245714Y-78006426D01*
X167245714Y-78006426D02*
X167186190Y-78065950D01*
X167186190Y-78065950D02*
X167067142Y-78125473D01*
X167067142Y-78125473D02*
X166888571Y-78125473D01*
X167840952Y-77292140D02*
X167840952Y-78542140D01*
X167840952Y-77351664D02*
X167959999Y-77292140D01*
X167959999Y-77292140D02*
X168198094Y-77292140D01*
X168198094Y-77292140D02*
X168317142Y-77351664D01*
X168317142Y-77351664D02*
X168376666Y-77411188D01*
X168376666Y-77411188D02*
X168436190Y-77530235D01*
X168436190Y-77530235D02*
X168436190Y-77887378D01*
X168436190Y-77887378D02*
X168376666Y-78006426D01*
X168376666Y-78006426D02*
X168317142Y-78065950D01*
X168317142Y-78065950D02*
X168198094Y-78125473D01*
X168198094Y-78125473D02*
X167959999Y-78125473D01*
X167959999Y-78125473D02*
X167840952Y-78065950D01*
X169150475Y-78125473D02*
X169031427Y-78065950D01*
X169031427Y-78065950D02*
X168971904Y-78006426D01*
X168971904Y-78006426D02*
X168912380Y-77887378D01*
X168912380Y-77887378D02*
X168912380Y-77530235D01*
X168912380Y-77530235D02*
X168971904Y-77411188D01*
X168971904Y-77411188D02*
X169031427Y-77351664D01*
X169031427Y-77351664D02*
X169150475Y-77292140D01*
X169150475Y-77292140D02*
X169329046Y-77292140D01*
X169329046Y-77292140D02*
X169448094Y-77351664D01*
X169448094Y-77351664D02*
X169507618Y-77411188D01*
X169507618Y-77411188D02*
X169567142Y-77530235D01*
X169567142Y-77530235D02*
X169567142Y-77887378D01*
X169567142Y-77887378D02*
X169507618Y-78006426D01*
X169507618Y-78006426D02*
X169448094Y-78065950D01*
X169448094Y-78065950D02*
X169329046Y-78125473D01*
X169329046Y-78125473D02*
X169150475Y-78125473D01*
X150567857Y-62715473D02*
X150805952Y-62715473D01*
X150805952Y-62715473D02*
X150925000Y-62774997D01*
X150925000Y-62774997D02*
X151044047Y-62894045D01*
X151044047Y-62894045D02*
X151103571Y-63132140D01*
X151103571Y-63132140D02*
X151103571Y-63548807D01*
X151103571Y-63548807D02*
X151044047Y-63786902D01*
X151044047Y-63786902D02*
X150925000Y-63905950D01*
X150925000Y-63905950D02*
X150805952Y-63965473D01*
X150805952Y-63965473D02*
X150567857Y-63965473D01*
X150567857Y-63965473D02*
X150448809Y-63905950D01*
X150448809Y-63905950D02*
X150329762Y-63786902D01*
X150329762Y-63786902D02*
X150270238Y-63548807D01*
X150270238Y-63548807D02*
X150270238Y-63132140D01*
X150270238Y-63132140D02*
X150329762Y-62894045D01*
X150329762Y-62894045D02*
X150448809Y-62774997D01*
X150448809Y-62774997D02*
X150567857Y-62715473D01*
X151639286Y-63965473D02*
X151639286Y-63132140D01*
X151639286Y-63370235D02*
X151698809Y-63251188D01*
X151698809Y-63251188D02*
X151758333Y-63191664D01*
X151758333Y-63191664D02*
X151877381Y-63132140D01*
X151877381Y-63132140D02*
X151996428Y-63132140D01*
X152413096Y-63965473D02*
X152413096Y-63132140D01*
X152413096Y-62715473D02*
X152353572Y-62774997D01*
X152353572Y-62774997D02*
X152413096Y-62834521D01*
X152413096Y-62834521D02*
X152472619Y-62774997D01*
X152472619Y-62774997D02*
X152413096Y-62715473D01*
X152413096Y-62715473D02*
X152413096Y-62834521D01*
X153544048Y-63132140D02*
X153544048Y-64144045D01*
X153544048Y-64144045D02*
X153484524Y-64263092D01*
X153484524Y-64263092D02*
X153425000Y-64322616D01*
X153425000Y-64322616D02*
X153305953Y-64382140D01*
X153305953Y-64382140D02*
X153127381Y-64382140D01*
X153127381Y-64382140D02*
X153008334Y-64322616D01*
X153544048Y-63905950D02*
X153425000Y-63965473D01*
X153425000Y-63965473D02*
X153186905Y-63965473D01*
X153186905Y-63965473D02*
X153067857Y-63905950D01*
X153067857Y-63905950D02*
X153008334Y-63846426D01*
X153008334Y-63846426D02*
X152948810Y-63727378D01*
X152948810Y-63727378D02*
X152948810Y-63370235D01*
X152948810Y-63370235D02*
X153008334Y-63251188D01*
X153008334Y-63251188D02*
X153067857Y-63191664D01*
X153067857Y-63191664D02*
X153186905Y-63132140D01*
X153186905Y-63132140D02*
X153425000Y-63132140D01*
X153425000Y-63132140D02*
X153544048Y-63191664D01*
X154139286Y-63965473D02*
X154139286Y-63132140D01*
X154139286Y-62715473D02*
X154079762Y-62774997D01*
X154079762Y-62774997D02*
X154139286Y-62834521D01*
X154139286Y-62834521D02*
X154198809Y-62774997D01*
X154198809Y-62774997D02*
X154139286Y-62715473D01*
X154139286Y-62715473D02*
X154139286Y-62834521D01*
X154734524Y-63132140D02*
X154734524Y-63965473D01*
X154734524Y-63251188D02*
X154794047Y-63191664D01*
X154794047Y-63191664D02*
X154913095Y-63132140D01*
X154913095Y-63132140D02*
X155091666Y-63132140D01*
X155091666Y-63132140D02*
X155210714Y-63191664D01*
X155210714Y-63191664D02*
X155270238Y-63310711D01*
X155270238Y-63310711D02*
X155270238Y-63965473D01*
X156401190Y-63965473D02*
X156401190Y-63310711D01*
X156401190Y-63310711D02*
X156341666Y-63191664D01*
X156341666Y-63191664D02*
X156222618Y-63132140D01*
X156222618Y-63132140D02*
X155984523Y-63132140D01*
X155984523Y-63132140D02*
X155865476Y-63191664D01*
X156401190Y-63905950D02*
X156282142Y-63965473D01*
X156282142Y-63965473D02*
X155984523Y-63965473D01*
X155984523Y-63965473D02*
X155865476Y-63905950D01*
X155865476Y-63905950D02*
X155805952Y-63786902D01*
X155805952Y-63786902D02*
X155805952Y-63667854D01*
X155805952Y-63667854D02*
X155865476Y-63548807D01*
X155865476Y-63548807D02*
X155984523Y-63489283D01*
X155984523Y-63489283D02*
X156282142Y-63489283D01*
X156282142Y-63489283D02*
X156401190Y-63429759D01*
X157174999Y-63965473D02*
X157055951Y-63905950D01*
X157055951Y-63905950D02*
X156996428Y-63786902D01*
X156996428Y-63786902D02*
X156996428Y-62715473D01*
X158544047Y-63608330D02*
X159139285Y-63608330D01*
X158424999Y-63965473D02*
X158841666Y-62715473D01*
X158841666Y-62715473D02*
X159258332Y-63965473D01*
X160210714Y-63132140D02*
X160210714Y-63965473D01*
X159675000Y-63132140D02*
X159675000Y-63786902D01*
X159675000Y-63786902D02*
X159734523Y-63905950D01*
X159734523Y-63905950D02*
X159853571Y-63965473D01*
X159853571Y-63965473D02*
X160032142Y-63965473D01*
X160032142Y-63965473D02*
X160151190Y-63905950D01*
X160151190Y-63905950D02*
X160210714Y-63846426D01*
X160627380Y-63132140D02*
X161103571Y-63132140D01*
X160805952Y-62715473D02*
X160805952Y-63786902D01*
X160805952Y-63786902D02*
X160865475Y-63905950D01*
X160865475Y-63905950D02*
X160984523Y-63965473D01*
X160984523Y-63965473D02*
X161103571Y-63965473D01*
X161520238Y-63965473D02*
X161520238Y-62715473D01*
X162055952Y-63965473D02*
X162055952Y-63310711D01*
X162055952Y-63310711D02*
X161996428Y-63191664D01*
X161996428Y-63191664D02*
X161877380Y-63132140D01*
X161877380Y-63132140D02*
X161698809Y-63132140D01*
X161698809Y-63132140D02*
X161579761Y-63191664D01*
X161579761Y-63191664D02*
X161520238Y-63251188D01*
X162829761Y-63965473D02*
X162710713Y-63905950D01*
X162710713Y-63905950D02*
X162651190Y-63846426D01*
X162651190Y-63846426D02*
X162591666Y-63727378D01*
X162591666Y-63727378D02*
X162591666Y-63370235D01*
X162591666Y-63370235D02*
X162651190Y-63251188D01*
X162651190Y-63251188D02*
X162710713Y-63191664D01*
X162710713Y-63191664D02*
X162829761Y-63132140D01*
X162829761Y-63132140D02*
X163008332Y-63132140D01*
X163008332Y-63132140D02*
X163127380Y-63191664D01*
X163127380Y-63191664D02*
X163186904Y-63251188D01*
X163186904Y-63251188D02*
X163246428Y-63370235D01*
X163246428Y-63370235D02*
X163246428Y-63727378D01*
X163246428Y-63727378D02*
X163186904Y-63846426D01*
X163186904Y-63846426D02*
X163127380Y-63905950D01*
X163127380Y-63905950D02*
X163008332Y-63965473D01*
X163008332Y-63965473D02*
X162829761Y-63965473D01*
X163782142Y-63965473D02*
X163782142Y-63132140D01*
X163782142Y-63370235D02*
X163841665Y-63251188D01*
X163841665Y-63251188D02*
X163901189Y-63191664D01*
X163901189Y-63191664D02*
X164020237Y-63132140D01*
X164020237Y-63132140D02*
X164139284Y-63132140D01*
X164555952Y-63846426D02*
X164615475Y-63905950D01*
X164615475Y-63905950D02*
X164555952Y-63965473D01*
X164555952Y-63965473D02*
X164496428Y-63905950D01*
X164496428Y-63905950D02*
X164555952Y-63846426D01*
X164555952Y-63846426D02*
X164555952Y-63965473D01*
X164555952Y-63191664D02*
X164615475Y-63251188D01*
X164615475Y-63251188D02*
X164555952Y-63310711D01*
X164555952Y-63310711D02*
X164496428Y-63251188D01*
X164496428Y-63251188D02*
X164555952Y-63191664D01*
X164555952Y-63191664D02*
X164555952Y-63310711D01*
X166044047Y-63608330D02*
X166639285Y-63608330D01*
X165924999Y-63965473D02*
X166341666Y-62715473D01*
X166341666Y-62715473D02*
X166758332Y-63965473D01*
X167353571Y-63965473D02*
X167234523Y-63905950D01*
X167234523Y-63905950D02*
X167175000Y-63786902D01*
X167175000Y-63786902D02*
X167175000Y-62715473D01*
X167710714Y-63132140D02*
X168008333Y-63965473D01*
X168008333Y-63965473D02*
X168305952Y-63132140D01*
X169317857Y-63965473D02*
X169317857Y-63310711D01*
X169317857Y-63310711D02*
X169258333Y-63191664D01*
X169258333Y-63191664D02*
X169139285Y-63132140D01*
X169139285Y-63132140D02*
X168901190Y-63132140D01*
X168901190Y-63132140D02*
X168782143Y-63191664D01*
X169317857Y-63905950D02*
X169198809Y-63965473D01*
X169198809Y-63965473D02*
X168901190Y-63965473D01*
X168901190Y-63965473D02*
X168782143Y-63905950D01*
X168782143Y-63905950D02*
X168722619Y-63786902D01*
X168722619Y-63786902D02*
X168722619Y-63667854D01*
X168722619Y-63667854D02*
X168782143Y-63548807D01*
X168782143Y-63548807D02*
X168901190Y-63489283D01*
X168901190Y-63489283D02*
X169198809Y-63489283D01*
X169198809Y-63489283D02*
X169317857Y-63429759D01*
X169913095Y-63965473D02*
X169913095Y-63132140D01*
X169913095Y-63370235D02*
X169972618Y-63251188D01*
X169972618Y-63251188D02*
X170032142Y-63191664D01*
X170032142Y-63191664D02*
X170151190Y-63132140D01*
X170151190Y-63132140D02*
X170270237Y-63132140D01*
X170865476Y-63965473D02*
X170746428Y-63905950D01*
X170746428Y-63905950D02*
X170686905Y-63846426D01*
X170686905Y-63846426D02*
X170627381Y-63727378D01*
X170627381Y-63727378D02*
X170627381Y-63370235D01*
X170627381Y-63370235D02*
X170686905Y-63251188D01*
X170686905Y-63251188D02*
X170746428Y-63191664D01*
X170746428Y-63191664D02*
X170865476Y-63132140D01*
X170865476Y-63132140D02*
X171044047Y-63132140D01*
X171044047Y-63132140D02*
X171163095Y-63191664D01*
X171163095Y-63191664D02*
X171222619Y-63251188D01*
X171222619Y-63251188D02*
X171282143Y-63370235D01*
X171282143Y-63370235D02*
X171282143Y-63727378D01*
X171282143Y-63727378D02*
X171222619Y-63846426D01*
X171222619Y-63846426D02*
X171163095Y-63905950D01*
X171163095Y-63905950D02*
X171044047Y-63965473D01*
X171044047Y-63965473D02*
X170865476Y-63965473D01*
X172710714Y-63608330D02*
X173305952Y-63608330D01*
X172591666Y-63965473D02*
X173008333Y-62715473D01*
X173008333Y-62715473D02*
X173424999Y-63965473D01*
X174020238Y-63965473D02*
X173901190Y-63905950D01*
X173901190Y-63905950D02*
X173841667Y-63786902D01*
X173841667Y-63786902D02*
X173841667Y-62715473D01*
X174972619Y-63905950D02*
X174853571Y-63965473D01*
X174853571Y-63965473D02*
X174615476Y-63965473D01*
X174615476Y-63965473D02*
X174496429Y-63905950D01*
X174496429Y-63905950D02*
X174436905Y-63786902D01*
X174436905Y-63786902D02*
X174436905Y-63310711D01*
X174436905Y-63310711D02*
X174496429Y-63191664D01*
X174496429Y-63191664D02*
X174615476Y-63132140D01*
X174615476Y-63132140D02*
X174853571Y-63132140D01*
X174853571Y-63132140D02*
X174972619Y-63191664D01*
X174972619Y-63191664D02*
X175032143Y-63310711D01*
X175032143Y-63310711D02*
X175032143Y-63429759D01*
X175032143Y-63429759D02*
X174436905Y-63548807D01*
X176103572Y-63965473D02*
X176103572Y-63310711D01*
X176103572Y-63310711D02*
X176044048Y-63191664D01*
X176044048Y-63191664D02*
X175925000Y-63132140D01*
X175925000Y-63132140D02*
X175686905Y-63132140D01*
X175686905Y-63132140D02*
X175567858Y-63191664D01*
X176103572Y-63905950D02*
X175984524Y-63965473D01*
X175984524Y-63965473D02*
X175686905Y-63965473D01*
X175686905Y-63965473D02*
X175567858Y-63905950D01*
X175567858Y-63905950D02*
X175508334Y-63786902D01*
X175508334Y-63786902D02*
X175508334Y-63667854D01*
X175508334Y-63667854D02*
X175567858Y-63548807D01*
X175567858Y-63548807D02*
X175686905Y-63489283D01*
X175686905Y-63489283D02*
X175984524Y-63489283D01*
X175984524Y-63489283D02*
X176103572Y-63429759D01*
X178067857Y-63310711D02*
X177651191Y-63310711D01*
X177651191Y-63965473D02*
X177651191Y-62715473D01*
X177651191Y-62715473D02*
X178246429Y-62715473D01*
X179258334Y-63965473D02*
X179258334Y-62715473D01*
X179258334Y-63905950D02*
X179139286Y-63965473D01*
X179139286Y-63965473D02*
X178901191Y-63965473D01*
X178901191Y-63965473D02*
X178782143Y-63905950D01*
X178782143Y-63905950D02*
X178722620Y-63846426D01*
X178722620Y-63846426D02*
X178663096Y-63727378D01*
X178663096Y-63727378D02*
X178663096Y-63370235D01*
X178663096Y-63370235D02*
X178722620Y-63251188D01*
X178722620Y-63251188D02*
X178782143Y-63191664D01*
X178782143Y-63191664D02*
X178901191Y-63132140D01*
X178901191Y-63132140D02*
X179139286Y-63132140D01*
X179139286Y-63132140D02*
X179258334Y-63191664D01*
X179734524Y-63132140D02*
X180389286Y-63132140D01*
X180389286Y-63132140D02*
X179734524Y-63965473D01*
X179734524Y-63965473D02*
X180389286Y-63965473D01*
D11*
X189583082Y-80176423D02*
X189702129Y-80176423D01*
X189702129Y-80176423D02*
X189821177Y-80235947D01*
X189821177Y-80235947D02*
X189880701Y-80295471D01*
X189880701Y-80295471D02*
X189940225Y-80414519D01*
X189940225Y-80414519D02*
X189999748Y-80652614D01*
X189999748Y-80652614D02*
X189999748Y-80950233D01*
X189999748Y-80950233D02*
X189940225Y-81188328D01*
X189940225Y-81188328D02*
X189880701Y-81307376D01*
X189880701Y-81307376D02*
X189821177Y-81366900D01*
X189821177Y-81366900D02*
X189702129Y-81426423D01*
X189702129Y-81426423D02*
X189583082Y-81426423D01*
X189583082Y-81426423D02*
X189464034Y-81366900D01*
X189464034Y-81366900D02*
X189404510Y-81307376D01*
X189404510Y-81307376D02*
X189344987Y-81188328D01*
X189344987Y-81188328D02*
X189285463Y-80950233D01*
X189285463Y-80950233D02*
X189285463Y-80652614D01*
X189285463Y-80652614D02*
X189344987Y-80414519D01*
X189344987Y-80414519D02*
X189404510Y-80295471D01*
X189404510Y-80295471D02*
X189464034Y-80235947D01*
X189464034Y-80235947D02*
X189583082Y-80176423D01*
D10*
X167521541Y-79054847D02*
X167597731Y-79054847D01*
X167597731Y-79054847D02*
X167673922Y-79102466D01*
X167673922Y-79102466D02*
X167712017Y-79150085D01*
X167712017Y-79150085D02*
X167750112Y-79245323D01*
X167750112Y-79245323D02*
X167788207Y-79435799D01*
X167788207Y-79435799D02*
X167788207Y-79673894D01*
X167788207Y-79673894D02*
X167750112Y-79864370D01*
X167750112Y-79864370D02*
X167712017Y-79959608D01*
X167712017Y-79959608D02*
X167673922Y-80007228D01*
X167673922Y-80007228D02*
X167597731Y-80054847D01*
X167597731Y-80054847D02*
X167521541Y-80054847D01*
X167521541Y-80054847D02*
X167445350Y-80007228D01*
X167445350Y-80007228D02*
X167407255Y-79959608D01*
X167407255Y-79959608D02*
X167369160Y-79864370D01*
X167369160Y-79864370D02*
X167331064Y-79673894D01*
X167331064Y-79673894D02*
X167331064Y-79435799D01*
X167331064Y-79435799D02*
X167369160Y-79245323D01*
X167369160Y-79245323D02*
X167407255Y-79150085D01*
X167407255Y-79150085D02*
X167445350Y-79102466D01*
X167445350Y-79102466D02*
X167521541Y-79054847D01*
X168283446Y-79054847D02*
X168359636Y-79054847D01*
X168359636Y-79054847D02*
X168435827Y-79102466D01*
X168435827Y-79102466D02*
X168473922Y-79150085D01*
X168473922Y-79150085D02*
X168512017Y-79245323D01*
X168512017Y-79245323D02*
X168550112Y-79435799D01*
X168550112Y-79435799D02*
X168550112Y-79673894D01*
X168550112Y-79673894D02*
X168512017Y-79864370D01*
X168512017Y-79864370D02*
X168473922Y-79959608D01*
X168473922Y-79959608D02*
X168435827Y-80007228D01*
X168435827Y-80007228D02*
X168359636Y-80054847D01*
X168359636Y-80054847D02*
X168283446Y-80054847D01*
X168283446Y-80054847D02*
X168207255Y-80007228D01*
X168207255Y-80007228D02*
X168169160Y-79959608D01*
X168169160Y-79959608D02*
X168131065Y-79864370D01*
X168131065Y-79864370D02*
X168092969Y-79673894D01*
X168092969Y-79673894D02*
X168092969Y-79435799D01*
X168092969Y-79435799D02*
X168131065Y-79245323D01*
X168131065Y-79245323D02*
X168169160Y-79150085D01*
X168169160Y-79150085D02*
X168207255Y-79102466D01*
X168207255Y-79102466D02*
X168283446Y-79054847D01*
X168892970Y-79673894D02*
X169502494Y-79673894D01*
X170264398Y-79054847D02*
X169883446Y-79054847D01*
X169883446Y-79054847D02*
X169845350Y-79531037D01*
X169845350Y-79531037D02*
X169883446Y-79483418D01*
X169883446Y-79483418D02*
X169959636Y-79435799D01*
X169959636Y-79435799D02*
X170150112Y-79435799D01*
X170150112Y-79435799D02*
X170226303Y-79483418D01*
X170226303Y-79483418D02*
X170264398Y-79531037D01*
X170264398Y-79531037D02*
X170302493Y-79626275D01*
X170302493Y-79626275D02*
X170302493Y-79864370D01*
X170302493Y-79864370D02*
X170264398Y-79959608D01*
X170264398Y-79959608D02*
X170226303Y-80007228D01*
X170226303Y-80007228D02*
X170150112Y-80054847D01*
X170150112Y-80054847D02*
X169959636Y-80054847D01*
X169959636Y-80054847D02*
X169883446Y-80007228D01*
X169883446Y-80007228D02*
X169845350Y-79959608D01*
X171064398Y-80054847D02*
X170607255Y-80054847D01*
X170835827Y-80054847D02*
X170835827Y-79054847D01*
X170835827Y-79054847D02*
X170759636Y-79197704D01*
X170759636Y-79197704D02*
X170683446Y-79292942D01*
X170683446Y-79292942D02*
X170607255Y-79340561D01*
X171369160Y-79150085D02*
X171407256Y-79102466D01*
X171407256Y-79102466D02*
X171483446Y-79054847D01*
X171483446Y-79054847D02*
X171673922Y-79054847D01*
X171673922Y-79054847D02*
X171750113Y-79102466D01*
X171750113Y-79102466D02*
X171788208Y-79150085D01*
X171788208Y-79150085D02*
X171826303Y-79245323D01*
X171826303Y-79245323D02*
X171826303Y-79340561D01*
X171826303Y-79340561D02*
X171788208Y-79483418D01*
X171788208Y-79483418D02*
X171331065Y-80054847D01*
X171331065Y-80054847D02*
X171826303Y-80054847D01*
X172169161Y-80054847D02*
X172169161Y-79054847D01*
X172245351Y-79673894D02*
X172473923Y-80054847D01*
X172473923Y-79388180D02*
X172169161Y-79769132D01*
X173083446Y-79531037D02*
X173197732Y-79578656D01*
X173197732Y-79578656D02*
X173235827Y-79626275D01*
X173235827Y-79626275D02*
X173273923Y-79721513D01*
X173273923Y-79721513D02*
X173273923Y-79864370D01*
X173273923Y-79864370D02*
X173235827Y-79959608D01*
X173235827Y-79959608D02*
X173197732Y-80007228D01*
X173197732Y-80007228D02*
X173121542Y-80054847D01*
X173121542Y-80054847D02*
X172816780Y-80054847D01*
X172816780Y-80054847D02*
X172816780Y-79054847D01*
X172816780Y-79054847D02*
X173083446Y-79054847D01*
X173083446Y-79054847D02*
X173159637Y-79102466D01*
X173159637Y-79102466D02*
X173197732Y-79150085D01*
X173197732Y-79150085D02*
X173235827Y-79245323D01*
X173235827Y-79245323D02*
X173235827Y-79340561D01*
X173235827Y-79340561D02*
X173197732Y-79435799D01*
X173197732Y-79435799D02*
X173159637Y-79483418D01*
X173159637Y-79483418D02*
X173083446Y-79531037D01*
X173083446Y-79531037D02*
X172816780Y-79531037D01*
X167521541Y-80664791D02*
X167597731Y-80664791D01*
X167597731Y-80664791D02*
X167673922Y-80712410D01*
X167673922Y-80712410D02*
X167712017Y-80760029D01*
X167712017Y-80760029D02*
X167750112Y-80855267D01*
X167750112Y-80855267D02*
X167788207Y-81045743D01*
X167788207Y-81045743D02*
X167788207Y-81283838D01*
X167788207Y-81283838D02*
X167750112Y-81474314D01*
X167750112Y-81474314D02*
X167712017Y-81569552D01*
X167712017Y-81569552D02*
X167673922Y-81617172D01*
X167673922Y-81617172D02*
X167597731Y-81664791D01*
X167597731Y-81664791D02*
X167521541Y-81664791D01*
X167521541Y-81664791D02*
X167445350Y-81617172D01*
X167445350Y-81617172D02*
X167407255Y-81569552D01*
X167407255Y-81569552D02*
X167369160Y-81474314D01*
X167369160Y-81474314D02*
X167331064Y-81283838D01*
X167331064Y-81283838D02*
X167331064Y-81045743D01*
X167331064Y-81045743D02*
X167369160Y-80855267D01*
X167369160Y-80855267D02*
X167407255Y-80760029D01*
X167407255Y-80760029D02*
X167445350Y-80712410D01*
X167445350Y-80712410D02*
X167521541Y-80664791D01*
X168550112Y-81664791D02*
X168092969Y-81664791D01*
X168321541Y-81664791D02*
X168321541Y-80664791D01*
X168321541Y-80664791D02*
X168245350Y-80807648D01*
X168245350Y-80807648D02*
X168169160Y-80902886D01*
X168169160Y-80902886D02*
X168092969Y-80950505D01*
X168892970Y-81283838D02*
X169502494Y-81283838D01*
X169845350Y-80760029D02*
X169883446Y-80712410D01*
X169883446Y-80712410D02*
X169959636Y-80664791D01*
X169959636Y-80664791D02*
X170150112Y-80664791D01*
X170150112Y-80664791D02*
X170226303Y-80712410D01*
X170226303Y-80712410D02*
X170264398Y-80760029D01*
X170264398Y-80760029D02*
X170302493Y-80855267D01*
X170302493Y-80855267D02*
X170302493Y-80950505D01*
X170302493Y-80950505D02*
X170264398Y-81093362D01*
X170264398Y-81093362D02*
X169807255Y-81664791D01*
X169807255Y-81664791D02*
X170302493Y-81664791D01*
X171026303Y-80664791D02*
X170645351Y-80664791D01*
X170645351Y-80664791D02*
X170607255Y-81140981D01*
X170607255Y-81140981D02*
X170645351Y-81093362D01*
X170645351Y-81093362D02*
X170721541Y-81045743D01*
X170721541Y-81045743D02*
X170912017Y-81045743D01*
X170912017Y-81045743D02*
X170988208Y-81093362D01*
X170988208Y-81093362D02*
X171026303Y-81140981D01*
X171026303Y-81140981D02*
X171064398Y-81236219D01*
X171064398Y-81236219D02*
X171064398Y-81474314D01*
X171064398Y-81474314D02*
X171026303Y-81569552D01*
X171026303Y-81569552D02*
X170988208Y-81617172D01*
X170988208Y-81617172D02*
X170912017Y-81664791D01*
X170912017Y-81664791D02*
X170721541Y-81664791D01*
X170721541Y-81664791D02*
X170645351Y-81617172D01*
X170645351Y-81617172D02*
X170607255Y-81569552D01*
X171750113Y-80664791D02*
X171597732Y-80664791D01*
X171597732Y-80664791D02*
X171521541Y-80712410D01*
X171521541Y-80712410D02*
X171483446Y-80760029D01*
X171483446Y-80760029D02*
X171407256Y-80902886D01*
X171407256Y-80902886D02*
X171369160Y-81093362D01*
X171369160Y-81093362D02*
X171369160Y-81474314D01*
X171369160Y-81474314D02*
X171407256Y-81569552D01*
X171407256Y-81569552D02*
X171445351Y-81617172D01*
X171445351Y-81617172D02*
X171521541Y-81664791D01*
X171521541Y-81664791D02*
X171673922Y-81664791D01*
X171673922Y-81664791D02*
X171750113Y-81617172D01*
X171750113Y-81617172D02*
X171788208Y-81569552D01*
X171788208Y-81569552D02*
X171826303Y-81474314D01*
X171826303Y-81474314D02*
X171826303Y-81236219D01*
X171826303Y-81236219D02*
X171788208Y-81140981D01*
X171788208Y-81140981D02*
X171750113Y-81093362D01*
X171750113Y-81093362D02*
X171673922Y-81045743D01*
X171673922Y-81045743D02*
X171521541Y-81045743D01*
X171521541Y-81045743D02*
X171445351Y-81093362D01*
X171445351Y-81093362D02*
X171407256Y-81140981D01*
X171407256Y-81140981D02*
X171369160Y-81236219D01*
X172169161Y-81664791D02*
X172169161Y-80664791D01*
X172245351Y-81283838D02*
X172473923Y-81664791D01*
X172473923Y-80998124D02*
X172169161Y-81379076D01*
X173083446Y-81140981D02*
X173197732Y-81188600D01*
X173197732Y-81188600D02*
X173235827Y-81236219D01*
X173235827Y-81236219D02*
X173273923Y-81331457D01*
X173273923Y-81331457D02*
X173273923Y-81474314D01*
X173273923Y-81474314D02*
X173235827Y-81569552D01*
X173235827Y-81569552D02*
X173197732Y-81617172D01*
X173197732Y-81617172D02*
X173121542Y-81664791D01*
X173121542Y-81664791D02*
X172816780Y-81664791D01*
X172816780Y-81664791D02*
X172816780Y-80664791D01*
X172816780Y-80664791D02*
X173083446Y-80664791D01*
X173083446Y-80664791D02*
X173159637Y-80712410D01*
X173159637Y-80712410D02*
X173197732Y-80760029D01*
X173197732Y-80760029D02*
X173235827Y-80855267D01*
X173235827Y-80855267D02*
X173235827Y-80950505D01*
X173235827Y-80950505D02*
X173197732Y-81045743D01*
X173197732Y-81045743D02*
X173159637Y-81093362D01*
X173159637Y-81093362D02*
X173083446Y-81140981D01*
X173083446Y-81140981D02*
X172816780Y-81140981D01*
X94743333Y-74304580D02*
X94695714Y-74352200D01*
X94695714Y-74352200D02*
X94552857Y-74399819D01*
X94552857Y-74399819D02*
X94457619Y-74399819D01*
X94457619Y-74399819D02*
X94314762Y-74352200D01*
X94314762Y-74352200D02*
X94219524Y-74256961D01*
X94219524Y-74256961D02*
X94171905Y-74161723D01*
X94171905Y-74161723D02*
X94124286Y-73971247D01*
X94124286Y-73971247D02*
X94124286Y-73828390D01*
X94124286Y-73828390D02*
X94171905Y-73637914D01*
X94171905Y-73637914D02*
X94219524Y-73542676D01*
X94219524Y-73542676D02*
X94314762Y-73447438D01*
X94314762Y-73447438D02*
X94457619Y-73399819D01*
X94457619Y-73399819D02*
X94552857Y-73399819D01*
X94552857Y-73399819D02*
X94695714Y-73447438D01*
X94695714Y-73447438D02*
X94743333Y-73495057D01*
X95695714Y-74399819D02*
X95124286Y-74399819D01*
X95410000Y-74399819D02*
X95410000Y-73399819D01*
X95410000Y-73399819D02*
X95314762Y-73542676D01*
X95314762Y-73542676D02*
X95219524Y-73637914D01*
X95219524Y-73637914D02*
X95124286Y-73685533D01*
X116679580Y-82181666D02*
X116727200Y-82229285D01*
X116727200Y-82229285D02*
X116774819Y-82372142D01*
X116774819Y-82372142D02*
X116774819Y-82467380D01*
X116774819Y-82467380D02*
X116727200Y-82610237D01*
X116727200Y-82610237D02*
X116631961Y-82705475D01*
X116631961Y-82705475D02*
X116536723Y-82753094D01*
X116536723Y-82753094D02*
X116346247Y-82800713D01*
X116346247Y-82800713D02*
X116203390Y-82800713D01*
X116203390Y-82800713D02*
X116012914Y-82753094D01*
X116012914Y-82753094D02*
X115917676Y-82705475D01*
X115917676Y-82705475D02*
X115822438Y-82610237D01*
X115822438Y-82610237D02*
X115774819Y-82467380D01*
X115774819Y-82467380D02*
X115774819Y-82372142D01*
X115774819Y-82372142D02*
X115822438Y-82229285D01*
X115822438Y-82229285D02*
X115870057Y-82181666D01*
X115870057Y-81800713D02*
X115822438Y-81753094D01*
X115822438Y-81753094D02*
X115774819Y-81657856D01*
X115774819Y-81657856D02*
X115774819Y-81419761D01*
X115774819Y-81419761D02*
X115822438Y-81324523D01*
X115822438Y-81324523D02*
X115870057Y-81276904D01*
X115870057Y-81276904D02*
X115965295Y-81229285D01*
X115965295Y-81229285D02*
X116060533Y-81229285D01*
X116060533Y-81229285D02*
X116203390Y-81276904D01*
X116203390Y-81276904D02*
X116774819Y-81848332D01*
X116774819Y-81848332D02*
X116774819Y-81229285D01*
X104056667Y-65682200D02*
X104199524Y-65729819D01*
X104199524Y-65729819D02*
X104437619Y-65729819D01*
X104437619Y-65729819D02*
X104532857Y-65682200D01*
X104532857Y-65682200D02*
X104580476Y-65634580D01*
X104580476Y-65634580D02*
X104628095Y-65539342D01*
X104628095Y-65539342D02*
X104628095Y-65444104D01*
X104628095Y-65444104D02*
X104580476Y-65348866D01*
X104580476Y-65348866D02*
X104532857Y-65301247D01*
X104532857Y-65301247D02*
X104437619Y-65253628D01*
X104437619Y-65253628D02*
X104247143Y-65206009D01*
X104247143Y-65206009D02*
X104151905Y-65158390D01*
X104151905Y-65158390D02*
X104104286Y-65110771D01*
X104104286Y-65110771D02*
X104056667Y-65015533D01*
X104056667Y-65015533D02*
X104056667Y-64920295D01*
X104056667Y-64920295D02*
X104104286Y-64825057D01*
X104104286Y-64825057D02*
X104151905Y-64777438D01*
X104151905Y-64777438D02*
X104247143Y-64729819D01*
X104247143Y-64729819D02*
X104485238Y-64729819D01*
X104485238Y-64729819D02*
X104628095Y-64777438D01*
X104961429Y-64729819D02*
X105199524Y-65729819D01*
X105199524Y-65729819D02*
X105390000Y-65015533D01*
X105390000Y-65015533D02*
X105580476Y-65729819D01*
X105580476Y-65729819D02*
X105818572Y-64729819D01*
X106151905Y-64825057D02*
X106199524Y-64777438D01*
X106199524Y-64777438D02*
X106294762Y-64729819D01*
X106294762Y-64729819D02*
X106532857Y-64729819D01*
X106532857Y-64729819D02*
X106628095Y-64777438D01*
X106628095Y-64777438D02*
X106675714Y-64825057D01*
X106675714Y-64825057D02*
X106723333Y-64920295D01*
X106723333Y-64920295D02*
X106723333Y-65015533D01*
X106723333Y-65015533D02*
X106675714Y-65158390D01*
X106675714Y-65158390D02*
X106104286Y-65729819D01*
X106104286Y-65729819D02*
X106723333Y-65729819D01*
X103878095Y-70439819D02*
X103878095Y-71249342D01*
X103878095Y-71249342D02*
X103925714Y-71344580D01*
X103925714Y-71344580D02*
X103973333Y-71392200D01*
X103973333Y-71392200D02*
X104068571Y-71439819D01*
X104068571Y-71439819D02*
X104259047Y-71439819D01*
X104259047Y-71439819D02*
X104354285Y-71392200D01*
X104354285Y-71392200D02*
X104401904Y-71344580D01*
X104401904Y-71344580D02*
X104449523Y-71249342D01*
X104449523Y-71249342D02*
X104449523Y-70439819D01*
X104830476Y-70439819D02*
X105449523Y-70439819D01*
X105449523Y-70439819D02*
X105116190Y-70820771D01*
X105116190Y-70820771D02*
X105259047Y-70820771D01*
X105259047Y-70820771D02*
X105354285Y-70868390D01*
X105354285Y-70868390D02*
X105401904Y-70916009D01*
X105401904Y-70916009D02*
X105449523Y-71011247D01*
X105449523Y-71011247D02*
X105449523Y-71249342D01*
X105449523Y-71249342D02*
X105401904Y-71344580D01*
X105401904Y-71344580D02*
X105354285Y-71392200D01*
X105354285Y-71392200D02*
X105259047Y-71439819D01*
X105259047Y-71439819D02*
X104973333Y-71439819D01*
X104973333Y-71439819D02*
X104878095Y-71392200D01*
X104878095Y-71392200D02*
X104830476Y-71344580D01*
X151973333Y-67374580D02*
X151925714Y-67422200D01*
X151925714Y-67422200D02*
X151782857Y-67469819D01*
X151782857Y-67469819D02*
X151687619Y-67469819D01*
X151687619Y-67469819D02*
X151544762Y-67422200D01*
X151544762Y-67422200D02*
X151449524Y-67326961D01*
X151449524Y-67326961D02*
X151401905Y-67231723D01*
X151401905Y-67231723D02*
X151354286Y-67041247D01*
X151354286Y-67041247D02*
X151354286Y-66898390D01*
X151354286Y-66898390D02*
X151401905Y-66707914D01*
X151401905Y-66707914D02*
X151449524Y-66612676D01*
X151449524Y-66612676D02*
X151544762Y-66517438D01*
X151544762Y-66517438D02*
X151687619Y-66469819D01*
X151687619Y-66469819D02*
X151782857Y-66469819D01*
X151782857Y-66469819D02*
X151925714Y-66517438D01*
X151925714Y-66517438D02*
X151973333Y-66565057D01*
X152830476Y-66803152D02*
X152830476Y-67469819D01*
X152592381Y-66422200D02*
X152354286Y-67136485D01*
X152354286Y-67136485D02*
X152973333Y-67136485D01*
X122643333Y-69214580D02*
X122595714Y-69262200D01*
X122595714Y-69262200D02*
X122452857Y-69309819D01*
X122452857Y-69309819D02*
X122357619Y-69309819D01*
X122357619Y-69309819D02*
X122214762Y-69262200D01*
X122214762Y-69262200D02*
X122119524Y-69166961D01*
X122119524Y-69166961D02*
X122071905Y-69071723D01*
X122071905Y-69071723D02*
X122024286Y-68881247D01*
X122024286Y-68881247D02*
X122024286Y-68738390D01*
X122024286Y-68738390D02*
X122071905Y-68547914D01*
X122071905Y-68547914D02*
X122119524Y-68452676D01*
X122119524Y-68452676D02*
X122214762Y-68357438D01*
X122214762Y-68357438D02*
X122357619Y-68309819D01*
X122357619Y-68309819D02*
X122452857Y-68309819D01*
X122452857Y-68309819D02*
X122595714Y-68357438D01*
X122595714Y-68357438D02*
X122643333Y-68405057D01*
X122976667Y-68309819D02*
X123595714Y-68309819D01*
X123595714Y-68309819D02*
X123262381Y-68690771D01*
X123262381Y-68690771D02*
X123405238Y-68690771D01*
X123405238Y-68690771D02*
X123500476Y-68738390D01*
X123500476Y-68738390D02*
X123548095Y-68786009D01*
X123548095Y-68786009D02*
X123595714Y-68881247D01*
X123595714Y-68881247D02*
X123595714Y-69119342D01*
X123595714Y-69119342D02*
X123548095Y-69214580D01*
X123548095Y-69214580D02*
X123500476Y-69262200D01*
X123500476Y-69262200D02*
X123405238Y-69309819D01*
X123405238Y-69309819D02*
X123119524Y-69309819D01*
X123119524Y-69309819D02*
X123024286Y-69262200D01*
X123024286Y-69262200D02*
X122976667Y-69214580D01*
X96704819Y-59388333D02*
X97419104Y-59388333D01*
X97419104Y-59388333D02*
X97561961Y-59435952D01*
X97561961Y-59435952D02*
X97657200Y-59531190D01*
X97657200Y-59531190D02*
X97704819Y-59674047D01*
X97704819Y-59674047D02*
X97704819Y-59769285D01*
X97704819Y-58388333D02*
X97704819Y-58959761D01*
X97704819Y-58674047D02*
X96704819Y-58674047D01*
X96704819Y-58674047D02*
X96847676Y-58769285D01*
X96847676Y-58769285D02*
X96942914Y-58864523D01*
X96942914Y-58864523D02*
X96990533Y-58959761D01*
X188554819Y-63361666D02*
X188078628Y-63694999D01*
X188554819Y-63933094D02*
X187554819Y-63933094D01*
X187554819Y-63933094D02*
X187554819Y-63552142D01*
X187554819Y-63552142D02*
X187602438Y-63456904D01*
X187602438Y-63456904D02*
X187650057Y-63409285D01*
X187650057Y-63409285D02*
X187745295Y-63361666D01*
X187745295Y-63361666D02*
X187888152Y-63361666D01*
X187888152Y-63361666D02*
X187983390Y-63409285D01*
X187983390Y-63409285D02*
X188031009Y-63456904D01*
X188031009Y-63456904D02*
X188078628Y-63552142D01*
X188078628Y-63552142D02*
X188078628Y-63933094D01*
X187650057Y-62980713D02*
X187602438Y-62933094D01*
X187602438Y-62933094D02*
X187554819Y-62837856D01*
X187554819Y-62837856D02*
X187554819Y-62599761D01*
X187554819Y-62599761D02*
X187602438Y-62504523D01*
X187602438Y-62504523D02*
X187650057Y-62456904D01*
X187650057Y-62456904D02*
X187745295Y-62409285D01*
X187745295Y-62409285D02*
X187840533Y-62409285D01*
X187840533Y-62409285D02*
X187983390Y-62456904D01*
X187983390Y-62456904D02*
X188554819Y-63028332D01*
X188554819Y-63028332D02*
X188554819Y-62409285D01*
X190117200Y-77418332D02*
X190164819Y-77275475D01*
X190164819Y-77275475D02*
X190164819Y-77037380D01*
X190164819Y-77037380D02*
X190117200Y-76942142D01*
X190117200Y-76942142D02*
X190069580Y-76894523D01*
X190069580Y-76894523D02*
X189974342Y-76846904D01*
X189974342Y-76846904D02*
X189879104Y-76846904D01*
X189879104Y-76846904D02*
X189783866Y-76894523D01*
X189783866Y-76894523D02*
X189736247Y-76942142D01*
X189736247Y-76942142D02*
X189688628Y-77037380D01*
X189688628Y-77037380D02*
X189641009Y-77227856D01*
X189641009Y-77227856D02*
X189593390Y-77323094D01*
X189593390Y-77323094D02*
X189545771Y-77370713D01*
X189545771Y-77370713D02*
X189450533Y-77418332D01*
X189450533Y-77418332D02*
X189355295Y-77418332D01*
X189355295Y-77418332D02*
X189260057Y-77370713D01*
X189260057Y-77370713D02*
X189212438Y-77323094D01*
X189212438Y-77323094D02*
X189164819Y-77227856D01*
X189164819Y-77227856D02*
X189164819Y-76989761D01*
X189164819Y-76989761D02*
X189212438Y-76846904D01*
X189164819Y-76513570D02*
X190164819Y-76275475D01*
X190164819Y-76275475D02*
X189450533Y-76084999D01*
X189450533Y-76084999D02*
X190164819Y-75894523D01*
X190164819Y-75894523D02*
X189164819Y-75656428D01*
X190164819Y-74751666D02*
X190164819Y-75323094D01*
X190164819Y-75037380D02*
X189164819Y-75037380D01*
X189164819Y-75037380D02*
X189307676Y-75132618D01*
X189307676Y-75132618D02*
X189402914Y-75227856D01*
X189402914Y-75227856D02*
X189450533Y-75323094D01*
X96654819Y-87243333D02*
X97369104Y-87243333D01*
X97369104Y-87243333D02*
X97511961Y-87290952D01*
X97511961Y-87290952D02*
X97607200Y-87386190D01*
X97607200Y-87386190D02*
X97654819Y-87529047D01*
X97654819Y-87529047D02*
X97654819Y-87624285D01*
X96750057Y-86814761D02*
X96702438Y-86767142D01*
X96702438Y-86767142D02*
X96654819Y-86671904D01*
X96654819Y-86671904D02*
X96654819Y-86433809D01*
X96654819Y-86433809D02*
X96702438Y-86338571D01*
X96702438Y-86338571D02*
X96750057Y-86290952D01*
X96750057Y-86290952D02*
X96845295Y-86243333D01*
X96845295Y-86243333D02*
X96940533Y-86243333D01*
X96940533Y-86243333D02*
X97083390Y-86290952D01*
X97083390Y-86290952D02*
X97654819Y-86862380D01*
X97654819Y-86862380D02*
X97654819Y-86243333D01*
X119143333Y-66489819D02*
X118810000Y-66013628D01*
X118571905Y-66489819D02*
X118571905Y-65489819D01*
X118571905Y-65489819D02*
X118952857Y-65489819D01*
X118952857Y-65489819D02*
X119048095Y-65537438D01*
X119048095Y-65537438D02*
X119095714Y-65585057D01*
X119095714Y-65585057D02*
X119143333Y-65680295D01*
X119143333Y-65680295D02*
X119143333Y-65823152D01*
X119143333Y-65823152D02*
X119095714Y-65918390D01*
X119095714Y-65918390D02*
X119048095Y-65966009D01*
X119048095Y-65966009D02*
X118952857Y-66013628D01*
X118952857Y-66013628D02*
X118571905Y-66013628D01*
X119476667Y-65489819D02*
X120095714Y-65489819D01*
X120095714Y-65489819D02*
X119762381Y-65870771D01*
X119762381Y-65870771D02*
X119905238Y-65870771D01*
X119905238Y-65870771D02*
X120000476Y-65918390D01*
X120000476Y-65918390D02*
X120048095Y-65966009D01*
X120048095Y-65966009D02*
X120095714Y-66061247D01*
X120095714Y-66061247D02*
X120095714Y-66299342D01*
X120095714Y-66299342D02*
X120048095Y-66394580D01*
X120048095Y-66394580D02*
X120000476Y-66442200D01*
X120000476Y-66442200D02*
X119905238Y-66489819D01*
X119905238Y-66489819D02*
X119619524Y-66489819D01*
X119619524Y-66489819D02*
X119524286Y-66442200D01*
X119524286Y-66442200D02*
X119476667Y-66394580D01*
X155304819Y-74656904D02*
X156114342Y-74656904D01*
X156114342Y-74656904D02*
X156209580Y-74609285D01*
X156209580Y-74609285D02*
X156257200Y-74561666D01*
X156257200Y-74561666D02*
X156304819Y-74466428D01*
X156304819Y-74466428D02*
X156304819Y-74275952D01*
X156304819Y-74275952D02*
X156257200Y-74180714D01*
X156257200Y-74180714D02*
X156209580Y-74133095D01*
X156209580Y-74133095D02*
X156114342Y-74085476D01*
X156114342Y-74085476D02*
X155304819Y-74085476D01*
X155400057Y-73656904D02*
X155352438Y-73609285D01*
X155352438Y-73609285D02*
X155304819Y-73514047D01*
X155304819Y-73514047D02*
X155304819Y-73275952D01*
X155304819Y-73275952D02*
X155352438Y-73180714D01*
X155352438Y-73180714D02*
X155400057Y-73133095D01*
X155400057Y-73133095D02*
X155495295Y-73085476D01*
X155495295Y-73085476D02*
X155590533Y-73085476D01*
X155590533Y-73085476D02*
X155733390Y-73133095D01*
X155733390Y-73133095D02*
X156304819Y-73704523D01*
X156304819Y-73704523D02*
X156304819Y-73085476D01*
X186014819Y-63351666D02*
X185538628Y-63684999D01*
X186014819Y-63923094D02*
X185014819Y-63923094D01*
X185014819Y-63923094D02*
X185014819Y-63542142D01*
X185014819Y-63542142D02*
X185062438Y-63446904D01*
X185062438Y-63446904D02*
X185110057Y-63399285D01*
X185110057Y-63399285D02*
X185205295Y-63351666D01*
X185205295Y-63351666D02*
X185348152Y-63351666D01*
X185348152Y-63351666D02*
X185443390Y-63399285D01*
X185443390Y-63399285D02*
X185491009Y-63446904D01*
X185491009Y-63446904D02*
X185538628Y-63542142D01*
X185538628Y-63542142D02*
X185538628Y-63923094D01*
X186014819Y-62399285D02*
X186014819Y-62970713D01*
X186014819Y-62684999D02*
X185014819Y-62684999D01*
X185014819Y-62684999D02*
X185157676Y-62780237D01*
X185157676Y-62780237D02*
X185252914Y-62875475D01*
X185252914Y-62875475D02*
X185300533Y-62970713D01*
X125524819Y-73996904D02*
X126334342Y-73996904D01*
X126334342Y-73996904D02*
X126429580Y-73949285D01*
X126429580Y-73949285D02*
X126477200Y-73901666D01*
X126477200Y-73901666D02*
X126524819Y-73806428D01*
X126524819Y-73806428D02*
X126524819Y-73615952D01*
X126524819Y-73615952D02*
X126477200Y-73520714D01*
X126477200Y-73520714D02*
X126429580Y-73473095D01*
X126429580Y-73473095D02*
X126334342Y-73425476D01*
X126334342Y-73425476D02*
X125524819Y-73425476D01*
X126524819Y-72425476D02*
X126524819Y-72996904D01*
X126524819Y-72711190D02*
X125524819Y-72711190D01*
X125524819Y-72711190D02*
X125667676Y-72806428D01*
X125667676Y-72806428D02*
X125762914Y-72901666D01*
X125762914Y-72901666D02*
X125810533Y-72996904D01*
D13*
%TO.C,C1*%
X99747500Y-74507500D02*
X99747500Y-75295000D01*
X100141250Y-74901250D02*
X99353750Y-74901250D01*
X100245563Y-75535000D02*
X98960000Y-75535000D01*
X100245563Y-75535000D02*
X101310000Y-76599437D01*
X95554437Y-75535000D02*
X96840000Y-75535000D01*
X95554437Y-75535000D02*
X94490000Y-76599437D01*
X101310000Y-76599437D02*
X101310000Y-82355000D01*
X94490000Y-76599437D02*
X94490000Y-82355000D01*
X101310000Y-82355000D02*
X98960000Y-82355000D01*
X94490000Y-82355000D02*
X96840000Y-82355000D01*
%TO.C,C2*%
X116882500Y-77177500D02*
X117670000Y-77177500D01*
X117276250Y-76783750D02*
X117276250Y-77571250D01*
X117910000Y-76679437D02*
X117910000Y-77965000D01*
X117910000Y-76679437D02*
X118974437Y-75615000D01*
X117910000Y-81370563D02*
X117910000Y-80085000D01*
X117910000Y-81370563D02*
X118974437Y-82435000D01*
X118974437Y-75615000D02*
X124730000Y-75615000D01*
X118974437Y-82435000D02*
X124730000Y-82435000D01*
X124730000Y-75615000D02*
X124730000Y-77965000D01*
X124730000Y-82435000D02*
X124730000Y-80085000D01*
%TO.C,SW2*%
X108090000Y-65735000D02*
X108090000Y-66525000D01*
X108690000Y-67535000D02*
X114390000Y-67535000D01*
X110140000Y-64685000D02*
X111290000Y-64685000D01*
X110140000Y-67535000D02*
X110140000Y-68825000D01*
X110140000Y-68825000D02*
X110340000Y-69035000D01*
X110340000Y-69035000D02*
X111240000Y-69035000D01*
X111440000Y-68825000D02*
X111240000Y-69035000D01*
X111440000Y-68825000D02*
X111440000Y-67535000D01*
X112940000Y-64685000D02*
X113140000Y-64685000D01*
X114990000Y-66525000D02*
X114990000Y-65735000D01*
%TO.C,U3*%
X104470929Y-72495360D02*
X110480929Y-72495360D01*
X106720929Y-79315360D02*
X110480929Y-79315360D01*
X110480929Y-72495360D02*
X110480929Y-73755360D01*
X110480929Y-79315360D02*
X110480929Y-78055360D01*
%TO.C,C4*%
X153990000Y-68513748D02*
X153990000Y-69936252D01*
X155810000Y-68513748D02*
X155810000Y-69936252D01*
%TO.C,C3*%
X123680000Y-64753748D02*
X123680000Y-66176252D01*
X125500000Y-64753748D02*
X125500000Y-66176252D01*
%TO.C,J1*%
X94440000Y-52485000D02*
X94440000Y-58045000D01*
X94440000Y-58045000D02*
X99960000Y-58045000D01*
X99959000Y-57045000D02*
X101235000Y-57045000D01*
X99960000Y-58045000D02*
X99960000Y-57045000D01*
X103425000Y-57045000D02*
X104001000Y-57045000D01*
X105740000Y-57045000D02*
X106541000Y-57045000D01*
X108280000Y-57045000D02*
X109081000Y-57045000D01*
X110820000Y-57045000D02*
X111621000Y-57045000D01*
X114160000Y-57045000D02*
X113359000Y-57045000D01*
X116700000Y-57045000D02*
X115899000Y-57045000D01*
X119240000Y-57045000D02*
X118439000Y-57045000D01*
X121780000Y-57045000D02*
X120979000Y-57045000D01*
X124320000Y-57045000D02*
X123519000Y-57045000D01*
X126860000Y-57045000D02*
X126059000Y-57045000D01*
X129400000Y-57045000D02*
X128599000Y-57045000D01*
X131940000Y-57045000D02*
X131139000Y-57045000D01*
X134480000Y-57045000D02*
X133679000Y-57045000D01*
X137020000Y-57045000D02*
X136219000Y-57045000D01*
X139560000Y-57045000D02*
X138759000Y-57045000D01*
X142100000Y-57045000D02*
X141299000Y-57045000D01*
X144640000Y-57045000D02*
X143839000Y-57045000D01*
X147180000Y-57045000D02*
X146379000Y-57045000D01*
X149720000Y-57045000D02*
X148919000Y-57045000D01*
X152260000Y-57045000D02*
X151459000Y-57045000D01*
X154800000Y-57045000D02*
X153999000Y-57045000D01*
X157340000Y-57045000D02*
X156539000Y-57045000D01*
X159880000Y-57045000D02*
X159079000Y-57045000D01*
X162420000Y-57045000D02*
X161619000Y-57045000D01*
X164960000Y-57045000D02*
X164159000Y-57045000D01*
X167500000Y-57045000D02*
X166699000Y-57045000D01*
X170040000Y-57045000D02*
X169239000Y-57045000D01*
X171780000Y-57045000D02*
X172581000Y-57045000D01*
X174320000Y-57045000D02*
X175121000Y-57045000D01*
X176860000Y-57045000D02*
X177661000Y-57045000D01*
X179400000Y-57045000D02*
X180201000Y-57045000D01*
X181940000Y-57045000D02*
X183440000Y-57045000D01*
X182340000Y-57785000D02*
X182940000Y-57485000D01*
X182940000Y-57485000D02*
X182940000Y-58085000D01*
X182940000Y-58085000D02*
X182340000Y-57785000D01*
X183440000Y-58045000D02*
X183440000Y-57045000D01*
X188960000Y-52485000D02*
X188960000Y-58045000D01*
X188960000Y-58045000D02*
X183440000Y-58045000D01*
%TO.C,R2*%
X187130000Y-66197936D02*
X187130000Y-67652064D01*
X188950000Y-66197936D02*
X188950000Y-67652064D01*
%TO.C,SW1*%
X184499000Y-73385000D02*
X185934000Y-73385000D01*
X184499000Y-78905000D02*
X184499000Y-73385000D01*
X184499000Y-78905000D02*
X185315000Y-78905000D01*
X185315000Y-80591000D02*
X185315000Y-78905000D01*
X187325000Y-73385000D02*
X188760000Y-73385000D01*
X187325000Y-78905000D02*
X188760000Y-78905000D01*
X188760000Y-78905000D02*
X188760000Y-73385000D01*
%TO.C,J2*%
X94390000Y-87920000D02*
X99910000Y-87920000D01*
X94390000Y-93480000D02*
X94390000Y-87920000D01*
X99910000Y-87920000D02*
X99910000Y-88920000D01*
X101410000Y-88920000D02*
X99910000Y-88920000D01*
X103365000Y-88920000D02*
X103941000Y-88920000D01*
X105680000Y-88920000D02*
X106481000Y-88920000D01*
X108220000Y-88920000D02*
X109021000Y-88920000D01*
X110760000Y-88920000D02*
X111561000Y-88920000D01*
X113300000Y-88920000D02*
X114101000Y-88920000D01*
X115840000Y-88920000D02*
X116641000Y-88920000D01*
X118380000Y-88920000D02*
X119181000Y-88920000D01*
X120920000Y-88920000D02*
X121721000Y-88920000D01*
X123460000Y-88920000D02*
X124261000Y-88920000D01*
X126000000Y-88920000D02*
X126801000Y-88920000D01*
X128540000Y-88920000D02*
X129341000Y-88920000D01*
X131080000Y-88920000D02*
X131881000Y-88920000D01*
X133620000Y-88920000D02*
X134421000Y-88920000D01*
X136160000Y-88920000D02*
X136961000Y-88920000D01*
X138700000Y-88920000D02*
X139501000Y-88920000D01*
X141240000Y-88920000D02*
X142041000Y-88920000D01*
X143780000Y-88920000D02*
X144581000Y-88920000D01*
X146320000Y-88920000D02*
X147121000Y-88920000D01*
X148860000Y-88920000D02*
X149661000Y-88920000D01*
X151400000Y-88920000D02*
X152201000Y-88920000D01*
X153940000Y-88920000D02*
X154741000Y-88920000D01*
X156480000Y-88920000D02*
X157281000Y-88920000D01*
X159020000Y-88920000D02*
X159821000Y-88920000D01*
X161560000Y-88920000D02*
X162361000Y-88920000D01*
X164100000Y-88920000D02*
X164901000Y-88920000D01*
X166640000Y-88920000D02*
X167441000Y-88920000D01*
X169180000Y-88920000D02*
X169981000Y-88920000D01*
X171720000Y-88920000D02*
X172521000Y-88920000D01*
X174260000Y-88920000D02*
X175061000Y-88920000D01*
X176800000Y-88920000D02*
X177601000Y-88920000D01*
X179340000Y-88920000D02*
X180141000Y-88920000D01*
X182115000Y-88180000D02*
X182715000Y-88480000D01*
X182715000Y-87880000D02*
X182115000Y-88180000D01*
X182715000Y-88480000D02*
X182715000Y-87880000D01*
X183390000Y-87920000D02*
X183390000Y-88920000D01*
X183391000Y-88920000D02*
X182115000Y-88920000D01*
X188910000Y-87920000D02*
X183390000Y-87920000D01*
X188910000Y-93480000D02*
X188910000Y-87920000D01*
%TO.C,R3*%
X120147064Y-64745000D02*
X118692936Y-64745000D01*
X120147064Y-62925000D02*
X118692936Y-62925000D01*
%TO.C,U2*%
X156885000Y-68250000D02*
X156885000Y-69500000D01*
X156885000Y-71500000D02*
X156885000Y-72750000D01*
X156885000Y-72750000D02*
X182405000Y-72750000D01*
X182405000Y-68250000D02*
X156885000Y-68250000D01*
X182405000Y-72750000D02*
X182405000Y-68250000D01*
X156885000Y-69500000D02*
G75*
G02*
X156885000Y-71500000I0J-1000000D01*
G01*
%TO.C,R1*%
X184690000Y-66197936D02*
X184690000Y-67652064D01*
X186510000Y-66197936D02*
X186510000Y-67652064D01*
%TO.C,U1*%
X127532500Y-64722500D02*
X127805000Y-64722500D01*
X127532500Y-70485000D02*
X127532500Y-64722500D01*
X127532500Y-70485000D02*
X127532500Y-76247500D01*
X127532500Y-76247500D02*
X127805000Y-76247500D01*
X127805000Y-76247500D02*
X127805000Y-78060000D01*
X148247500Y-64722500D02*
X147975000Y-64722500D01*
X148247500Y-70485000D02*
X148247500Y-64722500D01*
X148247500Y-70485000D02*
X148247500Y-76247500D01*
X148247500Y-76247500D02*
X147975000Y-76247500D01*
%TD*%
%LPC*%
D14*
%TO.C,C1*%
X97900000Y-75920000D03*
X97900000Y-81970000D03*
%TD*%
D15*
%TO.C,C2*%
X118295000Y-79025000D03*
X124345000Y-79025000D03*
%TD*%
D16*
%TO.C,SW2*%
X107715000Y-67220000D03*
D17*
X107890000Y-64865000D03*
D18*
X110040000Y-66135000D03*
X113040000Y-66135000D03*
D17*
X115190000Y-64865000D03*
D19*
X115365000Y-67235000D03*
D20*
X109490000Y-64215000D03*
X112090000Y-64215000D03*
D21*
X113790000Y-64215000D03*
%TD*%
D22*
%TO.C,U3*%
X105245929Y-73605360D03*
X105245929Y-75905360D03*
D23*
X111720929Y-75905360D03*
D24*
X105245929Y-78180360D03*
%TD*%
D25*
%TO.C,C4*%
X154900000Y-67662500D03*
X154900000Y-70787500D03*
%TD*%
%TO.C,C3*%
X124590000Y-63902500D03*
X124590000Y-67027500D03*
%TD*%
D26*
%TO.C,J1*%
X97250000Y-55245000D03*
X186150000Y-55245000D03*
D27*
X181070000Y-57785000D03*
D28*
X178530000Y-57785000D03*
X175990000Y-57785000D03*
X173450000Y-57785000D03*
X170910000Y-57785000D03*
X168370000Y-57785000D03*
X165830000Y-57785000D03*
X163290000Y-57785000D03*
X160750000Y-57785000D03*
X158210000Y-57785000D03*
X155670000Y-57785000D03*
X153130000Y-57785000D03*
X150590000Y-57785000D03*
X148050000Y-57785000D03*
X145510000Y-57785000D03*
X142970000Y-57785000D03*
X140430000Y-57785000D03*
X137890000Y-57785000D03*
X135350000Y-57785000D03*
X132810000Y-57785000D03*
X130270000Y-57785000D03*
X127730000Y-57785000D03*
X125190000Y-57785000D03*
X122650000Y-57785000D03*
X120110000Y-57785000D03*
X117570000Y-57785000D03*
X115030000Y-57785000D03*
X112490000Y-57785000D03*
X109950000Y-57785000D03*
X107410000Y-57785000D03*
X104870000Y-57785000D03*
X102330000Y-57785000D03*
X181070000Y-60325000D03*
X178530000Y-60325000D03*
X175990000Y-60325000D03*
X173450000Y-60325000D03*
X170910000Y-60325000D03*
X168370000Y-60325000D03*
X165830000Y-60325000D03*
X163290000Y-60325000D03*
X160750000Y-60325000D03*
X158210000Y-60325000D03*
X155670000Y-60325000D03*
X153130000Y-60325000D03*
X150590000Y-60325000D03*
X148050000Y-60325000D03*
X145510000Y-60325000D03*
X142970000Y-60325000D03*
X140430000Y-60325000D03*
X137890000Y-60325000D03*
X135350000Y-60325000D03*
X132810000Y-60325000D03*
X130270000Y-60325000D03*
X127730000Y-60325000D03*
X125190000Y-60325000D03*
X122650000Y-60325000D03*
X120110000Y-60325000D03*
X117570000Y-60325000D03*
X115030000Y-60325000D03*
X112490000Y-60325000D03*
X109950000Y-60325000D03*
X107410000Y-60325000D03*
X104870000Y-60325000D03*
X102330000Y-60325000D03*
%TD*%
D29*
%TO.C,R2*%
X188040000Y-65375000D03*
X188040000Y-68475000D03*
%TD*%
D30*
%TO.C,SW1*%
X185995000Y-79955000D03*
X187265000Y-79955000D03*
X187265000Y-72335000D03*
X185995000Y-72335000D03*
%TD*%
D26*
%TO.C,J2*%
X186100000Y-90720000D03*
X97200000Y-90720000D03*
D31*
X181010000Y-88180000D03*
D28*
X178470000Y-88180000D03*
X175930000Y-88180000D03*
X173390000Y-88180000D03*
X170850000Y-88180000D03*
X168310000Y-88180000D03*
X165770000Y-88180000D03*
X163230000Y-88180000D03*
X160690000Y-88180000D03*
X158150000Y-88180000D03*
X155610000Y-88180000D03*
X153070000Y-88180000D03*
X150530000Y-88180000D03*
X147990000Y-88180000D03*
X145450000Y-88180000D03*
X142910000Y-88180000D03*
X140370000Y-88180000D03*
X137830000Y-88180000D03*
X135290000Y-88180000D03*
X132750000Y-88180000D03*
X130210000Y-88180000D03*
X127670000Y-88180000D03*
X125130000Y-88180000D03*
X122590000Y-88180000D03*
X120050000Y-88180000D03*
X117510000Y-88180000D03*
X114970000Y-88180000D03*
X112430000Y-88180000D03*
X109890000Y-88180000D03*
X107350000Y-88180000D03*
X104810000Y-88180000D03*
X102270000Y-88180000D03*
X181010000Y-85640000D03*
X178470000Y-85640000D03*
X175930000Y-85640000D03*
X173390000Y-85640000D03*
X170850000Y-85640000D03*
X168310000Y-85640000D03*
X165770000Y-85640000D03*
X163230000Y-85640000D03*
X160690000Y-85640000D03*
X158150000Y-85640000D03*
X155610000Y-85640000D03*
X153070000Y-85640000D03*
X150530000Y-85640000D03*
X147990000Y-85640000D03*
X145450000Y-85640000D03*
X142910000Y-85640000D03*
X140370000Y-85640000D03*
X137830000Y-85640000D03*
X135290000Y-85640000D03*
X132750000Y-85640000D03*
X130210000Y-85640000D03*
X127670000Y-85640000D03*
X125130000Y-85640000D03*
X122590000Y-85640000D03*
X120050000Y-85640000D03*
X117510000Y-85640000D03*
X114970000Y-85640000D03*
X112430000Y-85640000D03*
X109890000Y-85640000D03*
X107350000Y-85640000D03*
X104810000Y-85640000D03*
X102270000Y-85640000D03*
%TD*%
D32*
%TO.C,R3*%
X120970000Y-63835000D03*
X117870000Y-63835000D03*
%TD*%
D33*
%TO.C,U2*%
X158215000Y-74310000D03*
D34*
X160755000Y-74310000D03*
X163295000Y-74310000D03*
X165835000Y-74310000D03*
X168375000Y-74310000D03*
X170915000Y-74310000D03*
X173455000Y-74310000D03*
X175995000Y-74310000D03*
X178535000Y-74310000D03*
X181075000Y-74310000D03*
X181075000Y-66690000D03*
X178535000Y-66690000D03*
X175995000Y-66690000D03*
X173455000Y-66690000D03*
X170915000Y-66690000D03*
X168375000Y-66690000D03*
X165835000Y-66690000D03*
X163295000Y-66690000D03*
X160755000Y-66690000D03*
X158215000Y-66690000D03*
%TD*%
D29*
%TO.C,R1*%
X185600000Y-65375000D03*
X185600000Y-68475000D03*
%TD*%
D35*
%TO.C,U1*%
X128365000Y-77035000D03*
X129635000Y-77035000D03*
X130905000Y-77035000D03*
X132175000Y-77035000D03*
X133445000Y-77035000D03*
X134715000Y-77035000D03*
X135985000Y-77035000D03*
X137255000Y-77035000D03*
X138525000Y-77035000D03*
X139795000Y-77035000D03*
X141065000Y-77035000D03*
X142335000Y-77035000D03*
X143605000Y-77035000D03*
X144875000Y-77035000D03*
X146145000Y-77035000D03*
X147415000Y-77035000D03*
X147415000Y-63935000D03*
X146145000Y-63935000D03*
X144875000Y-63935000D03*
X143605000Y-63935000D03*
X142335000Y-63935000D03*
X141065000Y-63935000D03*
X139795000Y-63935000D03*
X138525000Y-63935000D03*
X137255000Y-63935000D03*
X135985000Y-63935000D03*
X134715000Y-63935000D03*
X133445000Y-63935000D03*
X132175000Y-63935000D03*
X130905000Y-63935000D03*
X129635000Y-63935000D03*
X128365000Y-63935000D03*
%TD*%
%LPD*%
M02*
