%TF.GenerationSoftware,KiCad,Pcbnew,8.0.6-8.0.6-0~ubuntu24.04.1*%
%TF.CreationDate,2024-11-30T23:26:55+01:00*%
%TF.ProjectId,qlexternal512kram_MIX,716c6578-7465-4726-9e61-6c3531326b72,3*%
%TF.SameCoordinates,Original*%
%TF.FileFunction,Drillmap*%
%TF.FilePolarity,Positive*%
%FSLAX45Y45*%
G04 Gerber Fmt 4.5, Leading zero omitted, Abs format (unit mm)*
G04 Created by KiCad (PCBNEW 8.0.6-8.0.6-0~ubuntu24.04.1) date 2024-11-30 23:26:55*
%MOMM*%
%LPD*%
G01*
G04 APERTURE LIST*
%ADD10C,0.100000*%
%ADD11C,0.200000*%
%ADD12C,0.285000*%
G04 APERTURE END LIST*
D10*
X9280500Y-5237500D02*
X19059500Y-5237500D01*
X19059500Y-9366500D01*
X9280500Y-9366500D01*
X9280500Y-5237500D01*
D11*
D10*
X10959000Y-6568500D02*
X11049000Y-6658500D01*
X11049000Y-6568500D02*
X10959000Y-6658500D01*
X11259000Y-6568500D02*
X11349000Y-6658500D01*
X11349000Y-6568500D02*
X11259000Y-6658500D01*
D12*
X9862500Y-9072000D02*
G75*
G02*
X9577500Y-9072000I-142500J0D01*
G01*
X9577500Y-9072000D02*
G75*
G02*
X9862500Y-9072000I142500J0D01*
G01*
X9867500Y-5524500D02*
G75*
G02*
X9582500Y-5524500I-142500J0D01*
G01*
X9582500Y-5524500D02*
G75*
G02*
X9867500Y-5524500I142500J0D01*
G01*
X18752500Y-9072000D02*
G75*
G02*
X18467500Y-9072000I-142500J0D01*
G01*
X18467500Y-9072000D02*
G75*
G02*
X18752500Y-9072000I142500J0D01*
G01*
X18757500Y-5524500D02*
G75*
G02*
X18472500Y-5524500I-142500J0D01*
G01*
X18472500Y-5524500D02*
G75*
G02*
X18757500Y-5524500I142500J0D01*
G01*
D11*
X9536277Y-9682984D02*
X9536277Y-9482984D01*
X9536277Y-9482984D02*
X9583896Y-9482984D01*
X9583896Y-9482984D02*
X9612467Y-9492508D01*
X9612467Y-9492508D02*
X9631515Y-9511555D01*
X9631515Y-9511555D02*
X9641039Y-9530603D01*
X9641039Y-9530603D02*
X9650563Y-9568698D01*
X9650563Y-9568698D02*
X9650563Y-9597270D01*
X9650563Y-9597270D02*
X9641039Y-9635365D01*
X9641039Y-9635365D02*
X9631515Y-9654412D01*
X9631515Y-9654412D02*
X9612467Y-9673460D01*
X9612467Y-9673460D02*
X9583896Y-9682984D01*
X9583896Y-9682984D02*
X9536277Y-9682984D01*
X9736277Y-9682984D02*
X9736277Y-9549650D01*
X9736277Y-9587746D02*
X9745801Y-9568698D01*
X9745801Y-9568698D02*
X9755324Y-9559174D01*
X9755324Y-9559174D02*
X9774372Y-9549650D01*
X9774372Y-9549650D02*
X9793420Y-9549650D01*
X9860086Y-9682984D02*
X9860086Y-9549650D01*
X9860086Y-9482984D02*
X9850563Y-9492508D01*
X9850563Y-9492508D02*
X9860086Y-9502031D01*
X9860086Y-9502031D02*
X9869610Y-9492508D01*
X9869610Y-9492508D02*
X9860086Y-9482984D01*
X9860086Y-9482984D02*
X9860086Y-9502031D01*
X9983896Y-9682984D02*
X9964848Y-9673460D01*
X9964848Y-9673460D02*
X9955324Y-9654412D01*
X9955324Y-9654412D02*
X9955324Y-9482984D01*
X10088658Y-9682984D02*
X10069610Y-9673460D01*
X10069610Y-9673460D02*
X10060086Y-9654412D01*
X10060086Y-9654412D02*
X10060086Y-9482984D01*
X10317229Y-9682984D02*
X10317229Y-9482984D01*
X10317229Y-9482984D02*
X10383896Y-9625841D01*
X10383896Y-9625841D02*
X10450563Y-9482984D01*
X10450563Y-9482984D02*
X10450563Y-9682984D01*
X10631515Y-9682984D02*
X10631515Y-9578222D01*
X10631515Y-9578222D02*
X10621991Y-9559174D01*
X10621991Y-9559174D02*
X10602944Y-9549650D01*
X10602944Y-9549650D02*
X10564848Y-9549650D01*
X10564848Y-9549650D02*
X10545801Y-9559174D01*
X10631515Y-9673460D02*
X10612467Y-9682984D01*
X10612467Y-9682984D02*
X10564848Y-9682984D01*
X10564848Y-9682984D02*
X10545801Y-9673460D01*
X10545801Y-9673460D02*
X10536277Y-9654412D01*
X10536277Y-9654412D02*
X10536277Y-9635365D01*
X10536277Y-9635365D02*
X10545801Y-9616317D01*
X10545801Y-9616317D02*
X10564848Y-9606793D01*
X10564848Y-9606793D02*
X10612467Y-9606793D01*
X10612467Y-9606793D02*
X10631515Y-9597270D01*
X10726753Y-9549650D02*
X10726753Y-9749650D01*
X10726753Y-9559174D02*
X10745801Y-9549650D01*
X10745801Y-9549650D02*
X10783896Y-9549650D01*
X10783896Y-9549650D02*
X10802944Y-9559174D01*
X10802944Y-9559174D02*
X10812467Y-9568698D01*
X10812467Y-9568698D02*
X10821991Y-9587746D01*
X10821991Y-9587746D02*
X10821991Y-9644889D01*
X10821991Y-9644889D02*
X10812467Y-9663936D01*
X10812467Y-9663936D02*
X10802944Y-9673460D01*
X10802944Y-9673460D02*
X10783896Y-9682984D01*
X10783896Y-9682984D02*
X10745801Y-9682984D01*
X10745801Y-9682984D02*
X10726753Y-9673460D01*
X10907705Y-9663936D02*
X10917229Y-9673460D01*
X10917229Y-9673460D02*
X10907705Y-9682984D01*
X10907705Y-9682984D02*
X10898182Y-9673460D01*
X10898182Y-9673460D02*
X10907705Y-9663936D01*
X10907705Y-9663936D02*
X10907705Y-9682984D01*
X10907705Y-9559174D02*
X10917229Y-9568698D01*
X10917229Y-9568698D02*
X10907705Y-9578222D01*
X10907705Y-9578222D02*
X10898182Y-9568698D01*
X10898182Y-9568698D02*
X10907705Y-9559174D01*
X10907705Y-9559174D02*
X10907705Y-9578222D01*
D10*
X9185500Y-9966500D02*
X9275500Y-10056500D01*
X9275500Y-9966500D02*
X9185500Y-10056500D01*
D11*
X9574372Y-9902984D02*
X9593420Y-9902984D01*
X9593420Y-9902984D02*
X9612467Y-9912508D01*
X9612467Y-9912508D02*
X9621991Y-9922031D01*
X9621991Y-9922031D02*
X9631515Y-9941079D01*
X9631515Y-9941079D02*
X9641039Y-9979174D01*
X9641039Y-9979174D02*
X9641039Y-10026793D01*
X9641039Y-10026793D02*
X9631515Y-10064889D01*
X9631515Y-10064889D02*
X9621991Y-10083936D01*
X9621991Y-10083936D02*
X9612467Y-10093460D01*
X9612467Y-10093460D02*
X9593420Y-10102984D01*
X9593420Y-10102984D02*
X9574372Y-10102984D01*
X9574372Y-10102984D02*
X9555324Y-10093460D01*
X9555324Y-10093460D02*
X9545801Y-10083936D01*
X9545801Y-10083936D02*
X9536277Y-10064889D01*
X9536277Y-10064889D02*
X9526753Y-10026793D01*
X9526753Y-10026793D02*
X9526753Y-9979174D01*
X9526753Y-9979174D02*
X9536277Y-9941079D01*
X9536277Y-9941079D02*
X9545801Y-9922031D01*
X9545801Y-9922031D02*
X9555324Y-9912508D01*
X9555324Y-9912508D02*
X9574372Y-9902984D01*
X9726753Y-10083936D02*
X9736277Y-10093460D01*
X9736277Y-10093460D02*
X9726753Y-10102984D01*
X9726753Y-10102984D02*
X9717229Y-10093460D01*
X9717229Y-10093460D02*
X9726753Y-10083936D01*
X9726753Y-10083936D02*
X9726753Y-10102984D01*
X9831515Y-10102984D02*
X9869610Y-10102984D01*
X9869610Y-10102984D02*
X9888658Y-10093460D01*
X9888658Y-10093460D02*
X9898182Y-10083936D01*
X9898182Y-10083936D02*
X9917229Y-10055365D01*
X9917229Y-10055365D02*
X9926753Y-10017270D01*
X9926753Y-10017270D02*
X9926753Y-9941079D01*
X9926753Y-9941079D02*
X9917229Y-9922031D01*
X9917229Y-9922031D02*
X9907705Y-9912508D01*
X9907705Y-9912508D02*
X9888658Y-9902984D01*
X9888658Y-9902984D02*
X9850563Y-9902984D01*
X9850563Y-9902984D02*
X9831515Y-9912508D01*
X9831515Y-9912508D02*
X9821991Y-9922031D01*
X9821991Y-9922031D02*
X9812467Y-9941079D01*
X9812467Y-9941079D02*
X9812467Y-9988698D01*
X9812467Y-9988698D02*
X9821991Y-10007746D01*
X9821991Y-10007746D02*
X9831515Y-10017270D01*
X9831515Y-10017270D02*
X9850563Y-10026793D01*
X9850563Y-10026793D02*
X9888658Y-10026793D01*
X9888658Y-10026793D02*
X9907705Y-10017270D01*
X9907705Y-10017270D02*
X9917229Y-10007746D01*
X9917229Y-10007746D02*
X9926753Y-9988698D01*
X10050563Y-9902984D02*
X10069610Y-9902984D01*
X10069610Y-9902984D02*
X10088658Y-9912508D01*
X10088658Y-9912508D02*
X10098182Y-9922031D01*
X10098182Y-9922031D02*
X10107705Y-9941079D01*
X10107705Y-9941079D02*
X10117229Y-9979174D01*
X10117229Y-9979174D02*
X10117229Y-10026793D01*
X10117229Y-10026793D02*
X10107705Y-10064889D01*
X10107705Y-10064889D02*
X10098182Y-10083936D01*
X10098182Y-10083936D02*
X10088658Y-10093460D01*
X10088658Y-10093460D02*
X10069610Y-10102984D01*
X10069610Y-10102984D02*
X10050563Y-10102984D01*
X10050563Y-10102984D02*
X10031515Y-10093460D01*
X10031515Y-10093460D02*
X10021991Y-10083936D01*
X10021991Y-10083936D02*
X10012467Y-10064889D01*
X10012467Y-10064889D02*
X10002944Y-10026793D01*
X10002944Y-10026793D02*
X10002944Y-9979174D01*
X10002944Y-9979174D02*
X10012467Y-9941079D01*
X10012467Y-9941079D02*
X10021991Y-9922031D01*
X10021991Y-9922031D02*
X10031515Y-9912508D01*
X10031515Y-9912508D02*
X10050563Y-9902984D01*
X10241039Y-9902984D02*
X10260086Y-9902984D01*
X10260086Y-9902984D02*
X10279134Y-9912508D01*
X10279134Y-9912508D02*
X10288658Y-9922031D01*
X10288658Y-9922031D02*
X10298182Y-9941079D01*
X10298182Y-9941079D02*
X10307705Y-9979174D01*
X10307705Y-9979174D02*
X10307705Y-10026793D01*
X10307705Y-10026793D02*
X10298182Y-10064889D01*
X10298182Y-10064889D02*
X10288658Y-10083936D01*
X10288658Y-10083936D02*
X10279134Y-10093460D01*
X10279134Y-10093460D02*
X10260086Y-10102984D01*
X10260086Y-10102984D02*
X10241039Y-10102984D01*
X10241039Y-10102984D02*
X10221991Y-10093460D01*
X10221991Y-10093460D02*
X10212467Y-10083936D01*
X10212467Y-10083936D02*
X10202944Y-10064889D01*
X10202944Y-10064889D02*
X10193420Y-10026793D01*
X10193420Y-10026793D02*
X10193420Y-9979174D01*
X10193420Y-9979174D02*
X10202944Y-9941079D01*
X10202944Y-9941079D02*
X10212467Y-9922031D01*
X10212467Y-9922031D02*
X10221991Y-9912508D01*
X10221991Y-9912508D02*
X10241039Y-9902984D01*
X10393420Y-10102984D02*
X10393420Y-9969650D01*
X10393420Y-9988698D02*
X10402944Y-9979174D01*
X10402944Y-9979174D02*
X10421991Y-9969650D01*
X10421991Y-9969650D02*
X10450563Y-9969650D01*
X10450563Y-9969650D02*
X10469610Y-9979174D01*
X10469610Y-9979174D02*
X10479134Y-9998222D01*
X10479134Y-9998222D02*
X10479134Y-10102984D01*
X10479134Y-9998222D02*
X10488658Y-9979174D01*
X10488658Y-9979174D02*
X10507705Y-9969650D01*
X10507705Y-9969650D02*
X10536277Y-9969650D01*
X10536277Y-9969650D02*
X10555325Y-9979174D01*
X10555325Y-9979174D02*
X10564848Y-9998222D01*
X10564848Y-9998222D02*
X10564848Y-10102984D01*
X10660086Y-10102984D02*
X10660086Y-9969650D01*
X10660086Y-9988698D02*
X10669610Y-9979174D01*
X10669610Y-9979174D02*
X10688658Y-9969650D01*
X10688658Y-9969650D02*
X10717229Y-9969650D01*
X10717229Y-9969650D02*
X10736277Y-9979174D01*
X10736277Y-9979174D02*
X10745801Y-9998222D01*
X10745801Y-9998222D02*
X10745801Y-10102984D01*
X10745801Y-9998222D02*
X10755325Y-9979174D01*
X10755325Y-9979174D02*
X10774372Y-9969650D01*
X10774372Y-9969650D02*
X10802944Y-9969650D01*
X10802944Y-9969650D02*
X10821991Y-9979174D01*
X10821991Y-9979174D02*
X10831515Y-9998222D01*
X10831515Y-9998222D02*
X10831515Y-10102984D01*
X11221991Y-9893460D02*
X11050563Y-10150603D01*
X11479134Y-9902984D02*
X11498182Y-9902984D01*
X11498182Y-9902984D02*
X11517229Y-9912508D01*
X11517229Y-9912508D02*
X11526753Y-9922031D01*
X11526753Y-9922031D02*
X11536277Y-9941079D01*
X11536277Y-9941079D02*
X11545801Y-9979174D01*
X11545801Y-9979174D02*
X11545801Y-10026793D01*
X11545801Y-10026793D02*
X11536277Y-10064889D01*
X11536277Y-10064889D02*
X11526753Y-10083936D01*
X11526753Y-10083936D02*
X11517229Y-10093460D01*
X11517229Y-10093460D02*
X11498182Y-10102984D01*
X11498182Y-10102984D02*
X11479134Y-10102984D01*
X11479134Y-10102984D02*
X11460086Y-10093460D01*
X11460086Y-10093460D02*
X11450563Y-10083936D01*
X11450563Y-10083936D02*
X11441039Y-10064889D01*
X11441039Y-10064889D02*
X11431515Y-10026793D01*
X11431515Y-10026793D02*
X11431515Y-9979174D01*
X11431515Y-9979174D02*
X11441039Y-9941079D01*
X11441039Y-9941079D02*
X11450563Y-9922031D01*
X11450563Y-9922031D02*
X11460086Y-9912508D01*
X11460086Y-9912508D02*
X11479134Y-9902984D01*
X11631515Y-10083936D02*
X11641039Y-10093460D01*
X11641039Y-10093460D02*
X11631515Y-10102984D01*
X11631515Y-10102984D02*
X11621991Y-10093460D01*
X11621991Y-10093460D02*
X11631515Y-10083936D01*
X11631515Y-10083936D02*
X11631515Y-10102984D01*
X11764848Y-9902984D02*
X11783896Y-9902984D01*
X11783896Y-9902984D02*
X11802944Y-9912508D01*
X11802944Y-9912508D02*
X11812467Y-9922031D01*
X11812467Y-9922031D02*
X11821991Y-9941079D01*
X11821991Y-9941079D02*
X11831515Y-9979174D01*
X11831515Y-9979174D02*
X11831515Y-10026793D01*
X11831515Y-10026793D02*
X11821991Y-10064889D01*
X11821991Y-10064889D02*
X11812467Y-10083936D01*
X11812467Y-10083936D02*
X11802944Y-10093460D01*
X11802944Y-10093460D02*
X11783896Y-10102984D01*
X11783896Y-10102984D02*
X11764848Y-10102984D01*
X11764848Y-10102984D02*
X11745801Y-10093460D01*
X11745801Y-10093460D02*
X11736277Y-10083936D01*
X11736277Y-10083936D02*
X11726753Y-10064889D01*
X11726753Y-10064889D02*
X11717229Y-10026793D01*
X11717229Y-10026793D02*
X11717229Y-9979174D01*
X11717229Y-9979174D02*
X11726753Y-9941079D01*
X11726753Y-9941079D02*
X11736277Y-9922031D01*
X11736277Y-9922031D02*
X11745801Y-9912508D01*
X11745801Y-9912508D02*
X11764848Y-9902984D01*
X11898182Y-9902984D02*
X12021991Y-9902984D01*
X12021991Y-9902984D02*
X11955325Y-9979174D01*
X11955325Y-9979174D02*
X11983896Y-9979174D01*
X11983896Y-9979174D02*
X12002944Y-9988698D01*
X12002944Y-9988698D02*
X12012467Y-9998222D01*
X12012467Y-9998222D02*
X12021991Y-10017270D01*
X12021991Y-10017270D02*
X12021991Y-10064889D01*
X12021991Y-10064889D02*
X12012467Y-10083936D01*
X12012467Y-10083936D02*
X12002944Y-10093460D01*
X12002944Y-10093460D02*
X11983896Y-10102984D01*
X11983896Y-10102984D02*
X11926753Y-10102984D01*
X11926753Y-10102984D02*
X11907706Y-10093460D01*
X11907706Y-10093460D02*
X11898182Y-10083936D01*
X12202944Y-9902984D02*
X12107706Y-9902984D01*
X12107706Y-9902984D02*
X12098182Y-9998222D01*
X12098182Y-9998222D02*
X12107706Y-9988698D01*
X12107706Y-9988698D02*
X12126753Y-9979174D01*
X12126753Y-9979174D02*
X12174372Y-9979174D01*
X12174372Y-9979174D02*
X12193420Y-9988698D01*
X12193420Y-9988698D02*
X12202944Y-9998222D01*
X12202944Y-9998222D02*
X12212467Y-10017270D01*
X12212467Y-10017270D02*
X12212467Y-10064889D01*
X12212467Y-10064889D02*
X12202944Y-10083936D01*
X12202944Y-10083936D02*
X12193420Y-10093460D01*
X12193420Y-10093460D02*
X12174372Y-10102984D01*
X12174372Y-10102984D02*
X12126753Y-10102984D01*
X12126753Y-10102984D02*
X12107706Y-10093460D01*
X12107706Y-10093460D02*
X12098182Y-10083936D01*
X12383896Y-9969650D02*
X12383896Y-10102984D01*
X12336277Y-9893460D02*
X12288658Y-10036317D01*
X12288658Y-10036317D02*
X12412467Y-10036317D01*
X12479134Y-9902984D02*
X12479134Y-9941079D01*
X12555325Y-9902984D02*
X12555325Y-9941079D01*
X12850563Y-10179174D02*
X12841039Y-10169650D01*
X12841039Y-10169650D02*
X12821991Y-10141079D01*
X12821991Y-10141079D02*
X12812468Y-10122031D01*
X12812468Y-10122031D02*
X12802944Y-10093460D01*
X12802944Y-10093460D02*
X12793420Y-10045841D01*
X12793420Y-10045841D02*
X12793420Y-10007746D01*
X12793420Y-10007746D02*
X12802944Y-9960127D01*
X12802944Y-9960127D02*
X12812468Y-9931555D01*
X12812468Y-9931555D02*
X12821991Y-9912508D01*
X12821991Y-9912508D02*
X12841039Y-9883936D01*
X12841039Y-9883936D02*
X12850563Y-9874412D01*
X12917229Y-9922031D02*
X12926753Y-9912508D01*
X12926753Y-9912508D02*
X12945801Y-9902984D01*
X12945801Y-9902984D02*
X12993420Y-9902984D01*
X12993420Y-9902984D02*
X13012468Y-9912508D01*
X13012468Y-9912508D02*
X13021991Y-9922031D01*
X13021991Y-9922031D02*
X13031515Y-9941079D01*
X13031515Y-9941079D02*
X13031515Y-9960127D01*
X13031515Y-9960127D02*
X13021991Y-9988698D01*
X13021991Y-9988698D02*
X12907706Y-10102984D01*
X12907706Y-10102984D02*
X13031515Y-10102984D01*
X13269610Y-10102984D02*
X13269610Y-9902984D01*
X13355325Y-10102984D02*
X13355325Y-9998222D01*
X13355325Y-9998222D02*
X13345801Y-9979174D01*
X13345801Y-9979174D02*
X13326753Y-9969650D01*
X13326753Y-9969650D02*
X13298182Y-9969650D01*
X13298182Y-9969650D02*
X13279134Y-9979174D01*
X13279134Y-9979174D02*
X13269610Y-9988698D01*
X13479134Y-10102984D02*
X13460087Y-10093460D01*
X13460087Y-10093460D02*
X13450563Y-10083936D01*
X13450563Y-10083936D02*
X13441039Y-10064889D01*
X13441039Y-10064889D02*
X13441039Y-10007746D01*
X13441039Y-10007746D02*
X13450563Y-9988698D01*
X13450563Y-9988698D02*
X13460087Y-9979174D01*
X13460087Y-9979174D02*
X13479134Y-9969650D01*
X13479134Y-9969650D02*
X13507706Y-9969650D01*
X13507706Y-9969650D02*
X13526753Y-9979174D01*
X13526753Y-9979174D02*
X13536277Y-9988698D01*
X13536277Y-9988698D02*
X13545801Y-10007746D01*
X13545801Y-10007746D02*
X13545801Y-10064889D01*
X13545801Y-10064889D02*
X13536277Y-10083936D01*
X13536277Y-10083936D02*
X13526753Y-10093460D01*
X13526753Y-10093460D02*
X13507706Y-10102984D01*
X13507706Y-10102984D02*
X13479134Y-10102984D01*
X13660087Y-10102984D02*
X13641039Y-10093460D01*
X13641039Y-10093460D02*
X13631515Y-10074412D01*
X13631515Y-10074412D02*
X13631515Y-9902984D01*
X13812468Y-10093460D02*
X13793420Y-10102984D01*
X13793420Y-10102984D02*
X13755325Y-10102984D01*
X13755325Y-10102984D02*
X13736277Y-10093460D01*
X13736277Y-10093460D02*
X13726753Y-10074412D01*
X13726753Y-10074412D02*
X13726753Y-9998222D01*
X13726753Y-9998222D02*
X13736277Y-9979174D01*
X13736277Y-9979174D02*
X13755325Y-9969650D01*
X13755325Y-9969650D02*
X13793420Y-9969650D01*
X13793420Y-9969650D02*
X13812468Y-9979174D01*
X13812468Y-9979174D02*
X13821991Y-9998222D01*
X13821991Y-9998222D02*
X13821991Y-10017270D01*
X13821991Y-10017270D02*
X13726753Y-10036317D01*
X13898182Y-10093460D02*
X13917230Y-10102984D01*
X13917230Y-10102984D02*
X13955325Y-10102984D01*
X13955325Y-10102984D02*
X13974372Y-10093460D01*
X13974372Y-10093460D02*
X13983896Y-10074412D01*
X13983896Y-10074412D02*
X13983896Y-10064889D01*
X13983896Y-10064889D02*
X13974372Y-10045841D01*
X13974372Y-10045841D02*
X13955325Y-10036317D01*
X13955325Y-10036317D02*
X13926753Y-10036317D01*
X13926753Y-10036317D02*
X13907706Y-10026793D01*
X13907706Y-10026793D02*
X13898182Y-10007746D01*
X13898182Y-10007746D02*
X13898182Y-9998222D01*
X13898182Y-9998222D02*
X13907706Y-9979174D01*
X13907706Y-9979174D02*
X13926753Y-9969650D01*
X13926753Y-9969650D02*
X13955325Y-9969650D01*
X13955325Y-9969650D02*
X13974372Y-9979174D01*
X14050563Y-10179174D02*
X14060087Y-10169650D01*
X14060087Y-10169650D02*
X14079134Y-10141079D01*
X14079134Y-10141079D02*
X14088658Y-10122031D01*
X14088658Y-10122031D02*
X14098182Y-10093460D01*
X14098182Y-10093460D02*
X14107706Y-10045841D01*
X14107706Y-10045841D02*
X14107706Y-10007746D01*
X14107706Y-10007746D02*
X14098182Y-9960127D01*
X14098182Y-9960127D02*
X14088658Y-9931555D01*
X14088658Y-9931555D02*
X14079134Y-9912508D01*
X14079134Y-9912508D02*
X14060087Y-9883936D01*
X14060087Y-9883936D02*
X14050563Y-9874412D01*
X14412468Y-10179174D02*
X14402944Y-10169650D01*
X14402944Y-10169650D02*
X14383896Y-10141079D01*
X14383896Y-10141079D02*
X14374372Y-10122031D01*
X14374372Y-10122031D02*
X14364849Y-10093460D01*
X14364849Y-10093460D02*
X14355325Y-10045841D01*
X14355325Y-10045841D02*
X14355325Y-10007746D01*
X14355325Y-10007746D02*
X14364849Y-9960127D01*
X14364849Y-9960127D02*
X14374372Y-9931555D01*
X14374372Y-9931555D02*
X14383896Y-9912508D01*
X14383896Y-9912508D02*
X14402944Y-9883936D01*
X14402944Y-9883936D02*
X14412468Y-9874412D01*
X14488658Y-9969650D02*
X14488658Y-10102984D01*
X14488658Y-9988698D02*
X14498182Y-9979174D01*
X14498182Y-9979174D02*
X14517230Y-9969650D01*
X14517230Y-9969650D02*
X14545801Y-9969650D01*
X14545801Y-9969650D02*
X14564849Y-9979174D01*
X14564849Y-9979174D02*
X14574372Y-9998222D01*
X14574372Y-9998222D02*
X14574372Y-10102984D01*
X14698182Y-10102984D02*
X14679134Y-10093460D01*
X14679134Y-10093460D02*
X14669611Y-10083936D01*
X14669611Y-10083936D02*
X14660087Y-10064889D01*
X14660087Y-10064889D02*
X14660087Y-10007746D01*
X14660087Y-10007746D02*
X14669611Y-9988698D01*
X14669611Y-9988698D02*
X14679134Y-9979174D01*
X14679134Y-9979174D02*
X14698182Y-9969650D01*
X14698182Y-9969650D02*
X14726753Y-9969650D01*
X14726753Y-9969650D02*
X14745801Y-9979174D01*
X14745801Y-9979174D02*
X14755325Y-9988698D01*
X14755325Y-9988698D02*
X14764849Y-10007746D01*
X14764849Y-10007746D02*
X14764849Y-10064889D01*
X14764849Y-10064889D02*
X14755325Y-10083936D01*
X14755325Y-10083936D02*
X14745801Y-10093460D01*
X14745801Y-10093460D02*
X14726753Y-10102984D01*
X14726753Y-10102984D02*
X14698182Y-10102984D01*
X14821992Y-9969650D02*
X14898182Y-9969650D01*
X14850563Y-9902984D02*
X14850563Y-10074412D01*
X14850563Y-10074412D02*
X14860087Y-10093460D01*
X14860087Y-10093460D02*
X14879134Y-10102984D01*
X14879134Y-10102984D02*
X14898182Y-10102984D01*
X15117230Y-9969650D02*
X15117230Y-10169650D01*
X15117230Y-9979174D02*
X15136277Y-9969650D01*
X15136277Y-9969650D02*
X15174373Y-9969650D01*
X15174373Y-9969650D02*
X15193420Y-9979174D01*
X15193420Y-9979174D02*
X15202944Y-9988698D01*
X15202944Y-9988698D02*
X15212468Y-10007746D01*
X15212468Y-10007746D02*
X15212468Y-10064889D01*
X15212468Y-10064889D02*
X15202944Y-10083936D01*
X15202944Y-10083936D02*
X15193420Y-10093460D01*
X15193420Y-10093460D02*
X15174373Y-10102984D01*
X15174373Y-10102984D02*
X15136277Y-10102984D01*
X15136277Y-10102984D02*
X15117230Y-10093460D01*
X15326753Y-10102984D02*
X15307706Y-10093460D01*
X15307706Y-10093460D02*
X15298182Y-10074412D01*
X15298182Y-10074412D02*
X15298182Y-9902984D01*
X15488658Y-10102984D02*
X15488658Y-9998222D01*
X15488658Y-9998222D02*
X15479134Y-9979174D01*
X15479134Y-9979174D02*
X15460087Y-9969650D01*
X15460087Y-9969650D02*
X15421992Y-9969650D01*
X15421992Y-9969650D02*
X15402944Y-9979174D01*
X15488658Y-10093460D02*
X15469611Y-10102984D01*
X15469611Y-10102984D02*
X15421992Y-10102984D01*
X15421992Y-10102984D02*
X15402944Y-10093460D01*
X15402944Y-10093460D02*
X15393420Y-10074412D01*
X15393420Y-10074412D02*
X15393420Y-10055365D01*
X15393420Y-10055365D02*
X15402944Y-10036317D01*
X15402944Y-10036317D02*
X15421992Y-10026793D01*
X15421992Y-10026793D02*
X15469611Y-10026793D01*
X15469611Y-10026793D02*
X15488658Y-10017270D01*
X15555325Y-9969650D02*
X15631515Y-9969650D01*
X15583896Y-9902984D02*
X15583896Y-10074412D01*
X15583896Y-10074412D02*
X15593420Y-10093460D01*
X15593420Y-10093460D02*
X15612468Y-10102984D01*
X15612468Y-10102984D02*
X15631515Y-10102984D01*
X15774373Y-10093460D02*
X15755325Y-10102984D01*
X15755325Y-10102984D02*
X15717230Y-10102984D01*
X15717230Y-10102984D02*
X15698182Y-10093460D01*
X15698182Y-10093460D02*
X15688658Y-10074412D01*
X15688658Y-10074412D02*
X15688658Y-9998222D01*
X15688658Y-9998222D02*
X15698182Y-9979174D01*
X15698182Y-9979174D02*
X15717230Y-9969650D01*
X15717230Y-9969650D02*
X15755325Y-9969650D01*
X15755325Y-9969650D02*
X15774373Y-9979174D01*
X15774373Y-9979174D02*
X15783896Y-9998222D01*
X15783896Y-9998222D02*
X15783896Y-10017270D01*
X15783896Y-10017270D02*
X15688658Y-10036317D01*
X15955325Y-10102984D02*
X15955325Y-9902984D01*
X15955325Y-10093460D02*
X15936277Y-10102984D01*
X15936277Y-10102984D02*
X15898182Y-10102984D01*
X15898182Y-10102984D02*
X15879134Y-10093460D01*
X15879134Y-10093460D02*
X15869611Y-10083936D01*
X15869611Y-10083936D02*
X15860087Y-10064889D01*
X15860087Y-10064889D02*
X15860087Y-10007746D01*
X15860087Y-10007746D02*
X15869611Y-9988698D01*
X15869611Y-9988698D02*
X15879134Y-9979174D01*
X15879134Y-9979174D02*
X15898182Y-9969650D01*
X15898182Y-9969650D02*
X15936277Y-9969650D01*
X15936277Y-9969650D02*
X15955325Y-9979174D01*
X16031515Y-10179174D02*
X16041039Y-10169650D01*
X16041039Y-10169650D02*
X16060087Y-10141079D01*
X16060087Y-10141079D02*
X16069611Y-10122031D01*
X16069611Y-10122031D02*
X16079134Y-10093460D01*
X16079134Y-10093460D02*
X16088658Y-10045841D01*
X16088658Y-10045841D02*
X16088658Y-10007746D01*
X16088658Y-10007746D02*
X16079134Y-9960127D01*
X16079134Y-9960127D02*
X16069611Y-9931555D01*
X16069611Y-9931555D02*
X16060087Y-9912508D01*
X16060087Y-9912508D02*
X16041039Y-9883936D01*
X16041039Y-9883936D02*
X16031515Y-9874412D01*
X9275500Y-10275500D02*
G75*
G02*
X9075500Y-10275500I-100000J0D01*
G01*
X9075500Y-10275500D02*
G75*
G02*
X9275500Y-10275500I100000J0D01*
G01*
X9526753Y-10186031D02*
X9536277Y-10176508D01*
X9536277Y-10176508D02*
X9555324Y-10166984D01*
X9555324Y-10166984D02*
X9602944Y-10166984D01*
X9602944Y-10166984D02*
X9621991Y-10176508D01*
X9621991Y-10176508D02*
X9631515Y-10186031D01*
X9631515Y-10186031D02*
X9641039Y-10205079D01*
X9641039Y-10205079D02*
X9641039Y-10224127D01*
X9641039Y-10224127D02*
X9631515Y-10252698D01*
X9631515Y-10252698D02*
X9517229Y-10366984D01*
X9517229Y-10366984D02*
X9641039Y-10366984D01*
X9726753Y-10347936D02*
X9736277Y-10357460D01*
X9736277Y-10357460D02*
X9726753Y-10366984D01*
X9726753Y-10366984D02*
X9717229Y-10357460D01*
X9717229Y-10357460D02*
X9726753Y-10347936D01*
X9726753Y-10347936D02*
X9726753Y-10366984D01*
X9850563Y-10252698D02*
X9831515Y-10243174D01*
X9831515Y-10243174D02*
X9821991Y-10233650D01*
X9821991Y-10233650D02*
X9812467Y-10214603D01*
X9812467Y-10214603D02*
X9812467Y-10205079D01*
X9812467Y-10205079D02*
X9821991Y-10186031D01*
X9821991Y-10186031D02*
X9831515Y-10176508D01*
X9831515Y-10176508D02*
X9850563Y-10166984D01*
X9850563Y-10166984D02*
X9888658Y-10166984D01*
X9888658Y-10166984D02*
X9907705Y-10176508D01*
X9907705Y-10176508D02*
X9917229Y-10186031D01*
X9917229Y-10186031D02*
X9926753Y-10205079D01*
X9926753Y-10205079D02*
X9926753Y-10214603D01*
X9926753Y-10214603D02*
X9917229Y-10233650D01*
X9917229Y-10233650D02*
X9907705Y-10243174D01*
X9907705Y-10243174D02*
X9888658Y-10252698D01*
X9888658Y-10252698D02*
X9850563Y-10252698D01*
X9850563Y-10252698D02*
X9831515Y-10262222D01*
X9831515Y-10262222D02*
X9821991Y-10271746D01*
X9821991Y-10271746D02*
X9812467Y-10290793D01*
X9812467Y-10290793D02*
X9812467Y-10328889D01*
X9812467Y-10328889D02*
X9821991Y-10347936D01*
X9821991Y-10347936D02*
X9831515Y-10357460D01*
X9831515Y-10357460D02*
X9850563Y-10366984D01*
X9850563Y-10366984D02*
X9888658Y-10366984D01*
X9888658Y-10366984D02*
X9907705Y-10357460D01*
X9907705Y-10357460D02*
X9917229Y-10347936D01*
X9917229Y-10347936D02*
X9926753Y-10328889D01*
X9926753Y-10328889D02*
X9926753Y-10290793D01*
X9926753Y-10290793D02*
X9917229Y-10271746D01*
X9917229Y-10271746D02*
X9907705Y-10262222D01*
X9907705Y-10262222D02*
X9888658Y-10252698D01*
X10107705Y-10166984D02*
X10012467Y-10166984D01*
X10012467Y-10166984D02*
X10002944Y-10262222D01*
X10002944Y-10262222D02*
X10012467Y-10252698D01*
X10012467Y-10252698D02*
X10031515Y-10243174D01*
X10031515Y-10243174D02*
X10079134Y-10243174D01*
X10079134Y-10243174D02*
X10098182Y-10252698D01*
X10098182Y-10252698D02*
X10107705Y-10262222D01*
X10107705Y-10262222D02*
X10117229Y-10281270D01*
X10117229Y-10281270D02*
X10117229Y-10328889D01*
X10117229Y-10328889D02*
X10107705Y-10347936D01*
X10107705Y-10347936D02*
X10098182Y-10357460D01*
X10098182Y-10357460D02*
X10079134Y-10366984D01*
X10079134Y-10366984D02*
X10031515Y-10366984D01*
X10031515Y-10366984D02*
X10012467Y-10357460D01*
X10012467Y-10357460D02*
X10002944Y-10347936D01*
X10241039Y-10166984D02*
X10260086Y-10166984D01*
X10260086Y-10166984D02*
X10279134Y-10176508D01*
X10279134Y-10176508D02*
X10288658Y-10186031D01*
X10288658Y-10186031D02*
X10298182Y-10205079D01*
X10298182Y-10205079D02*
X10307705Y-10243174D01*
X10307705Y-10243174D02*
X10307705Y-10290793D01*
X10307705Y-10290793D02*
X10298182Y-10328889D01*
X10298182Y-10328889D02*
X10288658Y-10347936D01*
X10288658Y-10347936D02*
X10279134Y-10357460D01*
X10279134Y-10357460D02*
X10260086Y-10366984D01*
X10260086Y-10366984D02*
X10241039Y-10366984D01*
X10241039Y-10366984D02*
X10221991Y-10357460D01*
X10221991Y-10357460D02*
X10212467Y-10347936D01*
X10212467Y-10347936D02*
X10202944Y-10328889D01*
X10202944Y-10328889D02*
X10193420Y-10290793D01*
X10193420Y-10290793D02*
X10193420Y-10243174D01*
X10193420Y-10243174D02*
X10202944Y-10205079D01*
X10202944Y-10205079D02*
X10212467Y-10186031D01*
X10212467Y-10186031D02*
X10221991Y-10176508D01*
X10221991Y-10176508D02*
X10241039Y-10166984D01*
X10393420Y-10366984D02*
X10393420Y-10233650D01*
X10393420Y-10252698D02*
X10402944Y-10243174D01*
X10402944Y-10243174D02*
X10421991Y-10233650D01*
X10421991Y-10233650D02*
X10450563Y-10233650D01*
X10450563Y-10233650D02*
X10469610Y-10243174D01*
X10469610Y-10243174D02*
X10479134Y-10262222D01*
X10479134Y-10262222D02*
X10479134Y-10366984D01*
X10479134Y-10262222D02*
X10488658Y-10243174D01*
X10488658Y-10243174D02*
X10507705Y-10233650D01*
X10507705Y-10233650D02*
X10536277Y-10233650D01*
X10536277Y-10233650D02*
X10555325Y-10243174D01*
X10555325Y-10243174D02*
X10564848Y-10262222D01*
X10564848Y-10262222D02*
X10564848Y-10366984D01*
X10660086Y-10366984D02*
X10660086Y-10233650D01*
X10660086Y-10252698D02*
X10669610Y-10243174D01*
X10669610Y-10243174D02*
X10688658Y-10233650D01*
X10688658Y-10233650D02*
X10717229Y-10233650D01*
X10717229Y-10233650D02*
X10736277Y-10243174D01*
X10736277Y-10243174D02*
X10745801Y-10262222D01*
X10745801Y-10262222D02*
X10745801Y-10366984D01*
X10745801Y-10262222D02*
X10755325Y-10243174D01*
X10755325Y-10243174D02*
X10774372Y-10233650D01*
X10774372Y-10233650D02*
X10802944Y-10233650D01*
X10802944Y-10233650D02*
X10821991Y-10243174D01*
X10821991Y-10243174D02*
X10831515Y-10262222D01*
X10831515Y-10262222D02*
X10831515Y-10366984D01*
X11221991Y-10157460D02*
X11050563Y-10414603D01*
X11479134Y-10166984D02*
X11498182Y-10166984D01*
X11498182Y-10166984D02*
X11517229Y-10176508D01*
X11517229Y-10176508D02*
X11526753Y-10186031D01*
X11526753Y-10186031D02*
X11536277Y-10205079D01*
X11536277Y-10205079D02*
X11545801Y-10243174D01*
X11545801Y-10243174D02*
X11545801Y-10290793D01*
X11545801Y-10290793D02*
X11536277Y-10328889D01*
X11536277Y-10328889D02*
X11526753Y-10347936D01*
X11526753Y-10347936D02*
X11517229Y-10357460D01*
X11517229Y-10357460D02*
X11498182Y-10366984D01*
X11498182Y-10366984D02*
X11479134Y-10366984D01*
X11479134Y-10366984D02*
X11460086Y-10357460D01*
X11460086Y-10357460D02*
X11450563Y-10347936D01*
X11450563Y-10347936D02*
X11441039Y-10328889D01*
X11441039Y-10328889D02*
X11431515Y-10290793D01*
X11431515Y-10290793D02*
X11431515Y-10243174D01*
X11431515Y-10243174D02*
X11441039Y-10205079D01*
X11441039Y-10205079D02*
X11450563Y-10186031D01*
X11450563Y-10186031D02*
X11460086Y-10176508D01*
X11460086Y-10176508D02*
X11479134Y-10166984D01*
X11631515Y-10347936D02*
X11641039Y-10357460D01*
X11641039Y-10357460D02*
X11631515Y-10366984D01*
X11631515Y-10366984D02*
X11621991Y-10357460D01*
X11621991Y-10357460D02*
X11631515Y-10347936D01*
X11631515Y-10347936D02*
X11631515Y-10366984D01*
X11831515Y-10366984D02*
X11717229Y-10366984D01*
X11774372Y-10366984D02*
X11774372Y-10166984D01*
X11774372Y-10166984D02*
X11755325Y-10195555D01*
X11755325Y-10195555D02*
X11736277Y-10214603D01*
X11736277Y-10214603D02*
X11717229Y-10224127D01*
X12021991Y-10366984D02*
X11907706Y-10366984D01*
X11964848Y-10366984D02*
X11964848Y-10166984D01*
X11964848Y-10166984D02*
X11945801Y-10195555D01*
X11945801Y-10195555D02*
X11926753Y-10214603D01*
X11926753Y-10214603D02*
X11907706Y-10224127D01*
X12098182Y-10186031D02*
X12107706Y-10176508D01*
X12107706Y-10176508D02*
X12126753Y-10166984D01*
X12126753Y-10166984D02*
X12174372Y-10166984D01*
X12174372Y-10166984D02*
X12193420Y-10176508D01*
X12193420Y-10176508D02*
X12202944Y-10186031D01*
X12202944Y-10186031D02*
X12212467Y-10205079D01*
X12212467Y-10205079D02*
X12212467Y-10224127D01*
X12212467Y-10224127D02*
X12202944Y-10252698D01*
X12202944Y-10252698D02*
X12088658Y-10366984D01*
X12088658Y-10366984D02*
X12212467Y-10366984D01*
X12288658Y-10186031D02*
X12298182Y-10176508D01*
X12298182Y-10176508D02*
X12317229Y-10166984D01*
X12317229Y-10166984D02*
X12364848Y-10166984D01*
X12364848Y-10166984D02*
X12383896Y-10176508D01*
X12383896Y-10176508D02*
X12393420Y-10186031D01*
X12393420Y-10186031D02*
X12402944Y-10205079D01*
X12402944Y-10205079D02*
X12402944Y-10224127D01*
X12402944Y-10224127D02*
X12393420Y-10252698D01*
X12393420Y-10252698D02*
X12279134Y-10366984D01*
X12279134Y-10366984D02*
X12402944Y-10366984D01*
X12479134Y-10166984D02*
X12479134Y-10205079D01*
X12555325Y-10166984D02*
X12555325Y-10205079D01*
X12850563Y-10443174D02*
X12841039Y-10433650D01*
X12841039Y-10433650D02*
X12821991Y-10405079D01*
X12821991Y-10405079D02*
X12812468Y-10386031D01*
X12812468Y-10386031D02*
X12802944Y-10357460D01*
X12802944Y-10357460D02*
X12793420Y-10309841D01*
X12793420Y-10309841D02*
X12793420Y-10271746D01*
X12793420Y-10271746D02*
X12802944Y-10224127D01*
X12802944Y-10224127D02*
X12812468Y-10195555D01*
X12812468Y-10195555D02*
X12821991Y-10176508D01*
X12821991Y-10176508D02*
X12841039Y-10147936D01*
X12841039Y-10147936D02*
X12850563Y-10138412D01*
X13012468Y-10233650D02*
X13012468Y-10366984D01*
X12964848Y-10157460D02*
X12917229Y-10300317D01*
X12917229Y-10300317D02*
X13041039Y-10300317D01*
X13269610Y-10366984D02*
X13269610Y-10166984D01*
X13355325Y-10366984D02*
X13355325Y-10262222D01*
X13355325Y-10262222D02*
X13345801Y-10243174D01*
X13345801Y-10243174D02*
X13326753Y-10233650D01*
X13326753Y-10233650D02*
X13298182Y-10233650D01*
X13298182Y-10233650D02*
X13279134Y-10243174D01*
X13279134Y-10243174D02*
X13269610Y-10252698D01*
X13479134Y-10366984D02*
X13460087Y-10357460D01*
X13460087Y-10357460D02*
X13450563Y-10347936D01*
X13450563Y-10347936D02*
X13441039Y-10328889D01*
X13441039Y-10328889D02*
X13441039Y-10271746D01*
X13441039Y-10271746D02*
X13450563Y-10252698D01*
X13450563Y-10252698D02*
X13460087Y-10243174D01*
X13460087Y-10243174D02*
X13479134Y-10233650D01*
X13479134Y-10233650D02*
X13507706Y-10233650D01*
X13507706Y-10233650D02*
X13526753Y-10243174D01*
X13526753Y-10243174D02*
X13536277Y-10252698D01*
X13536277Y-10252698D02*
X13545801Y-10271746D01*
X13545801Y-10271746D02*
X13545801Y-10328889D01*
X13545801Y-10328889D02*
X13536277Y-10347936D01*
X13536277Y-10347936D02*
X13526753Y-10357460D01*
X13526753Y-10357460D02*
X13507706Y-10366984D01*
X13507706Y-10366984D02*
X13479134Y-10366984D01*
X13660087Y-10366984D02*
X13641039Y-10357460D01*
X13641039Y-10357460D02*
X13631515Y-10338412D01*
X13631515Y-10338412D02*
X13631515Y-10166984D01*
X13812468Y-10357460D02*
X13793420Y-10366984D01*
X13793420Y-10366984D02*
X13755325Y-10366984D01*
X13755325Y-10366984D02*
X13736277Y-10357460D01*
X13736277Y-10357460D02*
X13726753Y-10338412D01*
X13726753Y-10338412D02*
X13726753Y-10262222D01*
X13726753Y-10262222D02*
X13736277Y-10243174D01*
X13736277Y-10243174D02*
X13755325Y-10233650D01*
X13755325Y-10233650D02*
X13793420Y-10233650D01*
X13793420Y-10233650D02*
X13812468Y-10243174D01*
X13812468Y-10243174D02*
X13821991Y-10262222D01*
X13821991Y-10262222D02*
X13821991Y-10281270D01*
X13821991Y-10281270D02*
X13726753Y-10300317D01*
X13898182Y-10357460D02*
X13917230Y-10366984D01*
X13917230Y-10366984D02*
X13955325Y-10366984D01*
X13955325Y-10366984D02*
X13974372Y-10357460D01*
X13974372Y-10357460D02*
X13983896Y-10338412D01*
X13983896Y-10338412D02*
X13983896Y-10328889D01*
X13983896Y-10328889D02*
X13974372Y-10309841D01*
X13974372Y-10309841D02*
X13955325Y-10300317D01*
X13955325Y-10300317D02*
X13926753Y-10300317D01*
X13926753Y-10300317D02*
X13907706Y-10290793D01*
X13907706Y-10290793D02*
X13898182Y-10271746D01*
X13898182Y-10271746D02*
X13898182Y-10262222D01*
X13898182Y-10262222D02*
X13907706Y-10243174D01*
X13907706Y-10243174D02*
X13926753Y-10233650D01*
X13926753Y-10233650D02*
X13955325Y-10233650D01*
X13955325Y-10233650D02*
X13974372Y-10243174D01*
X14050563Y-10443174D02*
X14060087Y-10433650D01*
X14060087Y-10433650D02*
X14079134Y-10405079D01*
X14079134Y-10405079D02*
X14088658Y-10386031D01*
X14088658Y-10386031D02*
X14098182Y-10357460D01*
X14098182Y-10357460D02*
X14107706Y-10309841D01*
X14107706Y-10309841D02*
X14107706Y-10271746D01*
X14107706Y-10271746D02*
X14098182Y-10224127D01*
X14098182Y-10224127D02*
X14088658Y-10195555D01*
X14088658Y-10195555D02*
X14079134Y-10176508D01*
X14079134Y-10176508D02*
X14060087Y-10147936D01*
X14060087Y-10147936D02*
X14050563Y-10138412D01*
X14412468Y-10443174D02*
X14402944Y-10433650D01*
X14402944Y-10433650D02*
X14383896Y-10405079D01*
X14383896Y-10405079D02*
X14374372Y-10386031D01*
X14374372Y-10386031D02*
X14364849Y-10357460D01*
X14364849Y-10357460D02*
X14355325Y-10309841D01*
X14355325Y-10309841D02*
X14355325Y-10271746D01*
X14355325Y-10271746D02*
X14364849Y-10224127D01*
X14364849Y-10224127D02*
X14374372Y-10195555D01*
X14374372Y-10195555D02*
X14383896Y-10176508D01*
X14383896Y-10176508D02*
X14402944Y-10147936D01*
X14402944Y-10147936D02*
X14412468Y-10138412D01*
X14488658Y-10233650D02*
X14488658Y-10366984D01*
X14488658Y-10252698D02*
X14498182Y-10243174D01*
X14498182Y-10243174D02*
X14517230Y-10233650D01*
X14517230Y-10233650D02*
X14545801Y-10233650D01*
X14545801Y-10233650D02*
X14564849Y-10243174D01*
X14564849Y-10243174D02*
X14574372Y-10262222D01*
X14574372Y-10262222D02*
X14574372Y-10366984D01*
X14698182Y-10366984D02*
X14679134Y-10357460D01*
X14679134Y-10357460D02*
X14669611Y-10347936D01*
X14669611Y-10347936D02*
X14660087Y-10328889D01*
X14660087Y-10328889D02*
X14660087Y-10271746D01*
X14660087Y-10271746D02*
X14669611Y-10252698D01*
X14669611Y-10252698D02*
X14679134Y-10243174D01*
X14679134Y-10243174D02*
X14698182Y-10233650D01*
X14698182Y-10233650D02*
X14726753Y-10233650D01*
X14726753Y-10233650D02*
X14745801Y-10243174D01*
X14745801Y-10243174D02*
X14755325Y-10252698D01*
X14755325Y-10252698D02*
X14764849Y-10271746D01*
X14764849Y-10271746D02*
X14764849Y-10328889D01*
X14764849Y-10328889D02*
X14755325Y-10347936D01*
X14755325Y-10347936D02*
X14745801Y-10357460D01*
X14745801Y-10357460D02*
X14726753Y-10366984D01*
X14726753Y-10366984D02*
X14698182Y-10366984D01*
X14821992Y-10233650D02*
X14898182Y-10233650D01*
X14850563Y-10166984D02*
X14850563Y-10338412D01*
X14850563Y-10338412D02*
X14860087Y-10357460D01*
X14860087Y-10357460D02*
X14879134Y-10366984D01*
X14879134Y-10366984D02*
X14898182Y-10366984D01*
X15117230Y-10233650D02*
X15117230Y-10433650D01*
X15117230Y-10243174D02*
X15136277Y-10233650D01*
X15136277Y-10233650D02*
X15174373Y-10233650D01*
X15174373Y-10233650D02*
X15193420Y-10243174D01*
X15193420Y-10243174D02*
X15202944Y-10252698D01*
X15202944Y-10252698D02*
X15212468Y-10271746D01*
X15212468Y-10271746D02*
X15212468Y-10328889D01*
X15212468Y-10328889D02*
X15202944Y-10347936D01*
X15202944Y-10347936D02*
X15193420Y-10357460D01*
X15193420Y-10357460D02*
X15174373Y-10366984D01*
X15174373Y-10366984D02*
X15136277Y-10366984D01*
X15136277Y-10366984D02*
X15117230Y-10357460D01*
X15326753Y-10366984D02*
X15307706Y-10357460D01*
X15307706Y-10357460D02*
X15298182Y-10338412D01*
X15298182Y-10338412D02*
X15298182Y-10166984D01*
X15488658Y-10366984D02*
X15488658Y-10262222D01*
X15488658Y-10262222D02*
X15479134Y-10243174D01*
X15479134Y-10243174D02*
X15460087Y-10233650D01*
X15460087Y-10233650D02*
X15421992Y-10233650D01*
X15421992Y-10233650D02*
X15402944Y-10243174D01*
X15488658Y-10357460D02*
X15469611Y-10366984D01*
X15469611Y-10366984D02*
X15421992Y-10366984D01*
X15421992Y-10366984D02*
X15402944Y-10357460D01*
X15402944Y-10357460D02*
X15393420Y-10338412D01*
X15393420Y-10338412D02*
X15393420Y-10319365D01*
X15393420Y-10319365D02*
X15402944Y-10300317D01*
X15402944Y-10300317D02*
X15421992Y-10290793D01*
X15421992Y-10290793D02*
X15469611Y-10290793D01*
X15469611Y-10290793D02*
X15488658Y-10281270D01*
X15555325Y-10233650D02*
X15631515Y-10233650D01*
X15583896Y-10166984D02*
X15583896Y-10338412D01*
X15583896Y-10338412D02*
X15593420Y-10357460D01*
X15593420Y-10357460D02*
X15612468Y-10366984D01*
X15612468Y-10366984D02*
X15631515Y-10366984D01*
X15774373Y-10357460D02*
X15755325Y-10366984D01*
X15755325Y-10366984D02*
X15717230Y-10366984D01*
X15717230Y-10366984D02*
X15698182Y-10357460D01*
X15698182Y-10357460D02*
X15688658Y-10338412D01*
X15688658Y-10338412D02*
X15688658Y-10262222D01*
X15688658Y-10262222D02*
X15698182Y-10243174D01*
X15698182Y-10243174D02*
X15717230Y-10233650D01*
X15717230Y-10233650D02*
X15755325Y-10233650D01*
X15755325Y-10233650D02*
X15774373Y-10243174D01*
X15774373Y-10243174D02*
X15783896Y-10262222D01*
X15783896Y-10262222D02*
X15783896Y-10281270D01*
X15783896Y-10281270D02*
X15688658Y-10300317D01*
X15955325Y-10366984D02*
X15955325Y-10166984D01*
X15955325Y-10357460D02*
X15936277Y-10366984D01*
X15936277Y-10366984D02*
X15898182Y-10366984D01*
X15898182Y-10366984D02*
X15879134Y-10357460D01*
X15879134Y-10357460D02*
X15869611Y-10347936D01*
X15869611Y-10347936D02*
X15860087Y-10328889D01*
X15860087Y-10328889D02*
X15860087Y-10271746D01*
X15860087Y-10271746D02*
X15869611Y-10252698D01*
X15869611Y-10252698D02*
X15879134Y-10243174D01*
X15879134Y-10243174D02*
X15898182Y-10233650D01*
X15898182Y-10233650D02*
X15936277Y-10233650D01*
X15936277Y-10233650D02*
X15955325Y-10243174D01*
X16031515Y-10443174D02*
X16041039Y-10433650D01*
X16041039Y-10433650D02*
X16060087Y-10405079D01*
X16060087Y-10405079D02*
X16069611Y-10386031D01*
X16069611Y-10386031D02*
X16079134Y-10357460D01*
X16079134Y-10357460D02*
X16088658Y-10309841D01*
X16088658Y-10309841D02*
X16088658Y-10271746D01*
X16088658Y-10271746D02*
X16079134Y-10224127D01*
X16079134Y-10224127D02*
X16069611Y-10195555D01*
X16069611Y-10195555D02*
X16060087Y-10176508D01*
X16060087Y-10176508D02*
X16041039Y-10147936D01*
X16041039Y-10147936D02*
X16031515Y-10138412D01*
M02*
