%TF.GenerationSoftware,KiCad,Pcbnew,8.0.6-8.0.6-0~ubuntu24.04.1*%
%TF.CreationDate,2024-11-30T23:26:36+01:00*%
%TF.ProjectId,qlexternal512kram_MIX,716c6578-7465-4726-9e61-6c3531326b72,3*%
%TF.SameCoordinates,Original*%
%TF.FileFunction,Copper,L1,Top*%
%TF.FilePolarity,Positive*%
%FSLAX46Y46*%
G04 Gerber Fmt 4.6, Leading zero omitted, Abs format (unit mm)*
G04 Created by KiCad (PCBNEW 8.0.6-8.0.6-0~ubuntu24.04.1) date 2024-11-30 23:26:36*
%MOMM*%
%LPD*%
G01*
G04 APERTURE LIST*
G04 Aperture macros list*
%AMRoundRect*
0 Rectangle with rounded corners*
0 $1 Rounding radius*
0 $2 $3 $4 $5 $6 $7 $8 $9 X,Y pos of 4 corners*
0 Add a 4 corners polygon primitive as box body*
4,1,4,$2,$3,$4,$5,$6,$7,$8,$9,$2,$3,0*
0 Add four circle primitives for the rounded corners*
1,1,$1+$1,$2,$3*
1,1,$1+$1,$4,$5*
1,1,$1+$1,$6,$7*
1,1,$1+$1,$8,$9*
0 Add four rect primitives between the rounded corners*
20,1,$1+$1,$2,$3,$4,$5,0*
20,1,$1+$1,$4,$5,$6,$7,0*
20,1,$1+$1,$6,$7,$8,$9,0*
20,1,$1+$1,$8,$9,$2,$3,0*%
G04 Aperture macros list end*
%TA.AperFunction,SMDPad,CuDef*%
%ADD10RoundRect,0.312500X-0.687500X1.662500X-0.687500X-1.662500X0.687500X-1.662500X0.687500X1.662500X0*%
%TD*%
%TA.AperFunction,SMDPad,CuDef*%
%ADD11RoundRect,0.312500X-1.662500X-0.687500X1.662500X-0.687500X1.662500X0.687500X-1.662500X0.687500X0*%
%TD*%
%TA.AperFunction,SMDPad,CuDef*%
%ADD12R,1.350000X0.830000*%
%TD*%
%TA.AperFunction,SMDPad,CuDef*%
%ADD13R,1.000000X1.120000*%
%TD*%
%TA.AperFunction,SMDPad,CuDef*%
%ADD14R,1.350000X0.800000*%
%TD*%
%TA.AperFunction,SMDPad,CuDef*%
%ADD15R,1.100000X1.820000*%
%TD*%
%TA.AperFunction,SMDPad,CuDef*%
%ADD16R,0.700000X1.820000*%
%TD*%
%TA.AperFunction,SMDPad,CuDef*%
%ADD17R,2.350000X1.500000*%
%TD*%
%TA.AperFunction,SMDPad,CuDef*%
%ADD18R,2.000000X3.800000*%
%TD*%
%TA.AperFunction,SMDPad,CuDef*%
%ADD19R,2.350000X1.550000*%
%TD*%
%TA.AperFunction,SMDPad,CuDef*%
%ADD20RoundRect,0.250000X-0.650000X0.412500X-0.650000X-0.412500X0.650000X-0.412500X0.650000X0.412500X0*%
%TD*%
%TA.AperFunction,ComponentPad*%
%ADD21RoundRect,0.249999X0.525001X0.525001X-0.525001X0.525001X-0.525001X-0.525001X0.525001X-0.525001X0*%
%TD*%
%TA.AperFunction,ComponentPad*%
%ADD22C,1.550000*%
%TD*%
%TA.AperFunction,SMDPad,CuDef*%
%ADD23RoundRect,0.250000X-0.625000X0.400000X-0.625000X-0.400000X0.625000X-0.400000X0.625000X0.400000X0*%
%TD*%
%TA.AperFunction,SMDPad,CuDef*%
%ADD24R,0.760000X1.270000*%
%TD*%
%TA.AperFunction,ComponentPad*%
%ADD25RoundRect,0.249999X-0.525001X-0.525001X0.525001X-0.525001X0.525001X0.525001X-0.525001X0.525001X0*%
%TD*%
%TA.AperFunction,SMDPad,CuDef*%
%ADD26RoundRect,0.250000X0.400000X0.625000X-0.400000X0.625000X-0.400000X-0.625000X0.400000X-0.625000X0*%
%TD*%
%TA.AperFunction,ComponentPad*%
%ADD27R,1.600000X2.400000*%
%TD*%
%TA.AperFunction,ComponentPad*%
%ADD28O,1.600000X2.400000*%
%TD*%
%TA.AperFunction,SMDPad,CuDef*%
%ADD29RoundRect,0.150000X0.150000X-0.875000X0.150000X0.875000X-0.150000X0.875000X-0.150000X-0.875000X0*%
%TD*%
%TA.AperFunction,ViaPad*%
%ADD30C,0.800000*%
%TD*%
%TA.AperFunction,ViaPad*%
%ADD31C,0.600000*%
%TD*%
%TA.AperFunction,Conductor*%
%ADD32C,1.500000*%
%TD*%
%TA.AperFunction,Conductor*%
%ADD33C,1.000000*%
%TD*%
%TA.AperFunction,Conductor*%
%ADD34C,0.800000*%
%TD*%
%TA.AperFunction,Conductor*%
%ADD35C,0.300000*%
%TD*%
%TA.AperFunction,Conductor*%
%ADD36C,0.250000*%
%TD*%
%TA.AperFunction,Conductor*%
%ADD37C,0.750000*%
%TD*%
%TA.AperFunction,Conductor*%
%ADD38C,0.500000*%
%TD*%
G04 APERTURE END LIST*
D10*
%TO.P,C1,1*%
%TO.N,+9V*%
X97900000Y-75920000D03*
%TO.P,C1,2*%
%TO.N,GND*%
X97900000Y-81970000D03*
%TD*%
D11*
%TO.P,C2,1*%
%TO.N,VCC*%
X118295000Y-79025000D03*
%TO.P,C2,2*%
%TO.N,GND*%
X124345000Y-79025000D03*
%TD*%
D12*
%TO.P,SW2,*%
%TO.N,*%
X107715000Y-67220000D03*
D13*
X107890000Y-64865000D03*
X115190000Y-64865000D03*
D14*
X115365000Y-67235000D03*
D15*
%TO.P,SW2,1,A*%
%TO.N,Net-(J2-~{BERR})*%
X109490000Y-64215000D03*
%TO.P,SW2,2,B*%
%TO.N,/BERR*%
X112090000Y-64215000D03*
D16*
%TO.P,SW2,3,C*%
%TO.N,Net-(SW2-C)*%
X113790000Y-64215000D03*
%TD*%
D17*
%TO.P,U3,1,GND*%
%TO.N,GND*%
X105245929Y-73605360D03*
%TO.P,U3,2,VO*%
%TO.N,VCC*%
X105245929Y-75905360D03*
D18*
X111720929Y-75905360D03*
D19*
%TO.P,U3,3,VI*%
%TO.N,+9V*%
X105245929Y-78180360D03*
%TD*%
D20*
%TO.P,C4,1*%
%TO.N,VCC*%
X154900000Y-67662500D03*
%TO.P,C4,2*%
%TO.N,GND*%
X154900000Y-70787500D03*
%TD*%
%TO.P,C3,1*%
%TO.N,VCC*%
X124590000Y-63902500D03*
%TO.P,C3,2*%
%TO.N,GND*%
X124590000Y-67027500D03*
%TD*%
D21*
%TO.P,J1,a1,GND*%
%TO.N,GND*%
X181070000Y-57785000D03*
D22*
%TO.P,J1,a2,D3*%
%TO.N,/D3*%
X178530000Y-57785000D03*
%TO.P,J1,a3,D4*%
%TO.N,/D4*%
X175990000Y-57785000D03*
%TO.P,J1,a4,D5*%
%TO.N,/D5*%
X173450000Y-57785000D03*
%TO.P,J1,a5,D6*%
%TO.N,/D6*%
X170910000Y-57785000D03*
%TO.P,J1,a6,D7*%
%TO.N,/D7*%
X168370000Y-57785000D03*
%TO.P,J1,a7,A19*%
%TO.N,/A19*%
X165830000Y-57785000D03*
%TO.P,J1,a8,A18*%
%TO.N,/A18*%
X163290000Y-57785000D03*
%TO.P,J1,a9,A17*%
%TO.N,/A17*%
X160750000Y-57785000D03*
%TO.P,J1,a10,A16*%
%TO.N,/A16*%
X158210000Y-57785000D03*
%TO.P,J1,a11,CLKCPU*%
%TO.N,/CLKCPU*%
X155670000Y-57785000D03*
%TO.P,J1,a12,RED*%
%TO.N,/RED*%
X153130000Y-57785000D03*
%TO.P,J1,a13,A14*%
%TO.N,/A14*%
X150590000Y-57785000D03*
%TO.P,J1,a14,A13*%
%TO.N,/A13*%
X148050000Y-57785000D03*
%TO.P,J1,a15,A12*%
%TO.N,/A12*%
X145510000Y-57785000D03*
%TO.P,J1,a16,A11*%
%TO.N,/A11*%
X142970000Y-57785000D03*
%TO.P,J1,a17,A10*%
%TO.N,/A10*%
X140430000Y-57785000D03*
%TO.P,J1,a18,A9*%
%TO.N,/A9*%
X137890000Y-57785000D03*
%TO.P,J1,a19,A8*%
%TO.N,/A8*%
X135350000Y-57785000D03*
%TO.P,J1,a20,A7*%
%TO.N,/A7*%
X132810000Y-57785000D03*
%TO.P,J1,a21,A6*%
%TO.N,/A6*%
X130270000Y-57785000D03*
%TO.P,J1,a22,A5*%
%TO.N,/A5*%
X127730000Y-57785000D03*
%TO.P,J1,a23,A4*%
%TO.N,/A4*%
X125190000Y-57785000D03*
%TO.P,J1,a24,A3*%
%TO.N,/A3*%
X122650000Y-57785000D03*
%TO.P,J1,a25,~{DBG}*%
%TO.N,/DBG*%
X120110000Y-57785000D03*
%TO.P,J1,a26,SP2*%
%TO.N,/SP2*%
X117570000Y-57785000D03*
%TO.P,J1,a27,~{DSMC}*%
%TO.N,/DSMC*%
X115030000Y-57785000D03*
%TO.P,J1,a28,SP1*%
%TO.N,/SP1*%
X112490000Y-57785000D03*
%TO.P,J1,a29,SP0*%
%TO.N,/SP0*%
X109950000Y-57785000D03*
%TO.P,J1,a30,+12V*%
%TO.N,/ma12v*%
X107410000Y-57785000D03*
%TO.P,J1,a31,-12V*%
%TO.N,/me12v*%
X104870000Y-57785000D03*
%TO.P,J1,a32,Vin*%
%TO.N,+9V*%
X102330000Y-57785000D03*
%TO.P,J1,b1,GND*%
%TO.N,GND*%
X181070000Y-60325000D03*
%TO.P,J1,b2,D2*%
%TO.N,/D2*%
X178530000Y-60325000D03*
%TO.P,J1,b3,D1*%
%TO.N,/D1*%
X175990000Y-60325000D03*
%TO.P,J1,b4,D0*%
%TO.N,/D0*%
X173450000Y-60325000D03*
%TO.P,J1,b5,~{AS}*%
%TO.N,/AS*%
X170910000Y-60325000D03*
%TO.P,J1,b6,~{DS}*%
%TO.N,/DS*%
X168370000Y-60325000D03*
%TO.P,J1,b7,~{DRW}*%
%TO.N,/RW*%
X165830000Y-60325000D03*
%TO.P,J1,b8,~{DTACK}*%
%TO.N,/DTACK*%
X163290000Y-60325000D03*
%TO.P,J1,b9,~{BG}*%
%TO.N,/BG*%
X160750000Y-60325000D03*
%TO.P,J1,b10,~{BR}*%
%TO.N,/BR*%
X158210000Y-60325000D03*
%TO.P,J1,b11,A15*%
%TO.N,/A15*%
X155670000Y-60325000D03*
%TO.P,J1,b12,~{RESETCPU}*%
%TO.N,/RESET*%
X153130000Y-60325000D03*
%TO.P,J1,b13,~{CSYNC}*%
%TO.N,/CSYNC*%
X150590000Y-60325000D03*
%TO.P,J1,b14,E*%
%TO.N,/E*%
X148050000Y-60325000D03*
%TO.P,J1,b15,VSYNCH*%
%TO.N,/VSYNC*%
X145510000Y-60325000D03*
%TO.P,J1,b16,~{VPA}*%
%TO.N,/VPA*%
X142970000Y-60325000D03*
%TO.P,J1,b17,GREEN*%
%TO.N,/GREEN*%
X140430000Y-60325000D03*
%TO.P,J1,b18,BLUE*%
%TO.N,/BLUE*%
X137890000Y-60325000D03*
%TO.P,J1,b19,FC2*%
%TO.N,/FC2*%
X135350000Y-60325000D03*
%TO.P,J1,b20,FC1*%
%TO.N,/FC1*%
X132810000Y-60325000D03*
%TO.P,J1,b21,FC0*%
%TO.N,/FC0*%
X130270000Y-60325000D03*
%TO.P,J1,b22,A0*%
%TO.N,/A0*%
X127730000Y-60325000D03*
%TO.P,J1,b23,ROMOEH*%
%TO.N,/ROMOE*%
X125190000Y-60325000D03*
%TO.P,J1,b24,A1*%
%TO.N,/A1*%
X122650000Y-60325000D03*
%TO.P,J1,b25,A2*%
%TO.N,/A2*%
X120110000Y-60325000D03*
%TO.P,J1,b26,SP3*%
%TO.N,/SP3*%
X117570000Y-60325000D03*
%TO.P,J1,b27,~{IPLO}*%
%TO.N,/IPL0*%
X115030000Y-60325000D03*
%TO.P,J1,b28,~{BERR}*%
%TO.N,/BERR*%
X112490000Y-60325000D03*
%TO.P,J1,b29,~{IPL1}*%
%TO.N,/IPL1*%
X109950000Y-60325000D03*
%TO.P,J1,b30,~{EXTINT}*%
%TO.N,/EXTINT*%
X107410000Y-60325000D03*
%TO.P,J1,b31,Vin*%
%TO.N,+9V*%
X104870000Y-60325000D03*
%TO.P,J1,b32,Vin*%
X102330000Y-60325000D03*
%TD*%
D23*
%TO.P,R2,1*%
%TO.N,VCC*%
X188040000Y-65375000D03*
%TO.P,R2,2*%
%TO.N,Net-(U2-I8)*%
X188040000Y-68475000D03*
%TD*%
D24*
%TO.P,SW1,1*%
%TO.N,GND*%
X185995000Y-79955000D03*
%TO.P,SW1,2*%
X187265000Y-79955000D03*
%TO.P,SW1,3*%
%TO.N,Net-(U2-I8)*%
X187265000Y-72335000D03*
%TO.P,SW1,4*%
%TO.N,Net-(U2-I7)*%
X185995000Y-72335000D03*
%TD*%
D25*
%TO.P,J2,a1,GND*%
%TO.N,GND*%
X181010000Y-88180000D03*
D22*
%TO.P,J2,a2,D3*%
%TO.N,/D3*%
X178470000Y-88180000D03*
%TO.P,J2,a3,D4*%
%TO.N,/D4*%
X175930000Y-88180000D03*
%TO.P,J2,a4,D5*%
%TO.N,/D5*%
X173390000Y-88180000D03*
%TO.P,J2,a5,D6*%
%TO.N,/D6*%
X170850000Y-88180000D03*
%TO.P,J2,a6,D7*%
%TO.N,/D7*%
X168310000Y-88180000D03*
%TO.P,J2,a7,A19*%
%TO.N,/A19*%
X165770000Y-88180000D03*
%TO.P,J2,a8,A18*%
%TO.N,/A18*%
X163230000Y-88180000D03*
%TO.P,J2,a9,A17*%
%TO.N,/A17*%
X160690000Y-88180000D03*
%TO.P,J2,a10,A16*%
%TO.N,/A16*%
X158150000Y-88180000D03*
%TO.P,J2,a11,CLKCPU*%
%TO.N,/CLKCPU*%
X155610000Y-88180000D03*
%TO.P,J2,a12,RED*%
%TO.N,/RED*%
X153070000Y-88180000D03*
%TO.P,J2,a13,A14*%
%TO.N,/A14*%
X150530000Y-88180000D03*
%TO.P,J2,a14,A13*%
%TO.N,/A13*%
X147990000Y-88180000D03*
%TO.P,J2,a15,A12*%
%TO.N,/A12*%
X145450000Y-88180000D03*
%TO.P,J2,a16,A11*%
%TO.N,/A11*%
X142910000Y-88180000D03*
%TO.P,J2,a17,A10*%
%TO.N,/A10*%
X140370000Y-88180000D03*
%TO.P,J2,a18,A9*%
%TO.N,/A9*%
X137830000Y-88180000D03*
%TO.P,J2,a19,A8*%
%TO.N,/A8*%
X135290000Y-88180000D03*
%TO.P,J2,a20,A7*%
%TO.N,/A7*%
X132750000Y-88180000D03*
%TO.P,J2,a21,A6*%
%TO.N,/A6*%
X130210000Y-88180000D03*
%TO.P,J2,a22,A5*%
%TO.N,/A5*%
X127670000Y-88180000D03*
%TO.P,J2,a23,A4*%
%TO.N,/A4*%
X125130000Y-88180000D03*
%TO.P,J2,a24,A3*%
%TO.N,/A3*%
X122590000Y-88180000D03*
%TO.P,J2,a25,~{DBG}*%
%TO.N,/DBG*%
X120050000Y-88180000D03*
%TO.P,J2,a26,SP2*%
%TO.N,/SP2*%
X117510000Y-88180000D03*
%TO.P,J2,a27,~{DSMC}*%
%TO.N,/DSMC*%
X114970000Y-88180000D03*
%TO.P,J2,a28,SP1*%
%TO.N,/SP1*%
X112430000Y-88180000D03*
%TO.P,J2,a29,SP0*%
%TO.N,/SP0*%
X109890000Y-88180000D03*
%TO.P,J2,a30,+12V*%
%TO.N,/ma12v*%
X107350000Y-88180000D03*
%TO.P,J2,a31,-12V*%
%TO.N,/me12v*%
X104810000Y-88180000D03*
%TO.P,J2,a32,Vin*%
%TO.N,+9V*%
X102270000Y-88180000D03*
%TO.P,J2,b1,GND*%
%TO.N,GND*%
X181010000Y-85640000D03*
%TO.P,J2,b2,D2*%
%TO.N,/D2*%
X178470000Y-85640000D03*
%TO.P,J2,b3,D1*%
%TO.N,/D1*%
X175930000Y-85640000D03*
%TO.P,J2,b4,D0*%
%TO.N,/D0*%
X173390000Y-85640000D03*
%TO.P,J2,b5,~{AS}*%
%TO.N,/AS*%
X170850000Y-85640000D03*
%TO.P,J2,b6,~{DS}*%
%TO.N,/DS*%
X168310000Y-85640000D03*
%TO.P,J2,b7,~{DRW}*%
%TO.N,/RW*%
X165770000Y-85640000D03*
%TO.P,J2,b8,~{DTACK}*%
%TO.N,/DTACK*%
X163230000Y-85640000D03*
%TO.P,J2,b9,~{BG}*%
%TO.N,/BG*%
X160690000Y-85640000D03*
%TO.P,J2,b10,~{BR}*%
%TO.N,/BR*%
X158150000Y-85640000D03*
%TO.P,J2,b11,A15*%
%TO.N,/A15*%
X155610000Y-85640000D03*
%TO.P,J2,b12,~{RESETCPU}*%
%TO.N,/RESET*%
X153070000Y-85640000D03*
%TO.P,J2,b13,~{CSYNC}*%
%TO.N,/CSYNC*%
X150530000Y-85640000D03*
%TO.P,J2,b14,E*%
%TO.N,/E*%
X147990000Y-85640000D03*
%TO.P,J2,b15,VSYNCH*%
%TO.N,/VSYNC*%
X145450000Y-85640000D03*
%TO.P,J2,b16,~{VPA}*%
%TO.N,/VPA*%
X142910000Y-85640000D03*
%TO.P,J2,b17,GREEN*%
%TO.N,/GREEN*%
X140370000Y-85640000D03*
%TO.P,J2,b18,BLUE*%
%TO.N,/BLUE*%
X137830000Y-85640000D03*
%TO.P,J2,b19,FC2*%
%TO.N,/FC2*%
X135290000Y-85640000D03*
%TO.P,J2,b20,FC1*%
%TO.N,/FC1*%
X132750000Y-85640000D03*
%TO.P,J2,b21,FC0*%
%TO.N,/FC0*%
X130210000Y-85640000D03*
%TO.P,J2,b22,A0*%
%TO.N,/A0*%
X127670000Y-85640000D03*
%TO.P,J2,b23,ROMOEH*%
%TO.N,/ROMOE*%
X125130000Y-85640000D03*
%TO.P,J2,b24,A1*%
%TO.N,/A1*%
X122590000Y-85640000D03*
%TO.P,J2,b25,A2*%
%TO.N,/A2*%
X120050000Y-85640000D03*
%TO.P,J2,b26,SP3*%
%TO.N,/SP3*%
X117510000Y-85640000D03*
%TO.P,J2,b27,~{IPLO}*%
%TO.N,/IPL0*%
X114970000Y-85640000D03*
%TO.P,J2,b28,~{BERR}*%
%TO.N,Net-(J2-~{BERR})*%
X112430000Y-85640000D03*
%TO.P,J2,b29,~{IPL1}*%
%TO.N,/IPL1*%
X109890000Y-85640000D03*
%TO.P,J2,b30,~{EXTINT}*%
%TO.N,/EXTINT*%
X107350000Y-85640000D03*
%TO.P,J2,b31,Vin*%
%TO.N,+9V*%
X104810000Y-85640000D03*
%TO.P,J2,b32,Vin*%
X102270000Y-85640000D03*
%TD*%
D26*
%TO.P,R3,1*%
%TO.N,VCC*%
X120970000Y-63835000D03*
%TO.P,R3,2*%
%TO.N,Net-(SW2-C)*%
X117870000Y-63835000D03*
%TD*%
D27*
%TO.P,U2,1,I1/CLK*%
%TO.N,/DS*%
X158215000Y-74310000D03*
D28*
%TO.P,U2,2,I2*%
%TO.N,/A17*%
X160755000Y-74310000D03*
%TO.P,U2,3,I3*%
%TO.N,/A16*%
X163295000Y-74310000D03*
%TO.P,U2,4,I4*%
%TO.N,/A15*%
X165835000Y-74310000D03*
%TO.P,U2,5,I5*%
%TO.N,unconnected-(U2-I5-Pad5)*%
X168375000Y-74310000D03*
%TO.P,U2,6,I6*%
%TO.N,/AS*%
X170915000Y-74310000D03*
%TO.P,U2,7,I7*%
%TO.N,Net-(U2-I7)*%
X173455000Y-74310000D03*
%TO.P,U2,8,I8*%
%TO.N,Net-(U2-I8)*%
X175995000Y-74310000D03*
%TO.P,U2,9,I9*%
%TO.N,/A19*%
X178535000Y-74310000D03*
%TO.P,U2,10,GND*%
%TO.N,GND*%
X181075000Y-74310000D03*
%TO.P,U2,11,I10/~{OE}*%
%TO.N,/A18*%
X181075000Y-66690000D03*
%TO.P,U2,12,IO8*%
%TO.N,unconnected-(U2-IO8-Pad12)*%
X178535000Y-66690000D03*
%TO.P,U2,13,IO7*%
%TO.N,unconnected-(U2-IO7-Pad13)*%
X175995000Y-66690000D03*
%TO.P,U2,14,IO6*%
%TO.N,/DTACK*%
X173455000Y-66690000D03*
%TO.P,U2,15,IO5*%
%TO.N,unconnected-(U2-IO5-Pad15)*%
X170915000Y-66690000D03*
%TO.P,U2,16,IO4*%
%TO.N,/DSMC*%
X168375000Y-66690000D03*
%TO.P,U2,17,I03*%
%TO.N,Net-(SW2-C)*%
X165835000Y-66690000D03*
%TO.P,U2,18,IO2*%
%TO.N,/RAM_OE*%
X163295000Y-66690000D03*
%TO.P,U2,19,IO1*%
%TO.N,/RAM_CE*%
X160755000Y-66690000D03*
%TO.P,U2,20,VCC*%
%TO.N,VCC*%
X158215000Y-66690000D03*
%TD*%
D23*
%TO.P,R1,1*%
%TO.N,VCC*%
X185600000Y-65375000D03*
%TO.P,R1,2*%
%TO.N,Net-(U2-I7)*%
X185600000Y-68475000D03*
%TD*%
D29*
%TO.P,U1,1,A18*%
%TO.N,/A18*%
X128365000Y-77035000D03*
%TO.P,U1,2,A16*%
%TO.N,/A16*%
X129635000Y-77035000D03*
%TO.P,U1,3,A14*%
%TO.N,/A14*%
X130905000Y-77035000D03*
%TO.P,U1,4,A12*%
%TO.N,/A12*%
X132175000Y-77035000D03*
%TO.P,U1,5,A7*%
%TO.N,/A7*%
X133445000Y-77035000D03*
%TO.P,U1,6,A6*%
%TO.N,/A6*%
X134715000Y-77035000D03*
%TO.P,U1,7,A5*%
%TO.N,/A5*%
X135985000Y-77035000D03*
%TO.P,U1,8,A4*%
%TO.N,/A4*%
X137255000Y-77035000D03*
%TO.P,U1,9,A3*%
%TO.N,/A3*%
X138525000Y-77035000D03*
%TO.P,U1,10,A2*%
%TO.N,/A2*%
X139795000Y-77035000D03*
%TO.P,U1,11,A1*%
%TO.N,/A1*%
X141065000Y-77035000D03*
%TO.P,U1,12,A0*%
%TO.N,/A0*%
X142335000Y-77035000D03*
%TO.P,U1,13,DQ0*%
%TO.N,/D0*%
X143605000Y-77035000D03*
%TO.P,U1,14,DQ1*%
%TO.N,/D1*%
X144875000Y-77035000D03*
%TO.P,U1,15,DQ2*%
%TO.N,/D2*%
X146145000Y-77035000D03*
%TO.P,U1,16,VSS*%
%TO.N,GND*%
X147415000Y-77035000D03*
%TO.P,U1,17,DQ3*%
%TO.N,/D3*%
X147415000Y-63935000D03*
%TO.P,U1,18,DQ4*%
%TO.N,/D4*%
X146145000Y-63935000D03*
%TO.P,U1,19,DQ5*%
%TO.N,/D5*%
X144875000Y-63935000D03*
%TO.P,U1,20,DQ6*%
%TO.N,/D6*%
X143605000Y-63935000D03*
%TO.P,U1,21,DQ7*%
%TO.N,/D7*%
X142335000Y-63935000D03*
%TO.P,U1,22,CE#*%
%TO.N,/RAM_CE*%
X141065000Y-63935000D03*
%TO.P,U1,23,A10*%
%TO.N,/A10*%
X139795000Y-63935000D03*
%TO.P,U1,24,OE#*%
%TO.N,/RAM_OE*%
X138525000Y-63935000D03*
%TO.P,U1,25,A11*%
%TO.N,/A11*%
X137255000Y-63935000D03*
%TO.P,U1,26,A9*%
%TO.N,/A9*%
X135985000Y-63935000D03*
%TO.P,U1,27,A8*%
%TO.N,/A8*%
X134715000Y-63935000D03*
%TO.P,U1,28,A13*%
%TO.N,/A13*%
X133445000Y-63935000D03*
%TO.P,U1,29,WE#*%
%TO.N,/RW*%
X132175000Y-63935000D03*
%TO.P,U1,30,A17*%
%TO.N,/A17*%
X130905000Y-63935000D03*
%TO.P,U1,31,A15*%
%TO.N,/A15*%
X129635000Y-63935000D03*
%TO.P,U1,32,VCC*%
%TO.N,VCC*%
X128365000Y-63935000D03*
%TD*%
D30*
%TO.N,GND*%
X175970000Y-76515000D03*
X141430000Y-55065000D03*
X186950000Y-70535000D03*
X166450000Y-54965000D03*
X167990000Y-82315000D03*
X118930000Y-91325000D03*
X112050000Y-66625000D03*
X176050000Y-83425000D03*
X104780000Y-62365000D03*
X99630000Y-85085000D03*
X187990000Y-75615000D03*
X125900000Y-54835000D03*
X181880000Y-71195000D03*
X168380000Y-71295000D03*
X173460000Y-83425000D03*
X170870000Y-71285000D03*
X178700000Y-71245000D03*
X181660000Y-78975000D03*
X186750000Y-87115000D03*
X182820000Y-83395000D03*
X157000000Y-92055000D03*
X173630000Y-79115000D03*
X105270000Y-83865000D03*
X139040000Y-91505000D03*
X173480000Y-71255000D03*
X169710000Y-90495000D03*
X150970000Y-74835000D03*
X105980000Y-91385000D03*
X97930000Y-60805000D03*
X176030000Y-80405000D03*
X97980000Y-71275000D03*
X104880000Y-70435000D03*
X151060000Y-79675000D03*
X173280000Y-55935000D03*
X107000000Y-55215000D03*
X163330000Y-71185000D03*
X179780000Y-83395000D03*
X173470000Y-76485000D03*
X158150000Y-71655000D03*
X187700000Y-60875000D03*
X149090000Y-89735000D03*
X175940000Y-71265000D03*
X164200000Y-79395000D03*
X179080000Y-90175000D03*
X163060000Y-82295000D03*
X164800000Y-83545000D03*
D31*
%TO.N,/A3*%
X121400000Y-72105000D03*
%TO.N,/A4*%
X123910000Y-73455000D03*
%TO.N,/A5*%
X126470000Y-74615000D03*
%TO.N,/A6*%
X128990000Y-75045000D03*
%TO.N,/A7*%
X131550000Y-75065000D03*
%TO.N,/A8*%
X134070000Y-62165000D03*
%TO.N,/A9*%
X136600000Y-65835000D03*
%TO.N,/A10*%
X139166942Y-65798058D03*
%TO.N,/A11*%
X141680000Y-61255000D03*
%TO.N,/A12*%
X144240000Y-80645000D03*
%TO.N,/D7*%
X185505000Y-82735000D03*
D30*
X171140000Y-55045000D03*
D31*
%TO.N,/D5*%
X172220000Y-62865000D03*
X172140558Y-59264442D03*
%TO.N,/D4*%
X184235000Y-79530000D03*
X177410000Y-81065000D03*
%TO.N,/A2*%
X120080000Y-71165000D03*
%TO.N,/A1*%
X122640000Y-70335000D03*
%TO.N,/A0*%
X127720000Y-69315000D03*
%TO.N,/D0*%
X172220000Y-78735000D03*
%TO.N,/D1*%
X174720000Y-78135000D03*
%TO.N,/D2*%
X179730000Y-78155000D03*
D30*
%TO.N,/DSMC*%
X116150000Y-53845000D03*
X179290000Y-54385000D03*
D31*
%TO.N,/A14*%
X149300000Y-82790000D03*
%TO.N,/A16*%
X156950000Y-82935000D03*
X162680000Y-79165000D03*
X156940000Y-78945000D03*
%TO.N,/A17*%
X156930000Y-70035000D03*
X132170000Y-56415000D03*
%TO.N,/A18*%
X162010000Y-69305000D03*
%TO.N,/A19*%
X176050000Y-78745000D03*
%TO.N,/A15*%
X154730000Y-69195000D03*
%TO.N,/DS*%
X167060000Y-76735000D03*
D30*
%TO.N,/AS*%
X170910000Y-64262000D03*
D31*
X170915000Y-81935000D03*
D30*
X186910000Y-81985000D03*
X187150000Y-63015000D03*
D31*
%TO.N,/DTACK*%
X163290000Y-64516000D03*
X168345000Y-78835000D03*
X168720000Y-76410000D03*
X164940000Y-80405000D03*
X166005000Y-72130000D03*
X165550000Y-68655000D03*
%TO.N,Net-(J2-~{BERR})*%
X112510000Y-68275000D03*
D30*
%TO.N,Net-(SW2-C)*%
X113760000Y-55790000D03*
%TD*%
D32*
%TO.N,VCC*%
X111720929Y-75905360D02*
X111741289Y-75885000D01*
X111741289Y-75885000D02*
X114680000Y-75885000D01*
X114680000Y-75885000D02*
X114760000Y-75805000D01*
D33*
X110730000Y-75785000D02*
X110850360Y-75905360D01*
X110850360Y-75905360D02*
X111720929Y-75905360D01*
D32*
X105245929Y-75905360D02*
X105255569Y-75915000D01*
X105255569Y-75915000D02*
X110600000Y-75915000D01*
D33*
X105940801Y-75846082D02*
X105881523Y-75905360D01*
X105881523Y-75905360D02*
X105245929Y-75905360D01*
D34*
X120970000Y-63835000D02*
X120970000Y-65305000D01*
X120970000Y-65305000D02*
X118520000Y-67755000D01*
X118520000Y-67755000D02*
X118520000Y-79025000D01*
X128272500Y-63842500D02*
X120977500Y-63842500D01*
X120977500Y-63842500D02*
X120970000Y-63835000D01*
D35*
%TO.N,Net-(SW2-C)*%
X118290000Y-63575000D02*
X113750000Y-63575000D01*
X113750000Y-63575000D02*
X113750000Y-64492500D01*
D36*
%TO.N,/AS*%
X187150000Y-63015000D02*
X187120000Y-62985000D01*
X187120000Y-62985000D02*
X183460000Y-62985000D01*
X183460000Y-62985000D02*
X182183000Y-64262000D01*
X182183000Y-64262000D02*
X170910000Y-64262000D01*
D33*
%TO.N,+9V*%
X102270000Y-85640000D02*
X104810000Y-85640000D01*
X102270000Y-85640000D02*
X102390000Y-85520000D01*
D37*
X102390000Y-78435000D02*
X102400000Y-78425000D01*
D34*
X102330000Y-60325000D02*
X104870000Y-60325000D01*
X102330000Y-60325000D02*
X102330000Y-57820000D01*
X102390000Y-85520000D02*
X102390000Y-60385000D01*
D33*
X102390000Y-60385000D02*
X102330000Y-60325000D01*
X102270000Y-88180000D02*
X102270000Y-85640000D01*
D37*
X102400000Y-78425000D02*
X105910000Y-78425000D01*
X104870000Y-60325000D02*
X104910000Y-60365000D01*
D33*
X102160000Y-88070000D02*
X102270000Y-88180000D01*
D36*
%TO.N,GND*%
X126450000Y-61605000D02*
X126480000Y-61635000D01*
X118810000Y-56605000D02*
X118810000Y-61685000D01*
X121320000Y-84405000D02*
X121320000Y-89485000D01*
X123940000Y-56575000D02*
X123940000Y-61655000D01*
X126450000Y-56585000D02*
X126450000Y-61605000D01*
X141640000Y-84565000D02*
X141640000Y-89385000D01*
X121390000Y-56575000D02*
X121370000Y-56595000D01*
X111160000Y-84405000D02*
X111160000Y-89485000D01*
X126480000Y-56555000D02*
X126450000Y-56585000D01*
X121370000Y-61635000D02*
X121390000Y-61655000D01*
X108645000Y-56520000D02*
X108645000Y-61600000D01*
X116310000Y-56565000D02*
X116310000Y-61545000D01*
X164490000Y-84475000D02*
X164490000Y-89555000D01*
X136590000Y-84475000D02*
X136590000Y-89555000D01*
X131480000Y-84475000D02*
X131480000Y-89555000D01*
X121370000Y-56595000D02*
X121370000Y-61635000D01*
X116240000Y-84405000D02*
X116240000Y-89485000D01*
X111220000Y-56515000D02*
X111220000Y-61595000D01*
X106145000Y-56520000D02*
X106145000Y-61600000D01*
X146740000Y-84525000D02*
X146740000Y-89505000D01*
X141640000Y-89385000D02*
X141770000Y-89515000D01*
X126400000Y-84395000D02*
X126400000Y-89475000D01*
X141770000Y-84435000D02*
X141640000Y-84565000D01*
X116310000Y-61545000D02*
X116260000Y-61595000D01*
X156880000Y-84505000D02*
X156880000Y-89585000D01*
X151830000Y-84515000D02*
X151830000Y-89595000D01*
X116260000Y-56515000D02*
X116310000Y-56565000D01*
D38*
%TO.N,VCC*%
X155800000Y-67675000D02*
X156785000Y-66690000D01*
X138953173Y-67675000D02*
X155800000Y-67675000D01*
X185620000Y-65455000D02*
X187960000Y-65455000D01*
X158215000Y-66690000D02*
X158215000Y-67590000D01*
X128365000Y-63935000D02*
X128365000Y-65190000D01*
D33*
X114760000Y-75805000D02*
X114780000Y-75825000D01*
X111730000Y-71745000D02*
X111720929Y-71754071D01*
D38*
X128365000Y-65190000D02*
X130410000Y-67235000D01*
D33*
X111720929Y-78885000D02*
X118560000Y-78885000D01*
D38*
X158215000Y-67590000D02*
X160752480Y-70127480D01*
X130410000Y-67235000D02*
X138513173Y-67235000D01*
X180947520Y-70127480D02*
X185620000Y-65455000D01*
D33*
X118560000Y-78885000D02*
X118730000Y-78715000D01*
D38*
X187960000Y-65455000D02*
X188040000Y-65375000D01*
X156785000Y-66690000D02*
X158215000Y-66690000D01*
D32*
X111720929Y-71754071D02*
X111720929Y-78885000D01*
D38*
X160752480Y-70127480D02*
X180947520Y-70127480D01*
X138513173Y-67235000D02*
X138953173Y-67675000D01*
D36*
%TO.N,/A3*%
X121400000Y-72105000D02*
X121520000Y-71985000D01*
X135250000Y-71985000D02*
X138525000Y-75260000D01*
X138525000Y-75260000D02*
X138525000Y-77035000D01*
X121520000Y-71985000D02*
X135250000Y-71985000D01*
%TO.N,/A4*%
X124570000Y-72795000D02*
X134700000Y-72795000D01*
X134700000Y-72795000D02*
X137255000Y-75350000D01*
X137255000Y-75350000D02*
X137255000Y-77035000D01*
X123910000Y-73455000D02*
X124570000Y-72795000D01*
%TO.N,/A5*%
X127540000Y-73545000D02*
X134170000Y-73545000D01*
X126470000Y-74615000D02*
X127540000Y-73545000D01*
X134170000Y-73545000D02*
X135985000Y-75360000D01*
X135985000Y-75360000D02*
X135985000Y-77035000D01*
%TO.N,/A6*%
X134715000Y-75340000D02*
X134715000Y-77035000D01*
X128990000Y-75045000D02*
X129820000Y-74215000D01*
X133590000Y-74215000D02*
X134715000Y-75340000D01*
X129820000Y-74215000D02*
X133590000Y-74215000D01*
%TO.N,/A7*%
X132944282Y-75065000D02*
X133445000Y-75565718D01*
X131550000Y-75065000D02*
X132944282Y-75065000D01*
X133445000Y-75565718D02*
X133445000Y-77035000D01*
%TO.N,/A8*%
X134070000Y-62165000D02*
X134715000Y-62810000D01*
X134715000Y-62810000D02*
X134715000Y-63935000D01*
%TO.N,/A9*%
X136550000Y-65835000D02*
X135985000Y-65270000D01*
X135985000Y-65270000D02*
X135985000Y-63935000D01*
X136600000Y-65835000D02*
X136550000Y-65835000D01*
%TO.N,/A10*%
X139166942Y-65798058D02*
X139795000Y-65170000D01*
X139795000Y-65170000D02*
X139795000Y-63935000D01*
%TO.N,/A11*%
X140720000Y-62215000D02*
X138060000Y-62215000D01*
X138060000Y-62215000D02*
X137255000Y-63020000D01*
X137255000Y-63020000D02*
X137255000Y-63935000D01*
X141680000Y-61255000D02*
X140720000Y-62215000D01*
%TO.N,/A12*%
X132175000Y-78105000D02*
X132175000Y-77035000D01*
X133625000Y-79555000D02*
X132175000Y-78105000D01*
X144230000Y-80645000D02*
X143140000Y-79555000D01*
X143140000Y-79555000D02*
X133625000Y-79555000D01*
X144240000Y-80645000D02*
X144230000Y-80645000D01*
%TO.N,/D7*%
X167100000Y-60960000D02*
X166149300Y-61910700D01*
X154608100Y-61910700D02*
X154326700Y-61629300D01*
X142335000Y-62700000D02*
X142335000Y-63935000D01*
X185505000Y-82735000D02*
X185505000Y-82800000D01*
X143405700Y-61629300D02*
X142335000Y-62700000D01*
X169595000Y-86895000D02*
X168310000Y-88180000D01*
X171140000Y-55050000D02*
X167100000Y-59090000D01*
X167100000Y-59090000D02*
X167100000Y-60960000D01*
X154326700Y-61629300D02*
X143405700Y-61629300D01*
X185505000Y-82800000D02*
X181410000Y-86895000D01*
X181410000Y-86895000D02*
X169595000Y-86895000D01*
X166149300Y-61910700D02*
X154608100Y-61910700D01*
X171140000Y-55045000D02*
X171140000Y-55050000D01*
%TO.N,/D6*%
X169640000Y-60960000D02*
X168239000Y-62361000D01*
X143605000Y-62830000D02*
X143605000Y-63935000D01*
X144354300Y-62080700D02*
X143605000Y-62830000D01*
X169640000Y-59090000D02*
X169640000Y-60960000D01*
X170910000Y-57820000D02*
X169640000Y-59090000D01*
X153015700Y-62080700D02*
X144354300Y-62080700D01*
X168239000Y-62361000D02*
X153296000Y-62361000D01*
X153296000Y-62361000D02*
X153015700Y-62080700D01*
%TO.N,/D5*%
X169132000Y-63711900D02*
X151648100Y-63711900D01*
X173450000Y-57785000D02*
X173450000Y-57955000D01*
X173450000Y-57955000D02*
X172140558Y-59264442D01*
X151648100Y-63711900D02*
X149955000Y-65405000D01*
X149955000Y-65405000D02*
X145510000Y-65405000D01*
X169978900Y-62865000D02*
X169132000Y-63711900D01*
X145510000Y-65405000D02*
X144875000Y-64770000D01*
X172220000Y-62865000D02*
X169978900Y-62865000D01*
%TO.N,/D4*%
X151586300Y-62811300D02*
X168549304Y-62811300D01*
X174085000Y-61595000D02*
X174720000Y-60960000D01*
X168549304Y-62811300D02*
X169765604Y-61595000D01*
X151306100Y-62531100D02*
X151586300Y-62811300D01*
X146145000Y-63340000D02*
X146953900Y-62531100D01*
X184235000Y-79530000D02*
X183205000Y-79530000D01*
X183205000Y-79530000D02*
X181670000Y-81065000D01*
X146953900Y-62531100D02*
X151306100Y-62531100D01*
X146145000Y-63476900D02*
X146145000Y-63340000D01*
X169765604Y-61595000D02*
X174085000Y-61595000D01*
X181670000Y-81065000D02*
X177410000Y-81065000D01*
X174720000Y-59090000D02*
X175990000Y-57820000D01*
X174720000Y-60960000D02*
X174720000Y-59090000D01*
%TO.N,/D3*%
X169850504Y-62230000D02*
X175990000Y-62230000D01*
X168818904Y-63261600D02*
X169850504Y-62230000D01*
X150953400Y-63261600D02*
X168818904Y-63261600D01*
X147415000Y-63935000D02*
X150280000Y-63935000D01*
X175990000Y-62230000D02*
X177260000Y-60960000D01*
X177260000Y-60960000D02*
X177260000Y-59090000D01*
X150280000Y-63935000D02*
X150953400Y-63261600D01*
X177260000Y-59090000D02*
X178530000Y-57820000D01*
%TO.N,/A2*%
X120080000Y-71165000D02*
X123230000Y-71165000D01*
X139795000Y-75130000D02*
X139795000Y-77035000D01*
X135840000Y-71175000D02*
X139795000Y-75130000D01*
X123230000Y-71165000D02*
X123240000Y-71175000D01*
X123240000Y-71175000D02*
X135840000Y-71175000D01*
%TO.N,/A1*%
X136270000Y-70295000D02*
X141065000Y-75090000D01*
X141065000Y-75090000D02*
X141065000Y-77035000D01*
X122680000Y-70295000D02*
X136270000Y-70295000D01*
X122640000Y-70335000D02*
X122680000Y-70295000D01*
%TO.N,/A0*%
X127740000Y-69335000D02*
X136680000Y-69335000D01*
X136680000Y-69335000D02*
X142335000Y-74990000D01*
X142335000Y-74990000D02*
X142335000Y-77035000D01*
X127720000Y-69315000D02*
X127740000Y-69335000D01*
%TO.N,/RW*%
X156320000Y-61425000D02*
X156980000Y-60765000D01*
X135350000Y-65665000D02*
X135350000Y-62869092D01*
X139150000Y-59745000D02*
X139840000Y-59055000D01*
X154400000Y-59690000D02*
X154400000Y-60795000D01*
X134625000Y-66390000D02*
X135350000Y-65665000D01*
X154400000Y-60795000D02*
X155030000Y-61425000D01*
X136674092Y-61545000D02*
X138470000Y-61545000D01*
X139150000Y-60865000D02*
X139150000Y-59745000D01*
X138470000Y-61545000D02*
X139150000Y-60865000D01*
X157564365Y-59075000D02*
X164545000Y-59075000D01*
X132175000Y-65290000D02*
X133275000Y-66390000D01*
X156980000Y-59659365D02*
X157564365Y-59075000D01*
X164545000Y-59075000D02*
X165830000Y-60360000D01*
X135350000Y-62869092D02*
X136674092Y-61545000D01*
X155030000Y-61425000D02*
X156320000Y-61425000D01*
X132175000Y-63935000D02*
X132175000Y-65290000D01*
X153765000Y-59055000D02*
X154400000Y-59690000D01*
X156980000Y-60765000D02*
X156980000Y-59659365D01*
X133275000Y-66390000D02*
X134625000Y-66390000D01*
X139840000Y-59055000D02*
X153765000Y-59055000D01*
%TO.N,/D0*%
X143605000Y-78350000D02*
X143605000Y-77035000D01*
X169980000Y-78735000D02*
X167685000Y-81030000D01*
X172220000Y-78735000D02*
X169980000Y-78735000D01*
X146285000Y-81030000D02*
X143605000Y-78350000D01*
X167685000Y-81030000D02*
X146285000Y-81030000D01*
%TO.N,/D1*%
X146145000Y-79375000D02*
X144875000Y-78105000D01*
X150870000Y-78105000D02*
X149600000Y-79375000D01*
X144875000Y-78105000D02*
X144875000Y-77035000D01*
X149600000Y-79375000D02*
X146145000Y-79375000D01*
X174720000Y-78105000D02*
X150870000Y-78105000D01*
%TO.N,/D2*%
X177470000Y-78155000D02*
X176785000Y-77470000D01*
X148420000Y-78735000D02*
X147080000Y-78735000D01*
X147080000Y-78735000D02*
X146145000Y-77800000D01*
X179730000Y-78155000D02*
X177470000Y-78155000D01*
X149600000Y-77555000D02*
X148420000Y-78735000D01*
X146145000Y-77800000D02*
X146145000Y-77471400D01*
X176785000Y-77470000D02*
X149675000Y-77470000D01*
X149675000Y-77470000D02*
X149600000Y-77545000D01*
X149600000Y-77545000D02*
X149600000Y-77555000D01*
%TO.N,/RAM_CE*%
X141700000Y-66040000D02*
X141065000Y-65405000D01*
X153433580Y-64161420D02*
X151555000Y-66040000D01*
X160755000Y-64801420D02*
X160115000Y-64161420D01*
X141065000Y-65405000D02*
X141065000Y-63935000D01*
X160115000Y-64161420D02*
X153433580Y-64161420D01*
X151555000Y-66040000D02*
X141700000Y-66040000D01*
X160755000Y-66690000D02*
X160755000Y-64801420D01*
%TO.N,/RAM_OE*%
X163295000Y-66690000D02*
X163295000Y-67620000D01*
X158845000Y-64770000D02*
X154705000Y-64770000D01*
X154705000Y-64770000D02*
X152800000Y-66675000D01*
X163295000Y-67620000D02*
X162335000Y-68580000D01*
X159480000Y-67735000D02*
X159480000Y-65405000D01*
X159480000Y-65405000D02*
X158845000Y-64770000D01*
X160325000Y-68580000D02*
X159480000Y-67735000D01*
X162335000Y-68580000D02*
X160325000Y-68580000D01*
X138990000Y-66675000D02*
X138525000Y-66210000D01*
X152800000Y-66675000D02*
X138990000Y-66675000D01*
X138525000Y-66210000D02*
X138525000Y-63935000D01*
%TO.N,/DSMC*%
X177425000Y-63500000D02*
X170275000Y-63500000D01*
X179290000Y-55405000D02*
X179760000Y-55875000D01*
X179760000Y-55875000D02*
X179760000Y-61165000D01*
X179760000Y-61165000D02*
X177425000Y-63500000D01*
X168375000Y-65400000D02*
X168375000Y-66690000D01*
X179290000Y-54385000D02*
X179290000Y-55405000D01*
X115030000Y-54965000D02*
X116150000Y-53845000D01*
X115030000Y-57820000D02*
X115030000Y-54965000D01*
X170275000Y-63500000D02*
X168375000Y-65400000D01*
%TO.N,/A13*%
X146655000Y-56425000D02*
X134805000Y-56425000D01*
X133445000Y-61610000D02*
X133445000Y-63935000D01*
X134805000Y-56425000D02*
X134080000Y-57150000D01*
X134080000Y-57150000D02*
X134080000Y-60975000D01*
X134080000Y-60975000D02*
X133445000Y-61610000D01*
X148050000Y-57820000D02*
X146655000Y-56425000D01*
%TO.N,/A14*%
X149225000Y-82715000D02*
X137000000Y-82715000D01*
X130905000Y-78660000D02*
X130905000Y-77035000D01*
X149300000Y-82790000D02*
X149225000Y-82715000D01*
X137000000Y-82715000D02*
X135630000Y-81345000D01*
X133590000Y-81345000D02*
X130905000Y-78660000D01*
X135630000Y-81345000D02*
X133590000Y-81345000D01*
%TO.N,/A16*%
X129635000Y-79550000D02*
X129635000Y-77035000D01*
X162630000Y-79215000D02*
X162680000Y-79165000D01*
X157210000Y-79215000D02*
X162630000Y-79215000D01*
X156950000Y-82935000D02*
X156470000Y-83415000D01*
X156940000Y-78945000D02*
X157210000Y-79215000D01*
X156470000Y-83415000D02*
X133500000Y-83415000D01*
X133500000Y-83415000D02*
X129635000Y-79550000D01*
%TO.N,/A17*%
X156930000Y-70035000D02*
X157640000Y-70035000D01*
X131540000Y-57150000D02*
X131540000Y-61595000D01*
X160755000Y-73150000D02*
X160755000Y-74925000D01*
X132170000Y-56415000D02*
X132170000Y-56520000D01*
X132170000Y-56520000D02*
X131540000Y-57150000D01*
X131540000Y-61595000D02*
X130905000Y-62230000D01*
X130905000Y-62230000D02*
X130905000Y-63935000D01*
X157640000Y-70035000D02*
X160755000Y-73150000D01*
X160750000Y-57395000D02*
X160750000Y-57820000D01*
%TO.N,/A18*%
X179240000Y-68525000D02*
X181075000Y-66690000D01*
X130870000Y-90655000D02*
X160755000Y-90655000D01*
X128365000Y-77035000D02*
X128365000Y-84439365D01*
X162020000Y-69315000D02*
X173950000Y-69315000D01*
X173950000Y-69315000D02*
X174740000Y-68525000D01*
X128365000Y-84439365D02*
X128900000Y-84974365D01*
X128900000Y-88685000D02*
X130870000Y-90655000D01*
X160755000Y-90655000D02*
X163230000Y-88180000D01*
X128900000Y-84974365D02*
X128900000Y-88685000D01*
X162010000Y-69305000D02*
X162020000Y-69315000D01*
X174740000Y-68525000D02*
X179240000Y-68525000D01*
%TO.N,/A19*%
X176050000Y-78745000D02*
X174340000Y-80455000D01*
X167070000Y-86880000D02*
X165770000Y-88180000D01*
X167070000Y-84595000D02*
X167070000Y-86880000D01*
X174340000Y-80455000D02*
X171210000Y-80455000D01*
X171210000Y-80455000D02*
X167070000Y-84595000D01*
%TO.N,/A15*%
X154345000Y-56750000D02*
X151870000Y-54275000D01*
X158450000Y-69195000D02*
X161390000Y-72135000D01*
X155670000Y-59535000D02*
X154345000Y-58210000D01*
X129635000Y-62200000D02*
X129635000Y-63935000D01*
X163654695Y-72135000D02*
X165829695Y-74310000D01*
X165829695Y-74310000D02*
X165835000Y-74310000D01*
X155940000Y-85585000D02*
X155940000Y-85455000D01*
X151870000Y-54275000D02*
X131980000Y-54275000D01*
X161390000Y-72135000D02*
X163654695Y-72135000D01*
X129010000Y-61575000D02*
X129635000Y-62200000D01*
X129010000Y-57245000D02*
X129010000Y-61575000D01*
X131980000Y-54275000D02*
X129010000Y-57245000D01*
X155670000Y-60360000D02*
X155670000Y-59535000D01*
X154345000Y-58210000D02*
X154345000Y-56750000D01*
X154730000Y-69195000D02*
X158450000Y-69195000D01*
%TO.N,/DS*%
X159750000Y-76765000D02*
X158215000Y-75230000D01*
X158215000Y-75230000D02*
X158215000Y-74310000D01*
X167030000Y-76765000D02*
X159750000Y-76765000D01*
X167060000Y-76735000D02*
X167030000Y-76765000D01*
%TO.N,/AS*%
X186910000Y-81985000D02*
X170910000Y-81985000D01*
%TO.N,/DTACK*%
X167070000Y-75165000D02*
X168315000Y-76410000D01*
X167070000Y-73195000D02*
X167070000Y-75165000D01*
X168315000Y-76410000D02*
X168720000Y-76410000D01*
X165590000Y-68695000D02*
X164560000Y-67665000D01*
X166005000Y-72130000D02*
X167070000Y-73195000D01*
X164940000Y-80405000D02*
X165020000Y-80405000D01*
X173455000Y-66690000D02*
X171450000Y-68695000D01*
X164560000Y-65786000D02*
X163290000Y-64516000D01*
X171450000Y-68695000D02*
X165590000Y-68695000D01*
X165370000Y-80055000D02*
X167125000Y-80055000D01*
X165020000Y-80405000D02*
X165370000Y-80055000D01*
X164560000Y-67665000D02*
X164560000Y-65786000D01*
X167125000Y-80055000D02*
X168345000Y-78835000D01*
%TO.N,/FC0*%
X130850000Y-85615000D02*
X130795000Y-85615000D01*
%TO.N,/BERR*%
X112490000Y-60325000D02*
X112270000Y-60545000D01*
X112290000Y-64375000D02*
X112290000Y-64625000D01*
X112290000Y-64625000D02*
X112440000Y-64775000D01*
X112270000Y-64355000D02*
X112290000Y-64375000D01*
X112270000Y-60545000D02*
X112270000Y-64355000D01*
%TO.N,Net-(J2-~{BERR})*%
X109290000Y-67195000D02*
X109290000Y-64505000D01*
X109290000Y-64505000D02*
X109380000Y-64415000D01*
X112510000Y-68185000D02*
X112110000Y-67785000D01*
X109880000Y-67785000D02*
X109290000Y-67195000D01*
X112110000Y-67785000D02*
X109880000Y-67785000D01*
X112510000Y-68275000D02*
X112510000Y-68185000D01*
%TO.N,Net-(U2-I7)*%
X185560000Y-68555000D02*
X185620000Y-68555000D01*
X173455000Y-74310000D02*
X175430000Y-72335000D01*
X185620000Y-68555000D02*
X185995000Y-68930000D01*
X175430000Y-72335000D02*
X185995000Y-72335000D01*
X185995000Y-68930000D02*
X185995000Y-72335000D01*
%TO.N,Net-(U2-I8)*%
X175995000Y-74310000D02*
X178765000Y-77080000D01*
X183315000Y-77080000D02*
X187265000Y-73130000D01*
X187265000Y-73130000D02*
X187265000Y-72335000D01*
X188040000Y-68475000D02*
X188040000Y-71560000D01*
X176075000Y-74310000D02*
X175995000Y-74310000D01*
X188040000Y-71560000D02*
X187265000Y-72335000D01*
X178765000Y-77080000D02*
X183315000Y-77080000D01*
%TO.N,Net-(SW2-C)*%
X113760000Y-64755000D02*
X113740000Y-64775000D01*
X113760000Y-55790000D02*
X113760000Y-64755000D01*
D37*
%TO.N,+9V*%
X97900000Y-76145000D02*
X102250000Y-76145000D01*
%TD*%
%TA.AperFunction,Conductor*%
%TO.N,VCC*%
G36*
X115552251Y-69365181D02*
G01*
X115598911Y-69418692D01*
X115610460Y-69470930D01*
X115658651Y-82639882D01*
X115638899Y-82708075D01*
X115585413Y-82754764D01*
X115532284Y-82766342D01*
X104915632Y-82735366D01*
X104847570Y-82715166D01*
X104801234Y-82661375D01*
X104790000Y-82609367D01*
X104790000Y-80401000D01*
X104810002Y-80332879D01*
X104863658Y-80286386D01*
X104916000Y-80275000D01*
X107410000Y-80275000D01*
X107383621Y-77853957D01*
X110212929Y-77853957D01*
X110219434Y-77914453D01*
X110270484Y-78051324D01*
X110270484Y-78051325D01*
X110358024Y-78168264D01*
X110474963Y-78255804D01*
X110611835Y-78306854D01*
X110672331Y-78313359D01*
X110672344Y-78313360D01*
X111466929Y-78313360D01*
X111974929Y-78313360D01*
X112769514Y-78313360D01*
X112769526Y-78313359D01*
X112830022Y-78306854D01*
X112966893Y-78255804D01*
X112966894Y-78255804D01*
X113083833Y-78168264D01*
X113171373Y-78051325D01*
X113171373Y-78051324D01*
X113222423Y-77914453D01*
X113228928Y-77853957D01*
X113228929Y-77853945D01*
X113228929Y-76159360D01*
X111974929Y-76159360D01*
X111974929Y-78313360D01*
X111466929Y-78313360D01*
X111466929Y-76159360D01*
X110212929Y-76159360D01*
X110212929Y-77853957D01*
X107383621Y-77853957D01*
X107341157Y-73956762D01*
X110212929Y-73956762D01*
X110212929Y-75651360D01*
X111466929Y-75651360D01*
X111974929Y-75651360D01*
X113228929Y-75651360D01*
X113228929Y-73956774D01*
X113228928Y-73956762D01*
X113222423Y-73896266D01*
X113171373Y-73759395D01*
X113171373Y-73759394D01*
X113083833Y-73642455D01*
X112966894Y-73554915D01*
X112830022Y-73503865D01*
X112769526Y-73497360D01*
X111974929Y-73497360D01*
X111974929Y-75651360D01*
X111466929Y-75651360D01*
X111466929Y-73497360D01*
X110672331Y-73497360D01*
X110611835Y-73503865D01*
X110474964Y-73554915D01*
X110474963Y-73554915D01*
X110358024Y-73642455D01*
X110270484Y-73759394D01*
X110270484Y-73759395D01*
X110219434Y-73896266D01*
X110212929Y-73956762D01*
X107341157Y-73956762D01*
X107320000Y-72015000D01*
X106181716Y-72005966D01*
X106113756Y-71985424D01*
X106067691Y-71931401D01*
X106056761Y-71883322D01*
X105993432Y-69503948D01*
X106011614Y-69435320D01*
X106064014Y-69387416D01*
X106118990Y-69374597D01*
X115484070Y-69345392D01*
X115552251Y-69365181D01*
G37*
%TD.AperFunction*%
%TD*%
%TA.AperFunction,Conductor*%
%TO.N,GND*%
G36*
X189812187Y-52845119D02*
G01*
X189858789Y-52898680D01*
X189870281Y-52950972D01*
X189959717Y-92903718D01*
X189939867Y-92971883D01*
X189886316Y-93018496D01*
X189833717Y-93030000D01*
X93566000Y-93030000D01*
X93497879Y-93009998D01*
X93451386Y-92956342D01*
X93440000Y-92904000D01*
X93440000Y-83678581D01*
X96392000Y-83678581D01*
X96407511Y-83816236D01*
X96468576Y-83990753D01*
X96468577Y-83990754D01*
X96566947Y-84147311D01*
X96697688Y-84278052D01*
X96854245Y-84376422D01*
X96854246Y-84376423D01*
X97028763Y-84437488D01*
X97166419Y-84453000D01*
X97646000Y-84453000D01*
X98154000Y-84453000D01*
X98633581Y-84453000D01*
X98771236Y-84437488D01*
X98945753Y-84376423D01*
X98945754Y-84376422D01*
X99102311Y-84278052D01*
X99233052Y-84147311D01*
X99331422Y-83990754D01*
X99331423Y-83990753D01*
X99392488Y-83816236D01*
X99408000Y-83678581D01*
X99408000Y-82224000D01*
X98154000Y-82224000D01*
X98154000Y-84453000D01*
X97646000Y-84453000D01*
X97646000Y-82224000D01*
X96392000Y-82224000D01*
X96392000Y-83678581D01*
X93440000Y-83678581D01*
X93440000Y-80261418D01*
X96392000Y-80261418D01*
X96392000Y-81716000D01*
X97646000Y-81716000D01*
X98154000Y-81716000D01*
X99408000Y-81716000D01*
X99408000Y-80261418D01*
X99392488Y-80123763D01*
X99331423Y-79949246D01*
X99331422Y-79949245D01*
X99233052Y-79792688D01*
X99102311Y-79661947D01*
X98945754Y-79563577D01*
X98945753Y-79563576D01*
X98771236Y-79502511D01*
X98633581Y-79487000D01*
X98154000Y-79487000D01*
X98154000Y-81716000D01*
X97646000Y-81716000D01*
X97646000Y-79487000D01*
X97166419Y-79487000D01*
X97028763Y-79502511D01*
X96854246Y-79563576D01*
X96854245Y-79563577D01*
X96697688Y-79661947D01*
X96566947Y-79792688D01*
X96468577Y-79949245D01*
X96468576Y-79949246D01*
X96407511Y-80123763D01*
X96392000Y-80261418D01*
X93440000Y-80261418D01*
X93440000Y-62102961D01*
X93398225Y-55778888D01*
X93380836Y-53146575D01*
X93400387Y-53078325D01*
X93453735Y-53031479D01*
X93506577Y-53019744D01*
X115427192Y-52975444D01*
X115495350Y-52995308D01*
X115541952Y-53048869D01*
X115552197Y-53119123D01*
X115522835Y-53183763D01*
X115521081Y-53185753D01*
X115410961Y-53308054D01*
X115410958Y-53308058D01*
X115315476Y-53473438D01*
X115315473Y-53473445D01*
X115256457Y-53655072D01*
X115239092Y-53820292D01*
X115212079Y-53885949D01*
X115202878Y-53896216D01*
X114626167Y-54472929D01*
X114537927Y-54561169D01*
X114537926Y-54561171D01*
X114468601Y-54664923D01*
X114420846Y-54780212D01*
X114395292Y-54908678D01*
X114392765Y-54908175D01*
X114370378Y-54963579D01*
X114312413Y-55004574D01*
X114241486Y-55007724D01*
X114220338Y-55000479D01*
X114216753Y-54998883D01*
X114216752Y-54998882D01*
X114042288Y-54921206D01*
X113855487Y-54881500D01*
X113664513Y-54881500D01*
X113477711Y-54921206D01*
X113303247Y-54998882D01*
X113148744Y-55111135D01*
X113020965Y-55253048D01*
X113020958Y-55253058D01*
X112925476Y-55418438D01*
X112925473Y-55418445D01*
X112866457Y-55600072D01*
X112846496Y-55790000D01*
X112866457Y-55979927D01*
X112893120Y-56061984D01*
X112925473Y-56161556D01*
X112925476Y-56161561D01*
X112967271Y-56233953D01*
X113020960Y-56326944D01*
X113058583Y-56368729D01*
X113089300Y-56432736D01*
X113080537Y-56503189D01*
X113035074Y-56557721D01*
X112967346Y-56579016D01*
X112932336Y-56574746D01*
X112713732Y-56516171D01*
X112490000Y-56496597D01*
X112266267Y-56516171D01*
X112049342Y-56574296D01*
X112049337Y-56574298D01*
X111845798Y-56669210D01*
X111661834Y-56798023D01*
X111661828Y-56798028D01*
X111503028Y-56956828D01*
X111503023Y-56956834D01*
X111374210Y-57140798D01*
X111334195Y-57226611D01*
X111287278Y-57279896D01*
X111219000Y-57299357D01*
X111151040Y-57278815D01*
X111105805Y-57226611D01*
X111097821Y-57209490D01*
X111065790Y-57140799D01*
X110936974Y-56956831D01*
X110778169Y-56798026D01*
X110761928Y-56786654D01*
X110693269Y-56738578D01*
X110594202Y-56669210D01*
X110577389Y-56661370D01*
X110390663Y-56574298D01*
X110390657Y-56574296D01*
X110173732Y-56516171D01*
X109950000Y-56496597D01*
X109726267Y-56516171D01*
X109509342Y-56574296D01*
X109509337Y-56574298D01*
X109305798Y-56669210D01*
X109121834Y-56798023D01*
X109121828Y-56798028D01*
X108963028Y-56956828D01*
X108963023Y-56956834D01*
X108834210Y-57140798D01*
X108794195Y-57226611D01*
X108747278Y-57279896D01*
X108679000Y-57299357D01*
X108611040Y-57278815D01*
X108565805Y-57226611D01*
X108557821Y-57209490D01*
X108525790Y-57140799D01*
X108396974Y-56956831D01*
X108238169Y-56798026D01*
X108221928Y-56786654D01*
X108153269Y-56738578D01*
X108054202Y-56669210D01*
X108037389Y-56661370D01*
X107850663Y-56574298D01*
X107850657Y-56574296D01*
X107633732Y-56516171D01*
X107410000Y-56496597D01*
X107186267Y-56516171D01*
X106969342Y-56574296D01*
X106969337Y-56574298D01*
X106765798Y-56669210D01*
X106581834Y-56798023D01*
X106581828Y-56798028D01*
X106423028Y-56956828D01*
X106423023Y-56956834D01*
X106294210Y-57140798D01*
X106254195Y-57226611D01*
X106207278Y-57279896D01*
X106139000Y-57299357D01*
X106071040Y-57278815D01*
X106025805Y-57226611D01*
X106017821Y-57209490D01*
X105985790Y-57140799D01*
X105856974Y-56956831D01*
X105698169Y-56798026D01*
X105681928Y-56786654D01*
X105613269Y-56738578D01*
X105514202Y-56669210D01*
X105497389Y-56661370D01*
X105310663Y-56574298D01*
X105310657Y-56574296D01*
X105093732Y-56516171D01*
X104870000Y-56496597D01*
X104646267Y-56516171D01*
X104429342Y-56574296D01*
X104429337Y-56574298D01*
X104225798Y-56669210D01*
X104041834Y-56798023D01*
X104041828Y-56798028D01*
X103883028Y-56956828D01*
X103883023Y-56956834D01*
X103754210Y-57140798D01*
X103714195Y-57226611D01*
X103667278Y-57279896D01*
X103599000Y-57299357D01*
X103531040Y-57278815D01*
X103485805Y-57226611D01*
X103477821Y-57209490D01*
X103445790Y-57140799D01*
X103316974Y-56956831D01*
X103158169Y-56798026D01*
X103141928Y-56786654D01*
X103073269Y-56738578D01*
X102974202Y-56669210D01*
X102957389Y-56661370D01*
X102770663Y-56574298D01*
X102770657Y-56574296D01*
X102553732Y-56516171D01*
X102330000Y-56496597D01*
X102106267Y-56516171D01*
X101889342Y-56574296D01*
X101889337Y-56574298D01*
X101685798Y-56669210D01*
X101501834Y-56798023D01*
X101501828Y-56798028D01*
X101343028Y-56956828D01*
X101343023Y-56956834D01*
X101214210Y-57140798D01*
X101119298Y-57344337D01*
X101119296Y-57344342D01*
X101061171Y-57561267D01*
X101041597Y-57785000D01*
X101061171Y-58008732D01*
X101119296Y-58225657D01*
X101119298Y-58225663D01*
X101214208Y-58429198D01*
X101214210Y-58429202D01*
X101291297Y-58539293D01*
X101343026Y-58613169D01*
X101343029Y-58613173D01*
X101384594Y-58654737D01*
X101418620Y-58717048D01*
X101421500Y-58743833D01*
X101421500Y-59366167D01*
X101401498Y-59434288D01*
X101384595Y-59455262D01*
X101343028Y-59496828D01*
X101343023Y-59496834D01*
X101214210Y-59680798D01*
X101119298Y-59884337D01*
X101119296Y-59884342D01*
X101061171Y-60101267D01*
X101041597Y-60325000D01*
X101061171Y-60548732D01*
X101119296Y-60765657D01*
X101119298Y-60765663D01*
X101214092Y-60968950D01*
X101214210Y-60969202D01*
X101343026Y-61153169D01*
X101444596Y-61254739D01*
X101478620Y-61317049D01*
X101481500Y-61343833D01*
X101481500Y-75135500D01*
X101461498Y-75203621D01*
X101407842Y-75250114D01*
X101355500Y-75261500D01*
X99534500Y-75261500D01*
X99466379Y-75241498D01*
X99419886Y-75187842D01*
X99408500Y-75135500D01*
X99408500Y-74211390D01*
X99392981Y-74073655D01*
X99390787Y-74067386D01*
X99331876Y-73899027D01*
X99233445Y-73742376D01*
X99233443Y-73742374D01*
X99233442Y-73742372D01*
X99102627Y-73611557D01*
X98945972Y-73513123D01*
X98828419Y-73471990D01*
X98771346Y-73452019D01*
X98771344Y-73452018D01*
X98771345Y-73452018D01*
X98633610Y-73436500D01*
X98633608Y-73436500D01*
X97166392Y-73436500D01*
X97166390Y-73436500D01*
X97028655Y-73452018D01*
X96854027Y-73513123D01*
X96697372Y-73611557D01*
X96566557Y-73742372D01*
X96468123Y-73899027D01*
X96407018Y-74073655D01*
X96391500Y-74211390D01*
X96391500Y-77628609D01*
X96407018Y-77766344D01*
X96468123Y-77940972D01*
X96566557Y-78097627D01*
X96697372Y-78228442D01*
X96697374Y-78228443D01*
X96697376Y-78228445D01*
X96854027Y-78326876D01*
X97028654Y-78387981D01*
X97166390Y-78403500D01*
X97166392Y-78403500D01*
X98633610Y-78403500D01*
X98702477Y-78395740D01*
X98771346Y-78387981D01*
X98945973Y-78326876D01*
X99102624Y-78228445D01*
X99233445Y-78097624D01*
X99331876Y-77940973D01*
X99392981Y-77766346D01*
X99408500Y-77628608D01*
X99408500Y-77154500D01*
X99428502Y-77086379D01*
X99482158Y-77039886D01*
X99534500Y-77028500D01*
X101355500Y-77028500D01*
X101423621Y-77048502D01*
X101470114Y-77102158D01*
X101481500Y-77154500D01*
X101481500Y-84561166D01*
X101461498Y-84629287D01*
X101444596Y-84650261D01*
X101283023Y-84811834D01*
X101154210Y-84995798D01*
X101059298Y-85199337D01*
X101059296Y-85199342D01*
X101001171Y-85416267D01*
X100981597Y-85640000D01*
X101001171Y-85863732D01*
X101059296Y-86080657D01*
X101059298Y-86080663D01*
X101154209Y-86284201D01*
X101238713Y-86404883D01*
X101261401Y-86472157D01*
X101261500Y-86477154D01*
X101261500Y-87342845D01*
X101241498Y-87410966D01*
X101238713Y-87415116D01*
X101154210Y-87535798D01*
X101059298Y-87739337D01*
X101059296Y-87739342D01*
X101001171Y-87956267D01*
X100981597Y-88180000D01*
X101001171Y-88403732D01*
X101059296Y-88620657D01*
X101059298Y-88620663D01*
X101154208Y-88824198D01*
X101154210Y-88824202D01*
X101202963Y-88893828D01*
X101283026Y-89008169D01*
X101283029Y-89008173D01*
X101441826Y-89166970D01*
X101441830Y-89166973D01*
X101441831Y-89166974D01*
X101625798Y-89295790D01*
X101829340Y-89390703D01*
X102046271Y-89448829D01*
X102270000Y-89468403D01*
X102493729Y-89448829D01*
X102710660Y-89390703D01*
X102914202Y-89295790D01*
X103098169Y-89166974D01*
X103256974Y-89008169D01*
X103385790Y-88824202D01*
X103425805Y-88738388D01*
X103472722Y-88685104D01*
X103540999Y-88665643D01*
X103608959Y-88686185D01*
X103654194Y-88738388D01*
X103694210Y-88824202D01*
X103742963Y-88893828D01*
X103823026Y-89008169D01*
X103823029Y-89008173D01*
X103981826Y-89166970D01*
X103981830Y-89166973D01*
X103981831Y-89166974D01*
X104165798Y-89295790D01*
X104369340Y-89390703D01*
X104586271Y-89448829D01*
X104810000Y-89468403D01*
X105033729Y-89448829D01*
X105250660Y-89390703D01*
X105454202Y-89295790D01*
X105638169Y-89166974D01*
X105796974Y-89008169D01*
X105925790Y-88824202D01*
X105965805Y-88738388D01*
X106012722Y-88685104D01*
X106080999Y-88665643D01*
X106148959Y-88686185D01*
X106194194Y-88738388D01*
X106234210Y-88824202D01*
X106282963Y-88893828D01*
X106363026Y-89008169D01*
X106363029Y-89008173D01*
X106521826Y-89166970D01*
X106521830Y-89166973D01*
X106521831Y-89166974D01*
X106705798Y-89295790D01*
X106909340Y-89390703D01*
X107126271Y-89448829D01*
X107350000Y-89468403D01*
X107573729Y-89448829D01*
X107790660Y-89390703D01*
X107994202Y-89295790D01*
X108178169Y-89166974D01*
X108336974Y-89008169D01*
X108465790Y-88824202D01*
X108505805Y-88738388D01*
X108552722Y-88685104D01*
X108620999Y-88665643D01*
X108688959Y-88686185D01*
X108734194Y-88738388D01*
X108774210Y-88824202D01*
X108822963Y-88893828D01*
X108903026Y-89008169D01*
X108903029Y-89008173D01*
X109061826Y-89166970D01*
X109061830Y-89166973D01*
X109061831Y-89166974D01*
X109245798Y-89295790D01*
X109449340Y-89390703D01*
X109666271Y-89448829D01*
X109890000Y-89468403D01*
X110113729Y-89448829D01*
X110330660Y-89390703D01*
X110534202Y-89295790D01*
X110718169Y-89166974D01*
X110876974Y-89008169D01*
X111005790Y-88824202D01*
X111045805Y-88738388D01*
X111092722Y-88685104D01*
X111160999Y-88665643D01*
X111228959Y-88686185D01*
X111274194Y-88738388D01*
X111314210Y-88824202D01*
X111362963Y-88893828D01*
X111443026Y-89008169D01*
X111443029Y-89008173D01*
X111601826Y-89166970D01*
X111601830Y-89166973D01*
X111601831Y-89166974D01*
X111785798Y-89295790D01*
X111989340Y-89390703D01*
X112206271Y-89448829D01*
X112430000Y-89468403D01*
X112653729Y-89448829D01*
X112870660Y-89390703D01*
X113074202Y-89295790D01*
X113258169Y-89166974D01*
X113416974Y-89008169D01*
X113545790Y-88824202D01*
X113585805Y-88738388D01*
X113632722Y-88685104D01*
X113700999Y-88665643D01*
X113768959Y-88686185D01*
X113814194Y-88738388D01*
X113854210Y-88824202D01*
X113902963Y-88893828D01*
X113983026Y-89008169D01*
X113983029Y-89008173D01*
X114141826Y-89166970D01*
X114141830Y-89166973D01*
X114141831Y-89166974D01*
X114325798Y-89295790D01*
X114529340Y-89390703D01*
X114746271Y-89448829D01*
X114970000Y-89468403D01*
X115193729Y-89448829D01*
X115410660Y-89390703D01*
X115614202Y-89295790D01*
X115798169Y-89166974D01*
X115956974Y-89008169D01*
X116085790Y-88824202D01*
X116125805Y-88738388D01*
X116172722Y-88685104D01*
X116240999Y-88665643D01*
X116308959Y-88686185D01*
X116354194Y-88738388D01*
X116394210Y-88824202D01*
X116442963Y-88893828D01*
X116523026Y-89008169D01*
X116523029Y-89008173D01*
X116681826Y-89166970D01*
X116681830Y-89166973D01*
X116681831Y-89166974D01*
X116865798Y-89295790D01*
X117069340Y-89390703D01*
X117286271Y-89448829D01*
X117510000Y-89468403D01*
X117733729Y-89448829D01*
X117950660Y-89390703D01*
X118154202Y-89295790D01*
X118338169Y-89166974D01*
X118496974Y-89008169D01*
X118625790Y-88824202D01*
X118665805Y-88738388D01*
X118712722Y-88685104D01*
X118780999Y-88665643D01*
X118848959Y-88686185D01*
X118894194Y-88738388D01*
X118934210Y-88824202D01*
X118982963Y-88893828D01*
X119063026Y-89008169D01*
X119063029Y-89008173D01*
X119221826Y-89166970D01*
X119221830Y-89166973D01*
X119221831Y-89166974D01*
X119405798Y-89295790D01*
X119609340Y-89390703D01*
X119826271Y-89448829D01*
X120050000Y-89468403D01*
X120273729Y-89448829D01*
X120490660Y-89390703D01*
X120694202Y-89295790D01*
X120878169Y-89166974D01*
X121036974Y-89008169D01*
X121165790Y-88824202D01*
X121205805Y-88738388D01*
X121252722Y-88685104D01*
X121320999Y-88665643D01*
X121388959Y-88686185D01*
X121434194Y-88738388D01*
X121474210Y-88824202D01*
X121522963Y-88893828D01*
X121603026Y-89008169D01*
X121603029Y-89008173D01*
X121761826Y-89166970D01*
X121761830Y-89166973D01*
X121761831Y-89166974D01*
X121945798Y-89295790D01*
X122149340Y-89390703D01*
X122366271Y-89448829D01*
X122590000Y-89468403D01*
X122813729Y-89448829D01*
X123030660Y-89390703D01*
X123234202Y-89295790D01*
X123418169Y-89166974D01*
X123576974Y-89008169D01*
X123705790Y-88824202D01*
X123745805Y-88738388D01*
X123792722Y-88685104D01*
X123860999Y-88665643D01*
X123928959Y-88686185D01*
X123974194Y-88738388D01*
X124014210Y-88824202D01*
X124062963Y-88893828D01*
X124143026Y-89008169D01*
X124143029Y-89008173D01*
X124301826Y-89166970D01*
X124301830Y-89166973D01*
X124301831Y-89166974D01*
X124485798Y-89295790D01*
X124689340Y-89390703D01*
X124906271Y-89448829D01*
X125130000Y-89468403D01*
X125353729Y-89448829D01*
X125570660Y-89390703D01*
X125774202Y-89295790D01*
X125958169Y-89166974D01*
X126116974Y-89008169D01*
X126245790Y-88824202D01*
X126285805Y-88738388D01*
X126332722Y-88685104D01*
X126400999Y-88665643D01*
X126468959Y-88686185D01*
X126514194Y-88738388D01*
X126554210Y-88824202D01*
X126602963Y-88893828D01*
X126683026Y-89008169D01*
X126683029Y-89008173D01*
X126841826Y-89166970D01*
X126841830Y-89166973D01*
X126841831Y-89166974D01*
X127025798Y-89295790D01*
X127229340Y-89390703D01*
X127446271Y-89448829D01*
X127670000Y-89468403D01*
X127893729Y-89448829D01*
X128110660Y-89390703D01*
X128314202Y-89295790D01*
X128404447Y-89232598D01*
X128471718Y-89209910D01*
X128540579Y-89227194D01*
X128565808Y-89246712D01*
X130466167Y-91147072D01*
X130569925Y-91216401D01*
X130651447Y-91250168D01*
X130685215Y-91264155D01*
X130807606Y-91288500D01*
X130807607Y-91288500D01*
X160817393Y-91288500D01*
X160817394Y-91288500D01*
X160939785Y-91264155D01*
X161055075Y-91216400D01*
X161158833Y-91147071D01*
X162837166Y-89468737D01*
X162899476Y-89434714D01*
X162958870Y-89436127D01*
X163006271Y-89448829D01*
X163230000Y-89468403D01*
X163453729Y-89448829D01*
X163670660Y-89390703D01*
X163874202Y-89295790D01*
X164058169Y-89166974D01*
X164216974Y-89008169D01*
X164345790Y-88824202D01*
X164385805Y-88738388D01*
X164432722Y-88685104D01*
X164500999Y-88665643D01*
X164568959Y-88686185D01*
X164614194Y-88738388D01*
X164654210Y-88824202D01*
X164702963Y-88893828D01*
X164783026Y-89008169D01*
X164783029Y-89008173D01*
X164941826Y-89166970D01*
X164941830Y-89166973D01*
X164941831Y-89166974D01*
X165125798Y-89295790D01*
X165329340Y-89390703D01*
X165546271Y-89448829D01*
X165770000Y-89468403D01*
X165993729Y-89448829D01*
X166210660Y-89390703D01*
X166414202Y-89295790D01*
X166598169Y-89166974D01*
X166756974Y-89008169D01*
X166885790Y-88824202D01*
X166925805Y-88738388D01*
X166972722Y-88685104D01*
X167040999Y-88665643D01*
X167108959Y-88686185D01*
X167154194Y-88738388D01*
X167194210Y-88824202D01*
X167242963Y-88893828D01*
X167323026Y-89008169D01*
X167323029Y-89008173D01*
X167481826Y-89166970D01*
X167481830Y-89166973D01*
X167481831Y-89166974D01*
X167665798Y-89295790D01*
X167869340Y-89390703D01*
X168086271Y-89448829D01*
X168310000Y-89468403D01*
X168533729Y-89448829D01*
X168750660Y-89390703D01*
X168954202Y-89295790D01*
X169138169Y-89166974D01*
X169296974Y-89008169D01*
X169425790Y-88824202D01*
X169465805Y-88738388D01*
X169512722Y-88685104D01*
X169580999Y-88665643D01*
X169648959Y-88686185D01*
X169694194Y-88738388D01*
X169734210Y-88824202D01*
X169782963Y-88893828D01*
X169863026Y-89008169D01*
X169863029Y-89008173D01*
X170021826Y-89166970D01*
X170021830Y-89166973D01*
X170021831Y-89166974D01*
X170205798Y-89295790D01*
X170409340Y-89390703D01*
X170626271Y-89448829D01*
X170850000Y-89468403D01*
X171073729Y-89448829D01*
X171290660Y-89390703D01*
X171494202Y-89295790D01*
X171678169Y-89166974D01*
X171836974Y-89008169D01*
X171965790Y-88824202D01*
X172005805Y-88738388D01*
X172052722Y-88685104D01*
X172120999Y-88665643D01*
X172188959Y-88686185D01*
X172234194Y-88738388D01*
X172274210Y-88824202D01*
X172322963Y-88893828D01*
X172403026Y-89008169D01*
X172403029Y-89008173D01*
X172561826Y-89166970D01*
X172561830Y-89166973D01*
X172561831Y-89166974D01*
X172745798Y-89295790D01*
X172949340Y-89390703D01*
X173166271Y-89448829D01*
X173390000Y-89468403D01*
X173613729Y-89448829D01*
X173830660Y-89390703D01*
X174034202Y-89295790D01*
X174218169Y-89166974D01*
X174376974Y-89008169D01*
X174505790Y-88824202D01*
X174545805Y-88738388D01*
X174592722Y-88685104D01*
X174660999Y-88665643D01*
X174728959Y-88686185D01*
X174774194Y-88738388D01*
X174814210Y-88824202D01*
X174862963Y-88893828D01*
X174943026Y-89008169D01*
X174943029Y-89008173D01*
X175101826Y-89166970D01*
X175101830Y-89166973D01*
X175101831Y-89166974D01*
X175285798Y-89295790D01*
X175489340Y-89390703D01*
X175706271Y-89448829D01*
X175930000Y-89468403D01*
X176153729Y-89448829D01*
X176370660Y-89390703D01*
X176574202Y-89295790D01*
X176758169Y-89166974D01*
X176916974Y-89008169D01*
X177045790Y-88824202D01*
X177085805Y-88738388D01*
X177132722Y-88685104D01*
X177200999Y-88665643D01*
X177268959Y-88686185D01*
X177314194Y-88738388D01*
X177354210Y-88824202D01*
X177402963Y-88893828D01*
X177483026Y-89008169D01*
X177483029Y-89008173D01*
X177641826Y-89166970D01*
X177641830Y-89166973D01*
X177641831Y-89166974D01*
X177825798Y-89295790D01*
X178029340Y-89390703D01*
X178246271Y-89448829D01*
X178470000Y-89468403D01*
X178693729Y-89448829D01*
X178910660Y-89390703D01*
X179114202Y-89295790D01*
X179298169Y-89166974D01*
X179456974Y-89008169D01*
X179537039Y-88893824D01*
X179592492Y-88849499D01*
X179663111Y-88842190D01*
X179726472Y-88874220D01*
X179759853Y-88926465D01*
X179793340Y-89027522D01*
X179886365Y-89178339D01*
X179886370Y-89178345D01*
X180011654Y-89303629D01*
X180011660Y-89303634D01*
X180162473Y-89396657D01*
X180330677Y-89452393D01*
X180330680Y-89452394D01*
X180434482Y-89462999D01*
X180756000Y-89462999D01*
X180756000Y-88610702D01*
X180817007Y-88645925D01*
X180944174Y-88680000D01*
X181075826Y-88680000D01*
X181202993Y-88645925D01*
X181264000Y-88610702D01*
X181264000Y-89462999D01*
X181585509Y-89462999D01*
X181689319Y-89452394D01*
X181857526Y-89396657D01*
X182008339Y-89303634D01*
X182008345Y-89303629D01*
X182133629Y-89178345D01*
X182133634Y-89178339D01*
X182226657Y-89027526D01*
X182282393Y-88859322D01*
X182282394Y-88859319D01*
X182292999Y-88755517D01*
X182293000Y-88755517D01*
X182293000Y-88434000D01*
X181440703Y-88434000D01*
X181475925Y-88372993D01*
X181510000Y-88245826D01*
X181510000Y-88114174D01*
X181475925Y-87987007D01*
X181440703Y-87926000D01*
X182292999Y-87926000D01*
X182292999Y-87604490D01*
X182282394Y-87500680D01*
X182226657Y-87332473D01*
X182142296Y-87195703D01*
X182123559Y-87127224D01*
X182144818Y-87059485D01*
X182160437Y-87040466D01*
X185645161Y-83555742D01*
X185692637Y-83525910D01*
X185858015Y-83468043D01*
X186012281Y-83371111D01*
X186141111Y-83242281D01*
X186238043Y-83088015D01*
X186298217Y-82916047D01*
X186301370Y-82888058D01*
X186328871Y-82822608D01*
X186387394Y-82782414D01*
X186458357Y-82780241D01*
X186477817Y-82787057D01*
X186627712Y-82853794D01*
X186814513Y-82893500D01*
X187005487Y-82893500D01*
X187192288Y-82853794D01*
X187366752Y-82776118D01*
X187521253Y-82663866D01*
X187649040Y-82521944D01*
X187744527Y-82356556D01*
X187803542Y-82174928D01*
X187823504Y-81985000D01*
X187803542Y-81795072D01*
X187744527Y-81613444D01*
X187649040Y-81448056D01*
X187649038Y-81448054D01*
X187649034Y-81448048D01*
X187523213Y-81308310D01*
X187492495Y-81244303D01*
X187501260Y-81173849D01*
X187546723Y-81119318D01*
X187614450Y-81098023D01*
X187616849Y-81098000D01*
X187693585Y-81098000D01*
X187693597Y-81097999D01*
X187754093Y-81091494D01*
X187890964Y-81040444D01*
X187890965Y-81040444D01*
X188007904Y-80952904D01*
X188095444Y-80835965D01*
X188095444Y-80835964D01*
X188146494Y-80699093D01*
X188152999Y-80638597D01*
X188153000Y-80638585D01*
X188153000Y-80209000D01*
X186249000Y-80209000D01*
X186249000Y-81098001D01*
X186268056Y-81117057D01*
X186271272Y-81118002D01*
X186317765Y-81171658D01*
X186327869Y-81241932D01*
X186298375Y-81306512D01*
X186296775Y-81308324D01*
X186295424Y-81309824D01*
X186234973Y-81347055D01*
X186201800Y-81351500D01*
X182583594Y-81351500D01*
X182515473Y-81331498D01*
X182468980Y-81277842D01*
X182458876Y-81207568D01*
X182488370Y-81142988D01*
X182494499Y-81136405D01*
X183430499Y-80200405D01*
X183492811Y-80166379D01*
X183519594Y-80163500D01*
X183687263Y-80163500D01*
X183754299Y-80182813D01*
X183825118Y-80227311D01*
X183881985Y-80263043D01*
X184053953Y-80323217D01*
X184235000Y-80343616D01*
X184416047Y-80323217D01*
X184588015Y-80263043D01*
X184742281Y-80166111D01*
X184871111Y-80037281D01*
X184874311Y-80032189D01*
X184927488Y-79985150D01*
X184997655Y-79974328D01*
X185062534Y-80003159D01*
X185101527Y-80062489D01*
X185107000Y-80099222D01*
X185107000Y-80638597D01*
X185113505Y-80699093D01*
X185164555Y-80835964D01*
X185164555Y-80835965D01*
X185252095Y-80952904D01*
X185369034Y-81040444D01*
X185505906Y-81091494D01*
X185566402Y-81097999D01*
X185566415Y-81098000D01*
X185741000Y-81098000D01*
X185741000Y-79701000D01*
X186249000Y-79701000D01*
X187011000Y-79701000D01*
X187519000Y-79701000D01*
X188153000Y-79701000D01*
X188153000Y-79271414D01*
X188152999Y-79271402D01*
X188146494Y-79210906D01*
X188095444Y-79074035D01*
X188095444Y-79074034D01*
X188007904Y-78957095D01*
X187890965Y-78869555D01*
X187754093Y-78818505D01*
X187693597Y-78812000D01*
X187519000Y-78812000D01*
X187519000Y-79701000D01*
X187011000Y-79701000D01*
X187011000Y-78812000D01*
X186836402Y-78812000D01*
X186775905Y-78818505D01*
X186674032Y-78856502D01*
X186603216Y-78861566D01*
X186585968Y-78856502D01*
X186484094Y-78818505D01*
X186423597Y-78812000D01*
X186249000Y-78812000D01*
X186249000Y-79701000D01*
X185741000Y-79701000D01*
X185741000Y-78812000D01*
X185566402Y-78812000D01*
X185505906Y-78818505D01*
X185369035Y-78869555D01*
X185369034Y-78869555D01*
X185252095Y-78957095D01*
X185164555Y-79074034D01*
X185164553Y-79074038D01*
X185156359Y-79096009D01*
X185113813Y-79152845D01*
X185047292Y-79177655D01*
X184977918Y-79162563D01*
X184931617Y-79119012D01*
X184871112Y-79022720D01*
X184871111Y-79022718D01*
X184742281Y-78893888D01*
X184742279Y-78893887D01*
X184588018Y-78796958D01*
X184588015Y-78796957D01*
X184416050Y-78736784D01*
X184416049Y-78736783D01*
X184416047Y-78736783D01*
X184235000Y-78716384D01*
X184053953Y-78736783D01*
X184053950Y-78736783D01*
X184053949Y-78736784D01*
X183881984Y-78796957D01*
X183881982Y-78796958D01*
X183754299Y-78877187D01*
X183687263Y-78896500D01*
X183142603Y-78896500D01*
X183069568Y-78911028D01*
X183020215Y-78920845D01*
X183020213Y-78920845D01*
X183020212Y-78920846D01*
X182971757Y-78940917D01*
X182932701Y-78957095D01*
X182904923Y-78968601D01*
X182801171Y-79037926D01*
X182801164Y-79037931D01*
X181444501Y-80394595D01*
X181382189Y-80428621D01*
X181355406Y-80431500D01*
X177957737Y-80431500D01*
X177890701Y-80412187D01*
X177763017Y-80331958D01*
X177763015Y-80331957D01*
X177591050Y-80271784D01*
X177591049Y-80271783D01*
X177591047Y-80271783D01*
X177410000Y-80251384D01*
X177228953Y-80271783D01*
X177228950Y-80271783D01*
X177228949Y-80271784D01*
X177056984Y-80331957D01*
X177056981Y-80331958D01*
X176902720Y-80428887D01*
X176902718Y-80428888D01*
X176773888Y-80557718D01*
X176773887Y-80557720D01*
X176676958Y-80711981D01*
X176676957Y-80711984D01*
X176627639Y-80852929D01*
X176616783Y-80883953D01*
X176603931Y-80998018D01*
X176596384Y-81065000D01*
X176612878Y-81211393D01*
X176600628Y-81281325D01*
X176552515Y-81333533D01*
X176487670Y-81351500D01*
X171527083Y-81351500D01*
X171458962Y-81331498D01*
X171437988Y-81314595D01*
X171431243Y-81307850D01*
X171397217Y-81245538D01*
X171402282Y-81174723D01*
X171431259Y-81129643D01*
X171435520Y-81125384D01*
X171497841Y-81091373D01*
X171524595Y-81088500D01*
X174402393Y-81088500D01*
X174402394Y-81088500D01*
X174524785Y-81064155D01*
X174640075Y-81016400D01*
X174743833Y-80947071D01*
X176111562Y-79579340D01*
X176173871Y-79545318D01*
X176186540Y-79543231D01*
X176231047Y-79538217D01*
X176403015Y-79478043D01*
X176557281Y-79381111D01*
X176686111Y-79252281D01*
X176783043Y-79098015D01*
X176843217Y-78926047D01*
X176863616Y-78745000D01*
X176863615Y-78744998D01*
X176864408Y-78737968D01*
X176866278Y-78738178D01*
X176883618Y-78679125D01*
X176937274Y-78632632D01*
X177007548Y-78622528D01*
X177059749Y-78645534D01*
X177061020Y-78643632D01*
X177066167Y-78647071D01*
X177169925Y-78716400D01*
X177285215Y-78764155D01*
X177407606Y-78788500D01*
X179182263Y-78788500D01*
X179249299Y-78807813D01*
X179357444Y-78875764D01*
X179376985Y-78888043D01*
X179548953Y-78948217D01*
X179730000Y-78968616D01*
X179911047Y-78948217D01*
X180083015Y-78888043D01*
X180237281Y-78791111D01*
X180366111Y-78662281D01*
X180463043Y-78508015D01*
X180523217Y-78336047D01*
X180543616Y-78155000D01*
X180523217Y-77973953D01*
X180490732Y-77881115D01*
X180487113Y-77810210D01*
X180522402Y-77748605D01*
X180585395Y-77715859D01*
X180609661Y-77713500D01*
X183377393Y-77713500D01*
X183377394Y-77713500D01*
X183499785Y-77689155D01*
X183615075Y-77641400D01*
X183718833Y-77572071D01*
X187757072Y-73533833D01*
X187790459Y-73483865D01*
X187844933Y-73438340D01*
X187851191Y-73435813D01*
X187870798Y-73428500D01*
X187891204Y-73420889D01*
X188008261Y-73333261D01*
X188089713Y-73224454D01*
X188095887Y-73216207D01*
X188095887Y-73216206D01*
X188095889Y-73216204D01*
X188146989Y-73079201D01*
X188147815Y-73071526D01*
X188153499Y-73018649D01*
X188153500Y-73018632D01*
X188153500Y-72394595D01*
X188173502Y-72326474D01*
X188190405Y-72305499D01*
X188341821Y-72154083D01*
X188532072Y-71963833D01*
X188601401Y-71860075D01*
X188637220Y-71773599D01*
X188649155Y-71744785D01*
X188673500Y-71622394D01*
X188673500Y-69751578D01*
X188693502Y-69683457D01*
X188747158Y-69636964D01*
X188786694Y-69626230D01*
X188819426Y-69622887D01*
X188987738Y-69567115D01*
X189138652Y-69474030D01*
X189264030Y-69348652D01*
X189357115Y-69197738D01*
X189412887Y-69029426D01*
X189423500Y-68925545D01*
X189423499Y-68024456D01*
X189412887Y-67920574D01*
X189357115Y-67752262D01*
X189264030Y-67601348D01*
X189264029Y-67601347D01*
X189264024Y-67601341D01*
X189138658Y-67475975D01*
X189138652Y-67475970D01*
X189106671Y-67456244D01*
X188987738Y-67382885D01*
X188872332Y-67344644D01*
X188819427Y-67327113D01*
X188819420Y-67327112D01*
X188715553Y-67316500D01*
X187364455Y-67316500D01*
X187260574Y-67327112D01*
X187092261Y-67382885D01*
X186941347Y-67475970D01*
X186941341Y-67475975D01*
X186909095Y-67508222D01*
X186846783Y-67542248D01*
X186775968Y-67537183D01*
X186730905Y-67508222D01*
X186698658Y-67475975D01*
X186698652Y-67475970D01*
X186666671Y-67456244D01*
X186547738Y-67382885D01*
X186432332Y-67344644D01*
X186379427Y-67327113D01*
X186379420Y-67327112D01*
X186275553Y-67316500D01*
X185135369Y-67316500D01*
X185067248Y-67296498D01*
X185020755Y-67242842D01*
X185010651Y-67172568D01*
X185040145Y-67107988D01*
X185046247Y-67101432D01*
X185577278Y-66570401D01*
X185639588Y-66536378D01*
X185666371Y-66533499D01*
X186275544Y-66533499D01*
X186379426Y-66522887D01*
X186547738Y-66467115D01*
X186698652Y-66374030D01*
X186730905Y-66341776D01*
X186793215Y-66307752D01*
X186864031Y-66312816D01*
X186909094Y-66341776D01*
X186941348Y-66374030D01*
X187092262Y-66467115D01*
X187260574Y-66522887D01*
X187364455Y-66533500D01*
X188715544Y-66533499D01*
X188819426Y-66522887D01*
X188987738Y-66467115D01*
X189138652Y-66374030D01*
X189264030Y-66248652D01*
X189357115Y-66097738D01*
X189412887Y-65929426D01*
X189423500Y-65825545D01*
X189423499Y-64924456D01*
X189417835Y-64869015D01*
X189412887Y-64820574D01*
X189400350Y-64782740D01*
X189357115Y-64652262D01*
X189264030Y-64501348D01*
X189264027Y-64501345D01*
X189264024Y-64501341D01*
X189138658Y-64375975D01*
X189138652Y-64375970D01*
X189089090Y-64345400D01*
X188987738Y-64282885D01*
X188899064Y-64253502D01*
X188819427Y-64227113D01*
X188819420Y-64227112D01*
X188715553Y-64216500D01*
X187364455Y-64216500D01*
X187260574Y-64227112D01*
X187092261Y-64282885D01*
X186941347Y-64375970D01*
X186941341Y-64375975D01*
X186909095Y-64408222D01*
X186846783Y-64442248D01*
X186775968Y-64437183D01*
X186730905Y-64408222D01*
X186698658Y-64375975D01*
X186698652Y-64375970D01*
X186649090Y-64345400D01*
X186547738Y-64282885D01*
X186459064Y-64253502D01*
X186379427Y-64227113D01*
X186379420Y-64227112D01*
X186275553Y-64216500D01*
X184924455Y-64216500D01*
X184820574Y-64227112D01*
X184652261Y-64282885D01*
X184501347Y-64375970D01*
X184501341Y-64375975D01*
X184375975Y-64501341D01*
X184375970Y-64501347D01*
X184282885Y-64652262D01*
X184227113Y-64820572D01*
X184227112Y-64820579D01*
X184216500Y-64924446D01*
X184216500Y-65733628D01*
X184196498Y-65801749D01*
X184179595Y-65822723D01*
X182577567Y-67424750D01*
X182515255Y-67458776D01*
X182444439Y-67453711D01*
X182387604Y-67411164D01*
X182362793Y-67344644D01*
X182364022Y-67315956D01*
X182383500Y-67192981D01*
X182383500Y-66187019D01*
X182351280Y-65983592D01*
X182287634Y-65787710D01*
X182194129Y-65604197D01*
X182073068Y-65437570D01*
X182073065Y-65437567D01*
X182073063Y-65437564D01*
X181927435Y-65291936D01*
X181927432Y-65291934D01*
X181927430Y-65291932D01*
X181764627Y-65173649D01*
X181760806Y-65170873D01*
X181760805Y-65170872D01*
X181760803Y-65170871D01*
X181687981Y-65133766D01*
X181636367Y-65085018D01*
X181619301Y-65016103D01*
X181642202Y-64948902D01*
X181697800Y-64904750D01*
X181745185Y-64895500D01*
X182245393Y-64895500D01*
X182245394Y-64895500D01*
X182367785Y-64871155D01*
X182483075Y-64823400D01*
X182586833Y-64754071D01*
X183685500Y-63655405D01*
X183747812Y-63621379D01*
X183774595Y-63618500D01*
X186414788Y-63618500D01*
X186482909Y-63638502D01*
X186508424Y-63660190D01*
X186538744Y-63693864D01*
X186538747Y-63693866D01*
X186693248Y-63806118D01*
X186867712Y-63883794D01*
X187054513Y-63923500D01*
X187245487Y-63923500D01*
X187432288Y-63883794D01*
X187606752Y-63806118D01*
X187761253Y-63693866D01*
X187791575Y-63660190D01*
X187889034Y-63551951D01*
X187889035Y-63551949D01*
X187889040Y-63551944D01*
X187984527Y-63386556D01*
X188043542Y-63204928D01*
X188063504Y-63015000D01*
X188043542Y-62825072D01*
X187984527Y-62643444D01*
X187889040Y-62478056D01*
X187889038Y-62478054D01*
X187889034Y-62478048D01*
X187761255Y-62336135D01*
X187606752Y-62223882D01*
X187432288Y-62146206D01*
X187245487Y-62106500D01*
X187054513Y-62106500D01*
X186867711Y-62146206D01*
X186693247Y-62223882D01*
X186550718Y-62327436D01*
X186483850Y-62351295D01*
X186476657Y-62351500D01*
X183397603Y-62351500D01*
X183275215Y-62375845D01*
X183249489Y-62386501D01*
X183159923Y-62423600D01*
X183056167Y-62492927D01*
X182827024Y-62722071D01*
X181957499Y-63591596D01*
X181895189Y-63625620D01*
X181868406Y-63628500D01*
X178496594Y-63628500D01*
X178428473Y-63608498D01*
X178381980Y-63554842D01*
X178371876Y-63484568D01*
X178401370Y-63419988D01*
X178407484Y-63413419D01*
X180252072Y-61568833D01*
X180298804Y-61498893D01*
X180353278Y-61453368D01*
X180423721Y-61444519D01*
X180456817Y-61454702D01*
X180629508Y-61535229D01*
X180629513Y-61535231D01*
X180846359Y-61593334D01*
X181070000Y-61612900D01*
X181293640Y-61593334D01*
X181510486Y-61535231D01*
X181510491Y-61535229D01*
X181713950Y-61440355D01*
X181713951Y-61440354D01*
X181779937Y-61394149D01*
X181779937Y-61394147D01*
X181194947Y-60809157D01*
X181262993Y-60790925D01*
X181377007Y-60725099D01*
X181470099Y-60632007D01*
X181535925Y-60517993D01*
X181554158Y-60449947D01*
X182139148Y-61034937D01*
X182139149Y-61034937D01*
X182185354Y-60968951D01*
X182185355Y-60968950D01*
X182280229Y-60765491D01*
X182280231Y-60765486D01*
X182338334Y-60548640D01*
X182357900Y-60325000D01*
X182338334Y-60101359D01*
X182280231Y-59884513D01*
X182280229Y-59884509D01*
X182185354Y-59681049D01*
X182139149Y-59615061D01*
X182139147Y-59615061D01*
X181554157Y-60200051D01*
X181535925Y-60132007D01*
X181470099Y-60017993D01*
X181377007Y-59924901D01*
X181262993Y-59859075D01*
X181194947Y-59840841D01*
X181779937Y-59255850D01*
X181779759Y-59253810D01*
X181738907Y-59202701D01*
X181731598Y-59132082D01*
X181763629Y-59068722D01*
X181815874Y-59035341D01*
X181917525Y-59001657D01*
X182068339Y-58908634D01*
X182068345Y-58908629D01*
X182193629Y-58783345D01*
X182193634Y-58783339D01*
X182286657Y-58632526D01*
X182342393Y-58464322D01*
X182342394Y-58464319D01*
X182352999Y-58360517D01*
X182353000Y-58360517D01*
X182353000Y-58039000D01*
X181500703Y-58039000D01*
X181535925Y-57977993D01*
X181570000Y-57850826D01*
X181570000Y-57719174D01*
X181535925Y-57592007D01*
X181500703Y-57531000D01*
X182352999Y-57531000D01*
X182352999Y-57209490D01*
X182342394Y-57105680D01*
X182286657Y-56937473D01*
X182193634Y-56786660D01*
X182193629Y-56786654D01*
X182068345Y-56661370D01*
X182068339Y-56661365D01*
X181917526Y-56568342D01*
X181749322Y-56512606D01*
X181749319Y-56512605D01*
X181645517Y-56502000D01*
X181324000Y-56502000D01*
X181324000Y-57354297D01*
X181262993Y-57319075D01*
X181135826Y-57285000D01*
X181004174Y-57285000D01*
X180877007Y-57319075D01*
X180816000Y-57354297D01*
X180816000Y-56502000D01*
X180519500Y-56502000D01*
X180451379Y-56481998D01*
X180404886Y-56428342D01*
X180393500Y-56376000D01*
X180393500Y-55812607D01*
X180393499Y-55812603D01*
X180369155Y-55690215D01*
X180321400Y-55574925D01*
X180252071Y-55471167D01*
X180163833Y-55382929D01*
X179960405Y-55179501D01*
X179926379Y-55117189D01*
X179923500Y-55090406D01*
X179923500Y-55087524D01*
X179943502Y-55019403D01*
X179955858Y-55003220D01*
X180029040Y-54921944D01*
X180124527Y-54756556D01*
X180183542Y-54574928D01*
X180203504Y-54385000D01*
X180183542Y-54195072D01*
X180124527Y-54013444D01*
X180029040Y-53848056D01*
X180029038Y-53848054D01*
X180029034Y-53848048D01*
X179901255Y-53706135D01*
X179746752Y-53593882D01*
X179572288Y-53516206D01*
X179385487Y-53476500D01*
X179194513Y-53476500D01*
X179007711Y-53516206D01*
X178833247Y-53593882D01*
X178678744Y-53706135D01*
X178550965Y-53848048D01*
X178550958Y-53848058D01*
X178455476Y-54013438D01*
X178455473Y-54013444D01*
X178440999Y-54057986D01*
X178396457Y-54195072D01*
X178376496Y-54385000D01*
X178396457Y-54574927D01*
X178416340Y-54636118D01*
X178455473Y-54756556D01*
X178455476Y-54756561D01*
X178527609Y-54881500D01*
X178550960Y-54921944D01*
X178624137Y-55003215D01*
X178654853Y-55067220D01*
X178656500Y-55087524D01*
X178656500Y-55342606D01*
X178656500Y-55467394D01*
X178680845Y-55589785D01*
X178728600Y-55705075D01*
X178797929Y-55808833D01*
X178797931Y-55808835D01*
X179089595Y-56100499D01*
X179123621Y-56162811D01*
X179126500Y-56189594D01*
X179126500Y-56451847D01*
X179106498Y-56519968D01*
X179052842Y-56566461D01*
X178982568Y-56576565D01*
X178967889Y-56573554D01*
X178753732Y-56516171D01*
X178530000Y-56496597D01*
X178306267Y-56516171D01*
X178089342Y-56574296D01*
X178089337Y-56574298D01*
X177885798Y-56669210D01*
X177701834Y-56798023D01*
X177701828Y-56798028D01*
X177543028Y-56956828D01*
X177543023Y-56956834D01*
X177414210Y-57140798D01*
X177374195Y-57226611D01*
X177327278Y-57279896D01*
X177259000Y-57299357D01*
X177191040Y-57278815D01*
X177145805Y-57226611D01*
X177137821Y-57209490D01*
X177105790Y-57140799D01*
X176976974Y-56956831D01*
X176818169Y-56798026D01*
X176801928Y-56786654D01*
X176733269Y-56738578D01*
X176634202Y-56669210D01*
X176617389Y-56661370D01*
X176430663Y-56574298D01*
X176430657Y-56574296D01*
X176213732Y-56516171D01*
X175990000Y-56496597D01*
X175766267Y-56516171D01*
X175549342Y-56574296D01*
X175549337Y-56574298D01*
X175345798Y-56669210D01*
X175161834Y-56798023D01*
X175161828Y-56798028D01*
X175003028Y-56956828D01*
X175003023Y-56956834D01*
X174874210Y-57140798D01*
X174834195Y-57226611D01*
X174787278Y-57279896D01*
X174719000Y-57299357D01*
X174651040Y-57278815D01*
X174605805Y-57226611D01*
X174597821Y-57209490D01*
X174565790Y-57140799D01*
X174436974Y-56956831D01*
X174278169Y-56798026D01*
X174261928Y-56786654D01*
X174193269Y-56738578D01*
X174094202Y-56669210D01*
X174077389Y-56661370D01*
X173890663Y-56574298D01*
X173890657Y-56574296D01*
X173673732Y-56516171D01*
X173450000Y-56496597D01*
X173226267Y-56516171D01*
X173009342Y-56574296D01*
X173009337Y-56574298D01*
X172805798Y-56669210D01*
X172621834Y-56798023D01*
X172621828Y-56798028D01*
X172463028Y-56956828D01*
X172463023Y-56956834D01*
X172334210Y-57140798D01*
X172294195Y-57226611D01*
X172247278Y-57279896D01*
X172179000Y-57299357D01*
X172111040Y-57278815D01*
X172065805Y-57226611D01*
X172057821Y-57209490D01*
X172025790Y-57140799D01*
X171896974Y-56956831D01*
X171738169Y-56798026D01*
X171721928Y-56786654D01*
X171653269Y-56738578D01*
X171554202Y-56669210D01*
X171537389Y-56661370D01*
X171350663Y-56574298D01*
X171350657Y-56574296D01*
X171133732Y-56516171D01*
X171059152Y-56509646D01*
X170910000Y-56496597D01*
X170909997Y-56496597D01*
X170909994Y-56496597D01*
X170903417Y-56497172D01*
X170833813Y-56483179D01*
X170782824Y-56433776D01*
X170766638Y-56364650D01*
X170790394Y-56297745D01*
X170803339Y-56282564D01*
X171095501Y-55990404D01*
X171157813Y-55956379D01*
X171184596Y-55953500D01*
X171235487Y-55953500D01*
X171422288Y-55913794D01*
X171596752Y-55836118D01*
X171751253Y-55723866D01*
X171768172Y-55705076D01*
X171879034Y-55581951D01*
X171879035Y-55581949D01*
X171879040Y-55581944D01*
X171974527Y-55416556D01*
X172033542Y-55234928D01*
X172053504Y-55045000D01*
X172033542Y-54855072D01*
X171974527Y-54673444D01*
X171879040Y-54508056D01*
X171879038Y-54508054D01*
X171879034Y-54508048D01*
X171751255Y-54366135D01*
X171596752Y-54253882D01*
X171422288Y-54176206D01*
X171235487Y-54136500D01*
X171044513Y-54136500D01*
X170857711Y-54176206D01*
X170683247Y-54253882D01*
X170528744Y-54366135D01*
X170400965Y-54508048D01*
X170400958Y-54508058D01*
X170305476Y-54673438D01*
X170305473Y-54673445D01*
X170246457Y-54855072D01*
X170228505Y-55025879D01*
X170201492Y-55091536D01*
X170192290Y-55101803D01*
X168790438Y-56503655D01*
X168728126Y-56537681D01*
X168668733Y-56536267D01*
X168593734Y-56516172D01*
X168593732Y-56516171D01*
X168593729Y-56516171D01*
X168370000Y-56496597D01*
X168146267Y-56516171D01*
X167929342Y-56574296D01*
X167929337Y-56574298D01*
X167725798Y-56669210D01*
X167541834Y-56798023D01*
X167541828Y-56798028D01*
X167383028Y-56956828D01*
X167383023Y-56956834D01*
X167254210Y-57140798D01*
X167214195Y-57226611D01*
X167167278Y-57279896D01*
X167099000Y-57299357D01*
X167031040Y-57278815D01*
X166985805Y-57226611D01*
X166977821Y-57209490D01*
X166945790Y-57140799D01*
X166816974Y-56956831D01*
X166658169Y-56798026D01*
X166641928Y-56786654D01*
X166573269Y-56738578D01*
X166474202Y-56669210D01*
X166457389Y-56661370D01*
X166270663Y-56574298D01*
X166270657Y-56574296D01*
X166053732Y-56516171D01*
X165830000Y-56496597D01*
X165606267Y-56516171D01*
X165389342Y-56574296D01*
X165389337Y-56574298D01*
X165185798Y-56669210D01*
X165001834Y-56798023D01*
X165001828Y-56798028D01*
X164843028Y-56956828D01*
X164843023Y-56956834D01*
X164714210Y-57140798D01*
X164674195Y-57226611D01*
X164627278Y-57279896D01*
X164559000Y-57299357D01*
X164491040Y-57278815D01*
X164445805Y-57226611D01*
X164437821Y-57209490D01*
X164405790Y-57140799D01*
X164276974Y-56956831D01*
X164118169Y-56798026D01*
X164101928Y-56786654D01*
X164033269Y-56738578D01*
X163934202Y-56669210D01*
X163917389Y-56661370D01*
X163730663Y-56574298D01*
X163730657Y-56574296D01*
X163513732Y-56516171D01*
X163290000Y-56496597D01*
X163066267Y-56516171D01*
X162849342Y-56574296D01*
X162849337Y-56574298D01*
X162645798Y-56669210D01*
X162461834Y-56798023D01*
X162461828Y-56798028D01*
X162303028Y-56956828D01*
X162303023Y-56956834D01*
X162174210Y-57140798D01*
X162134195Y-57226611D01*
X162087278Y-57279896D01*
X162019000Y-57299357D01*
X161951040Y-57278815D01*
X161905805Y-57226611D01*
X161897821Y-57209490D01*
X161865790Y-57140799D01*
X161736974Y-56956831D01*
X161578169Y-56798026D01*
X161561928Y-56786654D01*
X161493269Y-56738578D01*
X161394202Y-56669210D01*
X161377389Y-56661370D01*
X161190663Y-56574298D01*
X161190657Y-56574296D01*
X160973732Y-56516171D01*
X160750000Y-56496597D01*
X160526267Y-56516171D01*
X160309342Y-56574296D01*
X160309337Y-56574298D01*
X160105798Y-56669210D01*
X159921834Y-56798023D01*
X159921828Y-56798028D01*
X159763028Y-56956828D01*
X159763023Y-56956834D01*
X159634210Y-57140798D01*
X159594195Y-57226611D01*
X159547278Y-57279896D01*
X159479000Y-57299357D01*
X159411040Y-57278815D01*
X159365805Y-57226611D01*
X159357821Y-57209490D01*
X159325790Y-57140799D01*
X159196974Y-56956831D01*
X159038169Y-56798026D01*
X159021928Y-56786654D01*
X158953269Y-56738578D01*
X158854202Y-56669210D01*
X158837389Y-56661370D01*
X158650663Y-56574298D01*
X158650657Y-56574296D01*
X158433732Y-56516171D01*
X158210000Y-56496597D01*
X157986267Y-56516171D01*
X157769342Y-56574296D01*
X157769337Y-56574298D01*
X157565798Y-56669210D01*
X157381834Y-56798023D01*
X157381828Y-56798028D01*
X157223028Y-56956828D01*
X157223023Y-56956834D01*
X157094210Y-57140798D01*
X157054195Y-57226611D01*
X157007278Y-57279896D01*
X156939000Y-57299357D01*
X156871040Y-57278815D01*
X156825805Y-57226611D01*
X156817821Y-57209490D01*
X156785790Y-57140799D01*
X156656974Y-56956831D01*
X156498169Y-56798026D01*
X156481928Y-56786654D01*
X156413269Y-56738578D01*
X156314202Y-56669210D01*
X156297389Y-56661370D01*
X156110663Y-56574298D01*
X156110657Y-56574296D01*
X155893732Y-56516171D01*
X155670000Y-56496597D01*
X155446267Y-56516171D01*
X155229342Y-56574296D01*
X155229336Y-56574298D01*
X155121145Y-56624749D01*
X155050953Y-56635410D01*
X154986140Y-56606430D01*
X154951486Y-56558771D01*
X154940168Y-56531447D01*
X154933841Y-56516172D01*
X154906401Y-56449925D01*
X154837072Y-56346167D01*
X154837067Y-56346161D01*
X152273835Y-53782931D01*
X152273833Y-53782929D01*
X152170075Y-53713600D01*
X152054785Y-53665845D01*
X151981086Y-53651185D01*
X151932396Y-53641500D01*
X151932394Y-53641500D01*
X132042393Y-53641500D01*
X131917606Y-53641500D01*
X131917603Y-53641500D01*
X131849375Y-53655072D01*
X131795215Y-53665845D01*
X131795213Y-53665845D01*
X131795212Y-53665846D01*
X131727675Y-53693821D01*
X131697950Y-53706134D01*
X131679923Y-53713601D01*
X131576171Y-53782926D01*
X131576164Y-53782931D01*
X128634635Y-56724460D01*
X128572323Y-56758486D01*
X128501507Y-56753421D01*
X128473270Y-56738578D01*
X128374202Y-56669210D01*
X128374200Y-56669209D01*
X128170663Y-56574298D01*
X128170657Y-56574296D01*
X127953732Y-56516171D01*
X127730000Y-56496597D01*
X127506267Y-56516171D01*
X127289342Y-56574296D01*
X127289337Y-56574298D01*
X127085798Y-56669210D01*
X126901834Y-56798023D01*
X126901828Y-56798028D01*
X126743028Y-56956828D01*
X126743023Y-56956834D01*
X126614210Y-57140798D01*
X126574195Y-57226611D01*
X126527278Y-57279896D01*
X126459000Y-57299357D01*
X126391040Y-57278815D01*
X126345805Y-57226611D01*
X126337821Y-57209490D01*
X126305790Y-57140799D01*
X126176974Y-56956831D01*
X126018169Y-56798026D01*
X126001928Y-56786654D01*
X125933269Y-56738578D01*
X125834202Y-56669210D01*
X125817389Y-56661370D01*
X125630663Y-56574298D01*
X125630657Y-56574296D01*
X125413732Y-56516171D01*
X125190000Y-56496597D01*
X124966267Y-56516171D01*
X124749342Y-56574296D01*
X124749337Y-56574298D01*
X124545798Y-56669210D01*
X124361834Y-56798023D01*
X124361828Y-56798028D01*
X124203028Y-56956828D01*
X124203023Y-56956834D01*
X124074210Y-57140798D01*
X124034195Y-57226611D01*
X123987278Y-57279896D01*
X123919000Y-57299357D01*
X123851040Y-57278815D01*
X123805805Y-57226611D01*
X123797821Y-57209490D01*
X123765790Y-57140799D01*
X123636974Y-56956831D01*
X123478169Y-56798026D01*
X123461928Y-56786654D01*
X123393269Y-56738578D01*
X123294202Y-56669210D01*
X123277389Y-56661370D01*
X123090663Y-56574298D01*
X123090657Y-56574296D01*
X122873732Y-56516171D01*
X122650000Y-56496597D01*
X122426267Y-56516171D01*
X122209342Y-56574296D01*
X122209337Y-56574298D01*
X122005798Y-56669210D01*
X121821834Y-56798023D01*
X121821828Y-56798028D01*
X121663028Y-56956828D01*
X121663023Y-56956834D01*
X121534210Y-57140798D01*
X121494195Y-57226611D01*
X121447278Y-57279896D01*
X121379000Y-57299357D01*
X121311040Y-57278815D01*
X121265805Y-57226611D01*
X121257821Y-57209490D01*
X121225790Y-57140799D01*
X121096974Y-56956831D01*
X120938169Y-56798026D01*
X120921928Y-56786654D01*
X120853269Y-56738578D01*
X120754202Y-56669210D01*
X120737389Y-56661370D01*
X120550663Y-56574298D01*
X120550657Y-56574296D01*
X120333732Y-56516171D01*
X120110000Y-56496597D01*
X119886267Y-56516171D01*
X119669342Y-56574296D01*
X119669337Y-56574298D01*
X119465798Y-56669210D01*
X119281834Y-56798023D01*
X119281828Y-56798028D01*
X119123028Y-56956828D01*
X119123023Y-56956834D01*
X118994210Y-57140798D01*
X118954195Y-57226611D01*
X118907278Y-57279896D01*
X118839000Y-57299357D01*
X118771040Y-57278815D01*
X118725805Y-57226611D01*
X118717821Y-57209490D01*
X118685790Y-57140799D01*
X118556974Y-56956831D01*
X118398169Y-56798026D01*
X118381928Y-56786654D01*
X118313269Y-56738578D01*
X118214202Y-56669210D01*
X118197389Y-56661370D01*
X118010663Y-56574298D01*
X118010657Y-56574296D01*
X117793732Y-56516171D01*
X117570000Y-56496597D01*
X117346267Y-56516171D01*
X117129342Y-56574296D01*
X117129337Y-56574298D01*
X116925798Y-56669210D01*
X116741834Y-56798023D01*
X116741828Y-56798028D01*
X116583028Y-56956828D01*
X116583023Y-56956834D01*
X116454210Y-57140798D01*
X116414195Y-57226611D01*
X116367278Y-57279896D01*
X116299000Y-57299357D01*
X116231040Y-57278815D01*
X116185805Y-57226611D01*
X116177821Y-57209490D01*
X116145790Y-57140799D01*
X116016974Y-56956831D01*
X115858169Y-56798026D01*
X115841937Y-56786660D01*
X115717229Y-56699337D01*
X115672900Y-56643879D01*
X115663500Y-56596124D01*
X115663500Y-55279594D01*
X115683502Y-55211473D01*
X115700405Y-55190499D01*
X116100499Y-54790405D01*
X116162811Y-54756379D01*
X116189594Y-54753500D01*
X116245487Y-54753500D01*
X116432288Y-54713794D01*
X116606752Y-54636118D01*
X116761253Y-54523866D01*
X116775487Y-54508058D01*
X116889034Y-54381951D01*
X116889035Y-54381949D01*
X116889040Y-54381944D01*
X116984527Y-54216556D01*
X117043542Y-54034928D01*
X117063504Y-53845000D01*
X117043542Y-53655072D01*
X116984527Y-53473444D01*
X116889040Y-53308056D01*
X116863130Y-53279280D01*
X116776294Y-53182838D01*
X116745577Y-53118830D01*
X116754342Y-53048377D01*
X116799805Y-52993846D01*
X116867533Y-52972551D01*
X116869573Y-52972529D01*
X189744027Y-52825254D01*
X189812187Y-52845119D01*
G37*
%TD.AperFunction*%
%TA.AperFunction,Conductor*%
G36*
X159488959Y-88686185D02*
G01*
X159534194Y-88738388D01*
X159574210Y-88824202D01*
X159622963Y-88893828D01*
X159703026Y-89008169D01*
X159703029Y-89008173D01*
X159861826Y-89166970D01*
X159861830Y-89166973D01*
X159861831Y-89166974D01*
X160045798Y-89295790D01*
X160249340Y-89390703D01*
X160466271Y-89448829D01*
X160690000Y-89468403D01*
X160734928Y-89464472D01*
X160804533Y-89478459D01*
X160855526Y-89527858D01*
X160871717Y-89596984D01*
X160847966Y-89663890D01*
X160835007Y-89679087D01*
X160529501Y-89984595D01*
X160467189Y-90018620D01*
X160440405Y-90021500D01*
X131184596Y-90021500D01*
X131116475Y-90001498D01*
X131095501Y-89984596D01*
X130676250Y-89565346D01*
X130642225Y-89503033D01*
X130647289Y-89432218D01*
X130689836Y-89375382D01*
X130712091Y-89362057D01*
X130854202Y-89295790D01*
X131038169Y-89166974D01*
X131196974Y-89008169D01*
X131325790Y-88824202D01*
X131365805Y-88738388D01*
X131412722Y-88685104D01*
X131480999Y-88665643D01*
X131548959Y-88686185D01*
X131594194Y-88738388D01*
X131634210Y-88824202D01*
X131682963Y-88893828D01*
X131763026Y-89008169D01*
X131763029Y-89008173D01*
X131921826Y-89166970D01*
X131921830Y-89166973D01*
X131921831Y-89166974D01*
X132105798Y-89295790D01*
X132309340Y-89390703D01*
X132526271Y-89448829D01*
X132750000Y-89468403D01*
X132973729Y-89448829D01*
X133190660Y-89390703D01*
X133394202Y-89295790D01*
X133578169Y-89166974D01*
X133736974Y-89008169D01*
X133865790Y-88824202D01*
X133905805Y-88738388D01*
X133952722Y-88685104D01*
X134020999Y-88665643D01*
X134088959Y-88686185D01*
X134134194Y-88738388D01*
X134174210Y-88824202D01*
X134222963Y-88893828D01*
X134303026Y-89008169D01*
X134303029Y-89008173D01*
X134461826Y-89166970D01*
X134461830Y-89166973D01*
X134461831Y-89166974D01*
X134645798Y-89295790D01*
X134849340Y-89390703D01*
X135066271Y-89448829D01*
X135290000Y-89468403D01*
X135513729Y-89448829D01*
X135730660Y-89390703D01*
X135934202Y-89295790D01*
X136118169Y-89166974D01*
X136276974Y-89008169D01*
X136405790Y-88824202D01*
X136445805Y-88738388D01*
X136492722Y-88685104D01*
X136560999Y-88665643D01*
X136628959Y-88686185D01*
X136674194Y-88738388D01*
X136714210Y-88824202D01*
X136762963Y-88893828D01*
X136843026Y-89008169D01*
X136843029Y-89008173D01*
X137001826Y-89166970D01*
X137001830Y-89166973D01*
X137001831Y-89166974D01*
X137185798Y-89295790D01*
X137389340Y-89390703D01*
X137606271Y-89448829D01*
X137830000Y-89468403D01*
X138053729Y-89448829D01*
X138270660Y-89390703D01*
X138474202Y-89295790D01*
X138658169Y-89166974D01*
X138816974Y-89008169D01*
X138945790Y-88824202D01*
X138985805Y-88738388D01*
X139032722Y-88685104D01*
X139100999Y-88665643D01*
X139168959Y-88686185D01*
X139214194Y-88738388D01*
X139254210Y-88824202D01*
X139302963Y-88893828D01*
X139383026Y-89008169D01*
X139383029Y-89008173D01*
X139541826Y-89166970D01*
X139541830Y-89166973D01*
X139541831Y-89166974D01*
X139725798Y-89295790D01*
X139929340Y-89390703D01*
X140146271Y-89448829D01*
X140370000Y-89468403D01*
X140593729Y-89448829D01*
X140810660Y-89390703D01*
X141014202Y-89295790D01*
X141198169Y-89166974D01*
X141356974Y-89008169D01*
X141485790Y-88824202D01*
X141525805Y-88738388D01*
X141572722Y-88685104D01*
X141640999Y-88665643D01*
X141708959Y-88686185D01*
X141754194Y-88738388D01*
X141794210Y-88824202D01*
X141842963Y-88893828D01*
X141923026Y-89008169D01*
X141923029Y-89008173D01*
X142081826Y-89166970D01*
X142081830Y-89166973D01*
X142081831Y-89166974D01*
X142265798Y-89295790D01*
X142469340Y-89390703D01*
X142686271Y-89448829D01*
X142910000Y-89468403D01*
X143133729Y-89448829D01*
X143350660Y-89390703D01*
X143554202Y-89295790D01*
X143738169Y-89166974D01*
X143896974Y-89008169D01*
X144025790Y-88824202D01*
X144065805Y-88738388D01*
X144112722Y-88685104D01*
X144180999Y-88665643D01*
X144248959Y-88686185D01*
X144294194Y-88738388D01*
X144334210Y-88824202D01*
X144382963Y-88893828D01*
X144463026Y-89008169D01*
X144463029Y-89008173D01*
X144621826Y-89166970D01*
X144621830Y-89166973D01*
X144621831Y-89166974D01*
X144805798Y-89295790D01*
X145009340Y-89390703D01*
X145226271Y-89448829D01*
X145450000Y-89468403D01*
X145673729Y-89448829D01*
X145890660Y-89390703D01*
X146094202Y-89295790D01*
X146278169Y-89166974D01*
X146436974Y-89008169D01*
X146565790Y-88824202D01*
X146605805Y-88738388D01*
X146652722Y-88685104D01*
X146720999Y-88665643D01*
X146788959Y-88686185D01*
X146834194Y-88738388D01*
X146874210Y-88824202D01*
X146922963Y-88893828D01*
X147003026Y-89008169D01*
X147003029Y-89008173D01*
X147161826Y-89166970D01*
X147161830Y-89166973D01*
X147161831Y-89166974D01*
X147345798Y-89295790D01*
X147549340Y-89390703D01*
X147766271Y-89448829D01*
X147990000Y-89468403D01*
X148213729Y-89448829D01*
X148430660Y-89390703D01*
X148634202Y-89295790D01*
X148818169Y-89166974D01*
X148976974Y-89008169D01*
X149105790Y-88824202D01*
X149145805Y-88738388D01*
X149192722Y-88685104D01*
X149260999Y-88665643D01*
X149328959Y-88686185D01*
X149374194Y-88738388D01*
X149414210Y-88824202D01*
X149462963Y-88893828D01*
X149543026Y-89008169D01*
X149543029Y-89008173D01*
X149701826Y-89166970D01*
X149701830Y-89166973D01*
X149701831Y-89166974D01*
X149885798Y-89295790D01*
X150089340Y-89390703D01*
X150306271Y-89448829D01*
X150530000Y-89468403D01*
X150753729Y-89448829D01*
X150970660Y-89390703D01*
X151174202Y-89295790D01*
X151358169Y-89166974D01*
X151516974Y-89008169D01*
X151645790Y-88824202D01*
X151685805Y-88738388D01*
X151732722Y-88685104D01*
X151800999Y-88665643D01*
X151868959Y-88686185D01*
X151914194Y-88738388D01*
X151954210Y-88824202D01*
X152002963Y-88893828D01*
X152083026Y-89008169D01*
X152083029Y-89008173D01*
X152241826Y-89166970D01*
X152241830Y-89166973D01*
X152241831Y-89166974D01*
X152425798Y-89295790D01*
X152629340Y-89390703D01*
X152846271Y-89448829D01*
X153070000Y-89468403D01*
X153293729Y-89448829D01*
X153510660Y-89390703D01*
X153714202Y-89295790D01*
X153898169Y-89166974D01*
X154056974Y-89008169D01*
X154185790Y-88824202D01*
X154225805Y-88738388D01*
X154272722Y-88685104D01*
X154340999Y-88665643D01*
X154408959Y-88686185D01*
X154454194Y-88738388D01*
X154494210Y-88824202D01*
X154542963Y-88893828D01*
X154623026Y-89008169D01*
X154623029Y-89008173D01*
X154781826Y-89166970D01*
X154781830Y-89166973D01*
X154781831Y-89166974D01*
X154965798Y-89295790D01*
X155169340Y-89390703D01*
X155386271Y-89448829D01*
X155610000Y-89468403D01*
X155833729Y-89448829D01*
X156050660Y-89390703D01*
X156254202Y-89295790D01*
X156438169Y-89166974D01*
X156596974Y-89008169D01*
X156725790Y-88824202D01*
X156765805Y-88738388D01*
X156812722Y-88685104D01*
X156880999Y-88665643D01*
X156948959Y-88686185D01*
X156994194Y-88738388D01*
X157034210Y-88824202D01*
X157082963Y-88893828D01*
X157163026Y-89008169D01*
X157163029Y-89008173D01*
X157321826Y-89166970D01*
X157321830Y-89166973D01*
X157321831Y-89166974D01*
X157505798Y-89295790D01*
X157709340Y-89390703D01*
X157926271Y-89448829D01*
X158150000Y-89468403D01*
X158373729Y-89448829D01*
X158590660Y-89390703D01*
X158794202Y-89295790D01*
X158978169Y-89166974D01*
X159136974Y-89008169D01*
X159265790Y-88824202D01*
X159305805Y-88738388D01*
X159352722Y-88685104D01*
X159420999Y-88665643D01*
X159488959Y-88686185D01*
G37*
%TD.AperFunction*%
%TA.AperFunction,Conductor*%
G36*
X111228959Y-86146185D02*
G01*
X111274194Y-86198388D01*
X111314210Y-86284202D01*
X111421499Y-86437426D01*
X111443026Y-86468169D01*
X111443029Y-86468173D01*
X111601826Y-86626970D01*
X111601830Y-86626973D01*
X111601831Y-86626974D01*
X111785798Y-86755790D01*
X111823499Y-86773370D01*
X111871610Y-86795805D01*
X111924895Y-86842722D01*
X111944356Y-86911000D01*
X111923814Y-86978960D01*
X111871611Y-87024194D01*
X111785800Y-87064208D01*
X111601834Y-87193023D01*
X111601828Y-87193028D01*
X111443028Y-87351828D01*
X111443023Y-87351834D01*
X111314210Y-87535798D01*
X111274195Y-87621611D01*
X111227278Y-87674896D01*
X111159000Y-87694357D01*
X111091040Y-87673815D01*
X111045805Y-87621611D01*
X111037821Y-87604490D01*
X111005790Y-87535799D01*
X110876974Y-87351831D01*
X110718169Y-87193026D01*
X110534202Y-87064210D01*
X110519353Y-87057286D01*
X110448389Y-87024195D01*
X110395104Y-86977278D01*
X110375643Y-86909001D01*
X110396185Y-86841041D01*
X110448389Y-86795805D01*
X110534202Y-86755790D01*
X110718169Y-86626974D01*
X110876974Y-86468169D01*
X111005790Y-86284202D01*
X111045805Y-86198388D01*
X111092722Y-86145104D01*
X111160999Y-86125643D01*
X111228959Y-86146185D01*
G37*
%TD.AperFunction*%
%TA.AperFunction,Conductor*%
G36*
X116308959Y-86146185D02*
G01*
X116354194Y-86198388D01*
X116394210Y-86284202D01*
X116501499Y-86437426D01*
X116523026Y-86468169D01*
X116523029Y-86468173D01*
X116681826Y-86626970D01*
X116681830Y-86626973D01*
X116681831Y-86626974D01*
X116865798Y-86755790D01*
X116903499Y-86773370D01*
X116951610Y-86795805D01*
X117004895Y-86842722D01*
X117024356Y-86911000D01*
X117003814Y-86978960D01*
X116951611Y-87024194D01*
X116865800Y-87064208D01*
X116681834Y-87193023D01*
X116681828Y-87193028D01*
X116523028Y-87351828D01*
X116523023Y-87351834D01*
X116394210Y-87535798D01*
X116354195Y-87621611D01*
X116307278Y-87674896D01*
X116239000Y-87694357D01*
X116171040Y-87673815D01*
X116125805Y-87621611D01*
X116117821Y-87604490D01*
X116085790Y-87535799D01*
X115956974Y-87351831D01*
X115798169Y-87193026D01*
X115614202Y-87064210D01*
X115599353Y-87057286D01*
X115528389Y-87024195D01*
X115475104Y-86977278D01*
X115455643Y-86909001D01*
X115476185Y-86841041D01*
X115528389Y-86795805D01*
X115614202Y-86755790D01*
X115798169Y-86626974D01*
X115956974Y-86468169D01*
X116085790Y-86284202D01*
X116125805Y-86198388D01*
X116172722Y-86145104D01*
X116240999Y-86125643D01*
X116308959Y-86146185D01*
G37*
%TD.AperFunction*%
%TA.AperFunction,Conductor*%
G36*
X121388959Y-86146185D02*
G01*
X121434194Y-86198388D01*
X121474210Y-86284202D01*
X121581499Y-86437426D01*
X121603026Y-86468169D01*
X121603029Y-86468173D01*
X121761826Y-86626970D01*
X121761830Y-86626973D01*
X121761831Y-86626974D01*
X121945798Y-86755790D01*
X121983499Y-86773370D01*
X122031610Y-86795805D01*
X122084895Y-86842722D01*
X122104356Y-86911000D01*
X122083814Y-86978960D01*
X122031611Y-87024194D01*
X121945800Y-87064208D01*
X121761834Y-87193023D01*
X121761828Y-87193028D01*
X121603028Y-87351828D01*
X121603023Y-87351834D01*
X121474210Y-87535798D01*
X121434195Y-87621611D01*
X121387278Y-87674896D01*
X121319000Y-87694357D01*
X121251040Y-87673815D01*
X121205805Y-87621611D01*
X121197821Y-87604490D01*
X121165790Y-87535799D01*
X121036974Y-87351831D01*
X120878169Y-87193026D01*
X120694202Y-87064210D01*
X120679353Y-87057286D01*
X120608389Y-87024195D01*
X120555104Y-86977278D01*
X120535643Y-86909001D01*
X120556185Y-86841041D01*
X120608389Y-86795805D01*
X120694202Y-86755790D01*
X120878169Y-86626974D01*
X121036974Y-86468169D01*
X121165790Y-86284202D01*
X121205805Y-86198388D01*
X121252722Y-86145104D01*
X121320999Y-86125643D01*
X121388959Y-86146185D01*
G37*
%TD.AperFunction*%
%TA.AperFunction,Conductor*%
G36*
X126468959Y-86146185D02*
G01*
X126514194Y-86198388D01*
X126554210Y-86284202D01*
X126661499Y-86437426D01*
X126683026Y-86468169D01*
X126683029Y-86468173D01*
X126841826Y-86626970D01*
X126841830Y-86626973D01*
X126841831Y-86626974D01*
X127025798Y-86755790D01*
X127063499Y-86773370D01*
X127111610Y-86795805D01*
X127164895Y-86842722D01*
X127184356Y-86911000D01*
X127163814Y-86978960D01*
X127111611Y-87024194D01*
X127025800Y-87064208D01*
X126841834Y-87193023D01*
X126841828Y-87193028D01*
X126683028Y-87351828D01*
X126683023Y-87351834D01*
X126554210Y-87535798D01*
X126514195Y-87621611D01*
X126467278Y-87674896D01*
X126399000Y-87694357D01*
X126331040Y-87673815D01*
X126285805Y-87621611D01*
X126277821Y-87604490D01*
X126245790Y-87535799D01*
X126116974Y-87351831D01*
X125958169Y-87193026D01*
X125774202Y-87064210D01*
X125759353Y-87057286D01*
X125688389Y-87024195D01*
X125635104Y-86977278D01*
X125615643Y-86909001D01*
X125636185Y-86841041D01*
X125688389Y-86795805D01*
X125774202Y-86755790D01*
X125958169Y-86626974D01*
X126116974Y-86468169D01*
X126245790Y-86284202D01*
X126285805Y-86198388D01*
X126332722Y-86145104D01*
X126400999Y-86125643D01*
X126468959Y-86146185D01*
G37*
%TD.AperFunction*%
%TA.AperFunction,Conductor*%
G36*
X131548959Y-86146185D02*
G01*
X131594194Y-86198388D01*
X131634210Y-86284202D01*
X131741499Y-86437426D01*
X131763026Y-86468169D01*
X131763029Y-86468173D01*
X131921826Y-86626970D01*
X131921830Y-86626973D01*
X131921831Y-86626974D01*
X132105798Y-86755790D01*
X132143499Y-86773370D01*
X132191610Y-86795805D01*
X132244895Y-86842722D01*
X132264356Y-86911000D01*
X132243814Y-86978960D01*
X132191611Y-87024194D01*
X132105800Y-87064208D01*
X131921834Y-87193023D01*
X131921828Y-87193028D01*
X131763028Y-87351828D01*
X131763023Y-87351834D01*
X131634210Y-87535798D01*
X131594195Y-87621611D01*
X131547278Y-87674896D01*
X131479000Y-87694357D01*
X131411040Y-87673815D01*
X131365805Y-87621611D01*
X131357821Y-87604490D01*
X131325790Y-87535799D01*
X131196974Y-87351831D01*
X131038169Y-87193026D01*
X130854202Y-87064210D01*
X130839353Y-87057286D01*
X130768389Y-87024195D01*
X130715104Y-86977278D01*
X130695643Y-86909001D01*
X130716185Y-86841041D01*
X130768389Y-86795805D01*
X130854202Y-86755790D01*
X131038169Y-86626974D01*
X131196974Y-86468169D01*
X131325790Y-86284202D01*
X131365805Y-86198388D01*
X131412722Y-86145104D01*
X131480999Y-86125643D01*
X131548959Y-86146185D01*
G37*
%TD.AperFunction*%
%TA.AperFunction,Conductor*%
G36*
X136628959Y-86146185D02*
G01*
X136674194Y-86198388D01*
X136714210Y-86284202D01*
X136821499Y-86437426D01*
X136843026Y-86468169D01*
X136843029Y-86468173D01*
X137001826Y-86626970D01*
X137001830Y-86626973D01*
X137001831Y-86626974D01*
X137185798Y-86755790D01*
X137223499Y-86773370D01*
X137271610Y-86795805D01*
X137324895Y-86842722D01*
X137344356Y-86911000D01*
X137323814Y-86978960D01*
X137271611Y-87024194D01*
X137185800Y-87064208D01*
X137001834Y-87193023D01*
X137001828Y-87193028D01*
X136843028Y-87351828D01*
X136843023Y-87351834D01*
X136714210Y-87535798D01*
X136674195Y-87621611D01*
X136627278Y-87674896D01*
X136559000Y-87694357D01*
X136491040Y-87673815D01*
X136445805Y-87621611D01*
X136437821Y-87604490D01*
X136405790Y-87535799D01*
X136276974Y-87351831D01*
X136118169Y-87193026D01*
X135934202Y-87064210D01*
X135919353Y-87057286D01*
X135848389Y-87024195D01*
X135795104Y-86977278D01*
X135775643Y-86909001D01*
X135796185Y-86841041D01*
X135848389Y-86795805D01*
X135934202Y-86755790D01*
X136118169Y-86626974D01*
X136276974Y-86468169D01*
X136405790Y-86284202D01*
X136445805Y-86198388D01*
X136492722Y-86145104D01*
X136560999Y-86125643D01*
X136628959Y-86146185D01*
G37*
%TD.AperFunction*%
%TA.AperFunction,Conductor*%
G36*
X141708959Y-86146185D02*
G01*
X141754194Y-86198388D01*
X141794210Y-86284202D01*
X141901499Y-86437426D01*
X141923026Y-86468169D01*
X141923029Y-86468173D01*
X142081826Y-86626970D01*
X142081830Y-86626973D01*
X142081831Y-86626974D01*
X142265798Y-86755790D01*
X142303499Y-86773370D01*
X142351610Y-86795805D01*
X142404895Y-86842722D01*
X142424356Y-86911000D01*
X142403814Y-86978960D01*
X142351611Y-87024194D01*
X142265800Y-87064208D01*
X142081834Y-87193023D01*
X142081828Y-87193028D01*
X141923028Y-87351828D01*
X141923023Y-87351834D01*
X141794210Y-87535798D01*
X141754195Y-87621611D01*
X141707278Y-87674896D01*
X141639000Y-87694357D01*
X141571040Y-87673815D01*
X141525805Y-87621611D01*
X141517821Y-87604490D01*
X141485790Y-87535799D01*
X141356974Y-87351831D01*
X141198169Y-87193026D01*
X141014202Y-87064210D01*
X140999353Y-87057286D01*
X140928389Y-87024195D01*
X140875104Y-86977278D01*
X140855643Y-86909001D01*
X140876185Y-86841041D01*
X140928389Y-86795805D01*
X141014202Y-86755790D01*
X141198169Y-86626974D01*
X141356974Y-86468169D01*
X141485790Y-86284202D01*
X141525805Y-86198388D01*
X141572722Y-86145104D01*
X141640999Y-86125643D01*
X141708959Y-86146185D01*
G37*
%TD.AperFunction*%
%TA.AperFunction,Conductor*%
G36*
X146788959Y-86146185D02*
G01*
X146834194Y-86198388D01*
X146874210Y-86284202D01*
X146981499Y-86437426D01*
X147003026Y-86468169D01*
X147003029Y-86468173D01*
X147161826Y-86626970D01*
X147161830Y-86626973D01*
X147161831Y-86626974D01*
X147345798Y-86755790D01*
X147383499Y-86773370D01*
X147431610Y-86795805D01*
X147484895Y-86842722D01*
X147504356Y-86911000D01*
X147483814Y-86978960D01*
X147431611Y-87024194D01*
X147345800Y-87064208D01*
X147161834Y-87193023D01*
X147161828Y-87193028D01*
X147003028Y-87351828D01*
X147003023Y-87351834D01*
X146874210Y-87535798D01*
X146834195Y-87621611D01*
X146787278Y-87674896D01*
X146719000Y-87694357D01*
X146651040Y-87673815D01*
X146605805Y-87621611D01*
X146597821Y-87604490D01*
X146565790Y-87535799D01*
X146436974Y-87351831D01*
X146278169Y-87193026D01*
X146094202Y-87064210D01*
X146079353Y-87057286D01*
X146008389Y-87024195D01*
X145955104Y-86977278D01*
X145935643Y-86909001D01*
X145956185Y-86841041D01*
X146008389Y-86795805D01*
X146094202Y-86755790D01*
X146278169Y-86626974D01*
X146436974Y-86468169D01*
X146565790Y-86284202D01*
X146605805Y-86198388D01*
X146652722Y-86145104D01*
X146720999Y-86125643D01*
X146788959Y-86146185D01*
G37*
%TD.AperFunction*%
%TA.AperFunction,Conductor*%
G36*
X151868959Y-86146185D02*
G01*
X151914194Y-86198388D01*
X151954210Y-86284202D01*
X152061499Y-86437426D01*
X152083026Y-86468169D01*
X152083029Y-86468173D01*
X152241826Y-86626970D01*
X152241830Y-86626973D01*
X152241831Y-86626974D01*
X152425798Y-86755790D01*
X152463499Y-86773370D01*
X152511610Y-86795805D01*
X152564895Y-86842722D01*
X152584356Y-86911000D01*
X152563814Y-86978960D01*
X152511611Y-87024194D01*
X152425800Y-87064208D01*
X152241834Y-87193023D01*
X152241828Y-87193028D01*
X152083028Y-87351828D01*
X152083023Y-87351834D01*
X151954210Y-87535798D01*
X151914195Y-87621611D01*
X151867278Y-87674896D01*
X151799000Y-87694357D01*
X151731040Y-87673815D01*
X151685805Y-87621611D01*
X151677821Y-87604490D01*
X151645790Y-87535799D01*
X151516974Y-87351831D01*
X151358169Y-87193026D01*
X151174202Y-87064210D01*
X151159353Y-87057286D01*
X151088389Y-87024195D01*
X151035104Y-86977278D01*
X151015643Y-86909001D01*
X151036185Y-86841041D01*
X151088389Y-86795805D01*
X151174202Y-86755790D01*
X151358169Y-86626974D01*
X151516974Y-86468169D01*
X151645790Y-86284202D01*
X151685805Y-86198388D01*
X151732722Y-86145104D01*
X151800999Y-86125643D01*
X151868959Y-86146185D01*
G37*
%TD.AperFunction*%
%TA.AperFunction,Conductor*%
G36*
X156948959Y-86146185D02*
G01*
X156994194Y-86198388D01*
X157034210Y-86284202D01*
X157141499Y-86437426D01*
X157163026Y-86468169D01*
X157163029Y-86468173D01*
X157321826Y-86626970D01*
X157321830Y-86626973D01*
X157321831Y-86626974D01*
X157505798Y-86755790D01*
X157543499Y-86773370D01*
X157591610Y-86795805D01*
X157644895Y-86842722D01*
X157664356Y-86911000D01*
X157643814Y-86978960D01*
X157591611Y-87024194D01*
X157505800Y-87064208D01*
X157321834Y-87193023D01*
X157321828Y-87193028D01*
X157163028Y-87351828D01*
X157163023Y-87351834D01*
X157034210Y-87535798D01*
X156994195Y-87621611D01*
X156947278Y-87674896D01*
X156879000Y-87694357D01*
X156811040Y-87673815D01*
X156765805Y-87621611D01*
X156757821Y-87604490D01*
X156725790Y-87535799D01*
X156596974Y-87351831D01*
X156438169Y-87193026D01*
X156254202Y-87064210D01*
X156239353Y-87057286D01*
X156168389Y-87024195D01*
X156115104Y-86977278D01*
X156095643Y-86909001D01*
X156116185Y-86841041D01*
X156168389Y-86795805D01*
X156254202Y-86755790D01*
X156438169Y-86626974D01*
X156596974Y-86468169D01*
X156725790Y-86284202D01*
X156765805Y-86198388D01*
X156812722Y-86145104D01*
X156880999Y-86125643D01*
X156948959Y-86146185D01*
G37*
%TD.AperFunction*%
%TA.AperFunction,Conductor*%
G36*
X164568959Y-86146185D02*
G01*
X164614194Y-86198388D01*
X164654210Y-86284202D01*
X164761499Y-86437426D01*
X164783026Y-86468169D01*
X164783029Y-86468173D01*
X164941826Y-86626970D01*
X164941830Y-86626973D01*
X164941831Y-86626974D01*
X165125798Y-86755790D01*
X165163499Y-86773370D01*
X165211610Y-86795805D01*
X165264895Y-86842722D01*
X165284356Y-86911000D01*
X165263814Y-86978960D01*
X165211611Y-87024194D01*
X165125800Y-87064208D01*
X164941834Y-87193023D01*
X164941828Y-87193028D01*
X164783028Y-87351828D01*
X164783023Y-87351834D01*
X164654210Y-87535798D01*
X164614195Y-87621611D01*
X164567278Y-87674896D01*
X164499000Y-87694357D01*
X164431040Y-87673815D01*
X164385805Y-87621611D01*
X164377821Y-87604490D01*
X164345790Y-87535799D01*
X164216974Y-87351831D01*
X164058169Y-87193026D01*
X163874202Y-87064210D01*
X163859353Y-87057286D01*
X163788389Y-87024195D01*
X163735104Y-86977278D01*
X163715643Y-86909001D01*
X163736185Y-86841041D01*
X163788389Y-86795805D01*
X163874202Y-86755790D01*
X164058169Y-86626974D01*
X164216974Y-86468169D01*
X164345790Y-86284202D01*
X164385805Y-86198388D01*
X164432722Y-86145104D01*
X164500999Y-86125643D01*
X164568959Y-86146185D01*
G37*
%TD.AperFunction*%
%TA.AperFunction,Conductor*%
G36*
X170242788Y-82422282D02*
G01*
X170287850Y-82451243D01*
X170407718Y-82571111D01*
X170407720Y-82571112D01*
X170561981Y-82668041D01*
X170561982Y-82668041D01*
X170561985Y-82668043D01*
X170733953Y-82728217D01*
X170915000Y-82748616D01*
X171096047Y-82728217D01*
X171268015Y-82668043D01*
X171316126Y-82637812D01*
X171383162Y-82618500D01*
X184486404Y-82618500D01*
X184554525Y-82638502D01*
X184601018Y-82692158D01*
X184611122Y-82762432D01*
X184581628Y-82827012D01*
X184575499Y-82833595D01*
X182344085Y-85065008D01*
X182281773Y-85099034D01*
X182210957Y-85093969D01*
X182154122Y-85051422D01*
X182140794Y-85029161D01*
X182125354Y-84996048D01*
X182079149Y-84930061D01*
X182079147Y-84930061D01*
X181494157Y-85515050D01*
X181475925Y-85447007D01*
X181410099Y-85332993D01*
X181317007Y-85239901D01*
X181202993Y-85174075D01*
X181134946Y-85155841D01*
X181719937Y-84570850D01*
X181719937Y-84570849D01*
X181653949Y-84524644D01*
X181653950Y-84524644D01*
X181450491Y-84429770D01*
X181450486Y-84429768D01*
X181233640Y-84371665D01*
X181010000Y-84352099D01*
X180786359Y-84371665D01*
X180569513Y-84429768D01*
X180569509Y-84429770D01*
X180366050Y-84524644D01*
X180300060Y-84570850D01*
X180885052Y-85155842D01*
X180817007Y-85174075D01*
X180702993Y-85239901D01*
X180609901Y-85332993D01*
X180544075Y-85447007D01*
X180525842Y-85515052D01*
X179940850Y-84930060D01*
X179894644Y-84996050D01*
X179854471Y-85082203D01*
X179807554Y-85135488D01*
X179739276Y-85154949D01*
X179671316Y-85134407D01*
X179626081Y-85082203D01*
X179618063Y-85065008D01*
X179585790Y-84995799D01*
X179456974Y-84811831D01*
X179298169Y-84653026D01*
X179294220Y-84650261D01*
X179180810Y-84570850D01*
X179114202Y-84524210D01*
X179114198Y-84524208D01*
X178910663Y-84429298D01*
X178910657Y-84429296D01*
X178693732Y-84371171D01*
X178470000Y-84351597D01*
X178246267Y-84371171D01*
X178029342Y-84429296D01*
X178029337Y-84429298D01*
X177825798Y-84524210D01*
X177641834Y-84653023D01*
X177641828Y-84653028D01*
X177483028Y-84811828D01*
X177483023Y-84811834D01*
X177354210Y-84995798D01*
X177314195Y-85081611D01*
X177267278Y-85134896D01*
X177199000Y-85154357D01*
X177131040Y-85133815D01*
X177085805Y-85081611D01*
X177078063Y-85065008D01*
X177045790Y-84995799D01*
X176916974Y-84811831D01*
X176758169Y-84653026D01*
X176754220Y-84650261D01*
X176640810Y-84570850D01*
X176574202Y-84524210D01*
X176574198Y-84524208D01*
X176370663Y-84429298D01*
X176370657Y-84429296D01*
X176153732Y-84371171D01*
X175930000Y-84351597D01*
X175706267Y-84371171D01*
X175489342Y-84429296D01*
X175489337Y-84429298D01*
X175285798Y-84524210D01*
X175101834Y-84653023D01*
X175101828Y-84653028D01*
X174943028Y-84811828D01*
X174943023Y-84811834D01*
X174814210Y-84995798D01*
X174774195Y-85081611D01*
X174727278Y-85134896D01*
X174659000Y-85154357D01*
X174591040Y-85133815D01*
X174545805Y-85081611D01*
X174538063Y-85065008D01*
X174505790Y-84995799D01*
X174376974Y-84811831D01*
X174218169Y-84653026D01*
X174214220Y-84650261D01*
X174100810Y-84570850D01*
X174034202Y-84524210D01*
X174034198Y-84524208D01*
X173830663Y-84429298D01*
X173830657Y-84429296D01*
X173613732Y-84371171D01*
X173390000Y-84351597D01*
X173166267Y-84371171D01*
X172949342Y-84429296D01*
X172949337Y-84429298D01*
X172745798Y-84524210D01*
X172561834Y-84653023D01*
X172561828Y-84653028D01*
X172403028Y-84811828D01*
X172403023Y-84811834D01*
X172274210Y-84995798D01*
X172234195Y-85081611D01*
X172187278Y-85134896D01*
X172119000Y-85154357D01*
X172051040Y-85133815D01*
X172005805Y-85081611D01*
X171998063Y-85065008D01*
X171965790Y-84995799D01*
X171836974Y-84811831D01*
X171678169Y-84653026D01*
X171674220Y-84650261D01*
X171560810Y-84570850D01*
X171494202Y-84524210D01*
X171494198Y-84524208D01*
X171290663Y-84429298D01*
X171290657Y-84429296D01*
X171073732Y-84371171D01*
X170850000Y-84351597D01*
X170626267Y-84371171D01*
X170409342Y-84429296D01*
X170409337Y-84429298D01*
X170205798Y-84524210D01*
X170021834Y-84653023D01*
X170021828Y-84653028D01*
X169863028Y-84811828D01*
X169863023Y-84811834D01*
X169734210Y-84995798D01*
X169694195Y-85081611D01*
X169647278Y-85134896D01*
X169579000Y-85154357D01*
X169511040Y-85133815D01*
X169465805Y-85081611D01*
X169458063Y-85065008D01*
X169425790Y-84995799D01*
X169296974Y-84811831D01*
X169138169Y-84653026D01*
X169134220Y-84650261D01*
X169020810Y-84570850D01*
X168954202Y-84524210D01*
X168954198Y-84524208D01*
X168750663Y-84429298D01*
X168750657Y-84429296D01*
X168533730Y-84371171D01*
X168533724Y-84371170D01*
X168486583Y-84367045D01*
X168420465Y-84341181D01*
X168378827Y-84283677D01*
X168374887Y-84212789D01*
X168408470Y-84152432D01*
X170109660Y-82451243D01*
X170171972Y-82417217D01*
X170242788Y-82422282D01*
G37*
%TD.AperFunction*%
%TA.AperFunction,Conductor*%
G36*
X119621536Y-71831785D02*
G01*
X119726985Y-71898043D01*
X119898953Y-71958217D01*
X120080000Y-71978616D01*
X120261047Y-71958217D01*
X120427682Y-71899908D01*
X120498583Y-71896289D01*
X120560188Y-71931578D01*
X120592935Y-71994571D01*
X120594502Y-72032944D01*
X120590503Y-72068439D01*
X120586384Y-72105000D01*
X120606783Y-72286047D01*
X120606783Y-72286049D01*
X120606784Y-72286050D01*
X120666957Y-72458015D01*
X120666958Y-72458018D01*
X120763887Y-72612279D01*
X120763888Y-72612281D01*
X120892718Y-72741111D01*
X120892720Y-72741112D01*
X121046981Y-72838041D01*
X121046982Y-72838041D01*
X121046985Y-72838043D01*
X121218953Y-72898217D01*
X121400000Y-72918616D01*
X121581047Y-72898217D01*
X121753015Y-72838043D01*
X121907281Y-72741111D01*
X121992988Y-72655403D01*
X122055298Y-72621380D01*
X122082082Y-72618500D01*
X123298917Y-72618500D01*
X123367038Y-72638502D01*
X123413531Y-72692158D01*
X123423635Y-72762432D01*
X123394141Y-72827012D01*
X123388012Y-72833595D01*
X123273888Y-72947718D01*
X123273887Y-72947720D01*
X123176958Y-73101981D01*
X123176957Y-73101984D01*
X123134195Y-73224193D01*
X123116783Y-73273953D01*
X123096384Y-73455000D01*
X123116783Y-73636047D01*
X123116783Y-73636049D01*
X123116784Y-73636050D01*
X123176957Y-73808015D01*
X123176958Y-73808018D01*
X123273887Y-73962279D01*
X123273888Y-73962281D01*
X123402718Y-74091111D01*
X123402720Y-74091112D01*
X123556981Y-74188041D01*
X123556982Y-74188041D01*
X123556985Y-74188043D01*
X123728953Y-74248217D01*
X123910000Y-74268616D01*
X124091047Y-74248217D01*
X124263015Y-74188043D01*
X124417281Y-74091111D01*
X124546111Y-73962281D01*
X124643043Y-73808015D01*
X124703217Y-73636047D01*
X124708230Y-73591548D01*
X124735732Y-73526097D01*
X124744332Y-73516570D01*
X124795501Y-73465403D01*
X124857814Y-73431379D01*
X124884595Y-73428500D01*
X126456403Y-73428500D01*
X126524524Y-73448502D01*
X126571017Y-73502158D01*
X126581121Y-73572432D01*
X126551627Y-73637012D01*
X126545498Y-73643596D01*
X126408436Y-73780657D01*
X126346124Y-73814682D01*
X126333451Y-73816768D01*
X126288961Y-73821781D01*
X126288947Y-73821784D01*
X126116984Y-73881957D01*
X126116981Y-73881958D01*
X125962720Y-73978887D01*
X125962718Y-73978888D01*
X125833888Y-74107718D01*
X125833887Y-74107720D01*
X125736958Y-74261981D01*
X125736957Y-74261984D01*
X125685554Y-74408888D01*
X125676783Y-74433953D01*
X125656384Y-74615000D01*
X125676783Y-74796047D01*
X125676783Y-74796049D01*
X125676784Y-74796050D01*
X125736957Y-74968015D01*
X125736958Y-74968018D01*
X125833887Y-75122279D01*
X125833888Y-75122281D01*
X125962718Y-75251111D01*
X125962720Y-75251112D01*
X126116981Y-75348041D01*
X126116982Y-75348041D01*
X126116985Y-75348043D01*
X126288953Y-75408217D01*
X126470000Y-75428616D01*
X126651047Y-75408217D01*
X126823015Y-75348043D01*
X126977281Y-75251111D01*
X127106111Y-75122281D01*
X127203043Y-74968015D01*
X127263217Y-74796047D01*
X127268230Y-74751549D01*
X127295732Y-74686098D01*
X127304333Y-74676570D01*
X127765501Y-74215404D01*
X127827813Y-74181379D01*
X127854596Y-74178500D01*
X128412024Y-74178500D01*
X128480145Y-74198502D01*
X128526638Y-74252158D01*
X128536742Y-74322432D01*
X128507248Y-74387012D01*
X128487700Y-74403777D01*
X128488255Y-74404473D01*
X128482718Y-74408888D01*
X128353888Y-74537718D01*
X128353887Y-74537720D01*
X128256958Y-74691981D01*
X128256957Y-74691984D01*
X128201183Y-74851379D01*
X128196783Y-74863953D01*
X128176384Y-75045000D01*
X128196783Y-75226047D01*
X128196783Y-75226049D01*
X128196784Y-75226050D01*
X128235266Y-75336026D01*
X128238885Y-75406931D01*
X128203596Y-75468536D01*
X128140603Y-75501282D01*
X128126229Y-75503252D01*
X128111170Y-75504437D01*
X127951394Y-75550856D01*
X127808196Y-75635544D01*
X127808189Y-75635549D01*
X127690549Y-75753189D01*
X127690544Y-75753196D01*
X127605856Y-75896394D01*
X127559437Y-76056170D01*
X127559437Y-76056171D01*
X127556500Y-76093488D01*
X127556500Y-77976511D01*
X127559437Y-78013828D01*
X127559437Y-78013829D01*
X127605856Y-78173605D01*
X127690544Y-78316803D01*
X127690545Y-78316804D01*
X127690547Y-78316807D01*
X127694592Y-78320852D01*
X127728619Y-78383160D01*
X127731500Y-78409950D01*
X127731500Y-84230758D01*
X127711498Y-84298879D01*
X127657842Y-84345372D01*
X127616482Y-84356278D01*
X127446276Y-84371170D01*
X127446269Y-84371171D01*
X127229342Y-84429296D01*
X127229337Y-84429298D01*
X127025798Y-84524210D01*
X126841834Y-84653023D01*
X126841828Y-84653028D01*
X126683028Y-84811828D01*
X126683023Y-84811834D01*
X126554210Y-84995798D01*
X126514195Y-85081611D01*
X126467278Y-85134896D01*
X126399000Y-85154357D01*
X126331040Y-85133815D01*
X126285805Y-85081611D01*
X126278063Y-85065008D01*
X126245790Y-84995799D01*
X126116974Y-84811831D01*
X125958169Y-84653026D01*
X125954220Y-84650261D01*
X125840810Y-84570850D01*
X125774202Y-84524210D01*
X125774198Y-84524208D01*
X125570663Y-84429298D01*
X125570657Y-84429296D01*
X125353732Y-84371171D01*
X125130000Y-84351597D01*
X124906267Y-84371171D01*
X124689342Y-84429296D01*
X124689337Y-84429298D01*
X124485798Y-84524210D01*
X124301834Y-84653023D01*
X124301828Y-84653028D01*
X124143028Y-84811828D01*
X124143023Y-84811834D01*
X124014210Y-84995798D01*
X123974195Y-85081611D01*
X123927278Y-85134896D01*
X123859000Y-85154357D01*
X123791040Y-85133815D01*
X123745805Y-85081611D01*
X123738063Y-85065008D01*
X123705790Y-84995799D01*
X123576974Y-84811831D01*
X123418169Y-84653026D01*
X123414220Y-84650261D01*
X123300810Y-84570850D01*
X123234202Y-84524210D01*
X123234198Y-84524208D01*
X123030663Y-84429298D01*
X123030657Y-84429296D01*
X122813732Y-84371171D01*
X122590000Y-84351597D01*
X122366267Y-84371171D01*
X122149342Y-84429296D01*
X122149337Y-84429298D01*
X121945798Y-84524210D01*
X121761834Y-84653023D01*
X121761828Y-84653028D01*
X121603028Y-84811828D01*
X121603023Y-84811834D01*
X121474210Y-84995798D01*
X121434195Y-85081611D01*
X121387278Y-85134896D01*
X121319000Y-85154357D01*
X121251040Y-85133815D01*
X121205805Y-85081611D01*
X121198063Y-85065008D01*
X121165790Y-84995799D01*
X121036974Y-84811831D01*
X120878169Y-84653026D01*
X120874220Y-84650261D01*
X120760810Y-84570850D01*
X120694202Y-84524210D01*
X120694198Y-84524208D01*
X120490663Y-84429298D01*
X120490657Y-84429296D01*
X120273732Y-84371171D01*
X120050000Y-84351597D01*
X119826267Y-84371171D01*
X119609342Y-84429296D01*
X119609337Y-84429298D01*
X119405798Y-84524210D01*
X119221834Y-84653023D01*
X119221828Y-84653028D01*
X119063028Y-84811828D01*
X119063023Y-84811834D01*
X118934210Y-84995798D01*
X118894195Y-85081611D01*
X118847278Y-85134896D01*
X118779000Y-85154357D01*
X118711040Y-85133815D01*
X118665805Y-85081611D01*
X118658063Y-85065008D01*
X118625790Y-84995799D01*
X118496974Y-84811831D01*
X118338169Y-84653026D01*
X118334220Y-84650261D01*
X118220810Y-84570850D01*
X118154202Y-84524210D01*
X118154198Y-84524208D01*
X117950663Y-84429298D01*
X117950657Y-84429296D01*
X117733732Y-84371171D01*
X117510000Y-84351597D01*
X117286267Y-84371171D01*
X117069342Y-84429296D01*
X117069337Y-84429298D01*
X116865798Y-84524210D01*
X116681834Y-84653023D01*
X116681828Y-84653028D01*
X116523028Y-84811828D01*
X116523023Y-84811834D01*
X116394210Y-84995798D01*
X116354195Y-85081611D01*
X116307278Y-85134896D01*
X116239000Y-85154357D01*
X116171040Y-85133815D01*
X116125805Y-85081611D01*
X116118063Y-85065008D01*
X116085790Y-84995799D01*
X115956974Y-84811831D01*
X115798169Y-84653026D01*
X115794220Y-84650261D01*
X115680810Y-84570850D01*
X115614202Y-84524210D01*
X115614198Y-84524208D01*
X115410663Y-84429298D01*
X115410657Y-84429296D01*
X115193732Y-84371171D01*
X114970000Y-84351597D01*
X114746267Y-84371171D01*
X114529342Y-84429296D01*
X114529337Y-84429298D01*
X114325798Y-84524210D01*
X114141834Y-84653023D01*
X114141828Y-84653028D01*
X113983028Y-84811828D01*
X113983023Y-84811834D01*
X113854210Y-84995798D01*
X113814195Y-85081611D01*
X113767278Y-85134896D01*
X113699000Y-85154357D01*
X113631040Y-85133815D01*
X113585805Y-85081611D01*
X113578063Y-85065008D01*
X113545790Y-84995799D01*
X113416974Y-84811831D01*
X113258169Y-84653026D01*
X113254220Y-84650261D01*
X113140810Y-84570850D01*
X113074202Y-84524210D01*
X113074198Y-84524208D01*
X112870663Y-84429298D01*
X112870657Y-84429296D01*
X112653732Y-84371171D01*
X112430000Y-84351597D01*
X112206267Y-84371171D01*
X111989342Y-84429296D01*
X111989337Y-84429298D01*
X111785798Y-84524210D01*
X111601834Y-84653023D01*
X111601828Y-84653028D01*
X111443028Y-84811828D01*
X111443023Y-84811834D01*
X111314210Y-84995798D01*
X111274195Y-85081611D01*
X111227278Y-85134896D01*
X111159000Y-85154357D01*
X111091040Y-85133815D01*
X111045805Y-85081611D01*
X111038063Y-85065008D01*
X111005790Y-84995799D01*
X110876974Y-84811831D01*
X110718169Y-84653026D01*
X110714220Y-84650261D01*
X110600810Y-84570850D01*
X110534202Y-84524210D01*
X110534198Y-84524208D01*
X110330663Y-84429298D01*
X110330657Y-84429296D01*
X110113732Y-84371171D01*
X109890000Y-84351597D01*
X109666267Y-84371171D01*
X109449342Y-84429296D01*
X109449337Y-84429298D01*
X109245798Y-84524210D01*
X109061834Y-84653023D01*
X109061828Y-84653028D01*
X108903028Y-84811828D01*
X108903023Y-84811834D01*
X108774210Y-84995798D01*
X108734195Y-85081611D01*
X108687278Y-85134896D01*
X108619000Y-85154357D01*
X108551040Y-85133815D01*
X108505805Y-85081611D01*
X108498063Y-85065008D01*
X108465790Y-84995799D01*
X108336974Y-84811831D01*
X108178169Y-84653026D01*
X108174220Y-84650261D01*
X108060810Y-84570850D01*
X107994202Y-84524210D01*
X107994198Y-84524208D01*
X107790663Y-84429298D01*
X107790657Y-84429296D01*
X107573732Y-84371171D01*
X107350000Y-84351597D01*
X107126267Y-84371171D01*
X106909342Y-84429296D01*
X106909337Y-84429298D01*
X106705798Y-84524210D01*
X106521834Y-84653023D01*
X106521828Y-84653028D01*
X106363028Y-84811828D01*
X106363023Y-84811834D01*
X106234210Y-84995798D01*
X106194195Y-85081611D01*
X106147278Y-85134896D01*
X106079000Y-85154357D01*
X106011040Y-85133815D01*
X105965805Y-85081611D01*
X105958063Y-85065008D01*
X105925790Y-84995799D01*
X105796974Y-84811831D01*
X105638169Y-84653026D01*
X105634220Y-84650261D01*
X105520810Y-84570850D01*
X105454202Y-84524210D01*
X105454198Y-84524208D01*
X105250663Y-84429298D01*
X105250657Y-84429296D01*
X105033732Y-84371171D01*
X104810000Y-84351597D01*
X104586267Y-84371171D01*
X104369342Y-84429296D01*
X104369337Y-84429298D01*
X104165798Y-84524210D01*
X104045116Y-84608713D01*
X103977842Y-84631401D01*
X103972845Y-84631500D01*
X103424500Y-84631500D01*
X103356379Y-84611498D01*
X103309886Y-84557842D01*
X103298500Y-84505500D01*
X103298500Y-79434500D01*
X103318502Y-79366379D01*
X103372158Y-79319886D01*
X103424500Y-79308500D01*
X103652212Y-79308500D01*
X103720333Y-79328502D01*
X103727698Y-79333615D01*
X103805433Y-79391807D01*
X103824725Y-79406249D01*
X103961724Y-79457348D01*
X103961732Y-79457350D01*
X104022279Y-79463859D01*
X104022284Y-79463859D01*
X104022291Y-79463860D01*
X104022297Y-79463860D01*
X106469561Y-79463860D01*
X106469567Y-79463860D01*
X106469574Y-79463859D01*
X106469578Y-79463859D01*
X106530125Y-79457350D01*
X106530128Y-79457349D01*
X106530130Y-79457349D01*
X106667133Y-79406249D01*
X106686426Y-79391806D01*
X106752943Y-79366994D01*
X106822318Y-79382083D01*
X106872522Y-79432284D01*
X106887929Y-79491300D01*
X106889486Y-79634127D01*
X106870227Y-79702461D01*
X106817082Y-79749536D01*
X106763493Y-79761500D01*
X104915990Y-79761500D01*
X104827267Y-79771039D01*
X104806851Y-79773234D01*
X104806848Y-79773234D01*
X104806844Y-79773235D01*
X104806840Y-79773235D01*
X104754519Y-79784617D01*
X104754498Y-79784623D01*
X104650345Y-79819288D01*
X104574839Y-79867813D01*
X104527804Y-79898041D01*
X104527385Y-79898310D01*
X104476299Y-79942576D01*
X104474080Y-79944395D01*
X104378019Y-80055258D01*
X104378017Y-80055261D01*
X104317301Y-80188210D01*
X104297302Y-80256322D01*
X104297300Y-80256329D01*
X104288980Y-80314198D01*
X104278046Y-80390253D01*
X104276500Y-80401003D01*
X104276500Y-82609368D01*
X104288075Y-82717781D01*
X104299310Y-82769793D01*
X104333516Y-82873323D01*
X104333519Y-82873330D01*
X104412178Y-82996514D01*
X104455731Y-83047073D01*
X104457140Y-83048825D01*
X104458507Y-83050296D01*
X104458513Y-83050303D01*
X104458516Y-83050307D01*
X104568696Y-83146340D01*
X104701468Y-83207443D01*
X104701473Y-83207444D01*
X104701477Y-83207446D01*
X104769521Y-83227641D01*
X104769525Y-83227641D01*
X104769530Y-83227643D01*
X104914134Y-83248864D01*
X104914132Y-83248864D01*
X104977945Y-83249050D01*
X115530786Y-83279840D01*
X115641621Y-83268067D01*
X115694750Y-83256489D01*
X115800433Y-83221078D01*
X115923099Y-83141611D01*
X115976585Y-83094922D01*
X115976590Y-83094917D01*
X116071898Y-82984108D01*
X116132126Y-82850937D01*
X116151878Y-82782744D01*
X116172148Y-82638003D01*
X116164677Y-80596650D01*
X116184429Y-80528460D01*
X116237915Y-80481771D01*
X116308151Y-80471410D01*
X116332283Y-80477260D01*
X116448654Y-80517981D01*
X116531296Y-80527292D01*
X116586390Y-80533500D01*
X116586392Y-80533500D01*
X120003610Y-80533500D01*
X120072477Y-80525740D01*
X120141346Y-80517981D01*
X120315973Y-80456876D01*
X120472624Y-80358445D01*
X120603445Y-80227624D01*
X120701876Y-80070973D01*
X120762981Y-79896346D01*
X120778500Y-79758608D01*
X120778500Y-79758581D01*
X121862000Y-79758581D01*
X121877511Y-79896236D01*
X121938576Y-80070753D01*
X121938577Y-80070754D01*
X122036947Y-80227311D01*
X122167688Y-80358052D01*
X122324245Y-80456422D01*
X122324246Y-80456423D01*
X122498763Y-80517488D01*
X122636419Y-80533000D01*
X124091000Y-80533000D01*
X124599000Y-80533000D01*
X126053581Y-80533000D01*
X126191236Y-80517488D01*
X126365753Y-80456423D01*
X126365754Y-80456422D01*
X126522311Y-80358052D01*
X126653052Y-80227311D01*
X126751422Y-80070754D01*
X126751423Y-80070753D01*
X126812488Y-79896236D01*
X126828000Y-79758581D01*
X126828000Y-79279000D01*
X124599000Y-79279000D01*
X124599000Y-80533000D01*
X124091000Y-80533000D01*
X124091000Y-79279000D01*
X121862000Y-79279000D01*
X121862000Y-79758581D01*
X120778500Y-79758581D01*
X120778500Y-78291418D01*
X121862000Y-78291418D01*
X121862000Y-78771000D01*
X124091000Y-78771000D01*
X124599000Y-78771000D01*
X126828000Y-78771000D01*
X126828000Y-78291418D01*
X126812488Y-78153763D01*
X126751423Y-77979246D01*
X126751422Y-77979245D01*
X126653052Y-77822688D01*
X126522311Y-77691947D01*
X126365754Y-77593577D01*
X126365753Y-77593576D01*
X126191236Y-77532511D01*
X126053581Y-77517000D01*
X124599000Y-77517000D01*
X124599000Y-78771000D01*
X124091000Y-78771000D01*
X124091000Y-77517000D01*
X122636419Y-77517000D01*
X122498763Y-77532511D01*
X122324246Y-77593576D01*
X122324245Y-77593577D01*
X122167688Y-77691947D01*
X122036947Y-77822688D01*
X121938577Y-77979245D01*
X121938576Y-77979246D01*
X121877511Y-78153763D01*
X121862000Y-78291418D01*
X120778500Y-78291418D01*
X120778500Y-78291392D01*
X120762981Y-78153654D01*
X120701876Y-77979027D01*
X120603445Y-77822376D01*
X120603443Y-77822374D01*
X120603442Y-77822372D01*
X120472627Y-77691557D01*
X120315972Y-77593123D01*
X120178683Y-77545084D01*
X120141346Y-77532019D01*
X120141344Y-77532018D01*
X120141345Y-77532018D01*
X120003610Y-77516500D01*
X120003608Y-77516500D01*
X119554500Y-77516500D01*
X119486379Y-77496498D01*
X119439886Y-77442842D01*
X119428500Y-77390500D01*
X119428500Y-71938472D01*
X119448502Y-71870351D01*
X119502158Y-71823858D01*
X119572432Y-71813754D01*
X119621536Y-71831785D01*
G37*
%TD.AperFunction*%
%TA.AperFunction,Conductor*%
G36*
X174196038Y-78758502D02*
G01*
X174206808Y-78767182D01*
X174207191Y-78766703D01*
X174212720Y-78771112D01*
X174366981Y-78868041D01*
X174366982Y-78868041D01*
X174366985Y-78868043D01*
X174538953Y-78928217D01*
X174667145Y-78942660D01*
X174732597Y-78970164D01*
X174772789Y-79028688D01*
X174774962Y-79099651D01*
X174742132Y-79156963D01*
X174114501Y-79784595D01*
X174052188Y-79818620D01*
X174025405Y-79821500D01*
X171147603Y-79821500D01*
X171074568Y-79836028D01*
X171025215Y-79845845D01*
X171025213Y-79845845D01*
X171025212Y-79845846D01*
X170909923Y-79893601D01*
X170806171Y-79962926D01*
X170806164Y-79962931D01*
X166577931Y-84191164D01*
X166577926Y-84191171D01*
X166508599Y-84294925D01*
X166508599Y-84294926D01*
X166464087Y-84402384D01*
X166419538Y-84457664D01*
X166352174Y-84480084D01*
X166294429Y-84468359D01*
X166210663Y-84429298D01*
X166210657Y-84429296D01*
X165993732Y-84371171D01*
X165770000Y-84351597D01*
X165546267Y-84371171D01*
X165329342Y-84429296D01*
X165329337Y-84429298D01*
X165125798Y-84524210D01*
X164941834Y-84653023D01*
X164941828Y-84653028D01*
X164783028Y-84811828D01*
X164783023Y-84811834D01*
X164654210Y-84995798D01*
X164614195Y-85081611D01*
X164567278Y-85134896D01*
X164499000Y-85154357D01*
X164431040Y-85133815D01*
X164385805Y-85081611D01*
X164378063Y-85065008D01*
X164345790Y-84995799D01*
X164216974Y-84811831D01*
X164058169Y-84653026D01*
X164054220Y-84650261D01*
X163940810Y-84570850D01*
X163874202Y-84524210D01*
X163874198Y-84524208D01*
X163670663Y-84429298D01*
X163670657Y-84429296D01*
X163453732Y-84371171D01*
X163230000Y-84351597D01*
X163006267Y-84371171D01*
X162789342Y-84429296D01*
X162789337Y-84429298D01*
X162585798Y-84524210D01*
X162401834Y-84653023D01*
X162401828Y-84653028D01*
X162243028Y-84811828D01*
X162243023Y-84811834D01*
X162114210Y-84995798D01*
X162074195Y-85081611D01*
X162027278Y-85134896D01*
X161959000Y-85154357D01*
X161891040Y-85133815D01*
X161845805Y-85081611D01*
X161838063Y-85065008D01*
X161805790Y-84995799D01*
X161676974Y-84811831D01*
X161518169Y-84653026D01*
X161514220Y-84650261D01*
X161400810Y-84570850D01*
X161334202Y-84524210D01*
X161334198Y-84524208D01*
X161130663Y-84429298D01*
X161130657Y-84429296D01*
X160913732Y-84371171D01*
X160690000Y-84351597D01*
X160466267Y-84371171D01*
X160249342Y-84429296D01*
X160249337Y-84429298D01*
X160045798Y-84524210D01*
X159861834Y-84653023D01*
X159861828Y-84653028D01*
X159703028Y-84811828D01*
X159703023Y-84811834D01*
X159574210Y-84995798D01*
X159534195Y-85081611D01*
X159487278Y-85134896D01*
X159419000Y-85154357D01*
X159351040Y-85133815D01*
X159305805Y-85081611D01*
X159298063Y-85065008D01*
X159265790Y-84995799D01*
X159136974Y-84811831D01*
X158978169Y-84653026D01*
X158974220Y-84650261D01*
X158860810Y-84570850D01*
X158794202Y-84524210D01*
X158794198Y-84524208D01*
X158590663Y-84429298D01*
X158590657Y-84429296D01*
X158373732Y-84371171D01*
X158150000Y-84351597D01*
X157926267Y-84371171D01*
X157709342Y-84429296D01*
X157709337Y-84429298D01*
X157505798Y-84524210D01*
X157321834Y-84653023D01*
X157321828Y-84653028D01*
X157163028Y-84811828D01*
X157163023Y-84811834D01*
X157034210Y-84995798D01*
X156994195Y-85081611D01*
X156947278Y-85134896D01*
X156879000Y-85154357D01*
X156811040Y-85133815D01*
X156765805Y-85081611D01*
X156758063Y-85065008D01*
X156725790Y-84995799D01*
X156596974Y-84811831D01*
X156438169Y-84653026D01*
X156434220Y-84650261D01*
X156320810Y-84570850D01*
X156254202Y-84524210D01*
X156254198Y-84524208D01*
X156050663Y-84429298D01*
X156050657Y-84429296D01*
X155833732Y-84371171D01*
X155610000Y-84351597D01*
X155386267Y-84371171D01*
X155169342Y-84429296D01*
X155169337Y-84429298D01*
X154965798Y-84524210D01*
X154781834Y-84653023D01*
X154781828Y-84653028D01*
X154623028Y-84811828D01*
X154623023Y-84811834D01*
X154494210Y-84995798D01*
X154454195Y-85081611D01*
X154407278Y-85134896D01*
X154339000Y-85154357D01*
X154271040Y-85133815D01*
X154225805Y-85081611D01*
X154218063Y-85065008D01*
X154185790Y-84995799D01*
X154056974Y-84811831D01*
X153898169Y-84653026D01*
X153894220Y-84650261D01*
X153780810Y-84570850D01*
X153714202Y-84524210D01*
X153714198Y-84524208D01*
X153510663Y-84429298D01*
X153510657Y-84429296D01*
X153293732Y-84371171D01*
X153070000Y-84351597D01*
X152846267Y-84371171D01*
X152629342Y-84429296D01*
X152629337Y-84429298D01*
X152425798Y-84524210D01*
X152241834Y-84653023D01*
X152241828Y-84653028D01*
X152083028Y-84811828D01*
X152083023Y-84811834D01*
X151954210Y-84995798D01*
X151914195Y-85081611D01*
X151867278Y-85134896D01*
X151799000Y-85154357D01*
X151731040Y-85133815D01*
X151685805Y-85081611D01*
X151678063Y-85065008D01*
X151645790Y-84995799D01*
X151516974Y-84811831D01*
X151358169Y-84653026D01*
X151354220Y-84650261D01*
X151240810Y-84570850D01*
X151174202Y-84524210D01*
X151174198Y-84524208D01*
X150970663Y-84429298D01*
X150970657Y-84429296D01*
X150753732Y-84371171D01*
X150530000Y-84351597D01*
X150306267Y-84371171D01*
X150089342Y-84429296D01*
X150089337Y-84429298D01*
X149885798Y-84524210D01*
X149701834Y-84653023D01*
X149701828Y-84653028D01*
X149543028Y-84811828D01*
X149543023Y-84811834D01*
X149414210Y-84995798D01*
X149374195Y-85081611D01*
X149327278Y-85134896D01*
X149259000Y-85154357D01*
X149191040Y-85133815D01*
X149145805Y-85081611D01*
X149138063Y-85065008D01*
X149105790Y-84995799D01*
X148976974Y-84811831D01*
X148818169Y-84653026D01*
X148814220Y-84650261D01*
X148700810Y-84570850D01*
X148634202Y-84524210D01*
X148634198Y-84524208D01*
X148430663Y-84429298D01*
X148430657Y-84429296D01*
X148213732Y-84371171D01*
X147990000Y-84351597D01*
X147766267Y-84371171D01*
X147549342Y-84429296D01*
X147549337Y-84429298D01*
X147345798Y-84524210D01*
X147161834Y-84653023D01*
X147161828Y-84653028D01*
X147003028Y-84811828D01*
X147003023Y-84811834D01*
X146874210Y-84995798D01*
X146834195Y-85081611D01*
X146787278Y-85134896D01*
X146719000Y-85154357D01*
X146651040Y-85133815D01*
X146605805Y-85081611D01*
X146598063Y-85065008D01*
X146565790Y-84995799D01*
X146436974Y-84811831D01*
X146278169Y-84653026D01*
X146274220Y-84650261D01*
X146160810Y-84570850D01*
X146094202Y-84524210D01*
X146094198Y-84524208D01*
X145890663Y-84429298D01*
X145890657Y-84429296D01*
X145673732Y-84371171D01*
X145450000Y-84351597D01*
X145226267Y-84371171D01*
X145009342Y-84429296D01*
X145009337Y-84429298D01*
X144805798Y-84524210D01*
X144621834Y-84653023D01*
X144621828Y-84653028D01*
X144463028Y-84811828D01*
X144463023Y-84811834D01*
X144334210Y-84995798D01*
X144294195Y-85081611D01*
X144247278Y-85134896D01*
X144179000Y-85154357D01*
X144111040Y-85133815D01*
X144065805Y-85081611D01*
X144058063Y-85065008D01*
X144025790Y-84995799D01*
X143896974Y-84811831D01*
X143738169Y-84653026D01*
X143734220Y-84650261D01*
X143620810Y-84570850D01*
X143554202Y-84524210D01*
X143554198Y-84524208D01*
X143350663Y-84429298D01*
X143350657Y-84429296D01*
X143133732Y-84371171D01*
X142910000Y-84351597D01*
X142686267Y-84371171D01*
X142469342Y-84429296D01*
X142469337Y-84429298D01*
X142265798Y-84524210D01*
X142081834Y-84653023D01*
X142081828Y-84653028D01*
X141923028Y-84811828D01*
X141923023Y-84811834D01*
X141794210Y-84995798D01*
X141754195Y-85081611D01*
X141707278Y-85134896D01*
X141639000Y-85154357D01*
X141571040Y-85133815D01*
X141525805Y-85081611D01*
X141518063Y-85065008D01*
X141485790Y-84995799D01*
X141356974Y-84811831D01*
X141198169Y-84653026D01*
X141194220Y-84650261D01*
X141080810Y-84570850D01*
X141014202Y-84524210D01*
X141014198Y-84524208D01*
X140810663Y-84429298D01*
X140810657Y-84429296D01*
X140593732Y-84371171D01*
X140370000Y-84351597D01*
X140146267Y-84371171D01*
X139929342Y-84429296D01*
X139929337Y-84429298D01*
X139725798Y-84524210D01*
X139541834Y-84653023D01*
X139541828Y-84653028D01*
X139383028Y-84811828D01*
X139383023Y-84811834D01*
X139254210Y-84995798D01*
X139214195Y-85081611D01*
X139167278Y-85134896D01*
X139099000Y-85154357D01*
X139031040Y-85133815D01*
X138985805Y-85081611D01*
X138978063Y-85065008D01*
X138945790Y-84995799D01*
X138816974Y-84811831D01*
X138658169Y-84653026D01*
X138654220Y-84650261D01*
X138540810Y-84570850D01*
X138474202Y-84524210D01*
X138474198Y-84524208D01*
X138270663Y-84429298D01*
X138270657Y-84429296D01*
X138053732Y-84371171D01*
X137830000Y-84351597D01*
X137606267Y-84371171D01*
X137389342Y-84429296D01*
X137389337Y-84429298D01*
X137185798Y-84524210D01*
X137001834Y-84653023D01*
X137001828Y-84653028D01*
X136843028Y-84811828D01*
X136843023Y-84811834D01*
X136714210Y-84995798D01*
X136674195Y-85081611D01*
X136627278Y-85134896D01*
X136559000Y-85154357D01*
X136491040Y-85133815D01*
X136445805Y-85081611D01*
X136438063Y-85065008D01*
X136405790Y-84995799D01*
X136276974Y-84811831D01*
X136118169Y-84653026D01*
X136114220Y-84650261D01*
X136000810Y-84570850D01*
X135934202Y-84524210D01*
X135934198Y-84524208D01*
X135730663Y-84429298D01*
X135730657Y-84429296D01*
X135513732Y-84371171D01*
X135290000Y-84351597D01*
X135066267Y-84371171D01*
X134849342Y-84429296D01*
X134849337Y-84429298D01*
X134645798Y-84524210D01*
X134461834Y-84653023D01*
X134461828Y-84653028D01*
X134303028Y-84811828D01*
X134303023Y-84811834D01*
X134174210Y-84995798D01*
X134134195Y-85081611D01*
X134087278Y-85134896D01*
X134019000Y-85154357D01*
X133951040Y-85133815D01*
X133905805Y-85081611D01*
X133898063Y-85065008D01*
X133865790Y-84995799D01*
X133736974Y-84811831D01*
X133578169Y-84653026D01*
X133574220Y-84650261D01*
X133460810Y-84570850D01*
X133394202Y-84524210D01*
X133394198Y-84524208D01*
X133190663Y-84429298D01*
X133190657Y-84429296D01*
X132973732Y-84371171D01*
X132750000Y-84351597D01*
X132526267Y-84371171D01*
X132309342Y-84429296D01*
X132309337Y-84429298D01*
X132105798Y-84524210D01*
X131921834Y-84653023D01*
X131921828Y-84653028D01*
X131763028Y-84811828D01*
X131763023Y-84811834D01*
X131634210Y-84995798D01*
X131594195Y-85081611D01*
X131547278Y-85134896D01*
X131479000Y-85154357D01*
X131411040Y-85133815D01*
X131365805Y-85081611D01*
X131358063Y-85065008D01*
X131325790Y-84995799D01*
X131196974Y-84811831D01*
X131038169Y-84653026D01*
X131034220Y-84650261D01*
X130920810Y-84570850D01*
X130854202Y-84524210D01*
X130854198Y-84524208D01*
X130650663Y-84429298D01*
X130650657Y-84429296D01*
X130433732Y-84371171D01*
X130210000Y-84351597D01*
X129986267Y-84371171D01*
X129769342Y-84429296D01*
X129769337Y-84429298D01*
X129565799Y-84524209D01*
X129522978Y-84554193D01*
X129455703Y-84576880D01*
X129386843Y-84559594D01*
X129361613Y-84540074D01*
X129035405Y-84213866D01*
X129001379Y-84151554D01*
X128998500Y-84124771D01*
X128998500Y-80113594D01*
X129018502Y-80045473D01*
X129072158Y-79998980D01*
X129142432Y-79988876D01*
X129207012Y-80018370D01*
X129213595Y-80024499D01*
X133007929Y-83818833D01*
X133096167Y-83907071D01*
X133199925Y-83976400D01*
X133315215Y-84024155D01*
X133437606Y-84048500D01*
X133437607Y-84048500D01*
X156532393Y-84048500D01*
X156532394Y-84048500D01*
X156654785Y-84024155D01*
X156770075Y-83976400D01*
X156873833Y-83907071D01*
X157011563Y-83769340D01*
X157073871Y-83735318D01*
X157086539Y-83733231D01*
X157131047Y-83728217D01*
X157303015Y-83668043D01*
X157457281Y-83571111D01*
X157586111Y-83442281D01*
X157683043Y-83288015D01*
X157743217Y-83116047D01*
X157763616Y-82935000D01*
X157743217Y-82753953D01*
X157683043Y-82581985D01*
X157683041Y-82581982D01*
X157683041Y-82581981D01*
X157586112Y-82427720D01*
X157586111Y-82427718D01*
X157457281Y-82298888D01*
X157457279Y-82298887D01*
X157303018Y-82201958D01*
X157303015Y-82201957D01*
X157131050Y-82141784D01*
X157131049Y-82141783D01*
X157131047Y-82141783D01*
X156950000Y-82121384D01*
X156768953Y-82141783D01*
X156768950Y-82141783D01*
X156768949Y-82141784D01*
X156596984Y-82201957D01*
X156596981Y-82201958D01*
X156442720Y-82298887D01*
X156442718Y-82298888D01*
X156313888Y-82427718D01*
X156313887Y-82427720D01*
X156216958Y-82581981D01*
X156216957Y-82581984D01*
X156176671Y-82697115D01*
X156135293Y-82754807D01*
X156069292Y-82780969D01*
X156057742Y-82781500D01*
X150225259Y-82781500D01*
X150157138Y-82761498D01*
X150110645Y-82707842D01*
X150100051Y-82669607D01*
X150096490Y-82638003D01*
X150093217Y-82608953D01*
X150033043Y-82436985D01*
X150033041Y-82436982D01*
X150033041Y-82436981D01*
X149936112Y-82282720D01*
X149936111Y-82282718D01*
X149807281Y-82153888D01*
X149807279Y-82153887D01*
X149653018Y-82056958D01*
X149653015Y-82056957D01*
X149481050Y-81996784D01*
X149481049Y-81996783D01*
X149481047Y-81996783D01*
X149300000Y-81976384D01*
X149118953Y-81996783D01*
X149118950Y-81996783D01*
X149118949Y-81996784D01*
X148946984Y-82056957D01*
X148938663Y-82062186D01*
X148871625Y-82081500D01*
X137314595Y-82081500D01*
X137246474Y-82061498D01*
X137225500Y-82044595D01*
X136033835Y-80852931D01*
X136033833Y-80852929D01*
X135930075Y-80783600D01*
X135814785Y-80735845D01*
X135741086Y-80721185D01*
X135692396Y-80711500D01*
X135692394Y-80711500D01*
X133904594Y-80711500D01*
X133836473Y-80691498D01*
X133815499Y-80674595D01*
X133544499Y-80403595D01*
X133510473Y-80341283D01*
X133515538Y-80270468D01*
X133558085Y-80213632D01*
X133624605Y-80188821D01*
X133633594Y-80188500D01*
X133687394Y-80188500D01*
X142825405Y-80188500D01*
X142893526Y-80208502D01*
X142914500Y-80225404D01*
X143166358Y-80477263D01*
X143406927Y-80717832D01*
X143440952Y-80780144D01*
X143443038Y-80792817D01*
X143446781Y-80826038D01*
X143446784Y-80826052D01*
X143506957Y-80998015D01*
X143506958Y-80998018D01*
X143603887Y-81152279D01*
X143603888Y-81152281D01*
X143732718Y-81281111D01*
X143732720Y-81281112D01*
X143886981Y-81378041D01*
X143886982Y-81378041D01*
X143886985Y-81378043D01*
X144058953Y-81438217D01*
X144240000Y-81458616D01*
X144421047Y-81438217D01*
X144593015Y-81378043D01*
X144747281Y-81281111D01*
X144876111Y-81152281D01*
X144973043Y-80998015D01*
X145006369Y-80902773D01*
X145047746Y-80845085D01*
X145113746Y-80818922D01*
X145183413Y-80832594D01*
X145214392Y-80855296D01*
X145792929Y-81433833D01*
X145881167Y-81522071D01*
X145984925Y-81591400D01*
X146100215Y-81639155D01*
X146222606Y-81663500D01*
X146222607Y-81663500D01*
X167747393Y-81663500D01*
X167747394Y-81663500D01*
X167869785Y-81639155D01*
X167985075Y-81591400D01*
X168088833Y-81522071D01*
X170205499Y-79405405D01*
X170267811Y-79371379D01*
X170294594Y-79368500D01*
X171672263Y-79368500D01*
X171739299Y-79387813D01*
X171831657Y-79445845D01*
X171866985Y-79468043D01*
X172038953Y-79528217D01*
X172220000Y-79548616D01*
X172401047Y-79528217D01*
X172573015Y-79468043D01*
X172727281Y-79371111D01*
X172856111Y-79242281D01*
X172953043Y-79088015D01*
X173013217Y-78916047D01*
X173020614Y-78850389D01*
X173048118Y-78784939D01*
X173106642Y-78744746D01*
X173145822Y-78738500D01*
X174127917Y-78738500D01*
X174196038Y-78758502D01*
G37*
%TD.AperFunction*%
%TA.AperFunction,Conductor*%
G36*
X156076778Y-78758502D02*
G01*
X156123271Y-78812158D01*
X156133864Y-78878606D01*
X156126384Y-78945000D01*
X156146783Y-79126047D01*
X156146783Y-79126049D01*
X156146784Y-79126050D01*
X156206957Y-79298015D01*
X156206958Y-79298018D01*
X156303887Y-79452279D01*
X156303888Y-79452281D01*
X156432718Y-79581111D01*
X156432720Y-79581112D01*
X156586981Y-79678041D01*
X156586982Y-79678041D01*
X156586985Y-79678043D01*
X156758953Y-79738217D01*
X156758958Y-79738217D01*
X156758960Y-79738218D01*
X156809667Y-79743930D01*
X156841375Y-79747503D01*
X156897273Y-79767947D01*
X156909925Y-79776401D01*
X156969582Y-79801111D01*
X157025215Y-79824155D01*
X157147606Y-79848500D01*
X157147607Y-79848500D01*
X157272394Y-79848500D01*
X162211838Y-79848500D01*
X162278873Y-79867812D01*
X162326985Y-79898043D01*
X162498953Y-79958217D01*
X162680000Y-79978616D01*
X162861047Y-79958217D01*
X163033015Y-79898043D01*
X163187281Y-79801111D01*
X163316111Y-79672281D01*
X163413043Y-79518015D01*
X163473217Y-79346047D01*
X163493616Y-79165000D01*
X163473217Y-78983953D01*
X163445979Y-78906113D01*
X163442360Y-78835211D01*
X163477649Y-78773606D01*
X163540643Y-78740859D01*
X163564909Y-78738500D01*
X167241404Y-78738500D01*
X167309525Y-78758502D01*
X167356018Y-78812158D01*
X167366122Y-78882432D01*
X167336628Y-78947012D01*
X167330505Y-78953589D01*
X167031817Y-79252279D01*
X166899501Y-79384595D01*
X166837188Y-79418620D01*
X166810405Y-79421500D01*
X165307603Y-79421500D01*
X165185214Y-79445845D01*
X165185209Y-79445847D01*
X165069925Y-79493599D01*
X164966166Y-79562928D01*
X164961377Y-79566859D01*
X164960010Y-79565193D01*
X164906253Y-79594529D01*
X164893610Y-79596610D01*
X164841347Y-79602499D01*
X164758953Y-79611783D01*
X164758950Y-79611783D01*
X164758949Y-79611784D01*
X164586984Y-79671957D01*
X164586981Y-79671958D01*
X164432720Y-79768887D01*
X164432718Y-79768888D01*
X164303888Y-79897718D01*
X164303887Y-79897720D01*
X164206958Y-80051981D01*
X164206957Y-80051984D01*
X164146782Y-80223954D01*
X164139949Y-80284607D01*
X164112446Y-80350060D01*
X164053922Y-80390253D01*
X164014741Y-80396500D01*
X146599594Y-80396500D01*
X146531473Y-80376498D01*
X146510499Y-80359595D01*
X146374499Y-80223595D01*
X146340473Y-80161283D01*
X146345538Y-80090468D01*
X146388085Y-80033632D01*
X146454605Y-80008821D01*
X146463594Y-80008500D01*
X149662393Y-80008500D01*
X149662394Y-80008500D01*
X149784785Y-79984155D01*
X149900075Y-79936400D01*
X150003833Y-79867071D01*
X151095499Y-78775405D01*
X151157811Y-78741379D01*
X151184594Y-78738500D01*
X156008657Y-78738500D01*
X156076778Y-78758502D01*
G37*
%TD.AperFunction*%
%TA.AperFunction,Conductor*%
G36*
X123319248Y-64771002D02*
G01*
X123340222Y-64787905D01*
X123466341Y-64914024D01*
X123466347Y-64914029D01*
X123466348Y-64914030D01*
X123617262Y-65007115D01*
X123785574Y-65062887D01*
X123889455Y-65073500D01*
X125290544Y-65073499D01*
X125394426Y-65062887D01*
X125562738Y-65007115D01*
X125713652Y-64914030D01*
X125758667Y-64869015D01*
X125839778Y-64787905D01*
X125902090Y-64753879D01*
X125928873Y-64751000D01*
X127430500Y-64751000D01*
X127498621Y-64771002D01*
X127545114Y-64824658D01*
X127555860Y-64874059D01*
X127556106Y-64874049D01*
X127556305Y-64874034D01*
X127556305Y-64874041D01*
X127556403Y-64874038D01*
X127556500Y-64876511D01*
X127559437Y-64913828D01*
X127559437Y-64913829D01*
X127575512Y-64969158D01*
X127601038Y-65057021D01*
X127601497Y-65058599D01*
X127606500Y-65093752D01*
X127606500Y-65264706D01*
X127608269Y-65273600D01*
X127628803Y-65376830D01*
X127635649Y-65411247D01*
X127635650Y-65411250D01*
X127647726Y-65440404D01*
X127692826Y-65549284D01*
X127775834Y-65673515D01*
X129926485Y-67824166D01*
X130050716Y-67907174D01*
X130188754Y-67964351D01*
X130335294Y-67993500D01*
X130335295Y-67993500D01*
X130484705Y-67993500D01*
X138146802Y-67993500D01*
X138214923Y-68013502D01*
X138235897Y-68030405D01*
X138469658Y-68264166D01*
X138593889Y-68347174D01*
X138731926Y-68404351D01*
X138773427Y-68412606D01*
X138878467Y-68433500D01*
X138878468Y-68433500D01*
X139027878Y-68433500D01*
X153509620Y-68433500D01*
X153577741Y-68453502D01*
X153616860Y-68493352D01*
X153650968Y-68548650D01*
X153650975Y-68548658D01*
X153776341Y-68674024D01*
X153776347Y-68674029D01*
X153776348Y-68674030D01*
X153860353Y-68725845D01*
X153919879Y-68762561D01*
X153967357Y-68815347D01*
X153978760Y-68885422D01*
X153972662Y-68911416D01*
X153936783Y-69013952D01*
X153916384Y-69195000D01*
X153936783Y-69376047D01*
X153990262Y-69528882D01*
X153993880Y-69599786D01*
X153958591Y-69661391D01*
X153933262Y-69678746D01*
X153933721Y-69679490D01*
X153776660Y-69776365D01*
X153776654Y-69776370D01*
X153651370Y-69901654D01*
X153651365Y-69901660D01*
X153558342Y-70052474D01*
X153502606Y-70220678D01*
X153502605Y-70220681D01*
X153492000Y-70324483D01*
X153492000Y-70533500D01*
X156232917Y-70533500D01*
X156301038Y-70553502D01*
X156322012Y-70570405D01*
X156422718Y-70671111D01*
X156422720Y-70671112D01*
X156576981Y-70768041D01*
X156576982Y-70768041D01*
X156576985Y-70768043D01*
X156748953Y-70828217D01*
X156930000Y-70848616D01*
X157111047Y-70828217D01*
X157283015Y-70768043D01*
X157317150Y-70746593D01*
X157385471Y-70727288D01*
X157453384Y-70747983D01*
X157473282Y-70764186D01*
X159095501Y-72386405D01*
X159129527Y-72448717D01*
X159124462Y-72519532D01*
X159081915Y-72576368D01*
X159015395Y-72601179D01*
X159006406Y-72601500D01*
X157366350Y-72601500D01*
X157305803Y-72608009D01*
X157305795Y-72608011D01*
X157168797Y-72659110D01*
X157168792Y-72659112D01*
X157051738Y-72746738D01*
X156964112Y-72863792D01*
X156964110Y-72863797D01*
X156913011Y-73000795D01*
X156913009Y-73000803D01*
X156906500Y-73061350D01*
X156906500Y-75558649D01*
X156913009Y-75619196D01*
X156913011Y-75619204D01*
X156964110Y-75756202D01*
X156964112Y-75756207D01*
X157051738Y-75873261D01*
X157168792Y-75960887D01*
X157168794Y-75960888D01*
X157168796Y-75960889D01*
X157227875Y-75982924D01*
X157305795Y-76011988D01*
X157305803Y-76011990D01*
X157366350Y-76018499D01*
X157366355Y-76018499D01*
X157366362Y-76018500D01*
X158055406Y-76018500D01*
X158123527Y-76038502D01*
X158144501Y-76055405D01*
X158710501Y-76621405D01*
X158744527Y-76683717D01*
X158739462Y-76754532D01*
X158696915Y-76811368D01*
X158630395Y-76836179D01*
X158621406Y-76836500D01*
X149612603Y-76836500D01*
X149539568Y-76851028D01*
X149490215Y-76860845D01*
X149490213Y-76860845D01*
X149490212Y-76860846D01*
X149422675Y-76888821D01*
X149391907Y-76901566D01*
X149374923Y-76908601D01*
X149271171Y-76977926D01*
X149271164Y-76977931D01*
X149230475Y-77018621D01*
X149196167Y-77052929D01*
X149162717Y-77086379D01*
X149107930Y-77141165D01*
X149107923Y-77141174D01*
X149094680Y-77160992D01*
X149079014Y-77180080D01*
X148630487Y-77628609D01*
X148438096Y-77821000D01*
X148375783Y-77855025D01*
X148304968Y-77849961D01*
X148248132Y-77807414D01*
X148223321Y-77740894D01*
X148223000Y-77731905D01*
X148223000Y-77289000D01*
X147287000Y-77289000D01*
X147218879Y-77268998D01*
X147172386Y-77215342D01*
X147161000Y-77163000D01*
X147161000Y-76781000D01*
X147669000Y-76781000D01*
X148222999Y-76781000D01*
X148222999Y-76093543D01*
X148220065Y-76056249D01*
X148173681Y-75896599D01*
X148089051Y-75753498D01*
X148089050Y-75753496D01*
X147971503Y-75635949D01*
X147971501Y-75635948D01*
X147828401Y-75551318D01*
X147669000Y-75505007D01*
X147669000Y-76781000D01*
X147161000Y-76781000D01*
X147161000Y-75505007D01*
X147001598Y-75551318D01*
X146858499Y-75635946D01*
X146857639Y-75636614D01*
X146856840Y-75636927D01*
X146851679Y-75639980D01*
X146851186Y-75639147D01*
X146791554Y-75662562D01*
X146721931Y-75648663D01*
X146703184Y-75636615D01*
X146701803Y-75635544D01*
X146558605Y-75550856D01*
X146398829Y-75504437D01*
X146361511Y-75501500D01*
X146361502Y-75501500D01*
X145928498Y-75501500D01*
X145928489Y-75501500D01*
X145891171Y-75504437D01*
X145891170Y-75504437D01*
X145731394Y-75550856D01*
X145588197Y-75635543D01*
X145587225Y-75636298D01*
X145586323Y-75636652D01*
X145581369Y-75639582D01*
X145580896Y-75638782D01*
X145521139Y-75662244D01*
X145451517Y-75648342D01*
X145432775Y-75636298D01*
X145431802Y-75635543D01*
X145288605Y-75550856D01*
X145128829Y-75504437D01*
X145091511Y-75501500D01*
X145091502Y-75501500D01*
X144658498Y-75501500D01*
X144658489Y-75501500D01*
X144621171Y-75504437D01*
X144621170Y-75504437D01*
X144461394Y-75550856D01*
X144318197Y-75635543D01*
X144317225Y-75636298D01*
X144316323Y-75636652D01*
X144311369Y-75639582D01*
X144310896Y-75638782D01*
X144251139Y-75662244D01*
X144181517Y-75648342D01*
X144162775Y-75636298D01*
X144161802Y-75635543D01*
X144018605Y-75550856D01*
X143858829Y-75504437D01*
X143821511Y-75501500D01*
X143821502Y-75501500D01*
X143388498Y-75501500D01*
X143388489Y-75501500D01*
X143351171Y-75504437D01*
X143351170Y-75504437D01*
X143191397Y-75550855D01*
X143158639Y-75570229D01*
X143089822Y-75587688D01*
X143022491Y-75565171D01*
X142978022Y-75509826D01*
X142968500Y-75461775D01*
X142968500Y-74927607D01*
X142968499Y-74927603D01*
X142964829Y-74909153D01*
X142944155Y-74805215D01*
X142940359Y-74796050D01*
X142921635Y-74750846D01*
X142921633Y-74750843D01*
X142904716Y-74710000D01*
X142896401Y-74689925D01*
X142827072Y-74586167D01*
X139491420Y-71250516D01*
X153492000Y-71250516D01*
X153502605Y-71354318D01*
X153502606Y-71354321D01*
X153558342Y-71522525D01*
X153651365Y-71673339D01*
X153651370Y-71673345D01*
X153776654Y-71798629D01*
X153776660Y-71798634D01*
X153927474Y-71891657D01*
X154095678Y-71947393D01*
X154095681Y-71947394D01*
X154199483Y-71957999D01*
X154199483Y-71958000D01*
X154646000Y-71958000D01*
X155154000Y-71958000D01*
X155600517Y-71958000D01*
X155600516Y-71957999D01*
X155704318Y-71947394D01*
X155704321Y-71947393D01*
X155872525Y-71891657D01*
X156023339Y-71798634D01*
X156023345Y-71798629D01*
X156148629Y-71673345D01*
X156148634Y-71673339D01*
X156241657Y-71522525D01*
X156297393Y-71354321D01*
X156297394Y-71354318D01*
X156307999Y-71250516D01*
X156308000Y-71250516D01*
X156308000Y-71041500D01*
X155154000Y-71041500D01*
X155154000Y-71958000D01*
X154646000Y-71958000D01*
X154646000Y-71041500D01*
X153492000Y-71041500D01*
X153492000Y-71250516D01*
X139491420Y-71250516D01*
X137083833Y-68842929D01*
X136980075Y-68773600D01*
X136864785Y-68725845D01*
X136791086Y-68711185D01*
X136742396Y-68701500D01*
X136742394Y-68701500D01*
X128299567Y-68701500D01*
X128232531Y-68682187D01*
X128073017Y-68581958D01*
X128073015Y-68581957D01*
X127901050Y-68521784D01*
X127901049Y-68521783D01*
X127901047Y-68521783D01*
X127720000Y-68501384D01*
X127538953Y-68521783D01*
X127538950Y-68521783D01*
X127538949Y-68521784D01*
X127366984Y-68581957D01*
X127366981Y-68581958D01*
X127212720Y-68678887D01*
X127212718Y-68678888D01*
X127083888Y-68807718D01*
X127083887Y-68807720D01*
X126986958Y-68961981D01*
X126986957Y-68961984D01*
X126945237Y-69081215D01*
X126926783Y-69133953D01*
X126906384Y-69315000D01*
X126926783Y-69496047D01*
X126926783Y-69496049D01*
X126926784Y-69496050D01*
X126928358Y-69502946D01*
X126926509Y-69503367D01*
X126929649Y-69564779D01*
X126894365Y-69626387D01*
X126831375Y-69659139D01*
X126807098Y-69661500D01*
X123124077Y-69661500D01*
X123057041Y-69642187D01*
X122993017Y-69601958D01*
X122993015Y-69601957D01*
X122821050Y-69541784D01*
X122821049Y-69541783D01*
X122821047Y-69541783D01*
X122640000Y-69521384D01*
X122458953Y-69541783D01*
X122458950Y-69541783D01*
X122458949Y-69541784D01*
X122286984Y-69601957D01*
X122286981Y-69601958D01*
X122132720Y-69698887D01*
X122132718Y-69698888D01*
X122003888Y-69827718D01*
X122003887Y-69827720D01*
X121906958Y-69981981D01*
X121906957Y-69981984D01*
X121906957Y-69981985D01*
X121846783Y-70153953D01*
X121839787Y-70216047D01*
X121826384Y-70335000D01*
X121832738Y-70391393D01*
X121820488Y-70461325D01*
X121772376Y-70513533D01*
X121707530Y-70531500D01*
X120627737Y-70531500D01*
X120560701Y-70512187D01*
X120433017Y-70431958D01*
X120433015Y-70431957D01*
X120261050Y-70371784D01*
X120261049Y-70371783D01*
X120261047Y-70371783D01*
X120080000Y-70351384D01*
X119898953Y-70371783D01*
X119898950Y-70371783D01*
X119898949Y-70371784D01*
X119726984Y-70431957D01*
X119726981Y-70431958D01*
X119621536Y-70498214D01*
X119553215Y-70517520D01*
X119485301Y-70496824D01*
X119439358Y-70442697D01*
X119428500Y-70391527D01*
X119428500Y-68183503D01*
X119448502Y-68115382D01*
X119465405Y-68094408D01*
X120069297Y-67490516D01*
X123182000Y-67490516D01*
X123192605Y-67594318D01*
X123192606Y-67594321D01*
X123248342Y-67762525D01*
X123341365Y-67913339D01*
X123341370Y-67913345D01*
X123466654Y-68038629D01*
X123466660Y-68038634D01*
X123617474Y-68131657D01*
X123785678Y-68187393D01*
X123785681Y-68187394D01*
X123889483Y-68197999D01*
X123889483Y-68198000D01*
X124336000Y-68198000D01*
X124844000Y-68198000D01*
X125290517Y-68198000D01*
X125290516Y-68197999D01*
X125394318Y-68187394D01*
X125394321Y-68187393D01*
X125562525Y-68131657D01*
X125713339Y-68038634D01*
X125713345Y-68038629D01*
X125838629Y-67913345D01*
X125838634Y-67913339D01*
X125931657Y-67762525D01*
X125987393Y-67594321D01*
X125987394Y-67594318D01*
X125997999Y-67490516D01*
X125998000Y-67490516D01*
X125998000Y-67281500D01*
X124844000Y-67281500D01*
X124844000Y-68198000D01*
X124336000Y-68198000D01*
X124336000Y-67281500D01*
X123182000Y-67281500D01*
X123182000Y-67490516D01*
X120069297Y-67490516D01*
X120458409Y-67101404D01*
X120995330Y-66564483D01*
X123182000Y-66564483D01*
X123182000Y-66773500D01*
X124336000Y-66773500D01*
X124844000Y-66773500D01*
X125998000Y-66773500D01*
X125998000Y-66564483D01*
X125987394Y-66460681D01*
X125987393Y-66460678D01*
X125931657Y-66292474D01*
X125838634Y-66141660D01*
X125838629Y-66141654D01*
X125713345Y-66016370D01*
X125713339Y-66016365D01*
X125562525Y-65923342D01*
X125394321Y-65867606D01*
X125394318Y-65867605D01*
X125290516Y-65857000D01*
X124844000Y-65857000D01*
X124844000Y-66773500D01*
X124336000Y-66773500D01*
X124336000Y-65857000D01*
X123889483Y-65857000D01*
X123785681Y-65867605D01*
X123785678Y-65867606D01*
X123617474Y-65923342D01*
X123466660Y-66016365D01*
X123466654Y-66016370D01*
X123341370Y-66141654D01*
X123341365Y-66141660D01*
X123248342Y-66292474D01*
X123192606Y-66460678D01*
X123192605Y-66460681D01*
X123182000Y-66564483D01*
X120995330Y-66564483D01*
X121675678Y-65884135D01*
X121775102Y-65735336D01*
X121782312Y-65717929D01*
X121843587Y-65570000D01*
X121878500Y-65394479D01*
X121878500Y-65076372D01*
X121898502Y-65008251D01*
X121915400Y-64987281D01*
X121969030Y-64933652D01*
X122044773Y-64810852D01*
X122097559Y-64763375D01*
X122152014Y-64751000D01*
X123251127Y-64751000D01*
X123319248Y-64771002D01*
G37*
%TD.AperFunction*%
%TA.AperFunction,Conductor*%
G36*
X126528959Y-60831185D02*
G01*
X126574195Y-60883389D01*
X126610618Y-60961500D01*
X126614210Y-60969202D01*
X126691043Y-61078930D01*
X126743026Y-61153169D01*
X126743029Y-61153173D01*
X126901826Y-61311970D01*
X126901830Y-61311973D01*
X126901831Y-61311974D01*
X127085798Y-61440790D01*
X127289340Y-61535703D01*
X127432417Y-61574040D01*
X127504423Y-61593334D01*
X127506271Y-61593829D01*
X127730000Y-61613403D01*
X127953729Y-61593829D01*
X128170660Y-61535703D01*
X128197250Y-61523303D01*
X128267439Y-61512642D01*
X128332252Y-61541620D01*
X128371110Y-61601039D01*
X128375579Y-61631269D01*
X128375894Y-61631238D01*
X128376500Y-61637396D01*
X128380543Y-61657719D01*
X128400845Y-61759785D01*
X128448600Y-61875075D01*
X128517929Y-61978833D01*
X128517931Y-61978835D01*
X128730473Y-62191377D01*
X128764499Y-62253689D01*
X128759434Y-62324504D01*
X128716887Y-62381340D01*
X128650367Y-62406151D01*
X128625259Y-62404778D01*
X128625247Y-62404943D01*
X128581511Y-62401500D01*
X128581502Y-62401500D01*
X128148498Y-62401500D01*
X128148489Y-62401500D01*
X128111171Y-62404437D01*
X128111170Y-62404437D01*
X127951394Y-62450856D01*
X127808196Y-62535544D01*
X127808189Y-62535549D01*
X127690549Y-62653189D01*
X127690544Y-62653196D01*
X127605854Y-62796398D01*
X127605853Y-62796399D01*
X127592272Y-62843151D01*
X127554060Y-62902987D01*
X127489564Y-62932666D01*
X127471275Y-62934000D01*
X125808873Y-62934000D01*
X125740752Y-62913998D01*
X125719778Y-62897095D01*
X125713658Y-62890975D01*
X125713652Y-62890970D01*
X125686378Y-62874147D01*
X125562738Y-62797885D01*
X125478582Y-62769999D01*
X125394427Y-62742113D01*
X125394420Y-62742112D01*
X125290553Y-62731500D01*
X123889455Y-62731500D01*
X123785574Y-62742112D01*
X123617261Y-62797885D01*
X123466347Y-62890970D01*
X123466341Y-62890975D01*
X123460222Y-62897095D01*
X123397910Y-62931121D01*
X123371127Y-62934000D01*
X122161266Y-62934000D01*
X122093145Y-62913998D01*
X122054026Y-62874148D01*
X121969030Y-62736348D01*
X121969029Y-62736347D01*
X121969024Y-62736341D01*
X121843658Y-62610975D01*
X121843652Y-62610970D01*
X121835499Y-62605941D01*
X121692738Y-62517885D01*
X121608582Y-62489999D01*
X121524427Y-62462113D01*
X121524420Y-62462112D01*
X121420553Y-62451500D01*
X120519455Y-62451500D01*
X120415574Y-62462112D01*
X120247261Y-62517885D01*
X120096347Y-62610970D01*
X120096341Y-62610975D01*
X119970975Y-62736341D01*
X119970970Y-62736347D01*
X119877885Y-62887262D01*
X119822113Y-63055572D01*
X119822112Y-63055579D01*
X119811500Y-63159446D01*
X119811500Y-64510544D01*
X119822112Y-64614425D01*
X119877886Y-64782740D01*
X119951310Y-64901780D01*
X119970047Y-64970259D01*
X119948787Y-65037998D01*
X119933164Y-65057021D01*
X117814326Y-67175859D01*
X117814321Y-67175865D01*
X117714897Y-67324664D01*
X117660394Y-67456243D01*
X117660395Y-67456244D01*
X117646414Y-67489998D01*
X117646413Y-67490000D01*
X117611500Y-67665518D01*
X117611500Y-77390500D01*
X117591498Y-77458621D01*
X117537842Y-77505114D01*
X117485500Y-77516500D01*
X116586390Y-77516500D01*
X116448658Y-77532018D01*
X116448655Y-77532018D01*
X116448654Y-77532019D01*
X116411317Y-77545084D01*
X116320805Y-77576755D01*
X116249901Y-77580373D01*
X116188296Y-77545084D01*
X116155550Y-77482090D01*
X116153192Y-77458291D01*
X116123957Y-69469051D01*
X116111853Y-69360080D01*
X116111851Y-69360073D01*
X116111851Y-69360068D01*
X116100306Y-69307849D01*
X116100304Y-69307841D01*
X116065342Y-69203926D01*
X116065341Y-69203923D01*
X115985940Y-69081215D01*
X115985938Y-69081212D01*
X115985935Y-69081208D01*
X115944636Y-69033846D01*
X115944160Y-69033223D01*
X115939274Y-69027697D01*
X115828525Y-68932335D01*
X115695382Y-68872032D01*
X115627207Y-68852245D01*
X115627203Y-68852244D01*
X115627202Y-68852244D01*
X115482469Y-68831894D01*
X115482457Y-68831894D01*
X113339110Y-68838577D01*
X113270927Y-68818788D01*
X113224267Y-68765277D01*
X113213944Y-68695035D01*
X113232031Y-68645540D01*
X113232625Y-68644595D01*
X113243043Y-68628015D01*
X113303217Y-68456047D01*
X113323616Y-68275000D01*
X113303217Y-68093953D01*
X113243043Y-67921985D01*
X113243041Y-67921982D01*
X113243041Y-67921981D01*
X113146112Y-67767720D01*
X113146111Y-67767718D01*
X113017281Y-67638888D01*
X113017279Y-67638887D01*
X112863018Y-67541958D01*
X112863015Y-67541957D01*
X112736096Y-67497546D01*
X112688616Y-67467712D01*
X112513835Y-67292931D01*
X112513833Y-67292929D01*
X112410075Y-67223600D01*
X112294785Y-67175845D01*
X112221086Y-67161185D01*
X112172396Y-67151500D01*
X112172394Y-67151500D01*
X110194594Y-67151500D01*
X110126473Y-67131498D01*
X110105499Y-67114595D01*
X109960405Y-66969501D01*
X109926379Y-66907189D01*
X109923500Y-66880406D01*
X109923500Y-66786350D01*
X114181500Y-66786350D01*
X114181500Y-67683649D01*
X114188009Y-67744196D01*
X114188011Y-67744204D01*
X114239110Y-67881202D01*
X114239112Y-67881207D01*
X114326738Y-67998261D01*
X114443792Y-68085887D01*
X114443794Y-68085888D01*
X114443796Y-68085889D01*
X114502875Y-68107924D01*
X114580795Y-68136988D01*
X114580803Y-68136990D01*
X114641350Y-68143499D01*
X114641355Y-68143499D01*
X114641362Y-68143500D01*
X114641368Y-68143500D01*
X116088632Y-68143500D01*
X116088638Y-68143500D01*
X116088645Y-68143499D01*
X116088649Y-68143499D01*
X116149196Y-68136990D01*
X116149199Y-68136989D01*
X116149201Y-68136989D01*
X116163497Y-68131657D01*
X116168045Y-68129960D01*
X116286204Y-68085889D01*
X116382902Y-68013502D01*
X116403261Y-67998261D01*
X116490887Y-67881207D01*
X116490887Y-67881206D01*
X116490889Y-67881204D01*
X116541989Y-67744201D01*
X116548500Y-67683638D01*
X116548500Y-66786362D01*
X116548499Y-66786350D01*
X116541990Y-66725803D01*
X116541988Y-66725795D01*
X116490889Y-66588797D01*
X116490887Y-66588792D01*
X116403261Y-66471738D01*
X116286207Y-66384112D01*
X116286202Y-66384110D01*
X116149204Y-66333011D01*
X116149196Y-66333009D01*
X116088649Y-66326500D01*
X116088638Y-66326500D01*
X114641362Y-66326500D01*
X114641350Y-66326500D01*
X114580803Y-66333009D01*
X114580795Y-66333011D01*
X114443797Y-66384110D01*
X114443792Y-66384112D01*
X114326738Y-66471738D01*
X114239112Y-66588792D01*
X114239110Y-66588797D01*
X114188011Y-66725795D01*
X114188009Y-66725803D01*
X114181500Y-66786350D01*
X109923500Y-66786350D01*
X109923500Y-65759500D01*
X109943502Y-65691379D01*
X109997158Y-65644886D01*
X110049500Y-65633500D01*
X110088632Y-65633500D01*
X110088638Y-65633500D01*
X110088645Y-65633499D01*
X110088649Y-65633499D01*
X110149196Y-65626990D01*
X110149199Y-65626989D01*
X110149201Y-65626989D01*
X110286204Y-65575889D01*
X110288951Y-65573833D01*
X110403261Y-65488261D01*
X110490887Y-65371207D01*
X110490887Y-65371206D01*
X110490889Y-65371204D01*
X110541989Y-65234201D01*
X110543026Y-65224562D01*
X110548499Y-65173649D01*
X110548500Y-65173632D01*
X110548500Y-63256367D01*
X110548499Y-63256350D01*
X110541990Y-63195803D01*
X110541988Y-63195795D01*
X110490889Y-63058797D01*
X110490887Y-63058792D01*
X110403261Y-62941738D01*
X110286207Y-62854112D01*
X110286202Y-62854110D01*
X110149204Y-62803011D01*
X110149196Y-62803009D01*
X110088649Y-62796500D01*
X110088638Y-62796500D01*
X108891362Y-62796500D01*
X108891350Y-62796500D01*
X108830803Y-62803009D01*
X108830795Y-62803011D01*
X108693797Y-62854110D01*
X108693792Y-62854112D01*
X108576738Y-62941738D01*
X108489112Y-63058792D01*
X108489110Y-63058797D01*
X108438011Y-63195795D01*
X108438009Y-63195803D01*
X108431500Y-63256350D01*
X108431500Y-63670500D01*
X108411498Y-63738621D01*
X108357842Y-63785114D01*
X108305500Y-63796500D01*
X107341350Y-63796500D01*
X107280803Y-63803009D01*
X107280795Y-63803011D01*
X107143797Y-63854110D01*
X107143792Y-63854112D01*
X107026738Y-63941738D01*
X106939112Y-64058792D01*
X106939110Y-64058797D01*
X106888011Y-64195795D01*
X106888009Y-64195803D01*
X106881500Y-64256350D01*
X106881500Y-65473649D01*
X106888009Y-65534196D01*
X106888011Y-65534204D01*
X106939110Y-65671202D01*
X106939112Y-65671207D01*
X107026738Y-65788261D01*
X107143792Y-65875887D01*
X107143794Y-65875888D01*
X107143796Y-65875889D01*
X107201919Y-65897568D01*
X107280795Y-65926988D01*
X107280803Y-65926990D01*
X107341350Y-65933499D01*
X107341355Y-65933499D01*
X107341362Y-65933500D01*
X107341368Y-65933500D01*
X108438632Y-65933500D01*
X108438638Y-65933500D01*
X108438645Y-65933499D01*
X108438649Y-65933499D01*
X108468980Y-65930238D01*
X108499201Y-65926989D01*
X108499204Y-65926987D01*
X108501517Y-65926442D01*
X108503371Y-65926541D01*
X108507039Y-65926147D01*
X108507102Y-65926741D01*
X108572412Y-65930238D01*
X108630000Y-65971760D01*
X108655998Y-66037825D01*
X108656500Y-66049063D01*
X108656500Y-66180936D01*
X108636498Y-66249057D01*
X108582842Y-66295550D01*
X108512568Y-66305654D01*
X108501528Y-66303560D01*
X108499202Y-66303010D01*
X108438649Y-66296500D01*
X108438638Y-66296500D01*
X106991362Y-66296500D01*
X106991350Y-66296500D01*
X106930803Y-66303009D01*
X106930795Y-66303011D01*
X106793797Y-66354110D01*
X106793792Y-66354112D01*
X106676738Y-66441738D01*
X106589112Y-66558792D01*
X106589110Y-66558797D01*
X106538011Y-66695795D01*
X106538009Y-66695803D01*
X106531500Y-66756350D01*
X106531500Y-67683649D01*
X106538009Y-67744196D01*
X106538011Y-67744204D01*
X106589110Y-67881202D01*
X106589112Y-67881207D01*
X106676738Y-67998261D01*
X106793792Y-68085887D01*
X106793794Y-68085888D01*
X106793796Y-68085889D01*
X106852875Y-68107924D01*
X106930795Y-68136988D01*
X106930803Y-68136990D01*
X106991350Y-68143499D01*
X106991355Y-68143499D01*
X106991362Y-68143500D01*
X106991368Y-68143500D01*
X108438632Y-68143500D01*
X108438638Y-68143500D01*
X108438645Y-68143499D01*
X108438649Y-68143499D01*
X108499196Y-68136990D01*
X108499199Y-68136989D01*
X108499201Y-68136989D01*
X108513497Y-68131657D01*
X108518045Y-68129960D01*
X108636204Y-68085889D01*
X108732902Y-68013502D01*
X108753261Y-67998261D01*
X108840887Y-67881207D01*
X108844778Y-67874081D01*
X108894978Y-67823877D01*
X108964351Y-67808783D01*
X109030873Y-67833591D01*
X109044463Y-67845367D01*
X109387929Y-68188833D01*
X109476167Y-68277071D01*
X109579925Y-68346400D01*
X109695215Y-68394155D01*
X109817606Y-68418500D01*
X111614243Y-68418500D01*
X111682364Y-68438502D01*
X111728857Y-68492158D01*
X111733172Y-68502885D01*
X111776957Y-68628015D01*
X111776958Y-68628017D01*
X111791211Y-68650701D01*
X111810517Y-68719022D01*
X111789822Y-68786935D01*
X111735695Y-68832878D01*
X111684917Y-68843736D01*
X106117393Y-68861098D01*
X106002373Y-68874513D01*
X105947407Y-68887330D01*
X105838350Y-68926159D01*
X105838345Y-68926161D01*
X105717535Y-69008424D01*
X105665459Y-69056032D01*
X105665139Y-69056322D01*
X105572396Y-69169294D01*
X105572395Y-69169295D01*
X105515240Y-69303809D01*
X105497057Y-69372442D01*
X105480114Y-69517610D01*
X105480114Y-69517621D01*
X105543442Y-71896977D01*
X105543442Y-71896980D01*
X105556036Y-71997152D01*
X105558077Y-72006127D01*
X105566967Y-72045233D01*
X105566968Y-72045235D01*
X105598914Y-72140998D01*
X105598914Y-72140999D01*
X105607177Y-72154083D01*
X105626638Y-72222360D01*
X105606096Y-72290320D01*
X105552073Y-72336386D01*
X105500642Y-72347360D01*
X105499929Y-72347360D01*
X105499929Y-73733360D01*
X105479927Y-73801481D01*
X105426271Y-73847974D01*
X105373929Y-73859360D01*
X103562929Y-73859360D01*
X103562929Y-74403957D01*
X103569434Y-74464453D01*
X103620484Y-74601324D01*
X103620484Y-74601325D01*
X103678956Y-74679433D01*
X103703767Y-74745953D01*
X103688676Y-74815327D01*
X103678957Y-74830450D01*
X103620041Y-74909153D01*
X103620039Y-74909157D01*
X103568940Y-75046155D01*
X103568938Y-75046163D01*
X103562429Y-75106710D01*
X103562429Y-76704009D01*
X103568938Y-76764556D01*
X103568940Y-76764564D01*
X103620039Y-76901562D01*
X103620041Y-76901566D01*
X103659930Y-76954852D01*
X103684740Y-77021372D01*
X103669648Y-77090746D01*
X103659930Y-77105868D01*
X103620041Y-77159153D01*
X103620039Y-77159157D01*
X103568940Y-77296155D01*
X103568938Y-77296163D01*
X103562429Y-77356710D01*
X103562429Y-77415500D01*
X103542427Y-77483621D01*
X103488771Y-77530114D01*
X103436429Y-77541500D01*
X103424500Y-77541500D01*
X103356379Y-77521498D01*
X103309886Y-77467842D01*
X103298500Y-77415500D01*
X103298500Y-72806762D01*
X103562929Y-72806762D01*
X103562929Y-73351360D01*
X104991929Y-73351360D01*
X104991929Y-72347360D01*
X104022331Y-72347360D01*
X103961835Y-72353865D01*
X103824964Y-72404915D01*
X103824963Y-72404915D01*
X103708024Y-72492455D01*
X103620484Y-72609394D01*
X103620484Y-72609395D01*
X103569434Y-72746266D01*
X103562929Y-72806762D01*
X103298500Y-72806762D01*
X103298500Y-61359500D01*
X103318502Y-61291379D01*
X103372158Y-61244886D01*
X103424500Y-61233500D01*
X103911167Y-61233500D01*
X103979288Y-61253502D01*
X104000263Y-61270406D01*
X104041826Y-61311970D01*
X104041830Y-61311973D01*
X104041831Y-61311974D01*
X104225798Y-61440790D01*
X104429340Y-61535703D01*
X104572417Y-61574040D01*
X104644423Y-61593334D01*
X104646271Y-61593829D01*
X104870000Y-61613403D01*
X105093729Y-61593829D01*
X105310660Y-61535703D01*
X105514202Y-61440790D01*
X105698169Y-61311974D01*
X105856974Y-61153169D01*
X105985790Y-60969202D01*
X106025805Y-60883388D01*
X106072722Y-60830104D01*
X106140999Y-60810643D01*
X106208959Y-60831185D01*
X106254195Y-60883389D01*
X106290618Y-60961500D01*
X106294210Y-60969202D01*
X106371043Y-61078930D01*
X106423026Y-61153169D01*
X106423029Y-61153173D01*
X106581826Y-61311970D01*
X106581830Y-61311973D01*
X106581831Y-61311974D01*
X106765798Y-61440790D01*
X106969340Y-61535703D01*
X107112417Y-61574040D01*
X107184423Y-61593334D01*
X107186271Y-61593829D01*
X107410000Y-61613403D01*
X107633729Y-61593829D01*
X107850660Y-61535703D01*
X108054202Y-61440790D01*
X108238169Y-61311974D01*
X108396974Y-61153169D01*
X108525790Y-60969202D01*
X108565805Y-60883388D01*
X108612722Y-60830104D01*
X108680999Y-60810643D01*
X108748959Y-60831185D01*
X108794195Y-60883389D01*
X108830618Y-60961500D01*
X108834210Y-60969202D01*
X108911043Y-61078930D01*
X108963026Y-61153169D01*
X108963029Y-61153173D01*
X109121826Y-61311970D01*
X109121830Y-61311973D01*
X109121831Y-61311974D01*
X109305798Y-61440790D01*
X109509340Y-61535703D01*
X109652417Y-61574040D01*
X109724423Y-61593334D01*
X109726271Y-61593829D01*
X109950000Y-61613403D01*
X110173729Y-61593829D01*
X110390660Y-61535703D01*
X110594202Y-61440790D01*
X110778169Y-61311974D01*
X110936974Y-61153169D01*
X111065790Y-60969202D01*
X111105805Y-60883388D01*
X111152722Y-60830104D01*
X111220999Y-60810643D01*
X111288959Y-60831185D01*
X111334195Y-60883389D01*
X111370618Y-60961500D01*
X111374210Y-60969202D01*
X111503026Y-61153169D01*
X111599596Y-61249739D01*
X111633620Y-61312049D01*
X111636500Y-61338833D01*
X111636500Y-62670500D01*
X111616498Y-62738621D01*
X111562842Y-62785114D01*
X111510500Y-62796500D01*
X111491350Y-62796500D01*
X111430803Y-62803009D01*
X111430795Y-62803011D01*
X111293797Y-62854110D01*
X111293792Y-62854112D01*
X111176738Y-62941738D01*
X111089112Y-63058792D01*
X111089110Y-63058797D01*
X111038011Y-63195795D01*
X111038009Y-63195803D01*
X111031500Y-63256350D01*
X111031500Y-65173649D01*
X111038009Y-65234196D01*
X111038011Y-65234204D01*
X111089110Y-65371202D01*
X111089112Y-65371207D01*
X111176738Y-65488261D01*
X111293792Y-65575887D01*
X111293794Y-65575888D01*
X111293796Y-65575889D01*
X111338345Y-65592505D01*
X111430795Y-65626988D01*
X111430803Y-65626990D01*
X111491350Y-65633499D01*
X111491355Y-65633499D01*
X111491362Y-65633500D01*
X111491368Y-65633500D01*
X112688632Y-65633500D01*
X112688638Y-65633500D01*
X112688645Y-65633499D01*
X112688649Y-65633499D01*
X112749196Y-65626990D01*
X112749199Y-65626989D01*
X112749201Y-65626989D01*
X112886204Y-65575889D01*
X112964491Y-65517283D01*
X113031011Y-65492473D01*
X113100385Y-65507564D01*
X113115503Y-65517279D01*
X113138112Y-65534204D01*
X113193796Y-65575889D01*
X113330795Y-65626988D01*
X113330803Y-65626990D01*
X113391350Y-65633499D01*
X113391355Y-65633499D01*
X113391362Y-65633500D01*
X113391368Y-65633500D01*
X114147815Y-65633500D01*
X114215936Y-65653502D01*
X114248683Y-65683991D01*
X114326738Y-65788261D01*
X114443792Y-65875887D01*
X114443794Y-65875888D01*
X114443796Y-65875889D01*
X114501919Y-65897568D01*
X114580795Y-65926988D01*
X114580803Y-65926990D01*
X114641350Y-65933499D01*
X114641355Y-65933499D01*
X114641362Y-65933500D01*
X114641368Y-65933500D01*
X115738632Y-65933500D01*
X115738638Y-65933500D01*
X115738645Y-65933499D01*
X115738649Y-65933499D01*
X115799196Y-65926990D01*
X115799199Y-65926989D01*
X115799201Y-65926989D01*
X115801459Y-65926147D01*
X115818045Y-65919960D01*
X115936204Y-65875889D01*
X116025778Y-65808835D01*
X116053261Y-65788261D01*
X116140887Y-65671207D01*
X116140887Y-65671206D01*
X116140889Y-65671204D01*
X116191989Y-65534201D01*
X116196351Y-65493632D01*
X116198499Y-65473649D01*
X116198500Y-65473632D01*
X116198500Y-64359500D01*
X116218502Y-64291379D01*
X116272158Y-64244886D01*
X116324500Y-64233500D01*
X116585501Y-64233500D01*
X116653622Y-64253502D01*
X116700115Y-64307158D01*
X116711501Y-64359500D01*
X116711501Y-64510544D01*
X116722112Y-64614425D01*
X116777885Y-64782738D01*
X116870970Y-64933652D01*
X116870975Y-64933658D01*
X116996341Y-65059024D01*
X116996347Y-65059029D01*
X116996348Y-65059030D01*
X117147262Y-65152115D01*
X117315574Y-65207887D01*
X117419455Y-65218500D01*
X118320544Y-65218499D01*
X118424426Y-65207887D01*
X118592738Y-65152115D01*
X118743652Y-65059030D01*
X118869030Y-64933652D01*
X118962115Y-64782738D01*
X119017887Y-64614426D01*
X119028500Y-64510545D01*
X119028499Y-63159456D01*
X119017887Y-63055574D01*
X118962115Y-62887262D01*
X118869030Y-62736348D01*
X118869029Y-62736347D01*
X118869024Y-62736341D01*
X118743658Y-62610975D01*
X118743652Y-62610970D01*
X118735499Y-62605941D01*
X118592738Y-62517885D01*
X118508582Y-62489999D01*
X118424427Y-62462113D01*
X118424420Y-62462112D01*
X118320553Y-62451500D01*
X117419455Y-62451500D01*
X117315574Y-62462112D01*
X117147261Y-62517885D01*
X116996347Y-62610970D01*
X116996341Y-62610975D01*
X116870975Y-62736341D01*
X116870968Y-62736349D01*
X116796767Y-62856648D01*
X116743981Y-62904125D01*
X116689527Y-62916500D01*
X114519500Y-62916500D01*
X114451379Y-62896498D01*
X114404886Y-62842842D01*
X114393500Y-62790500D01*
X114393500Y-61642161D01*
X114413502Y-61574040D01*
X114467158Y-61527547D01*
X114537432Y-61517443D01*
X114572749Y-61527966D01*
X114589340Y-61535703D01*
X114732417Y-61574040D01*
X114804423Y-61593334D01*
X114806271Y-61593829D01*
X115030000Y-61613403D01*
X115253729Y-61593829D01*
X115470660Y-61535703D01*
X115674202Y-61440790D01*
X115858169Y-61311974D01*
X116016974Y-61153169D01*
X116145790Y-60969202D01*
X116185805Y-60883388D01*
X116232722Y-60830104D01*
X116300999Y-60810643D01*
X116368959Y-60831185D01*
X116414195Y-60883389D01*
X116450618Y-60961500D01*
X116454210Y-60969202D01*
X116531043Y-61078930D01*
X116583026Y-61153169D01*
X116583029Y-61153173D01*
X116741826Y-61311970D01*
X116741830Y-61311973D01*
X116741831Y-61311974D01*
X116925798Y-61440790D01*
X117129340Y-61535703D01*
X117272417Y-61574040D01*
X117344423Y-61593334D01*
X117346271Y-61593829D01*
X117570000Y-61613403D01*
X117793729Y-61593829D01*
X118010660Y-61535703D01*
X118214202Y-61440790D01*
X118398169Y-61311974D01*
X118556974Y-61153169D01*
X118685790Y-60969202D01*
X118725805Y-60883388D01*
X118772722Y-60830104D01*
X118840999Y-60810643D01*
X118908959Y-60831185D01*
X118954195Y-60883389D01*
X118990618Y-60961500D01*
X118994210Y-60969202D01*
X119071043Y-61078930D01*
X119123026Y-61153169D01*
X119123029Y-61153173D01*
X119281826Y-61311970D01*
X119281830Y-61311973D01*
X119281831Y-61311974D01*
X119465798Y-61440790D01*
X119669340Y-61535703D01*
X119812417Y-61574040D01*
X119884423Y-61593334D01*
X119886271Y-61593829D01*
X120110000Y-61613403D01*
X120333729Y-61593829D01*
X120550660Y-61535703D01*
X120754202Y-61440790D01*
X120938169Y-61311974D01*
X121096974Y-61153169D01*
X121225790Y-60969202D01*
X121265805Y-60883388D01*
X121312722Y-60830104D01*
X121380999Y-60810643D01*
X121448959Y-60831185D01*
X121494195Y-60883389D01*
X121530618Y-60961500D01*
X121534210Y-60969202D01*
X121611043Y-61078930D01*
X121663026Y-61153169D01*
X121663029Y-61153173D01*
X121821826Y-61311970D01*
X121821830Y-61311973D01*
X121821831Y-61311974D01*
X122005798Y-61440790D01*
X122209340Y-61535703D01*
X122352417Y-61574040D01*
X122424423Y-61593334D01*
X122426271Y-61593829D01*
X122650000Y-61613403D01*
X122873729Y-61593829D01*
X123090660Y-61535703D01*
X123294202Y-61440790D01*
X123478169Y-61311974D01*
X123636974Y-61153169D01*
X123765790Y-60969202D01*
X123805805Y-60883388D01*
X123852722Y-60830104D01*
X123920999Y-60810643D01*
X123988959Y-60831185D01*
X124034195Y-60883389D01*
X124070618Y-60961500D01*
X124074210Y-60969202D01*
X124151043Y-61078930D01*
X124203026Y-61153169D01*
X124203029Y-61153173D01*
X124361826Y-61311970D01*
X124361830Y-61311973D01*
X124361831Y-61311974D01*
X124545798Y-61440790D01*
X124749340Y-61535703D01*
X124892417Y-61574040D01*
X124964423Y-61593334D01*
X124966271Y-61593829D01*
X125190000Y-61613403D01*
X125413729Y-61593829D01*
X125630660Y-61535703D01*
X125834202Y-61440790D01*
X126018169Y-61311974D01*
X126176974Y-61153169D01*
X126305790Y-60969202D01*
X126345805Y-60883388D01*
X126392722Y-60830104D01*
X126460999Y-60810643D01*
X126528959Y-60831185D01*
G37*
%TD.AperFunction*%
%TA.AperFunction,Conductor*%
G36*
X174797598Y-75274257D02*
G01*
X174837264Y-75320034D01*
X174875871Y-75395803D01*
X174996932Y-75562430D01*
X174996934Y-75562432D01*
X174996936Y-75562435D01*
X175142564Y-75708063D01*
X175142567Y-75708065D01*
X175142570Y-75708068D01*
X175309197Y-75829129D01*
X175492710Y-75922634D01*
X175688592Y-75986280D01*
X175892019Y-76018500D01*
X175892022Y-76018500D01*
X176097978Y-76018500D01*
X176097981Y-76018500D01*
X176301408Y-75986280D01*
X176497290Y-75922634D01*
X176557780Y-75891811D01*
X176627557Y-75878707D01*
X176693342Y-75905406D01*
X176704079Y-75914983D01*
X178095500Y-77306405D01*
X178129526Y-77368717D01*
X178124461Y-77439533D01*
X178081914Y-77496368D01*
X178015394Y-77521179D01*
X178006405Y-77521500D01*
X177784594Y-77521500D01*
X177716473Y-77501498D01*
X177695499Y-77484595D01*
X177188835Y-76977931D01*
X177188833Y-76977929D01*
X177085075Y-76908600D01*
X176969785Y-76860845D01*
X176896086Y-76846185D01*
X176847396Y-76836500D01*
X176847394Y-76836500D01*
X169604909Y-76836500D01*
X169536788Y-76816498D01*
X169490295Y-76762842D01*
X169480191Y-76692568D01*
X169485980Y-76668885D01*
X169513217Y-76591047D01*
X169533616Y-76410000D01*
X169513217Y-76228953D01*
X169453043Y-76056985D01*
X169453041Y-76056982D01*
X169453041Y-76056981D01*
X169356112Y-75902720D01*
X169356111Y-75902718D01*
X169283540Y-75830147D01*
X169249514Y-75767835D01*
X169254579Y-75697020D01*
X169283539Y-75651958D01*
X169373068Y-75562430D01*
X169494129Y-75395803D01*
X169532734Y-75320034D01*
X169581481Y-75268422D01*
X169650396Y-75251356D01*
X169717598Y-75274257D01*
X169757264Y-75320034D01*
X169795871Y-75395803D01*
X169916932Y-75562430D01*
X169916934Y-75562432D01*
X169916936Y-75562435D01*
X170062564Y-75708063D01*
X170062567Y-75708065D01*
X170062570Y-75708068D01*
X170229197Y-75829129D01*
X170412710Y-75922634D01*
X170608592Y-75986280D01*
X170812019Y-76018500D01*
X170812022Y-76018500D01*
X171017978Y-76018500D01*
X171017981Y-76018500D01*
X171221408Y-75986280D01*
X171417290Y-75922634D01*
X171600803Y-75829129D01*
X171767430Y-75708068D01*
X171913068Y-75562430D01*
X172034129Y-75395803D01*
X172072734Y-75320034D01*
X172121481Y-75268422D01*
X172190396Y-75251356D01*
X172257598Y-75274257D01*
X172297264Y-75320034D01*
X172335871Y-75395803D01*
X172456932Y-75562430D01*
X172456934Y-75562432D01*
X172456936Y-75562435D01*
X172602564Y-75708063D01*
X172602567Y-75708065D01*
X172602570Y-75708068D01*
X172769197Y-75829129D01*
X172952710Y-75922634D01*
X173148592Y-75986280D01*
X173352019Y-76018500D01*
X173352022Y-76018500D01*
X173557978Y-76018500D01*
X173557981Y-76018500D01*
X173761408Y-75986280D01*
X173957290Y-75922634D01*
X174140803Y-75829129D01*
X174307430Y-75708068D01*
X174453068Y-75562430D01*
X174574129Y-75395803D01*
X174612734Y-75320034D01*
X174661481Y-75268422D01*
X174730396Y-75251356D01*
X174797598Y-75274257D01*
G37*
%TD.AperFunction*%
%TA.AperFunction,Conductor*%
G36*
X185056050Y-72988502D02*
G01*
X185102543Y-73042158D01*
X185110636Y-73071658D01*
X185111197Y-73071526D01*
X185113011Y-73079204D01*
X185164110Y-73216202D01*
X185164112Y-73216207D01*
X185251738Y-73333261D01*
X185368792Y-73420887D01*
X185368794Y-73420888D01*
X185368796Y-73420889D01*
X185427875Y-73442924D01*
X185505795Y-73471988D01*
X185505803Y-73471990D01*
X185566350Y-73478499D01*
X185566355Y-73478499D01*
X185566362Y-73478500D01*
X185716405Y-73478500D01*
X185784526Y-73498502D01*
X185831019Y-73552158D01*
X185841123Y-73622432D01*
X185811629Y-73687012D01*
X185805500Y-73693595D01*
X183089501Y-76409595D01*
X183027189Y-76443621D01*
X183000406Y-76446500D01*
X179079595Y-76446500D01*
X179011474Y-76426498D01*
X178990500Y-76409595D01*
X178779365Y-76198460D01*
X178745339Y-76136148D01*
X178750404Y-76065333D01*
X178792951Y-76008497D01*
X178836739Y-75987932D01*
X178836700Y-75987810D01*
X178837673Y-75987493D01*
X178839059Y-75986843D01*
X178841391Y-75986282D01*
X178841408Y-75986280D01*
X179037290Y-75922634D01*
X179220803Y-75829129D01*
X179387430Y-75708068D01*
X179533068Y-75562430D01*
X179654129Y-75395803D01*
X179693014Y-75319486D01*
X179741759Y-75267874D01*
X179810674Y-75250807D01*
X179877876Y-75273707D01*
X179917545Y-75319487D01*
X179956298Y-75395542D01*
X180077315Y-75562107D01*
X180077317Y-75562110D01*
X180222889Y-75707682D01*
X180222892Y-75707684D01*
X180389454Y-75828699D01*
X180572900Y-75922170D01*
X180572906Y-75922173D01*
X180768705Y-75985791D01*
X180768717Y-75985794D01*
X180820999Y-75994074D01*
X180821000Y-75994074D01*
X180821000Y-74621686D01*
X180829394Y-74630080D01*
X180920606Y-74682741D01*
X181022339Y-74710000D01*
X181127661Y-74710000D01*
X181229394Y-74682741D01*
X181320606Y-74630080D01*
X181329000Y-74621686D01*
X181329000Y-75994074D01*
X181381282Y-75985794D01*
X181381294Y-75985791D01*
X181577093Y-75922173D01*
X181577099Y-75922170D01*
X181760545Y-75828699D01*
X181927107Y-75707684D01*
X181927110Y-75707682D01*
X182072682Y-75562110D01*
X182072684Y-75562107D01*
X182193699Y-75395545D01*
X182287170Y-75212099D01*
X182287173Y-75212093D01*
X182350791Y-75016296D01*
X182383000Y-74812938D01*
X182383000Y-74564000D01*
X181386686Y-74564000D01*
X181395080Y-74555606D01*
X181447741Y-74464394D01*
X181475000Y-74362661D01*
X181475000Y-74257339D01*
X181447741Y-74155606D01*
X181395080Y-74064394D01*
X181386686Y-74056000D01*
X182383000Y-74056000D01*
X182383000Y-73807061D01*
X182350791Y-73603703D01*
X182287173Y-73407906D01*
X182287170Y-73407900D01*
X182193699Y-73224454D01*
X182153091Y-73168561D01*
X182129232Y-73101693D01*
X182145313Y-73032541D01*
X182196227Y-72983061D01*
X182255027Y-72968500D01*
X184987929Y-72968500D01*
X185056050Y-72988502D01*
G37*
%TD.AperFunction*%
%TA.AperFunction,Conductor*%
G36*
X184134532Y-68117313D02*
G01*
X184191368Y-68159860D01*
X184216179Y-68226380D01*
X184216500Y-68235369D01*
X184216500Y-68925544D01*
X184227112Y-69029425D01*
X184282885Y-69197738D01*
X184375970Y-69348652D01*
X184375975Y-69348658D01*
X184501341Y-69474024D01*
X184501347Y-69474029D01*
X184501348Y-69474030D01*
X184652262Y-69567115D01*
X184820574Y-69622887D01*
X184924455Y-69633500D01*
X185235500Y-69633499D01*
X185303620Y-69653501D01*
X185350113Y-69707156D01*
X185361500Y-69759499D01*
X185361500Y-71191501D01*
X185341498Y-71259622D01*
X185311010Y-71292369D01*
X185251737Y-71336740D01*
X185164112Y-71453792D01*
X185164110Y-71453797D01*
X185113011Y-71590795D01*
X185111197Y-71598474D01*
X185109442Y-71598059D01*
X185086035Y-71654564D01*
X185027716Y-71695053D01*
X184987929Y-71701500D01*
X175367603Y-71701500D01*
X175245214Y-71725845D01*
X175245209Y-71725847D01*
X175129924Y-71773599D01*
X175026171Y-71842925D01*
X175026169Y-71842926D01*
X174164078Y-72705017D01*
X174101766Y-72739042D01*
X174030950Y-72733977D01*
X174017789Y-72728192D01*
X173957290Y-72697366D01*
X173957287Y-72697365D01*
X173957285Y-72697364D01*
X173761412Y-72633721D01*
X173761410Y-72633720D01*
X173761408Y-72633720D01*
X173557981Y-72601500D01*
X173352019Y-72601500D01*
X173148592Y-72633720D01*
X173148590Y-72633720D01*
X173148587Y-72633721D01*
X172952714Y-72697364D01*
X172952708Y-72697367D01*
X172769193Y-72790873D01*
X172602567Y-72911934D01*
X172602564Y-72911936D01*
X172456936Y-73057564D01*
X172456934Y-73057567D01*
X172335873Y-73224193D01*
X172297267Y-73299962D01*
X172248518Y-73351577D01*
X172179603Y-73368643D01*
X172112402Y-73345742D01*
X172072733Y-73299962D01*
X172034129Y-73224197D01*
X171913068Y-73057570D01*
X171913065Y-73057567D01*
X171913063Y-73057564D01*
X171767435Y-72911936D01*
X171767432Y-72911934D01*
X171767430Y-72911932D01*
X171602799Y-72792321D01*
X171600806Y-72790873D01*
X171600805Y-72790872D01*
X171600803Y-72790871D01*
X171417290Y-72697366D01*
X171417287Y-72697365D01*
X171417285Y-72697364D01*
X171221412Y-72633721D01*
X171221410Y-72633720D01*
X171221408Y-72633720D01*
X171017981Y-72601500D01*
X170812019Y-72601500D01*
X170608592Y-72633720D01*
X170608590Y-72633720D01*
X170608587Y-72633721D01*
X170412714Y-72697364D01*
X170412708Y-72697367D01*
X170229193Y-72790873D01*
X170062567Y-72911934D01*
X170062564Y-72911936D01*
X169916936Y-73057564D01*
X169916934Y-73057567D01*
X169795873Y-73224193D01*
X169757267Y-73299962D01*
X169708518Y-73351577D01*
X169639603Y-73368643D01*
X169572402Y-73345742D01*
X169532733Y-73299962D01*
X169494129Y-73224197D01*
X169373068Y-73057570D01*
X169373065Y-73057567D01*
X169373063Y-73057564D01*
X169227435Y-72911936D01*
X169227432Y-72911934D01*
X169227430Y-72911932D01*
X169062799Y-72792321D01*
X169060806Y-72790873D01*
X169060805Y-72790872D01*
X169060803Y-72790871D01*
X168877290Y-72697366D01*
X168877287Y-72697365D01*
X168877285Y-72697364D01*
X168681412Y-72633721D01*
X168681410Y-72633720D01*
X168681408Y-72633720D01*
X168477981Y-72601500D01*
X168272019Y-72601500D01*
X168068592Y-72633720D01*
X168068590Y-72633720D01*
X168068587Y-72633721D01*
X167872714Y-72697364D01*
X167872708Y-72697367D01*
X167686351Y-72792321D01*
X167616574Y-72805425D01*
X167550789Y-72778725D01*
X167540053Y-72769149D01*
X166839343Y-72068439D01*
X166805317Y-72006127D01*
X166803230Y-71993449D01*
X166799893Y-71963833D01*
X166798217Y-71948953D01*
X166738043Y-71776985D01*
X166738041Y-71776982D01*
X166738041Y-71776981D01*
X166641112Y-71622720D01*
X166641111Y-71622718D01*
X166512281Y-71493888D01*
X166512279Y-71493887D01*
X166358018Y-71396958D01*
X166358015Y-71396957D01*
X166186050Y-71336784D01*
X166186049Y-71336783D01*
X166186047Y-71336783D01*
X166005000Y-71316384D01*
X165823953Y-71336783D01*
X165823950Y-71336783D01*
X165823949Y-71336784D01*
X165651984Y-71396957D01*
X165651981Y-71396958D01*
X165497720Y-71493887D01*
X165497718Y-71493888D01*
X165368888Y-71622718D01*
X165368887Y-71622720D01*
X165271958Y-71776981D01*
X165271957Y-71776984D01*
X165212329Y-71947394D01*
X165211783Y-71948953D01*
X165191384Y-72130000D01*
X165211783Y-72311047D01*
X165211783Y-72311049D01*
X165211784Y-72311050D01*
X165271957Y-72483015D01*
X165271958Y-72483018D01*
X165308185Y-72540673D01*
X165327491Y-72608995D01*
X165306795Y-72676908D01*
X165252668Y-72722851D01*
X165182295Y-72732237D01*
X165118018Y-72702087D01*
X165112403Y-72696804D01*
X164058530Y-71642931D01*
X164058528Y-71642929D01*
X163954770Y-71573600D01*
X163839480Y-71525845D01*
X163765781Y-71511185D01*
X163717091Y-71501500D01*
X163717089Y-71501500D01*
X161704594Y-71501500D01*
X161636473Y-71481498D01*
X161615499Y-71464595D01*
X161251979Y-71101075D01*
X161217953Y-71038763D01*
X161223018Y-70967948D01*
X161265565Y-70911112D01*
X161332085Y-70886301D01*
X161341074Y-70885980D01*
X181022221Y-70885980D01*
X181022225Y-70885980D01*
X181022226Y-70885980D01*
X181095496Y-70871405D01*
X181168767Y-70856831D01*
X181306804Y-70799654D01*
X181431035Y-70716646D01*
X184001407Y-68146272D01*
X184063717Y-68112249D01*
X184134532Y-68117313D01*
G37*
%TD.AperFunction*%
%TA.AperFunction,Conductor*%
G36*
X186864031Y-69412816D02*
G01*
X186909094Y-69441776D01*
X186941348Y-69474030D01*
X187092262Y-69567115D01*
X187260574Y-69622887D01*
X187293309Y-69626231D01*
X187359041Y-69653052D01*
X187399840Y-69711155D01*
X187406500Y-69751578D01*
X187406500Y-71065500D01*
X187386498Y-71133621D01*
X187332842Y-71180114D01*
X187280500Y-71191500D01*
X186836362Y-71191500D01*
X186836357Y-71191500D01*
X186836347Y-71191501D01*
X186767967Y-71198852D01*
X186698099Y-71186246D01*
X186646137Y-71137867D01*
X186628500Y-71073574D01*
X186628500Y-69587623D01*
X186648502Y-69519502D01*
X186688351Y-69480383D01*
X186698652Y-69474030D01*
X186730905Y-69441776D01*
X186793215Y-69407752D01*
X186864031Y-69412816D01*
G37*
%TD.AperFunction*%
%TA.AperFunction,Conductor*%
G36*
X106208959Y-58291185D02*
G01*
X106254195Y-58343389D01*
X106290618Y-58421500D01*
X106294210Y-58429202D01*
X106371297Y-58539293D01*
X106423026Y-58613169D01*
X106423029Y-58613173D01*
X106581826Y-58771970D01*
X106581830Y-58771973D01*
X106581831Y-58771974D01*
X106765798Y-58900790D01*
X106782609Y-58908629D01*
X106851610Y-58940805D01*
X106904895Y-58987722D01*
X106924356Y-59056000D01*
X106903814Y-59123960D01*
X106851611Y-59169194D01*
X106765800Y-59209208D01*
X106581834Y-59338023D01*
X106581828Y-59338028D01*
X106423028Y-59496828D01*
X106423023Y-59496834D01*
X106294210Y-59680798D01*
X106254195Y-59766611D01*
X106207278Y-59819896D01*
X106139000Y-59839357D01*
X106071040Y-59818815D01*
X106025805Y-59766611D01*
X105989381Y-59688500D01*
X105985790Y-59680799D01*
X105856974Y-59496831D01*
X105698169Y-59338026D01*
X105514202Y-59209210D01*
X105514193Y-59209206D01*
X105428389Y-59169195D01*
X105375104Y-59122278D01*
X105355643Y-59054001D01*
X105376185Y-58986041D01*
X105428389Y-58940805D01*
X105514202Y-58900790D01*
X105698169Y-58771974D01*
X105856974Y-58613169D01*
X105985790Y-58429202D01*
X106025805Y-58343388D01*
X106072722Y-58290104D01*
X106140999Y-58270643D01*
X106208959Y-58291185D01*
G37*
%TD.AperFunction*%
%TA.AperFunction,Conductor*%
G36*
X108748959Y-58291185D02*
G01*
X108794195Y-58343389D01*
X108830618Y-58421500D01*
X108834210Y-58429202D01*
X108911297Y-58539293D01*
X108963026Y-58613169D01*
X108963029Y-58613173D01*
X109121826Y-58771970D01*
X109121830Y-58771973D01*
X109121831Y-58771974D01*
X109305798Y-58900790D01*
X109322609Y-58908629D01*
X109391610Y-58940805D01*
X109444895Y-58987722D01*
X109464356Y-59056000D01*
X109443814Y-59123960D01*
X109391611Y-59169194D01*
X109305800Y-59209208D01*
X109121834Y-59338023D01*
X109121828Y-59338028D01*
X108963028Y-59496828D01*
X108963023Y-59496834D01*
X108834210Y-59680798D01*
X108794195Y-59766611D01*
X108747278Y-59819896D01*
X108679000Y-59839357D01*
X108611040Y-59818815D01*
X108565805Y-59766611D01*
X108529381Y-59688500D01*
X108525790Y-59680799D01*
X108396974Y-59496831D01*
X108238169Y-59338026D01*
X108054202Y-59209210D01*
X108054193Y-59209206D01*
X107968389Y-59169195D01*
X107915104Y-59122278D01*
X107895643Y-59054001D01*
X107916185Y-58986041D01*
X107968389Y-58940805D01*
X108054202Y-58900790D01*
X108238169Y-58771974D01*
X108396974Y-58613169D01*
X108525790Y-58429202D01*
X108565805Y-58343388D01*
X108612722Y-58290104D01*
X108680999Y-58270643D01*
X108748959Y-58291185D01*
G37*
%TD.AperFunction*%
%TA.AperFunction,Conductor*%
G36*
X111288959Y-58291185D02*
G01*
X111334195Y-58343389D01*
X111370618Y-58421500D01*
X111374210Y-58429202D01*
X111451297Y-58539293D01*
X111503026Y-58613169D01*
X111503029Y-58613173D01*
X111661826Y-58771970D01*
X111661830Y-58771973D01*
X111661831Y-58771974D01*
X111845798Y-58900790D01*
X111862609Y-58908629D01*
X111931610Y-58940805D01*
X111984895Y-58987722D01*
X112004356Y-59056000D01*
X111983814Y-59123960D01*
X111931611Y-59169194D01*
X111845800Y-59209208D01*
X111661834Y-59338023D01*
X111661828Y-59338028D01*
X111503028Y-59496828D01*
X111503023Y-59496834D01*
X111374210Y-59680798D01*
X111334195Y-59766611D01*
X111287278Y-59819896D01*
X111219000Y-59839357D01*
X111151040Y-59818815D01*
X111105805Y-59766611D01*
X111069381Y-59688500D01*
X111065790Y-59680799D01*
X110936974Y-59496831D01*
X110778169Y-59338026D01*
X110594202Y-59209210D01*
X110594193Y-59209206D01*
X110508389Y-59169195D01*
X110455104Y-59122278D01*
X110435643Y-59054001D01*
X110456185Y-58986041D01*
X110508389Y-58940805D01*
X110594202Y-58900790D01*
X110778169Y-58771974D01*
X110936974Y-58613169D01*
X111065790Y-58429202D01*
X111105805Y-58343388D01*
X111152722Y-58290104D01*
X111220999Y-58270643D01*
X111288959Y-58291185D01*
G37*
%TD.AperFunction*%
%TA.AperFunction,Conductor*%
G36*
X116368959Y-58291185D02*
G01*
X116414195Y-58343389D01*
X116450618Y-58421500D01*
X116454210Y-58429202D01*
X116531297Y-58539293D01*
X116583026Y-58613169D01*
X116583029Y-58613173D01*
X116741826Y-58771970D01*
X116741830Y-58771973D01*
X116741831Y-58771974D01*
X116925798Y-58900790D01*
X116942609Y-58908629D01*
X117011610Y-58940805D01*
X117064895Y-58987722D01*
X117084356Y-59056000D01*
X117063814Y-59123960D01*
X117011611Y-59169194D01*
X116925800Y-59209208D01*
X116741834Y-59338023D01*
X116741828Y-59338028D01*
X116583028Y-59496828D01*
X116583023Y-59496834D01*
X116454210Y-59680798D01*
X116414195Y-59766611D01*
X116367278Y-59819896D01*
X116299000Y-59839357D01*
X116231040Y-59818815D01*
X116185805Y-59766611D01*
X116149381Y-59688500D01*
X116145790Y-59680799D01*
X116016974Y-59496831D01*
X115858169Y-59338026D01*
X115674202Y-59209210D01*
X115674193Y-59209206D01*
X115588389Y-59169195D01*
X115535104Y-59122278D01*
X115515643Y-59054001D01*
X115536185Y-58986041D01*
X115588389Y-58940805D01*
X115674202Y-58900790D01*
X115858169Y-58771974D01*
X116016974Y-58613169D01*
X116145790Y-58429202D01*
X116185805Y-58343388D01*
X116232722Y-58290104D01*
X116300999Y-58270643D01*
X116368959Y-58291185D01*
G37*
%TD.AperFunction*%
%TA.AperFunction,Conductor*%
G36*
X118908959Y-58291185D02*
G01*
X118954195Y-58343389D01*
X118990618Y-58421500D01*
X118994210Y-58429202D01*
X119071297Y-58539293D01*
X119123026Y-58613169D01*
X119123029Y-58613173D01*
X119281826Y-58771970D01*
X119281830Y-58771973D01*
X119281831Y-58771974D01*
X119465798Y-58900790D01*
X119482609Y-58908629D01*
X119551610Y-58940805D01*
X119604895Y-58987722D01*
X119624356Y-59056000D01*
X119603814Y-59123960D01*
X119551611Y-59169194D01*
X119465800Y-59209208D01*
X119281834Y-59338023D01*
X119281828Y-59338028D01*
X119123028Y-59496828D01*
X119123023Y-59496834D01*
X118994210Y-59680798D01*
X118954195Y-59766611D01*
X118907278Y-59819896D01*
X118839000Y-59839357D01*
X118771040Y-59818815D01*
X118725805Y-59766611D01*
X118689381Y-59688500D01*
X118685790Y-59680799D01*
X118556974Y-59496831D01*
X118398169Y-59338026D01*
X118214202Y-59209210D01*
X118214193Y-59209206D01*
X118128389Y-59169195D01*
X118075104Y-59122278D01*
X118055643Y-59054001D01*
X118076185Y-58986041D01*
X118128389Y-58940805D01*
X118214202Y-58900790D01*
X118398169Y-58771974D01*
X118556974Y-58613169D01*
X118685790Y-58429202D01*
X118725805Y-58343388D01*
X118772722Y-58290104D01*
X118840999Y-58270643D01*
X118908959Y-58291185D01*
G37*
%TD.AperFunction*%
%TA.AperFunction,Conductor*%
G36*
X121448959Y-58291185D02*
G01*
X121494195Y-58343389D01*
X121530618Y-58421500D01*
X121534210Y-58429202D01*
X121611297Y-58539293D01*
X121663026Y-58613169D01*
X121663029Y-58613173D01*
X121821826Y-58771970D01*
X121821830Y-58771973D01*
X121821831Y-58771974D01*
X122005798Y-58900790D01*
X122022609Y-58908629D01*
X122091610Y-58940805D01*
X122144895Y-58987722D01*
X122164356Y-59056000D01*
X122143814Y-59123960D01*
X122091611Y-59169194D01*
X122005800Y-59209208D01*
X121821834Y-59338023D01*
X121821828Y-59338028D01*
X121663028Y-59496828D01*
X121663023Y-59496834D01*
X121534210Y-59680798D01*
X121494195Y-59766611D01*
X121447278Y-59819896D01*
X121379000Y-59839357D01*
X121311040Y-59818815D01*
X121265805Y-59766611D01*
X121229381Y-59688500D01*
X121225790Y-59680799D01*
X121096974Y-59496831D01*
X120938169Y-59338026D01*
X120754202Y-59209210D01*
X120754193Y-59209206D01*
X120668389Y-59169195D01*
X120615104Y-59122278D01*
X120595643Y-59054001D01*
X120616185Y-58986041D01*
X120668389Y-58940805D01*
X120754202Y-58900790D01*
X120938169Y-58771974D01*
X121096974Y-58613169D01*
X121225790Y-58429202D01*
X121265805Y-58343388D01*
X121312722Y-58290104D01*
X121380999Y-58270643D01*
X121448959Y-58291185D01*
G37*
%TD.AperFunction*%
%TA.AperFunction,Conductor*%
G36*
X123988959Y-58291185D02*
G01*
X124034195Y-58343389D01*
X124070618Y-58421500D01*
X124074210Y-58429202D01*
X124151297Y-58539293D01*
X124203026Y-58613169D01*
X124203029Y-58613173D01*
X124361826Y-58771970D01*
X124361830Y-58771973D01*
X124361831Y-58771974D01*
X124545798Y-58900790D01*
X124562609Y-58908629D01*
X124631610Y-58940805D01*
X124684895Y-58987722D01*
X124704356Y-59056000D01*
X124683814Y-59123960D01*
X124631611Y-59169194D01*
X124545800Y-59209208D01*
X124361834Y-59338023D01*
X124361828Y-59338028D01*
X124203028Y-59496828D01*
X124203023Y-59496834D01*
X124074210Y-59680798D01*
X124034195Y-59766611D01*
X123987278Y-59819896D01*
X123919000Y-59839357D01*
X123851040Y-59818815D01*
X123805805Y-59766611D01*
X123769381Y-59688500D01*
X123765790Y-59680799D01*
X123636974Y-59496831D01*
X123478169Y-59338026D01*
X123294202Y-59209210D01*
X123294193Y-59209206D01*
X123208389Y-59169195D01*
X123155104Y-59122278D01*
X123135643Y-59054001D01*
X123156185Y-58986041D01*
X123208389Y-58940805D01*
X123294202Y-58900790D01*
X123478169Y-58771974D01*
X123636974Y-58613169D01*
X123765790Y-58429202D01*
X123805805Y-58343388D01*
X123852722Y-58290104D01*
X123920999Y-58270643D01*
X123988959Y-58291185D01*
G37*
%TD.AperFunction*%
%TA.AperFunction,Conductor*%
G36*
X126528959Y-58291185D02*
G01*
X126574195Y-58343389D01*
X126610618Y-58421500D01*
X126614210Y-58429202D01*
X126691297Y-58539293D01*
X126743026Y-58613169D01*
X126743029Y-58613173D01*
X126901826Y-58771970D01*
X126901830Y-58771973D01*
X126901831Y-58771974D01*
X127085798Y-58900790D01*
X127102609Y-58908629D01*
X127171610Y-58940805D01*
X127224895Y-58987722D01*
X127244356Y-59056000D01*
X127223814Y-59123960D01*
X127171611Y-59169194D01*
X127085800Y-59209208D01*
X126901834Y-59338023D01*
X126901828Y-59338028D01*
X126743028Y-59496828D01*
X126743023Y-59496834D01*
X126614210Y-59680798D01*
X126574195Y-59766611D01*
X126527278Y-59819896D01*
X126459000Y-59839357D01*
X126391040Y-59818815D01*
X126345805Y-59766611D01*
X126309381Y-59688500D01*
X126305790Y-59680799D01*
X126176974Y-59496831D01*
X126018169Y-59338026D01*
X125834202Y-59209210D01*
X125834193Y-59209206D01*
X125748389Y-59169195D01*
X125695104Y-59122278D01*
X125675643Y-59054001D01*
X125696185Y-58986041D01*
X125748389Y-58940805D01*
X125834202Y-58900790D01*
X126018169Y-58771974D01*
X126176974Y-58613169D01*
X126305790Y-58429202D01*
X126345805Y-58343388D01*
X126392722Y-58290104D01*
X126460999Y-58270643D01*
X126528959Y-58291185D01*
G37*
%TD.AperFunction*%
%TA.AperFunction,Conductor*%
G36*
X151623527Y-54928502D02*
G01*
X151644500Y-54945404D01*
X152999343Y-56300247D01*
X153033368Y-56362558D01*
X153028303Y-56433373D01*
X152985756Y-56490209D01*
X152921234Y-56514861D01*
X152906274Y-56516170D01*
X152906269Y-56516171D01*
X152689342Y-56574296D01*
X152689337Y-56574298D01*
X152485798Y-56669210D01*
X152301834Y-56798023D01*
X152301828Y-56798028D01*
X152143028Y-56956828D01*
X152143023Y-56956834D01*
X152014210Y-57140798D01*
X151974195Y-57226611D01*
X151927278Y-57279896D01*
X151859000Y-57299357D01*
X151791040Y-57278815D01*
X151745805Y-57226611D01*
X151737821Y-57209490D01*
X151705790Y-57140799D01*
X151576974Y-56956831D01*
X151418169Y-56798026D01*
X151401928Y-56786654D01*
X151333269Y-56738578D01*
X151234202Y-56669210D01*
X151217389Y-56661370D01*
X151030663Y-56574298D01*
X151030657Y-56574296D01*
X150813732Y-56516171D01*
X150590000Y-56496597D01*
X150366267Y-56516171D01*
X150149342Y-56574296D01*
X150149337Y-56574298D01*
X149945798Y-56669210D01*
X149761834Y-56798023D01*
X149761828Y-56798028D01*
X149603028Y-56956828D01*
X149603023Y-56956834D01*
X149474210Y-57140798D01*
X149434195Y-57226611D01*
X149387278Y-57279896D01*
X149319000Y-57299357D01*
X149251040Y-57278815D01*
X149205805Y-57226611D01*
X149197821Y-57209490D01*
X149165790Y-57140799D01*
X149036974Y-56956831D01*
X148878169Y-56798026D01*
X148861928Y-56786654D01*
X148793269Y-56738578D01*
X148694202Y-56669210D01*
X148677389Y-56661370D01*
X148490663Y-56574298D01*
X148490657Y-56574296D01*
X148273732Y-56516171D01*
X148050000Y-56496597D01*
X147826271Y-56516171D01*
X147826268Y-56516171D01*
X147826265Y-56516172D01*
X147826262Y-56516172D01*
X147751263Y-56536267D01*
X147680286Y-56534576D01*
X147629559Y-56503655D01*
X147058835Y-55932931D01*
X147058833Y-55932929D01*
X146955075Y-55863600D01*
X146839785Y-55815845D01*
X146766086Y-55801185D01*
X146717396Y-55791500D01*
X146717394Y-55791500D01*
X134867394Y-55791500D01*
X134742606Y-55791500D01*
X134742603Y-55791500D01*
X134669568Y-55806028D01*
X134620215Y-55815845D01*
X134620213Y-55815845D01*
X134620212Y-55815846D01*
X134504923Y-55863601D01*
X134401171Y-55932926D01*
X134401164Y-55932931D01*
X134036351Y-56297745D01*
X133676167Y-56657929D01*
X133652879Y-56681217D01*
X133652877Y-56681219D01*
X133590564Y-56715243D01*
X133519748Y-56710177D01*
X133491512Y-56695335D01*
X133471352Y-56681219D01*
X133454202Y-56669210D01*
X133430010Y-56657929D01*
X133250663Y-56574298D01*
X133250658Y-56574296D01*
X133164478Y-56551204D01*
X133076786Y-56527708D01*
X133016165Y-56490758D01*
X132985144Y-56426897D01*
X132984191Y-56420109D01*
X132983615Y-56415002D01*
X132983616Y-56415000D01*
X132963217Y-56233953D01*
X132903043Y-56061985D01*
X132903041Y-56061982D01*
X132903041Y-56061981D01*
X132806112Y-55907720D01*
X132806111Y-55907718D01*
X132677281Y-55778888D01*
X132677279Y-55778887D01*
X132523018Y-55681958D01*
X132523015Y-55681957D01*
X132351050Y-55621784D01*
X132351049Y-55621783D01*
X132351047Y-55621783D01*
X132170000Y-55601384D01*
X131988953Y-55621783D01*
X131988950Y-55621783D01*
X131988949Y-55621784D01*
X131816983Y-55681957D01*
X131813773Y-55683503D01*
X131811496Y-55683877D01*
X131810306Y-55684294D01*
X131810233Y-55684085D01*
X131743718Y-55695028D01*
X131678553Y-55666850D01*
X131638967Y-55607913D01*
X131637528Y-55536931D01*
X131670020Y-55480883D01*
X132205501Y-54945402D01*
X132267811Y-54911379D01*
X132294594Y-54908500D01*
X151555406Y-54908500D01*
X151623527Y-54928502D01*
G37*
%TD.AperFunction*%
%TD*%
M02*
