%TF.GenerationSoftware,KiCad,Pcbnew,8.0.6-8.0.6-0~ubuntu24.04.1*%
%TF.CreationDate,2024-11-30T23:26:36+01:00*%
%TF.ProjectId,qlexternal512kram_MIX,716c6578-7465-4726-9e61-6c3531326b72,3*%
%TF.SameCoordinates,Original*%
%TF.FileFunction,Soldermask,Bot*%
%TF.FilePolarity,Negative*%
%FSLAX46Y46*%
G04 Gerber Fmt 4.6, Leading zero omitted, Abs format (unit mm)*
G04 Created by KiCad (PCBNEW 8.0.6-8.0.6-0~ubuntu24.04.1) date 2024-11-30 23:26:36*
%MOMM*%
%LPD*%
G01*
G04 APERTURE LIST*
G04 Aperture macros list*
%AMRoundRect*
0 Rectangle with rounded corners*
0 $1 Rounding radius*
0 $2 $3 $4 $5 $6 $7 $8 $9 X,Y pos of 4 corners*
0 Add a 4 corners polygon primitive as box body*
4,1,4,$2,$3,$4,$5,$6,$7,$8,$9,$2,$3,0*
0 Add four circle primitives for the rounded corners*
1,1,$1+$1,$2,$3*
1,1,$1+$1,$4,$5*
1,1,$1+$1,$6,$7*
1,1,$1+$1,$8,$9*
0 Add four rect primitives between the rounded corners*
20,1,$1+$1,$2,$3,$4,$5,0*
20,1,$1+$1,$4,$5,$6,$7,0*
20,1,$1+$1,$6,$7,$8,$9,0*
20,1,$1+$1,$8,$9,$2,$3,0*%
G04 Aperture macros list end*
%ADD10C,0.900000*%
%ADD11C,2.850000*%
%ADD12RoundRect,0.249999X0.525001X0.525001X-0.525001X0.525001X-0.525001X-0.525001X0.525001X-0.525001X0*%
%ADD13C,1.550000*%
%ADD14RoundRect,0.249999X-0.525001X-0.525001X0.525001X-0.525001X0.525001X0.525001X-0.525001X0.525001X0*%
%ADD15R,1.600000X2.400000*%
%ADD16O,1.600000X2.400000*%
G04 APERTURE END LIST*
D10*
%TO.C,SW2*%
X110040000Y-66135000D03*
X113040000Y-66135000D03*
%TD*%
D11*
%TO.C,J1*%
X97250000Y-55245000D03*
X186150000Y-55245000D03*
D12*
X181070000Y-57785000D03*
D13*
X178530000Y-57785000D03*
X175990000Y-57785000D03*
X173450000Y-57785000D03*
X170910000Y-57785000D03*
X168370000Y-57785000D03*
X165830000Y-57785000D03*
X163290000Y-57785000D03*
X160750000Y-57785000D03*
X158210000Y-57785000D03*
X155670000Y-57785000D03*
X153130000Y-57785000D03*
X150590000Y-57785000D03*
X148050000Y-57785000D03*
X145510000Y-57785000D03*
X142970000Y-57785000D03*
X140430000Y-57785000D03*
X137890000Y-57785000D03*
X135350000Y-57785000D03*
X132810000Y-57785000D03*
X130270000Y-57785000D03*
X127730000Y-57785000D03*
X125190000Y-57785000D03*
X122650000Y-57785000D03*
X120110000Y-57785000D03*
X117570000Y-57785000D03*
X115030000Y-57785000D03*
X112490000Y-57785000D03*
X109950000Y-57785000D03*
X107410000Y-57785000D03*
X104870000Y-57785000D03*
X102330000Y-57785000D03*
X181070000Y-60325000D03*
X178530000Y-60325000D03*
X175990000Y-60325000D03*
X173450000Y-60325000D03*
X170910000Y-60325000D03*
X168370000Y-60325000D03*
X165830000Y-60325000D03*
X163290000Y-60325000D03*
X160750000Y-60325000D03*
X158210000Y-60325000D03*
X155670000Y-60325000D03*
X153130000Y-60325000D03*
X150590000Y-60325000D03*
X148050000Y-60325000D03*
X145510000Y-60325000D03*
X142970000Y-60325000D03*
X140430000Y-60325000D03*
X137890000Y-60325000D03*
X135350000Y-60325000D03*
X132810000Y-60325000D03*
X130270000Y-60325000D03*
X127730000Y-60325000D03*
X125190000Y-60325000D03*
X122650000Y-60325000D03*
X120110000Y-60325000D03*
X117570000Y-60325000D03*
X115030000Y-60325000D03*
X112490000Y-60325000D03*
X109950000Y-60325000D03*
X107410000Y-60325000D03*
X104870000Y-60325000D03*
X102330000Y-60325000D03*
%TD*%
D11*
%TO.C,J2*%
X186100000Y-90720000D03*
X97200000Y-90720000D03*
D14*
X181010000Y-88180000D03*
D13*
X178470000Y-88180000D03*
X175930000Y-88180000D03*
X173390000Y-88180000D03*
X170850000Y-88180000D03*
X168310000Y-88180000D03*
X165770000Y-88180000D03*
X163230000Y-88180000D03*
X160690000Y-88180000D03*
X158150000Y-88180000D03*
X155610000Y-88180000D03*
X153070000Y-88180000D03*
X150530000Y-88180000D03*
X147990000Y-88180000D03*
X145450000Y-88180000D03*
X142910000Y-88180000D03*
X140370000Y-88180000D03*
X137830000Y-88180000D03*
X135290000Y-88180000D03*
X132750000Y-88180000D03*
X130210000Y-88180000D03*
X127670000Y-88180000D03*
X125130000Y-88180000D03*
X122590000Y-88180000D03*
X120050000Y-88180000D03*
X117510000Y-88180000D03*
X114970000Y-88180000D03*
X112430000Y-88180000D03*
X109890000Y-88180000D03*
X107350000Y-88180000D03*
X104810000Y-88180000D03*
X102270000Y-88180000D03*
X181010000Y-85640000D03*
X178470000Y-85640000D03*
X175930000Y-85640000D03*
X173390000Y-85640000D03*
X170850000Y-85640000D03*
X168310000Y-85640000D03*
X165770000Y-85640000D03*
X163230000Y-85640000D03*
X160690000Y-85640000D03*
X158150000Y-85640000D03*
X155610000Y-85640000D03*
X153070000Y-85640000D03*
X150530000Y-85640000D03*
X147990000Y-85640000D03*
X145450000Y-85640000D03*
X142910000Y-85640000D03*
X140370000Y-85640000D03*
X137830000Y-85640000D03*
X135290000Y-85640000D03*
X132750000Y-85640000D03*
X130210000Y-85640000D03*
X127670000Y-85640000D03*
X125130000Y-85640000D03*
X122590000Y-85640000D03*
X120050000Y-85640000D03*
X117510000Y-85640000D03*
X114970000Y-85640000D03*
X112430000Y-85640000D03*
X109890000Y-85640000D03*
X107350000Y-85640000D03*
X104810000Y-85640000D03*
X102270000Y-85640000D03*
%TD*%
D15*
%TO.C,U2*%
X158215000Y-74310000D03*
D16*
X160755000Y-74310000D03*
X163295000Y-74310000D03*
X165835000Y-74310000D03*
X168375000Y-74310000D03*
X170915000Y-74310000D03*
X173455000Y-74310000D03*
X175995000Y-74310000D03*
X178535000Y-74310000D03*
X181075000Y-74310000D03*
X181075000Y-66690000D03*
X178535000Y-66690000D03*
X175995000Y-66690000D03*
X173455000Y-66690000D03*
X170915000Y-66690000D03*
X168375000Y-66690000D03*
X165835000Y-66690000D03*
X163295000Y-66690000D03*
X160755000Y-66690000D03*
X158215000Y-66690000D03*
%TD*%
M02*
